G04 EAGLE Gerber RS-274X export*
G75*
%MOMM*%
%FSLAX34Y34*%
%LPD*%
%INTop Copper*%
%IPPOS*%
%AMOC8*
5,1,8,0,0,1.08239X$1,22.5*%
G01*
%ADD10C,1.143000*%
%ADD11R,1.320800X1.320800*%
%ADD12C,1.320800*%
%ADD13C,1.930400*%
%ADD14C,1.803400*%
%ADD15C,1.524000*%
%ADD16P,1.649562X8X202.500000*%
%ADD17C,1.200150*%
%ADD18C,1.790700*%
%ADD19C,2.247900*%
%ADD20C,1.500000*%
%ADD21C,0.203200*%
%ADD22C,1.016000*%
%ADD23C,0.508000*%
%ADD24C,0.508000*%
%ADD25C,0.762000*%

G36*
X377718Y2544D02*
X377718Y2544D01*
X377737Y2542D01*
X377839Y2564D01*
X377941Y2580D01*
X377958Y2590D01*
X377978Y2594D01*
X378067Y2647D01*
X378158Y2696D01*
X378172Y2710D01*
X378189Y2720D01*
X378256Y2799D01*
X378328Y2874D01*
X378336Y2892D01*
X378349Y2907D01*
X378388Y3003D01*
X378431Y3097D01*
X378433Y3117D01*
X378441Y3135D01*
X378459Y3302D01*
X378459Y771398D01*
X378456Y771418D01*
X378458Y771437D01*
X378436Y771539D01*
X378420Y771641D01*
X378410Y771658D01*
X378406Y771678D01*
X378353Y771767D01*
X378304Y771858D01*
X378290Y771872D01*
X378280Y771889D01*
X378201Y771956D01*
X378126Y772028D01*
X378108Y772036D01*
X378093Y772049D01*
X377997Y772088D01*
X377903Y772131D01*
X377883Y772133D01*
X377865Y772141D01*
X377698Y772159D01*
X25996Y772159D01*
X25925Y772148D01*
X25854Y772146D01*
X25805Y772128D01*
X25753Y772120D01*
X25690Y772086D01*
X25623Y772061D01*
X25582Y772029D01*
X25536Y772004D01*
X25487Y771952D01*
X25431Y771908D01*
X25402Y771864D01*
X25367Y771826D01*
X25336Y771761D01*
X25298Y771701D01*
X25285Y771650D01*
X25263Y771603D01*
X25255Y771532D01*
X25237Y771462D01*
X25242Y771410D01*
X25236Y771359D01*
X25251Y771288D01*
X25257Y771217D01*
X25277Y771169D01*
X25288Y771118D01*
X25325Y771057D01*
X25353Y770991D01*
X25398Y770935D01*
X25414Y770907D01*
X25432Y770892D01*
X25458Y770860D01*
X28202Y768115D01*
X29846Y764147D01*
X29846Y759853D01*
X28173Y755814D01*
X28146Y755700D01*
X28118Y755587D01*
X28118Y755580D01*
X28117Y755574D01*
X28128Y755458D01*
X28137Y755342D01*
X28139Y755336D01*
X28140Y755329D01*
X28188Y755222D01*
X28233Y755115D01*
X28238Y755109D01*
X28240Y755105D01*
X28252Y755091D01*
X28338Y754984D01*
X52794Y730529D01*
X53722Y728288D01*
X53722Y703913D01*
X53736Y703823D01*
X53744Y703732D01*
X53756Y703702D01*
X53761Y703670D01*
X53804Y703590D01*
X53840Y703506D01*
X53866Y703474D01*
X53877Y703453D01*
X53900Y703431D01*
X53945Y703375D01*
X56239Y701081D01*
X57786Y697346D01*
X57786Y693304D01*
X56239Y689569D01*
X53381Y686711D01*
X49646Y685164D01*
X45604Y685164D01*
X41869Y686711D01*
X39011Y689569D01*
X37464Y693304D01*
X37464Y697346D01*
X39011Y701081D01*
X41305Y703375D01*
X41358Y703449D01*
X41418Y703518D01*
X41430Y703548D01*
X41449Y703575D01*
X41476Y703661D01*
X41510Y703746D01*
X41514Y703787D01*
X41521Y703810D01*
X41520Y703842D01*
X41528Y703913D01*
X41528Y724234D01*
X41527Y724242D01*
X41527Y724245D01*
X41524Y724259D01*
X41514Y724324D01*
X41506Y724415D01*
X41494Y724445D01*
X41489Y724477D01*
X41446Y724558D01*
X41410Y724642D01*
X41384Y724674D01*
X41373Y724694D01*
X41350Y724717D01*
X41305Y724773D01*
X15704Y750374D01*
X15703Y750374D01*
X13881Y752196D01*
X13873Y752218D01*
X13825Y752295D01*
X13783Y752377D01*
X13760Y752400D01*
X13743Y752427D01*
X13673Y752485D01*
X13608Y752549D01*
X13571Y752569D01*
X13554Y752584D01*
X13524Y752595D01*
X13461Y752630D01*
X12935Y752848D01*
X9898Y755885D01*
X8254Y759853D01*
X8254Y764147D01*
X9898Y768115D01*
X12642Y770860D01*
X12684Y770918D01*
X12733Y770970D01*
X12755Y771017D01*
X12786Y771059D01*
X12807Y771128D01*
X12837Y771193D01*
X12843Y771245D01*
X12858Y771295D01*
X12856Y771366D01*
X12864Y771437D01*
X12853Y771488D01*
X12852Y771540D01*
X12827Y771608D01*
X12812Y771678D01*
X12785Y771723D01*
X12767Y771771D01*
X12722Y771827D01*
X12686Y771889D01*
X12646Y771923D01*
X12614Y771963D01*
X12553Y772002D01*
X12499Y772049D01*
X12451Y772068D01*
X12407Y772096D01*
X12337Y772114D01*
X12271Y772141D01*
X12199Y772149D01*
X12168Y772157D01*
X12145Y772155D01*
X12104Y772159D01*
X3302Y772159D01*
X3282Y772156D01*
X3263Y772158D01*
X3161Y772136D01*
X3059Y772120D01*
X3042Y772110D01*
X3022Y772106D01*
X2933Y772053D01*
X2842Y772004D01*
X2828Y771990D01*
X2811Y771980D01*
X2744Y771901D01*
X2672Y771826D01*
X2664Y771808D01*
X2651Y771793D01*
X2612Y771697D01*
X2569Y771603D01*
X2567Y771583D01*
X2559Y771565D01*
X2541Y771398D01*
X2541Y495601D01*
X2552Y495530D01*
X2554Y495458D01*
X2572Y495409D01*
X2580Y495358D01*
X2614Y495295D01*
X2639Y495227D01*
X2671Y495187D01*
X2696Y495140D01*
X2748Y495091D01*
X2792Y495035D01*
X2836Y495007D01*
X2874Y494971D01*
X2939Y494941D01*
X2999Y494902D01*
X3050Y494889D01*
X3097Y494867D01*
X3168Y494860D01*
X3238Y494842D01*
X3290Y494846D01*
X3341Y494840D01*
X3412Y494856D01*
X3483Y494861D01*
X3531Y494882D01*
X3582Y494893D01*
X3643Y494929D01*
X3709Y494958D01*
X3765Y495002D01*
X3793Y495019D01*
X3808Y495037D01*
X3840Y495062D01*
X12730Y503952D01*
X12783Y504026D01*
X12843Y504096D01*
X12855Y504126D01*
X12874Y504152D01*
X12901Y504239D01*
X12935Y504324D01*
X12939Y504365D01*
X12946Y504387D01*
X12945Y504419D01*
X12953Y504491D01*
X12953Y549314D01*
X12939Y549404D01*
X12931Y549495D01*
X12919Y549525D01*
X12914Y549557D01*
X12871Y549637D01*
X12835Y549721D01*
X12809Y549753D01*
X12798Y549774D01*
X12775Y549796D01*
X12730Y549852D01*
X9898Y552685D01*
X8254Y556653D01*
X8254Y560947D01*
X9898Y564915D01*
X12935Y567952D01*
X16903Y569596D01*
X21197Y569596D01*
X25165Y567952D01*
X28202Y564915D01*
X29846Y560947D01*
X29846Y556653D01*
X28202Y552685D01*
X25370Y549852D01*
X25317Y549778D01*
X25257Y549709D01*
X25245Y549679D01*
X25226Y549652D01*
X25199Y549566D01*
X25165Y549481D01*
X25161Y549440D01*
X25154Y549417D01*
X25155Y549385D01*
X25147Y549314D01*
X25147Y500437D01*
X24219Y498196D01*
X17750Y491728D01*
X17697Y491654D01*
X17637Y491584D01*
X17625Y491554D01*
X17606Y491528D01*
X17579Y491441D01*
X17545Y491356D01*
X17541Y491315D01*
X17534Y491293D01*
X17535Y491261D01*
X17527Y491189D01*
X17527Y483362D01*
X17530Y483342D01*
X17528Y483323D01*
X17550Y483221D01*
X17567Y483119D01*
X17576Y483102D01*
X17580Y483082D01*
X17633Y482993D01*
X17682Y482902D01*
X17696Y482888D01*
X17706Y482871D01*
X17785Y482804D01*
X17860Y482733D01*
X17878Y482724D01*
X17893Y482711D01*
X17989Y482673D01*
X18083Y482629D01*
X18103Y482627D01*
X18121Y482619D01*
X18288Y482601D01*
X19051Y482601D01*
X19051Y482599D01*
X18288Y482599D01*
X18268Y482596D01*
X18249Y482598D01*
X18147Y482576D01*
X18045Y482559D01*
X18028Y482550D01*
X18008Y482546D01*
X17919Y482493D01*
X17828Y482444D01*
X17814Y482430D01*
X17797Y482420D01*
X17730Y482341D01*
X17659Y482266D01*
X17650Y482248D01*
X17637Y482233D01*
X17598Y482137D01*
X17555Y482043D01*
X17553Y482023D01*
X17545Y482005D01*
X17527Y481838D01*
X17527Y474486D01*
X16642Y474662D01*
X15139Y475284D01*
X13787Y476187D01*
X13746Y476228D01*
X13688Y476270D01*
X13636Y476320D01*
X13589Y476342D01*
X13547Y476372D01*
X13478Y476393D01*
X13413Y476423D01*
X13361Y476429D01*
X13312Y476444D01*
X13240Y476442D01*
X13169Y476450D01*
X13118Y476439D01*
X13066Y476438D01*
X12998Y476413D01*
X12928Y476398D01*
X12883Y476371D01*
X12835Y476354D01*
X12779Y476309D01*
X12717Y476272D01*
X12683Y476232D01*
X12643Y476200D01*
X12604Y476140D01*
X12557Y476085D01*
X12538Y476037D01*
X12510Y475993D01*
X12492Y475923D01*
X12465Y475857D01*
X12457Y475786D01*
X12449Y475754D01*
X12451Y475731D01*
X12447Y475690D01*
X12447Y464110D01*
X12458Y464039D01*
X12460Y463967D01*
X12478Y463918D01*
X12486Y463867D01*
X12520Y463804D01*
X12545Y463736D01*
X12577Y463696D01*
X12602Y463650D01*
X12653Y463600D01*
X12698Y463544D01*
X12742Y463516D01*
X12780Y463480D01*
X12845Y463450D01*
X12905Y463411D01*
X12956Y463399D01*
X13003Y463377D01*
X13074Y463369D01*
X13144Y463351D01*
X13196Y463355D01*
X13247Y463350D01*
X13318Y463365D01*
X13389Y463371D01*
X13437Y463391D01*
X13488Y463402D01*
X13549Y463439D01*
X13615Y463467D01*
X13671Y463512D01*
X13699Y463528D01*
X13714Y463546D01*
X13746Y463572D01*
X13787Y463613D01*
X15139Y464516D01*
X16642Y465138D01*
X17527Y465314D01*
X17527Y457962D01*
X17530Y457942D01*
X17528Y457923D01*
X17550Y457821D01*
X17567Y457719D01*
X17576Y457702D01*
X17580Y457682D01*
X17633Y457593D01*
X17682Y457502D01*
X17696Y457488D01*
X17706Y457471D01*
X17785Y457404D01*
X17860Y457333D01*
X17878Y457324D01*
X17893Y457311D01*
X17989Y457272D01*
X18083Y457229D01*
X18103Y457227D01*
X18121Y457219D01*
X18288Y457201D01*
X19051Y457201D01*
X19051Y457199D01*
X18288Y457199D01*
X18268Y457196D01*
X18249Y457198D01*
X18147Y457176D01*
X18045Y457159D01*
X18028Y457150D01*
X18008Y457146D01*
X17919Y457093D01*
X17828Y457044D01*
X17814Y457030D01*
X17797Y457020D01*
X17730Y456941D01*
X17659Y456866D01*
X17650Y456848D01*
X17637Y456833D01*
X17598Y456737D01*
X17555Y456643D01*
X17553Y456623D01*
X17545Y456605D01*
X17527Y456438D01*
X17527Y449086D01*
X16642Y449262D01*
X15139Y449884D01*
X13787Y450787D01*
X13746Y450828D01*
X13688Y450870D01*
X13636Y450920D01*
X13589Y450942D01*
X13547Y450972D01*
X13478Y450993D01*
X13413Y451023D01*
X13361Y451029D01*
X13312Y451044D01*
X13240Y451042D01*
X13169Y451050D01*
X13118Y451039D01*
X13066Y451038D01*
X12998Y451013D01*
X12928Y450998D01*
X12883Y450971D01*
X12835Y450954D01*
X12779Y450909D01*
X12717Y450872D01*
X12683Y450832D01*
X12643Y450800D01*
X12604Y450740D01*
X12557Y450685D01*
X12538Y450637D01*
X12510Y450593D01*
X12492Y450523D01*
X12465Y450457D01*
X12457Y450386D01*
X12449Y450354D01*
X12451Y450331D01*
X12447Y450290D01*
X12447Y433197D01*
X12450Y433177D01*
X12448Y433158D01*
X12470Y433056D01*
X12486Y432954D01*
X12496Y432937D01*
X12500Y432917D01*
X12553Y432828D01*
X12602Y432737D01*
X12616Y432723D01*
X12626Y432706D01*
X12705Y432639D01*
X12780Y432567D01*
X12798Y432559D01*
X12813Y432546D01*
X12909Y432507D01*
X13003Y432464D01*
X13023Y432462D01*
X13041Y432454D01*
X13208Y432436D01*
X14721Y432436D01*
X18456Y430889D01*
X20544Y428801D01*
X20602Y428759D01*
X20654Y428709D01*
X20701Y428688D01*
X20743Y428657D01*
X20812Y428636D01*
X20877Y428606D01*
X20929Y428600D01*
X20979Y428585D01*
X21050Y428587D01*
X21121Y428579D01*
X21172Y428590D01*
X21224Y428591D01*
X21292Y428616D01*
X21362Y428631D01*
X21407Y428658D01*
X21455Y428676D01*
X21511Y428720D01*
X21573Y428757D01*
X21607Y428797D01*
X21647Y428829D01*
X21686Y428890D01*
X21733Y428944D01*
X21752Y428992D01*
X21780Y429036D01*
X21798Y429106D01*
X21825Y429172D01*
X21833Y429244D01*
X21841Y429275D01*
X21839Y429298D01*
X21843Y429339D01*
X21843Y434041D01*
X21825Y434155D01*
X21807Y434272D01*
X21805Y434278D01*
X21804Y434284D01*
X21749Y434386D01*
X21696Y434491D01*
X21691Y434496D01*
X21688Y434501D01*
X21604Y434581D01*
X21520Y434663D01*
X21514Y434667D01*
X21510Y434670D01*
X21493Y434678D01*
X21373Y434744D01*
X21083Y434864D01*
X18939Y437008D01*
X17779Y439809D01*
X17779Y442841D01*
X18939Y445642D01*
X21058Y447760D01*
X21072Y447779D01*
X21089Y447794D01*
X21143Y447879D01*
X21202Y447960D01*
X21208Y447982D01*
X21221Y448002D01*
X21244Y448099D01*
X21274Y448195D01*
X21273Y448218D01*
X21279Y448241D01*
X21270Y448341D01*
X21268Y448441D01*
X21260Y448463D01*
X21258Y448486D01*
X21218Y448578D01*
X21183Y448672D01*
X21169Y448690D01*
X21160Y448711D01*
X21092Y448786D01*
X21030Y448864D01*
X21010Y448877D01*
X20995Y448894D01*
X20907Y448943D01*
X20823Y448997D01*
X20800Y449003D01*
X20780Y449014D01*
X20681Y449033D01*
X20584Y449057D01*
X20573Y449056D01*
X20573Y455677D01*
X27164Y455677D01*
X26988Y454792D01*
X26366Y453289D01*
X25463Y451937D01*
X24313Y450787D01*
X23643Y450340D01*
X23626Y450324D01*
X23606Y450313D01*
X23537Y450241D01*
X23463Y450172D01*
X23452Y450152D01*
X23437Y450135D01*
X23394Y450044D01*
X23347Y449956D01*
X23343Y449933D01*
X23333Y449912D01*
X23322Y449812D01*
X23305Y449713D01*
X23308Y449690D01*
X23306Y449668D01*
X23327Y449569D01*
X23343Y449470D01*
X23353Y449450D01*
X23358Y449427D01*
X23410Y449341D01*
X23456Y449252D01*
X23472Y449236D01*
X23484Y449216D01*
X23560Y449151D01*
X23633Y449081D01*
X23654Y449071D01*
X23671Y449056D01*
X23764Y449019D01*
X23855Y448976D01*
X23878Y448973D01*
X23899Y448964D01*
X24066Y448946D01*
X26916Y448946D01*
X29717Y447786D01*
X30704Y446799D01*
X30762Y446757D01*
X30814Y446707D01*
X30861Y446685D01*
X30903Y446655D01*
X30972Y446634D01*
X31037Y446604D01*
X31089Y446598D01*
X31139Y446583D01*
X31210Y446585D01*
X31281Y446577D01*
X31332Y446588D01*
X31384Y446589D01*
X31452Y446614D01*
X31522Y446629D01*
X31567Y446656D01*
X31615Y446673D01*
X31671Y446718D01*
X31733Y446755D01*
X31767Y446795D01*
X31807Y446827D01*
X31846Y446887D01*
X31893Y446942D01*
X31912Y446990D01*
X31940Y447034D01*
X31958Y447104D01*
X31985Y447170D01*
X31993Y447241D01*
X32001Y447273D01*
X31999Y447296D01*
X32003Y447337D01*
X32003Y565484D01*
X31989Y565574D01*
X31981Y565665D01*
X31969Y565695D01*
X31964Y565727D01*
X31921Y565808D01*
X31885Y565892D01*
X31859Y565924D01*
X31848Y565944D01*
X31825Y565967D01*
X31780Y566023D01*
X23821Y573982D01*
X23726Y574050D01*
X23632Y574120D01*
X23626Y574122D01*
X23621Y574126D01*
X23510Y574160D01*
X23398Y574196D01*
X23392Y574196D01*
X23386Y574198D01*
X23269Y574195D01*
X23152Y574194D01*
X23145Y574192D01*
X23140Y574192D01*
X23123Y574185D01*
X22991Y574147D01*
X21197Y573404D01*
X16903Y573404D01*
X12935Y575048D01*
X9898Y578085D01*
X8254Y582053D01*
X8254Y586347D01*
X9898Y590315D01*
X12935Y593352D01*
X16903Y594996D01*
X21197Y594996D01*
X25165Y593352D01*
X28202Y590315D01*
X29846Y586347D01*
X29846Y585517D01*
X29860Y585427D01*
X29868Y585336D01*
X29880Y585306D01*
X29885Y585274D01*
X29928Y585193D01*
X29964Y585109D01*
X29990Y585077D01*
X30001Y585057D01*
X30024Y585034D01*
X30069Y584978D01*
X30704Y584343D01*
X30762Y584301D01*
X30814Y584252D01*
X30861Y584230D01*
X30903Y584200D01*
X30972Y584179D01*
X31037Y584148D01*
X31089Y584143D01*
X31139Y584127D01*
X31210Y584129D01*
X31281Y584121D01*
X31332Y584132D01*
X31384Y584134D01*
X31452Y584158D01*
X31522Y584174D01*
X31567Y584200D01*
X31615Y584218D01*
X31671Y584263D01*
X31733Y584300D01*
X31767Y584339D01*
X31807Y584372D01*
X31846Y584432D01*
X31893Y584487D01*
X31912Y584535D01*
X31940Y584579D01*
X31958Y584648D01*
X31985Y584715D01*
X31993Y584786D01*
X32001Y584817D01*
X31999Y584841D01*
X32003Y584882D01*
X32003Y645738D01*
X32931Y647979D01*
X56871Y671919D01*
X59112Y672847D01*
X99638Y672847D01*
X101879Y671919D01*
X126127Y647670D01*
X126201Y647617D01*
X126271Y647557D01*
X126301Y647545D01*
X126327Y647526D01*
X126414Y647499D01*
X126499Y647465D01*
X126540Y647461D01*
X126562Y647454D01*
X126594Y647455D01*
X126666Y647447D01*
X134563Y647447D01*
X136804Y646519D01*
X170269Y613054D01*
X171122Y610993D01*
X171146Y610954D01*
X171162Y610911D01*
X171211Y610850D01*
X171252Y610784D01*
X171287Y610755D01*
X171316Y610719D01*
X171381Y610677D01*
X171441Y610627D01*
X171484Y610611D01*
X171523Y610586D01*
X171598Y610567D01*
X171671Y610539D01*
X171717Y610537D01*
X171761Y610526D01*
X171839Y610532D01*
X171916Y610529D01*
X171961Y610541D01*
X172006Y610545D01*
X172078Y610575D01*
X172153Y610597D01*
X172190Y610623D01*
X172233Y610641D01*
X172339Y610727D01*
X172355Y610737D01*
X172358Y610742D01*
X172364Y610746D01*
X172496Y610879D01*
X172549Y610953D01*
X172609Y611022D01*
X172621Y611052D01*
X172640Y611079D01*
X172667Y611166D01*
X172701Y611250D01*
X172705Y611291D01*
X172712Y611314D01*
X172711Y611346D01*
X172719Y611417D01*
X172719Y613530D01*
X172705Y613620D01*
X172697Y613711D01*
X172685Y613741D01*
X172680Y613773D01*
X172637Y613854D01*
X172601Y613937D01*
X172575Y613970D01*
X172564Y613990D01*
X172541Y614012D01*
X172496Y614068D01*
X140969Y645595D01*
X140969Y651812D01*
X140958Y651883D01*
X140956Y651954D01*
X140938Y652003D01*
X140930Y652055D01*
X140896Y652118D01*
X140871Y652185D01*
X140839Y652226D01*
X140814Y652272D01*
X140763Y652321D01*
X140718Y652377D01*
X140674Y652406D01*
X140636Y652442D01*
X140571Y652472D01*
X140511Y652510D01*
X140460Y652523D01*
X140413Y652545D01*
X140342Y652553D01*
X140272Y652571D01*
X140220Y652566D01*
X140169Y652572D01*
X140098Y652557D01*
X140027Y652551D01*
X139979Y652531D01*
X139928Y652520D01*
X139867Y652483D01*
X139801Y652455D01*
X139745Y652410D01*
X139717Y652394D01*
X139702Y652376D01*
X139670Y652350D01*
X139106Y651786D01*
X135371Y650239D01*
X131329Y650239D01*
X127594Y651786D01*
X124736Y654644D01*
X123189Y658379D01*
X123189Y662421D01*
X123274Y662626D01*
X123301Y662739D01*
X123329Y662853D01*
X123329Y662859D01*
X123330Y662865D01*
X123319Y662982D01*
X123310Y663098D01*
X123308Y663104D01*
X123307Y663110D01*
X123259Y663218D01*
X123214Y663325D01*
X123209Y663330D01*
X123207Y663335D01*
X123195Y663349D01*
X123109Y663456D01*
X109219Y677345D01*
X109219Y694255D01*
X134420Y719456D01*
X233880Y719456D01*
X237079Y716257D01*
X248255Y705080D01*
X248313Y705039D01*
X248365Y704989D01*
X248412Y704967D01*
X248454Y704937D01*
X248523Y704916D01*
X248588Y704886D01*
X248640Y704880D01*
X248690Y704865D01*
X248761Y704866D01*
X248832Y704859D01*
X248883Y704870D01*
X248935Y704871D01*
X249003Y704896D01*
X249073Y704911D01*
X249118Y704938D01*
X249166Y704955D01*
X249222Y705000D01*
X249284Y705037D01*
X249318Y705077D01*
X249358Y705109D01*
X249397Y705169D01*
X249444Y705224D01*
X249463Y705272D01*
X249491Y705316D01*
X249509Y705385D01*
X249536Y705452D01*
X249544Y705523D01*
X249552Y705555D01*
X249550Y705578D01*
X249554Y705619D01*
X249554Y706366D01*
X250714Y709167D01*
X252858Y711311D01*
X255659Y712471D01*
X258691Y712471D01*
X261492Y711311D01*
X263636Y709167D01*
X263756Y708877D01*
X263817Y708777D01*
X263877Y708677D01*
X263882Y708673D01*
X263885Y708668D01*
X263975Y708593D01*
X264064Y708517D01*
X264070Y708515D01*
X264075Y708511D01*
X264183Y708469D01*
X264292Y708425D01*
X264300Y708424D01*
X264304Y708423D01*
X264323Y708422D01*
X264459Y708407D01*
X274523Y708407D01*
X336932Y645998D01*
X336932Y398664D01*
X336946Y398573D01*
X336954Y398483D01*
X336966Y398453D01*
X336971Y398421D01*
X337014Y398340D01*
X337050Y398256D01*
X337076Y398224D01*
X337087Y398203D01*
X337110Y398181D01*
X337155Y398125D01*
X352478Y382802D01*
X352573Y382733D01*
X352667Y382664D01*
X352673Y382662D01*
X352678Y382658D01*
X352790Y382624D01*
X352901Y382587D01*
X352907Y382588D01*
X352913Y382586D01*
X353030Y382589D01*
X353147Y382590D01*
X353154Y382592D01*
X353159Y382592D01*
X353177Y382598D01*
X353308Y382637D01*
X353958Y382906D01*
X357242Y382906D01*
X360277Y381649D01*
X362599Y379327D01*
X363856Y376292D01*
X363856Y373008D01*
X362599Y369973D01*
X360277Y367651D01*
X357242Y366394D01*
X353958Y366394D01*
X350923Y367651D01*
X348601Y369973D01*
X347344Y373008D01*
X347344Y376292D01*
X347613Y376942D01*
X347640Y377056D01*
X347669Y377169D01*
X347668Y377175D01*
X347670Y377181D01*
X347659Y377298D01*
X347650Y377414D01*
X347647Y377420D01*
X347647Y377426D01*
X347599Y377534D01*
X347553Y377641D01*
X347549Y377646D01*
X347547Y377651D01*
X347534Y377665D01*
X347448Y377772D01*
X332125Y393095D01*
X331881Y393339D01*
X331823Y393381D01*
X331771Y393430D01*
X331724Y393452D01*
X331682Y393482D01*
X331613Y393503D01*
X331548Y393534D01*
X331496Y393539D01*
X331446Y393555D01*
X331375Y393553D01*
X331304Y393561D01*
X331253Y393550D01*
X331201Y393548D01*
X331133Y393524D01*
X331063Y393508D01*
X331018Y393482D01*
X330970Y393464D01*
X330914Y393419D01*
X330852Y393382D01*
X330818Y393343D01*
X330778Y393310D01*
X330739Y393250D01*
X330692Y393195D01*
X330673Y393147D01*
X330645Y393103D01*
X330627Y393034D01*
X330600Y392967D01*
X330592Y392896D01*
X330584Y392865D01*
X330586Y392841D01*
X330582Y392800D01*
X330582Y331100D01*
X330593Y331029D01*
X330595Y330957D01*
X330613Y330908D01*
X330621Y330857D01*
X330655Y330793D01*
X330680Y330726D01*
X330712Y330685D01*
X330737Y330639D01*
X330788Y330590D01*
X330833Y330534D01*
X330877Y330506D01*
X330915Y330470D01*
X330980Y330440D01*
X331040Y330401D01*
X331091Y330388D01*
X331138Y330366D01*
X331209Y330358D01*
X331279Y330341D01*
X331331Y330345D01*
X331382Y330339D01*
X331453Y330355D01*
X331524Y330360D01*
X331572Y330380D01*
X331623Y330392D01*
X331684Y330428D01*
X331750Y330456D01*
X331806Y330501D01*
X331834Y330518D01*
X331849Y330536D01*
X331881Y330561D01*
X332125Y330805D01*
X336691Y335371D01*
X336703Y335387D01*
X336718Y335400D01*
X336774Y335487D01*
X336834Y335570D01*
X336840Y335590D01*
X336851Y335607D01*
X336876Y335707D01*
X336907Y335805D01*
X336906Y335826D01*
X336911Y335846D01*
X336903Y335948D01*
X336900Y336051D01*
X336893Y336071D01*
X336892Y336091D01*
X336851Y336185D01*
X336849Y336191D01*
X336843Y336213D01*
X336828Y336248D01*
X336816Y336282D01*
X336812Y336287D01*
X335025Y340601D01*
X335025Y345199D01*
X336785Y349447D01*
X340036Y352698D01*
X344284Y354458D01*
X366916Y354458D01*
X371164Y352698D01*
X374415Y349447D01*
X376175Y345199D01*
X376175Y340601D01*
X374415Y336353D01*
X371164Y333102D01*
X366916Y331342D01*
X344284Y331342D01*
X343650Y331605D01*
X343537Y331632D01*
X343423Y331660D01*
X343416Y331660D01*
X343410Y331661D01*
X343294Y331650D01*
X343177Y331641D01*
X343172Y331639D01*
X343165Y331638D01*
X343058Y331590D01*
X342951Y331545D01*
X342945Y331540D01*
X342941Y331538D01*
X342927Y331525D01*
X342820Y331440D01*
X340424Y329044D01*
X340367Y328965D01*
X340305Y328890D01*
X340296Y328866D01*
X340281Y328844D01*
X340252Y328751D01*
X340217Y328660D01*
X340216Y328634D01*
X340208Y328609D01*
X340211Y328512D01*
X340207Y328415D01*
X340214Y328390D01*
X340215Y328363D01*
X340248Y328272D01*
X340275Y328178D01*
X340290Y328157D01*
X340299Y328132D01*
X340360Y328056D01*
X340415Y327976D01*
X340436Y327961D01*
X340453Y327940D01*
X340535Y327888D01*
X340613Y327830D01*
X340638Y327822D01*
X340660Y327807D01*
X340754Y327784D01*
X340847Y327753D01*
X340873Y327754D01*
X340898Y327747D01*
X340995Y327755D01*
X341093Y327756D01*
X341124Y327765D01*
X341143Y327766D01*
X341174Y327779D01*
X341254Y327803D01*
X344284Y329058D01*
X366916Y329058D01*
X371164Y327298D01*
X374415Y324047D01*
X376175Y319799D01*
X376175Y315201D01*
X374415Y310953D01*
X371164Y307702D01*
X366916Y305942D01*
X344284Y305942D01*
X340036Y307702D01*
X338231Y309507D01*
X338173Y309548D01*
X338121Y309598D01*
X338074Y309620D01*
X338032Y309650D01*
X337963Y309671D01*
X337898Y309701D01*
X337846Y309707D01*
X337796Y309723D01*
X337725Y309721D01*
X337654Y309729D01*
X337603Y309718D01*
X337551Y309716D01*
X337483Y309692D01*
X337413Y309676D01*
X337368Y309650D01*
X337320Y309632D01*
X337264Y309587D01*
X337202Y309550D01*
X337168Y309511D01*
X337128Y309478D01*
X337089Y309418D01*
X337042Y309363D01*
X337023Y309315D01*
X336995Y309271D01*
X336977Y309202D01*
X336950Y309135D01*
X336942Y309064D01*
X336934Y309033D01*
X336936Y309009D01*
X336932Y308968D01*
X336932Y300632D01*
X336943Y300561D01*
X336945Y300489D01*
X336963Y300440D01*
X336971Y300389D01*
X337005Y300326D01*
X337030Y300258D01*
X337062Y300218D01*
X337087Y300172D01*
X337139Y300122D01*
X337183Y300066D01*
X337227Y300038D01*
X337265Y300002D01*
X337330Y299972D01*
X337390Y299933D01*
X337441Y299920D01*
X337488Y299899D01*
X337559Y299891D01*
X337629Y299873D01*
X337681Y299877D01*
X337732Y299871D01*
X337803Y299887D01*
X337874Y299892D01*
X337922Y299913D01*
X337973Y299924D01*
X338034Y299960D01*
X338100Y299989D01*
X338156Y300033D01*
X338184Y300050D01*
X338199Y300068D01*
X338231Y300093D01*
X340036Y301898D01*
X344284Y303658D01*
X366916Y303658D01*
X371164Y301898D01*
X374415Y298647D01*
X376175Y294399D01*
X376175Y289801D01*
X374415Y285553D01*
X371164Y282302D01*
X366916Y280542D01*
X344284Y280542D01*
X340036Y282302D01*
X338231Y284107D01*
X338173Y284148D01*
X338121Y284198D01*
X338074Y284220D01*
X338032Y284250D01*
X337963Y284271D01*
X337898Y284301D01*
X337846Y284307D01*
X337796Y284323D01*
X337725Y284321D01*
X337654Y284329D01*
X337603Y284318D01*
X337551Y284316D01*
X337483Y284292D01*
X337413Y284276D01*
X337368Y284250D01*
X337320Y284232D01*
X337264Y284187D01*
X337202Y284150D01*
X337168Y284111D01*
X337128Y284078D01*
X337089Y284018D01*
X337042Y283963D01*
X337023Y283915D01*
X336995Y283871D01*
X336977Y283802D01*
X336950Y283735D01*
X336942Y283664D01*
X336934Y283633D01*
X336936Y283609D01*
X336932Y283568D01*
X336932Y265227D01*
X322148Y250443D01*
X267600Y250443D01*
X267529Y250432D01*
X267457Y250430D01*
X267408Y250412D01*
X267357Y250404D01*
X267293Y250370D01*
X267226Y250345D01*
X267185Y250313D01*
X267139Y250288D01*
X267090Y250237D01*
X267034Y250192D01*
X267006Y250148D01*
X266970Y250110D01*
X266940Y250045D01*
X266901Y249985D01*
X266888Y249934D01*
X266866Y249887D01*
X266858Y249816D01*
X266841Y249746D01*
X266845Y249694D01*
X266839Y249643D01*
X266855Y249572D01*
X266860Y249501D01*
X266880Y249453D01*
X266892Y249402D01*
X266928Y249341D01*
X266956Y249275D01*
X267001Y249219D01*
X267018Y249191D01*
X267036Y249176D01*
X267061Y249144D01*
X267305Y248900D01*
X306050Y210155D01*
X306124Y210102D01*
X306194Y210042D01*
X306224Y210030D01*
X306250Y210011D01*
X306337Y209984D01*
X306422Y209950D01*
X306463Y209946D01*
X306485Y209939D01*
X306517Y209940D01*
X306589Y209932D01*
X338197Y209932D01*
X338311Y209951D01*
X338428Y209968D01*
X338433Y209970D01*
X338439Y209971D01*
X338542Y210026D01*
X338647Y210079D01*
X338651Y210084D01*
X338657Y210087D01*
X338737Y210171D01*
X338819Y210255D01*
X338823Y210261D01*
X338826Y210265D01*
X338834Y210282D01*
X338900Y210402D01*
X339588Y212063D01*
X342412Y214887D01*
X346103Y216416D01*
X365097Y216416D01*
X368788Y214887D01*
X371612Y212063D01*
X373141Y208372D01*
X373141Y204378D01*
X371612Y200687D01*
X368788Y197863D01*
X365097Y196334D01*
X346103Y196334D01*
X342412Y197863D01*
X339588Y200687D01*
X338900Y202348D01*
X338838Y202448D01*
X338778Y202548D01*
X338774Y202552D01*
X338770Y202557D01*
X338681Y202632D01*
X338591Y202708D01*
X338586Y202710D01*
X338581Y202714D01*
X338473Y202756D01*
X338363Y202800D01*
X338356Y202801D01*
X338351Y202802D01*
X338333Y202803D01*
X338197Y202818D01*
X303327Y202818D01*
X262275Y243870D01*
X262201Y243923D01*
X262131Y243983D01*
X262101Y243995D01*
X262075Y244014D01*
X261988Y244041D01*
X261903Y244075D01*
X261862Y244079D01*
X261840Y244086D01*
X261808Y244085D01*
X261736Y244093D01*
X211252Y244093D01*
X161543Y293802D01*
X161543Y305523D01*
X161540Y305541D01*
X161542Y305558D01*
X161531Y305608D01*
X161530Y305665D01*
X161512Y305714D01*
X161504Y305766D01*
X161493Y305786D01*
X161490Y305798D01*
X161468Y305836D01*
X161445Y305896D01*
X161413Y305937D01*
X161388Y305983D01*
X161368Y306003D01*
X161364Y306009D01*
X161336Y306033D01*
X161292Y306088D01*
X161248Y306117D01*
X161210Y306152D01*
X161180Y306166D01*
X161177Y306169D01*
X161156Y306178D01*
X161145Y306183D01*
X161085Y306221D01*
X161034Y306234D01*
X160987Y306256D01*
X160951Y306260D01*
X160949Y306261D01*
X160910Y306265D01*
X160846Y306281D01*
X160798Y306278D01*
X160782Y306279D01*
X160777Y306279D01*
X160776Y306279D01*
X160743Y306283D01*
X160672Y306268D01*
X160601Y306262D01*
X160556Y306243D01*
X160535Y306240D01*
X160529Y306237D01*
X160502Y306231D01*
X160441Y306194D01*
X160375Y306166D01*
X160334Y306134D01*
X160317Y306125D01*
X160308Y306115D01*
X160291Y306105D01*
X160276Y306087D01*
X160244Y306061D01*
X157580Y303397D01*
X154219Y302005D01*
X150581Y302005D01*
X147220Y303397D01*
X144556Y306061D01*
X144498Y306103D01*
X144446Y306152D01*
X144426Y306162D01*
X144417Y306169D01*
X144392Y306180D01*
X144357Y306205D01*
X144288Y306226D01*
X144223Y306256D01*
X144194Y306259D01*
X144189Y306261D01*
X144165Y306264D01*
X144121Y306277D01*
X144059Y306275D01*
X144023Y306279D01*
X144018Y306279D01*
X144015Y306279D01*
X143979Y306283D01*
X143928Y306272D01*
X143876Y306271D01*
X143808Y306246D01*
X143791Y306242D01*
X143775Y306240D01*
X143773Y306238D01*
X143738Y306231D01*
X143693Y306204D01*
X143645Y306186D01*
X143589Y306141D01*
X143581Y306137D01*
X143558Y306125D01*
X143554Y306121D01*
X143527Y306105D01*
X143493Y306065D01*
X143453Y306033D01*
X143415Y305974D01*
X143388Y305946D01*
X143385Y305938D01*
X143367Y305918D01*
X143348Y305869D01*
X143320Y305826D01*
X143304Y305765D01*
X143285Y305723D01*
X143283Y305710D01*
X143275Y305690D01*
X143267Y305618D01*
X143259Y305587D01*
X143261Y305564D01*
X143257Y305523D01*
X143257Y300239D01*
X143271Y300148D01*
X143279Y300058D01*
X143291Y300028D01*
X143296Y299996D01*
X143339Y299915D01*
X143375Y299831D01*
X143401Y299799D01*
X143412Y299778D01*
X143435Y299756D01*
X143480Y299700D01*
X224798Y218382D01*
X224892Y218314D01*
X224987Y218244D01*
X224993Y218242D01*
X224998Y218238D01*
X225109Y218204D01*
X225221Y218168D01*
X225227Y218168D01*
X225233Y218166D01*
X225350Y218169D01*
X225466Y218170D01*
X225474Y218172D01*
X225479Y218172D01*
X225496Y218179D01*
X225628Y218217D01*
X226781Y218695D01*
X230419Y218695D01*
X233780Y217303D01*
X236353Y214730D01*
X237745Y211369D01*
X237745Y207731D01*
X236353Y204370D01*
X233780Y201797D01*
X230419Y200405D01*
X226781Y200405D01*
X223420Y201797D01*
X220847Y204370D01*
X219455Y207731D01*
X219455Y211369D01*
X219933Y212522D01*
X219960Y212636D01*
X219988Y212750D01*
X219988Y212756D01*
X219989Y212762D01*
X219978Y212878D01*
X219969Y212995D01*
X219967Y213000D01*
X219966Y213007D01*
X219918Y213114D01*
X219873Y213221D01*
X219868Y213227D01*
X219866Y213231D01*
X219853Y213245D01*
X219768Y213352D01*
X138450Y294670D01*
X136143Y296977D01*
X136143Y305523D01*
X136140Y305541D01*
X136142Y305558D01*
X136131Y305608D01*
X136130Y305665D01*
X136112Y305714D01*
X136104Y305766D01*
X136093Y305786D01*
X136090Y305798D01*
X136068Y305836D01*
X136045Y305896D01*
X136013Y305937D01*
X135988Y305983D01*
X135968Y306003D01*
X135964Y306009D01*
X135936Y306033D01*
X135892Y306088D01*
X135848Y306117D01*
X135810Y306152D01*
X135780Y306166D01*
X135777Y306169D01*
X135756Y306178D01*
X135745Y306183D01*
X135685Y306221D01*
X135634Y306234D01*
X135587Y306256D01*
X135551Y306260D01*
X135549Y306261D01*
X135510Y306265D01*
X135446Y306281D01*
X135398Y306278D01*
X135382Y306279D01*
X135377Y306279D01*
X135376Y306279D01*
X135343Y306283D01*
X135272Y306268D01*
X135201Y306262D01*
X135156Y306243D01*
X135135Y306240D01*
X135129Y306237D01*
X135102Y306231D01*
X135041Y306194D01*
X134975Y306166D01*
X134934Y306134D01*
X134917Y306125D01*
X134908Y306115D01*
X134891Y306105D01*
X134876Y306087D01*
X134844Y306061D01*
X132180Y303397D01*
X128819Y302005D01*
X125181Y302005D01*
X121820Y303397D01*
X119247Y305970D01*
X117855Y309331D01*
X117855Y312969D01*
X119247Y316330D01*
X121820Y318903D01*
X125181Y320295D01*
X128819Y320295D01*
X132180Y318903D01*
X134844Y316239D01*
X134902Y316197D01*
X134954Y316148D01*
X135001Y316126D01*
X135043Y316095D01*
X135112Y316074D01*
X135177Y316044D01*
X135229Y316038D01*
X135279Y316023D01*
X135350Y316025D01*
X135421Y316017D01*
X135472Y316028D01*
X135524Y316029D01*
X135592Y316054D01*
X135662Y316069D01*
X135707Y316096D01*
X135755Y316114D01*
X135811Y316159D01*
X135873Y316195D01*
X135907Y316235D01*
X135947Y316267D01*
X135986Y316328D01*
X136033Y316382D01*
X136052Y316431D01*
X136080Y316474D01*
X136098Y316544D01*
X136125Y316610D01*
X136133Y316682D01*
X136141Y316713D01*
X136139Y316736D01*
X136143Y316777D01*
X136143Y356323D01*
X136132Y356394D01*
X136130Y356465D01*
X136112Y356514D01*
X136104Y356566D01*
X136070Y356629D01*
X136045Y356696D01*
X136013Y356737D01*
X135988Y356783D01*
X135936Y356832D01*
X135892Y356888D01*
X135848Y356917D01*
X135810Y356952D01*
X135745Y356983D01*
X135685Y357021D01*
X135634Y357034D01*
X135587Y357056D01*
X135516Y357064D01*
X135446Y357081D01*
X135394Y357077D01*
X135343Y357083D01*
X135272Y357068D01*
X135201Y357062D01*
X135153Y357042D01*
X135102Y357031D01*
X135041Y356994D01*
X134975Y356966D01*
X134919Y356921D01*
X134891Y356905D01*
X134876Y356887D01*
X134844Y356861D01*
X132180Y354197D01*
X128819Y352805D01*
X125181Y352805D01*
X121820Y354197D01*
X119247Y356770D01*
X117855Y360131D01*
X117855Y363769D01*
X119247Y367130D01*
X121820Y369703D01*
X125181Y371095D01*
X128819Y371095D01*
X132180Y369703D01*
X134844Y367039D01*
X134902Y366997D01*
X134954Y366948D01*
X135001Y366926D01*
X135043Y366895D01*
X135112Y366874D01*
X135177Y366844D01*
X135229Y366838D01*
X135279Y366823D01*
X135350Y366825D01*
X135421Y366817D01*
X135472Y366828D01*
X135524Y366829D01*
X135592Y366854D01*
X135662Y366869D01*
X135707Y366896D01*
X135755Y366914D01*
X135811Y366959D01*
X135873Y366995D01*
X135907Y367035D01*
X135947Y367067D01*
X135986Y367128D01*
X136033Y367182D01*
X136052Y367231D01*
X136080Y367274D01*
X136098Y367344D01*
X136125Y367410D01*
X136133Y367482D01*
X136141Y367513D01*
X136139Y367536D01*
X136143Y367577D01*
X136143Y401436D01*
X136140Y401456D01*
X136142Y401475D01*
X136127Y401545D01*
X136121Y401617D01*
X136109Y401647D01*
X136104Y401679D01*
X136094Y401697D01*
X136090Y401716D01*
X136054Y401776D01*
X136025Y401844D01*
X135999Y401876D01*
X135988Y401897D01*
X135973Y401911D01*
X135964Y401927D01*
X135948Y401940D01*
X135920Y401975D01*
X126618Y411277D01*
X126618Y427987D01*
X126608Y428051D01*
X126607Y428117D01*
X126584Y428197D01*
X126579Y428229D01*
X126569Y428246D01*
X126560Y428278D01*
X125729Y430284D01*
X125729Y432410D01*
X125718Y432481D01*
X125716Y432553D01*
X125698Y432602D01*
X125690Y432653D01*
X125656Y432716D01*
X125631Y432784D01*
X125599Y432824D01*
X125574Y432870D01*
X125522Y432920D01*
X125478Y432976D01*
X125434Y433004D01*
X125396Y433040D01*
X125331Y433070D01*
X125271Y433109D01*
X125220Y433121D01*
X125173Y433143D01*
X125102Y433151D01*
X125032Y433169D01*
X124980Y433165D01*
X124929Y433170D01*
X124858Y433155D01*
X124787Y433150D01*
X124739Y433129D01*
X124688Y433118D01*
X124627Y433081D01*
X124561Y433053D01*
X124505Y433009D01*
X124477Y432992D01*
X124462Y432974D01*
X124430Y432948D01*
X104999Y413517D01*
X104946Y413443D01*
X104886Y413374D01*
X104874Y413344D01*
X104855Y413318D01*
X104828Y413231D01*
X104794Y413146D01*
X104790Y413105D01*
X104783Y413083D01*
X104784Y413050D01*
X104776Y412979D01*
X104776Y392083D01*
X104786Y392019D01*
X104787Y391953D01*
X104810Y391873D01*
X104815Y391841D01*
X104825Y391823D01*
X104834Y391792D01*
X106046Y388866D01*
X106046Y385834D01*
X104886Y383033D01*
X102742Y380889D01*
X99941Y379729D01*
X96909Y379729D01*
X94108Y380889D01*
X91964Y383033D01*
X90804Y385834D01*
X90804Y388866D01*
X92016Y391792D01*
X92031Y391856D01*
X92056Y391917D01*
X92065Y391999D01*
X92072Y392031D01*
X92071Y392051D01*
X92074Y392083D01*
X92074Y399531D01*
X92063Y399602D01*
X92061Y399674D01*
X92043Y399723D01*
X92035Y399774D01*
X92001Y399838D01*
X91976Y399905D01*
X91944Y399946D01*
X91919Y399992D01*
X91868Y400041D01*
X91823Y400097D01*
X91779Y400125D01*
X91741Y400161D01*
X91676Y400191D01*
X91616Y400230D01*
X91565Y400243D01*
X91518Y400265D01*
X91447Y400273D01*
X91377Y400290D01*
X91325Y400286D01*
X91274Y400292D01*
X91203Y400276D01*
X91132Y400271D01*
X91084Y400251D01*
X91033Y400239D01*
X90972Y400203D01*
X90906Y400175D01*
X90850Y400130D01*
X90822Y400113D01*
X90807Y400096D01*
X90775Y400070D01*
X90150Y399445D01*
X89505Y398800D01*
X89452Y398726D01*
X89392Y398656D01*
X89380Y398626D01*
X89361Y398600D01*
X89334Y398513D01*
X89300Y398428D01*
X89296Y398387D01*
X89289Y398365D01*
X89290Y398333D01*
X89282Y398261D01*
X89282Y354214D01*
X89283Y354204D01*
X89283Y354199D01*
X89288Y354173D01*
X89296Y354123D01*
X89304Y354033D01*
X89316Y354003D01*
X89321Y353971D01*
X89364Y353890D01*
X89400Y353806D01*
X89426Y353774D01*
X89437Y353753D01*
X89460Y353731D01*
X89505Y353675D01*
X93325Y349855D01*
X93399Y349802D01*
X93469Y349742D01*
X93499Y349730D01*
X93525Y349711D01*
X93612Y349684D01*
X93697Y349650D01*
X93738Y349646D01*
X93760Y349639D01*
X93792Y349640D01*
X93864Y349632D01*
X100666Y349632D01*
X100781Y349651D01*
X100897Y349668D01*
X100903Y349670D01*
X100909Y349671D01*
X101011Y349726D01*
X101116Y349779D01*
X101121Y349784D01*
X101126Y349787D01*
X101206Y349871D01*
X101288Y349955D01*
X101292Y349961D01*
X101295Y349965D01*
X101303Y349982D01*
X101369Y350102D01*
X101489Y350392D01*
X102900Y351803D01*
X102953Y351877D01*
X103013Y351946D01*
X103025Y351976D01*
X103044Y352002D01*
X103071Y352089D01*
X103105Y352174D01*
X103109Y352215D01*
X103116Y352237D01*
X103115Y352270D01*
X103123Y352341D01*
X103123Y360427D01*
X110745Y360427D01*
X110745Y355012D01*
X110572Y354365D01*
X110480Y354207D01*
X110456Y354142D01*
X110422Y354081D01*
X110412Y354028D01*
X110393Y353977D01*
X110391Y353908D01*
X110378Y353839D01*
X110386Y353785D01*
X110384Y353731D01*
X110404Y353664D01*
X110414Y353596D01*
X110439Y353547D01*
X110454Y353495D01*
X110494Y353438D01*
X110526Y353376D01*
X110564Y353338D01*
X110595Y353294D01*
X110651Y353253D01*
X110701Y353204D01*
X110767Y353168D01*
X110793Y353148D01*
X110814Y353142D01*
X110848Y353123D01*
X112267Y352536D01*
X114411Y350392D01*
X115571Y347591D01*
X115571Y344559D01*
X114411Y341758D01*
X112267Y339614D01*
X109466Y338454D01*
X106434Y338454D01*
X103633Y339614D01*
X101489Y341758D01*
X101369Y342048D01*
X101308Y342148D01*
X101248Y342248D01*
X101243Y342252D01*
X101240Y342257D01*
X101150Y342332D01*
X101061Y342408D01*
X101055Y342410D01*
X101050Y342414D01*
X100942Y342456D01*
X100833Y342500D01*
X100825Y342501D01*
X100821Y342502D01*
X100802Y342503D01*
X100666Y342518D01*
X90602Y342518D01*
X87406Y345714D01*
X87348Y345756D01*
X87296Y345805D01*
X87249Y345827D01*
X87207Y345857D01*
X87138Y345878D01*
X87073Y345909D01*
X87021Y345914D01*
X86971Y345930D01*
X86900Y345928D01*
X86829Y345936D01*
X86778Y345925D01*
X86726Y345923D01*
X86658Y345899D01*
X86588Y345883D01*
X86543Y345857D01*
X86495Y345839D01*
X86439Y345794D01*
X86377Y345757D01*
X86343Y345718D01*
X86303Y345685D01*
X86264Y345625D01*
X86217Y345570D01*
X86198Y345522D01*
X86170Y345478D01*
X86152Y345409D01*
X86125Y345342D01*
X86117Y345271D01*
X86109Y345240D01*
X86111Y345216D01*
X86107Y345175D01*
X86107Y306589D01*
X86121Y306498D01*
X86129Y306408D01*
X86141Y306378D01*
X86146Y306346D01*
X86189Y306265D01*
X86225Y306181D01*
X86251Y306149D01*
X86262Y306128D01*
X86285Y306106D01*
X86330Y306050D01*
X90150Y302230D01*
X90224Y302177D01*
X90294Y302117D01*
X90324Y302105D01*
X90350Y302086D01*
X90437Y302059D01*
X90522Y302025D01*
X90563Y302021D01*
X90585Y302014D01*
X90617Y302015D01*
X90689Y302007D01*
X92210Y302007D01*
X92304Y302022D01*
X92399Y302031D01*
X92425Y302042D01*
X92453Y302046D01*
X92537Y302091D01*
X92624Y302129D01*
X92645Y302148D01*
X92670Y302162D01*
X92735Y302231D01*
X92806Y302295D01*
X92820Y302319D01*
X92839Y302340D01*
X92879Y302426D01*
X92926Y302510D01*
X92931Y302537D01*
X92943Y302563D01*
X92953Y302658D01*
X92971Y302751D01*
X92967Y302779D01*
X92970Y302807D01*
X92950Y302901D01*
X92936Y302995D01*
X92922Y303027D01*
X92918Y303048D01*
X92901Y303076D01*
X92869Y303149D01*
X92628Y303565D01*
X92455Y304212D01*
X92455Y309627D01*
X100838Y309627D01*
X100858Y309630D01*
X100877Y309628D01*
X100979Y309650D01*
X101081Y309667D01*
X101098Y309676D01*
X101118Y309680D01*
X101207Y309733D01*
X101298Y309782D01*
X101312Y309796D01*
X101329Y309806D01*
X101396Y309885D01*
X101467Y309960D01*
X101476Y309978D01*
X101489Y309993D01*
X101527Y310089D01*
X101571Y310183D01*
X101573Y310203D01*
X101581Y310221D01*
X101599Y310388D01*
X101599Y311151D01*
X101601Y311151D01*
X101601Y310388D01*
X101604Y310368D01*
X101602Y310349D01*
X101624Y310247D01*
X101641Y310145D01*
X101650Y310128D01*
X101654Y310108D01*
X101707Y310019D01*
X101756Y309928D01*
X101770Y309914D01*
X101780Y309897D01*
X101859Y309830D01*
X101934Y309759D01*
X101952Y309750D01*
X101967Y309737D01*
X102063Y309698D01*
X102157Y309655D01*
X102177Y309653D01*
X102195Y309645D01*
X102362Y309627D01*
X110745Y309627D01*
X110745Y304212D01*
X110572Y303565D01*
X110331Y303149D01*
X110297Y303059D01*
X110257Y302973D01*
X110254Y302945D01*
X110244Y302919D01*
X110240Y302823D01*
X110230Y302729D01*
X110236Y302701D01*
X110235Y302673D01*
X110262Y302581D01*
X110282Y302488D01*
X110297Y302464D01*
X110305Y302437D01*
X110360Y302359D01*
X110408Y302277D01*
X110430Y302259D01*
X110446Y302236D01*
X110523Y302179D01*
X110595Y302117D01*
X110622Y302107D01*
X110644Y302090D01*
X110735Y302061D01*
X110824Y302025D01*
X110859Y302021D01*
X110879Y302015D01*
X110911Y302015D01*
X110990Y302007D01*
X115773Y302007D01*
X118080Y299700D01*
X199398Y218382D01*
X199492Y218314D01*
X199587Y218244D01*
X199593Y218242D01*
X199598Y218238D01*
X199709Y218204D01*
X199821Y218168D01*
X199827Y218168D01*
X199833Y218166D01*
X199950Y218169D01*
X200066Y218170D01*
X200074Y218172D01*
X200079Y218172D01*
X200096Y218179D01*
X200228Y218217D01*
X201381Y218695D01*
X205019Y218695D01*
X208380Y217303D01*
X210953Y214730D01*
X212345Y211369D01*
X212345Y207731D01*
X210953Y204370D01*
X208380Y201797D01*
X205019Y200405D01*
X201381Y200405D01*
X198020Y201797D01*
X195447Y204370D01*
X194055Y207731D01*
X194055Y211369D01*
X194533Y212522D01*
X194560Y212636D01*
X194588Y212750D01*
X194588Y212756D01*
X194589Y212762D01*
X194578Y212878D01*
X194569Y212995D01*
X194567Y213000D01*
X194566Y213007D01*
X194518Y213114D01*
X194473Y213221D01*
X194468Y213227D01*
X194466Y213231D01*
X194453Y213245D01*
X194368Y213352D01*
X120010Y287710D01*
X119973Y287737D01*
X119941Y287771D01*
X119873Y287809D01*
X119810Y287854D01*
X119766Y287867D01*
X119726Y287889D01*
X119649Y287903D01*
X119575Y287926D01*
X119529Y287925D01*
X119484Y287933D01*
X119407Y287922D01*
X119329Y287920D01*
X119286Y287904D01*
X119241Y287897D01*
X119171Y287862D01*
X119098Y287835D01*
X119062Y287807D01*
X119021Y287786D01*
X118967Y287730D01*
X118906Y287682D01*
X118881Y287643D01*
X118849Y287610D01*
X118783Y287490D01*
X118773Y287475D01*
X118772Y287470D01*
X118768Y287463D01*
X117534Y284483D01*
X117524Y284441D01*
X117509Y284408D01*
X117506Y284389D01*
X117494Y284358D01*
X117485Y284276D01*
X117478Y284244D01*
X117479Y284224D01*
X117476Y284192D01*
X117476Y246387D01*
X116509Y244053D01*
X89124Y216667D01*
X89071Y216593D01*
X89011Y216524D01*
X88999Y216494D01*
X88980Y216468D01*
X88953Y216381D01*
X88919Y216296D01*
X88915Y216255D01*
X88908Y216233D01*
X88909Y216200D01*
X88901Y216129D01*
X88901Y202971D01*
X88915Y202881D01*
X88923Y202790D01*
X88935Y202760D01*
X88940Y202728D01*
X88983Y202647D01*
X89019Y202564D01*
X89045Y202531D01*
X89056Y202511D01*
X89079Y202489D01*
X89124Y202433D01*
X118404Y173152D01*
X118483Y173096D01*
X118558Y173033D01*
X118583Y173024D01*
X118604Y173009D01*
X118697Y172980D01*
X118788Y172945D01*
X118814Y172944D01*
X118839Y172936D01*
X118936Y172939D01*
X119033Y172935D01*
X119059Y172942D01*
X119085Y172943D01*
X119176Y172976D01*
X119270Y173003D01*
X119291Y173018D01*
X119316Y173027D01*
X119392Y173088D01*
X119472Y173144D01*
X119487Y173165D01*
X119508Y173181D01*
X119561Y173263D01*
X119619Y173341D01*
X119627Y173366D01*
X119641Y173388D01*
X119665Y173482D01*
X119695Y173575D01*
X119694Y173601D01*
X119701Y173626D01*
X119693Y173723D01*
X119692Y173821D01*
X119683Y173852D01*
X119682Y173872D01*
X119669Y173902D01*
X119646Y173982D01*
X118744Y176158D01*
X118744Y179442D01*
X120001Y182477D01*
X122323Y184799D01*
X125358Y186056D01*
X128642Y186056D01*
X131677Y184799D01*
X133999Y182477D01*
X135256Y179442D01*
X135256Y176158D01*
X133999Y173123D01*
X131677Y170801D01*
X128642Y169544D01*
X125358Y169544D01*
X123182Y170446D01*
X123087Y170468D01*
X122994Y170496D01*
X122968Y170496D01*
X122942Y170502D01*
X122846Y170493D01*
X122748Y170490D01*
X122724Y170481D01*
X122698Y170479D01*
X122609Y170439D01*
X122517Y170406D01*
X122497Y170389D01*
X122473Y170379D01*
X122401Y170313D01*
X122325Y170252D01*
X122311Y170230D01*
X122292Y170212D01*
X122245Y170127D01*
X122192Y170045D01*
X122186Y170020D01*
X122173Y169997D01*
X122156Y169901D01*
X122132Y169807D01*
X122134Y169780D01*
X122129Y169755D01*
X122144Y169658D01*
X122151Y169561D01*
X122161Y169537D01*
X122165Y169511D01*
X122209Y169424D01*
X122247Y169335D01*
X122268Y169310D01*
X122277Y169292D01*
X122300Y169269D01*
X122352Y169204D01*
X199085Y92471D01*
X199101Y92446D01*
X199160Y92346D01*
X199165Y92342D01*
X199168Y92337D01*
X199258Y92262D01*
X199347Y92186D01*
X199353Y92184D01*
X199358Y92180D01*
X199466Y92138D01*
X199575Y92094D01*
X199583Y92093D01*
X199588Y92092D01*
X199606Y92091D01*
X199742Y92076D01*
X244704Y92076D01*
X244794Y92090D01*
X244885Y92098D01*
X244915Y92110D01*
X244947Y92115D01*
X245028Y92158D01*
X245111Y92194D01*
X245144Y92220D01*
X245164Y92231D01*
X245186Y92254D01*
X245242Y92299D01*
X271747Y118803D01*
X271800Y118877D01*
X271859Y118947D01*
X271872Y118977D01*
X271890Y119003D01*
X271917Y119090D01*
X271951Y119175D01*
X271956Y119216D01*
X271963Y119238D01*
X271962Y119270D01*
X271970Y119341D01*
X271970Y134631D01*
X274068Y139695D01*
X277944Y143572D01*
X283009Y145670D01*
X288491Y145670D01*
X293556Y143572D01*
X297432Y139695D01*
X299530Y134631D01*
X299530Y106669D01*
X297432Y101605D01*
X293556Y97728D01*
X288491Y95630D01*
X283009Y95630D01*
X277944Y97728D01*
X274068Y101605D01*
X274048Y101653D01*
X274024Y101692D01*
X274008Y101735D01*
X273959Y101796D01*
X273918Y101862D01*
X273883Y101891D01*
X273854Y101927D01*
X273789Y101969D01*
X273729Y102019D01*
X273686Y102035D01*
X273647Y102060D01*
X273572Y102079D01*
X273499Y102107D01*
X273453Y102109D01*
X273409Y102120D01*
X273331Y102114D01*
X273253Y102117D01*
X273209Y102105D01*
X273163Y102101D01*
X273092Y102071D01*
X273017Y102049D01*
X272979Y102023D01*
X272937Y102005D01*
X272831Y101919D01*
X272815Y101909D01*
X272812Y101905D01*
X272806Y101900D01*
X251247Y80341D01*
X248913Y79374D01*
X173362Y79374D01*
X171028Y80341D01*
X158247Y93121D01*
X158173Y93174D01*
X158104Y93234D01*
X158074Y93246D01*
X158048Y93265D01*
X157961Y93292D01*
X157876Y93326D01*
X157835Y93330D01*
X157813Y93337D01*
X157780Y93336D01*
X157709Y93344D01*
X157108Y93344D01*
X154073Y94601D01*
X151751Y96923D01*
X150494Y99958D01*
X150494Y103242D01*
X151751Y106277D01*
X154073Y108599D01*
X157108Y109856D01*
X160392Y109856D01*
X162568Y108954D01*
X162663Y108932D01*
X162756Y108904D01*
X162782Y108904D01*
X162808Y108898D01*
X162904Y108907D01*
X163002Y108910D01*
X163026Y108919D01*
X163052Y108921D01*
X163141Y108961D01*
X163233Y108994D01*
X163253Y109011D01*
X163277Y109021D01*
X163349Y109087D01*
X163425Y109148D01*
X163439Y109170D01*
X163458Y109188D01*
X163505Y109273D01*
X163558Y109355D01*
X163564Y109380D01*
X163577Y109403D01*
X163594Y109499D01*
X163618Y109593D01*
X163616Y109620D01*
X163621Y109645D01*
X163606Y109742D01*
X163599Y109839D01*
X163589Y109863D01*
X163585Y109889D01*
X163541Y109976D01*
X163503Y110065D01*
X163482Y110090D01*
X163473Y110108D01*
X163450Y110131D01*
X163398Y110196D01*
X77166Y196428D01*
X76199Y198762D01*
X76199Y220338D01*
X77166Y222672D01*
X104551Y250058D01*
X104604Y250132D01*
X104664Y250201D01*
X104676Y250231D01*
X104695Y250257D01*
X104722Y250344D01*
X104756Y250429D01*
X104760Y250470D01*
X104767Y250492D01*
X104766Y250525D01*
X104774Y250596D01*
X104774Y284192D01*
X104767Y284233D01*
X104768Y284243D01*
X104764Y284265D01*
X104763Y284322D01*
X104740Y284402D01*
X104735Y284434D01*
X104725Y284452D01*
X104716Y284483D01*
X103504Y287409D01*
X103504Y290441D01*
X104664Y293242D01*
X105016Y293594D01*
X105058Y293652D01*
X105108Y293704D01*
X105130Y293751D01*
X105160Y293793D01*
X105181Y293862D01*
X105211Y293927D01*
X105217Y293979D01*
X105232Y294029D01*
X105230Y294100D01*
X105238Y294171D01*
X105227Y294222D01*
X105226Y294274D01*
X105201Y294342D01*
X105186Y294412D01*
X105159Y294457D01*
X105142Y294505D01*
X105097Y294561D01*
X105060Y294623D01*
X105020Y294657D01*
X104988Y294697D01*
X104928Y294736D01*
X104873Y294783D01*
X104825Y294802D01*
X104781Y294830D01*
X104712Y294848D01*
X104645Y294875D01*
X104574Y294883D01*
X104542Y294891D01*
X104519Y294889D01*
X104478Y294893D01*
X87427Y294893D01*
X78993Y303327D01*
X78993Y347461D01*
X78979Y347551D01*
X78971Y347642D01*
X78959Y347672D01*
X78954Y347704D01*
X78911Y347785D01*
X78875Y347869D01*
X78849Y347901D01*
X78838Y347922D01*
X78815Y347944D01*
X78770Y348000D01*
X78125Y348645D01*
X75818Y350952D01*
X75818Y352870D01*
X75807Y352941D01*
X75805Y353013D01*
X75787Y353062D01*
X75779Y353113D01*
X75745Y353176D01*
X75720Y353244D01*
X75688Y353284D01*
X75663Y353330D01*
X75611Y353380D01*
X75567Y353436D01*
X75523Y353464D01*
X75485Y353500D01*
X75420Y353530D01*
X75360Y353569D01*
X75309Y353581D01*
X75262Y353603D01*
X75191Y353611D01*
X75121Y353629D01*
X75069Y353625D01*
X75018Y353630D01*
X74947Y353615D01*
X74876Y353610D01*
X74828Y353589D01*
X74777Y353578D01*
X74716Y353541D01*
X74650Y353513D01*
X74594Y353469D01*
X74566Y353452D01*
X74551Y353434D01*
X74519Y353409D01*
X70670Y349560D01*
X68542Y348679D01*
X68481Y348641D01*
X68416Y348612D01*
X68377Y348577D01*
X68333Y348549D01*
X68287Y348494D01*
X68235Y348445D01*
X68210Y348400D01*
X68176Y348360D01*
X68151Y348293D01*
X68116Y348230D01*
X68107Y348179D01*
X68088Y348130D01*
X68085Y348058D01*
X68072Y347988D01*
X68080Y347936D01*
X68078Y347884D01*
X68098Y347815D01*
X68108Y347744D01*
X68132Y347698D01*
X68146Y347648D01*
X68187Y347589D01*
X68220Y347525D01*
X68257Y347489D01*
X68287Y347446D01*
X68344Y347403D01*
X68395Y347353D01*
X68458Y347318D01*
X68484Y347299D01*
X68506Y347292D01*
X68542Y347272D01*
X69232Y346986D01*
X72661Y343557D01*
X74518Y339075D01*
X74518Y334225D01*
X72661Y329743D01*
X69232Y326314D01*
X68542Y326028D01*
X68481Y325990D01*
X68416Y325961D01*
X68377Y325926D01*
X68333Y325898D01*
X68287Y325843D01*
X68235Y325795D01*
X68210Y325749D01*
X68176Y325709D01*
X68151Y325642D01*
X68116Y325579D01*
X68107Y325528D01*
X68088Y325479D01*
X68085Y325408D01*
X68072Y325337D01*
X68080Y325286D01*
X68078Y325234D01*
X68098Y325165D01*
X68108Y325094D01*
X68132Y325047D01*
X68146Y324997D01*
X68187Y324938D01*
X68220Y324874D01*
X68257Y324838D01*
X68287Y324795D01*
X68344Y324752D01*
X68395Y324702D01*
X68458Y324668D01*
X68484Y324648D01*
X68506Y324641D01*
X68542Y324621D01*
X70670Y323740D01*
X74815Y319595D01*
X77058Y314181D01*
X77058Y308319D01*
X74815Y302905D01*
X70670Y298760D01*
X68542Y297879D01*
X68481Y297841D01*
X68416Y297812D01*
X68377Y297777D01*
X68333Y297749D01*
X68287Y297694D01*
X68235Y297645D01*
X68210Y297600D01*
X68176Y297560D01*
X68151Y297493D01*
X68116Y297430D01*
X68107Y297379D01*
X68088Y297330D01*
X68085Y297258D01*
X68072Y297188D01*
X68080Y297136D01*
X68078Y297084D01*
X68098Y297015D01*
X68108Y296944D01*
X68132Y296898D01*
X68146Y296848D01*
X68187Y296789D01*
X68220Y296725D01*
X68257Y296689D01*
X68287Y296646D01*
X68344Y296603D01*
X68395Y296553D01*
X68458Y296518D01*
X68484Y296499D01*
X68506Y296492D01*
X68542Y296472D01*
X69232Y296186D01*
X72661Y292757D01*
X74518Y288275D01*
X74518Y283425D01*
X72661Y278943D01*
X69232Y275514D01*
X64750Y273657D01*
X59900Y273657D01*
X55418Y275514D01*
X51989Y278943D01*
X50132Y283425D01*
X50132Y288275D01*
X51989Y292757D01*
X55418Y296186D01*
X56108Y296472D01*
X56169Y296510D01*
X56234Y296539D01*
X56273Y296574D01*
X56317Y296602D01*
X56363Y296657D01*
X56415Y296705D01*
X56440Y296751D01*
X56474Y296791D01*
X56499Y296858D01*
X56534Y296921D01*
X56543Y296972D01*
X56562Y297021D01*
X56565Y297092D01*
X56578Y297163D01*
X56570Y297214D01*
X56572Y297266D01*
X56552Y297335D01*
X56542Y297406D01*
X56518Y297453D01*
X56504Y297503D01*
X56463Y297562D01*
X56430Y297626D01*
X56393Y297662D01*
X56363Y297705D01*
X56306Y297748D01*
X56255Y297798D01*
X56192Y297832D01*
X56166Y297852D01*
X56144Y297859D01*
X56108Y297879D01*
X53980Y298760D01*
X49835Y302905D01*
X47592Y308319D01*
X47592Y314181D01*
X49835Y319595D01*
X53980Y323740D01*
X56108Y324621D01*
X56169Y324659D01*
X56234Y324688D01*
X56273Y324723D01*
X56317Y324751D01*
X56363Y324806D01*
X56415Y324855D01*
X56440Y324900D01*
X56474Y324940D01*
X56499Y325007D01*
X56534Y325070D01*
X56543Y325121D01*
X56562Y325170D01*
X56565Y325242D01*
X56578Y325312D01*
X56570Y325364D01*
X56572Y325416D01*
X56552Y325485D01*
X56542Y325556D01*
X56518Y325602D01*
X56504Y325652D01*
X56463Y325711D01*
X56430Y325775D01*
X56393Y325811D01*
X56363Y325854D01*
X56306Y325897D01*
X56255Y325947D01*
X56192Y325982D01*
X56166Y326001D01*
X56144Y326008D01*
X56108Y326028D01*
X55418Y326314D01*
X51989Y329743D01*
X50132Y334225D01*
X50132Y339075D01*
X51989Y343557D01*
X55418Y346986D01*
X56108Y347272D01*
X56169Y347310D01*
X56234Y347339D01*
X56273Y347374D01*
X56317Y347402D01*
X56363Y347457D01*
X56415Y347505D01*
X56440Y347551D01*
X56474Y347591D01*
X56499Y347658D01*
X56534Y347721D01*
X56543Y347772D01*
X56562Y347821D01*
X56565Y347892D01*
X56578Y347963D01*
X56570Y348014D01*
X56572Y348066D01*
X56552Y348135D01*
X56542Y348206D01*
X56518Y348253D01*
X56504Y348303D01*
X56463Y348362D01*
X56430Y348426D01*
X56393Y348462D01*
X56363Y348505D01*
X56306Y348548D01*
X56255Y348598D01*
X56192Y348632D01*
X56166Y348652D01*
X56144Y348659D01*
X56108Y348679D01*
X53980Y349560D01*
X49835Y353705D01*
X47592Y359119D01*
X47592Y359395D01*
X47578Y359485D01*
X47570Y359576D01*
X47558Y359606D01*
X47553Y359638D01*
X47510Y359719D01*
X47474Y359803D01*
X47448Y359835D01*
X47437Y359855D01*
X47414Y359878D01*
X47369Y359934D01*
X32931Y374371D01*
X32003Y376612D01*
X32003Y388287D01*
X31989Y388377D01*
X31981Y388468D01*
X31969Y388498D01*
X31964Y388530D01*
X31921Y388610D01*
X31885Y388694D01*
X31859Y388726D01*
X31848Y388747D01*
X31825Y388769D01*
X31780Y388825D01*
X29486Y391119D01*
X27939Y394854D01*
X27939Y398896D01*
X29486Y402631D01*
X32344Y405489D01*
X36079Y407036D01*
X40121Y407036D01*
X43856Y405489D01*
X46714Y402631D01*
X48261Y398896D01*
X48261Y395821D01*
X48276Y395725D01*
X48286Y395628D01*
X48296Y395604D01*
X48300Y395579D01*
X48346Y395492D01*
X48386Y395404D01*
X48403Y395384D01*
X48416Y395361D01*
X48486Y395294D01*
X48552Y395222D01*
X48575Y395210D01*
X48594Y395192D01*
X48682Y395151D01*
X48768Y395104D01*
X48793Y395099D01*
X48817Y395088D01*
X48914Y395078D01*
X49010Y395060D01*
X49036Y395064D01*
X49061Y395061D01*
X49156Y395082D01*
X49253Y395096D01*
X49276Y395108D01*
X49302Y395113D01*
X49385Y395163D01*
X49472Y395208D01*
X49491Y395226D01*
X49513Y395240D01*
X49576Y395313D01*
X49644Y395383D01*
X49660Y395412D01*
X49673Y395426D01*
X49685Y395457D01*
X49725Y395530D01*
X49835Y395795D01*
X53651Y399612D01*
X53663Y399628D01*
X53679Y399640D01*
X53735Y399728D01*
X53795Y399811D01*
X53801Y399830D01*
X53812Y399847D01*
X53837Y399948D01*
X53867Y400047D01*
X53867Y400066D01*
X53872Y400086D01*
X53864Y400189D01*
X53861Y400292D01*
X53854Y400311D01*
X53853Y400331D01*
X53812Y400426D01*
X53777Y400523D01*
X53764Y400539D01*
X53756Y400557D01*
X53651Y400688D01*
X49835Y404505D01*
X47592Y409919D01*
X47592Y410195D01*
X47578Y410285D01*
X47570Y410376D01*
X47558Y410406D01*
X47553Y410438D01*
X47510Y410519D01*
X47474Y410603D01*
X47448Y410635D01*
X47437Y410655D01*
X47414Y410678D01*
X47369Y410734D01*
X32931Y425171D01*
X32003Y427412D01*
X32003Y435313D01*
X31992Y435384D01*
X31990Y435456D01*
X31972Y435505D01*
X31964Y435556D01*
X31930Y435619D01*
X31905Y435687D01*
X31873Y435727D01*
X31848Y435773D01*
X31796Y435823D01*
X31752Y435879D01*
X31708Y435907D01*
X31670Y435943D01*
X31605Y435973D01*
X31545Y436012D01*
X31494Y436024D01*
X31447Y436046D01*
X31376Y436054D01*
X31306Y436072D01*
X31254Y436068D01*
X31203Y436073D01*
X31132Y436058D01*
X31061Y436053D01*
X31013Y436032D01*
X30962Y436021D01*
X30901Y435984D01*
X30835Y435956D01*
X30779Y435911D01*
X30751Y435895D01*
X30736Y435877D01*
X30704Y435851D01*
X29717Y434864D01*
X29427Y434744D01*
X29327Y434683D01*
X29227Y434623D01*
X29223Y434618D01*
X29218Y434615D01*
X29143Y434525D01*
X29067Y434436D01*
X29065Y434430D01*
X29061Y434425D01*
X29019Y434317D01*
X28975Y434208D01*
X28974Y434200D01*
X28973Y434196D01*
X28972Y434177D01*
X28957Y434041D01*
X28957Y404927D01*
X17125Y393095D01*
X17083Y393037D01*
X17034Y392985D01*
X17012Y392938D01*
X16982Y392896D01*
X16961Y392827D01*
X16930Y392762D01*
X16925Y392710D01*
X16909Y392660D01*
X16911Y392589D01*
X16903Y392518D01*
X16914Y392467D01*
X16916Y392415D01*
X16940Y392347D01*
X16956Y392277D01*
X16982Y392232D01*
X17000Y392184D01*
X17045Y392128D01*
X17082Y392066D01*
X17121Y392032D01*
X17154Y391992D01*
X17214Y391953D01*
X17269Y391906D01*
X17317Y391887D01*
X17361Y391859D01*
X17430Y391841D01*
X17497Y391814D01*
X17568Y391806D01*
X17599Y391798D01*
X17623Y391800D01*
X17664Y391796D01*
X21197Y391796D01*
X25165Y390152D01*
X28202Y387115D01*
X29846Y383147D01*
X29846Y378853D01*
X28202Y374885D01*
X25165Y371848D01*
X21197Y370204D01*
X16903Y370204D01*
X12935Y371848D01*
X11206Y373576D01*
X11148Y373618D01*
X11096Y373667D01*
X11049Y373689D01*
X11007Y373720D01*
X10938Y373741D01*
X10873Y373771D01*
X10821Y373777D01*
X10771Y373792D01*
X10700Y373790D01*
X10629Y373798D01*
X10578Y373787D01*
X10526Y373786D01*
X10458Y373761D01*
X10388Y373746D01*
X10343Y373719D01*
X10295Y373701D01*
X10239Y373656D01*
X10177Y373620D01*
X10143Y373580D01*
X10103Y373548D01*
X10064Y373487D01*
X10017Y373433D01*
X9998Y373385D01*
X9970Y373341D01*
X9952Y373271D01*
X9925Y373205D01*
X9917Y373133D01*
X9909Y373102D01*
X9911Y373079D01*
X9907Y373038D01*
X9907Y358926D01*
X9922Y358830D01*
X9932Y358733D01*
X9942Y358710D01*
X9946Y358684D01*
X9992Y358598D01*
X10032Y358509D01*
X10049Y358489D01*
X10062Y358466D01*
X10132Y358399D01*
X10198Y358328D01*
X10221Y358315D01*
X10240Y358297D01*
X10328Y358256D01*
X10414Y358209D01*
X10439Y358204D01*
X10463Y358193D01*
X10560Y358183D01*
X10656Y358165D01*
X10682Y358169D01*
X10707Y358166D01*
X10803Y358187D01*
X10899Y358201D01*
X10922Y358213D01*
X10948Y358219D01*
X11031Y358268D01*
X11118Y358313D01*
X11137Y358331D01*
X11159Y358345D01*
X11222Y358419D01*
X11290Y358488D01*
X11306Y358517D01*
X11319Y358532D01*
X11331Y358562D01*
X11371Y358635D01*
X11734Y359511D01*
X12637Y360863D01*
X13787Y362013D01*
X15139Y362916D01*
X16642Y363538D01*
X17527Y363714D01*
X17527Y356362D01*
X17530Y356342D01*
X17528Y356323D01*
X17550Y356221D01*
X17567Y356119D01*
X17576Y356102D01*
X17580Y356082D01*
X17633Y355993D01*
X17682Y355902D01*
X17696Y355888D01*
X17706Y355871D01*
X17785Y355804D01*
X17860Y355733D01*
X17878Y355724D01*
X17893Y355711D01*
X17989Y355672D01*
X18083Y355629D01*
X18103Y355627D01*
X18121Y355619D01*
X18288Y355601D01*
X19051Y355601D01*
X19051Y355599D01*
X18288Y355599D01*
X18268Y355596D01*
X18249Y355598D01*
X18147Y355576D01*
X18045Y355559D01*
X18028Y355550D01*
X18008Y355546D01*
X17919Y355493D01*
X17828Y355444D01*
X17814Y355430D01*
X17797Y355420D01*
X17730Y355341D01*
X17659Y355266D01*
X17650Y355248D01*
X17637Y355233D01*
X17598Y355137D01*
X17555Y355043D01*
X17553Y355023D01*
X17545Y355005D01*
X17527Y354838D01*
X17527Y347486D01*
X16642Y347662D01*
X15139Y348284D01*
X13787Y349187D01*
X12637Y350337D01*
X11734Y351689D01*
X11371Y352565D01*
X11320Y352648D01*
X11274Y352734D01*
X11256Y352752D01*
X11242Y352774D01*
X11166Y352836D01*
X11096Y352903D01*
X11072Y352914D01*
X11052Y352931D01*
X10961Y352966D01*
X10873Y353007D01*
X10847Y353010D01*
X10823Y353019D01*
X10725Y353023D01*
X10629Y353034D01*
X10603Y353028D01*
X10577Y353029D01*
X10483Y353002D01*
X10388Y352981D01*
X10366Y352968D01*
X10341Y352961D01*
X10261Y352905D01*
X10177Y352855D01*
X10160Y352835D01*
X10139Y352821D01*
X10080Y352742D01*
X10017Y352668D01*
X10007Y352644D01*
X9992Y352623D01*
X9962Y352531D01*
X9925Y352440D01*
X9922Y352408D01*
X9916Y352389D01*
X9916Y352356D01*
X9907Y352274D01*
X9907Y287362D01*
X9918Y287291D01*
X9920Y287220D01*
X9938Y287171D01*
X9946Y287119D01*
X9980Y287056D01*
X10005Y286989D01*
X10037Y286948D01*
X10062Y286902D01*
X10114Y286853D01*
X10158Y286797D01*
X10202Y286768D01*
X10240Y286733D01*
X10305Y286702D01*
X10365Y286664D01*
X10416Y286651D01*
X10463Y286629D01*
X10534Y286621D01*
X10604Y286603D01*
X10656Y286608D01*
X10707Y286602D01*
X10778Y286617D01*
X10849Y286623D01*
X10897Y286643D01*
X10948Y286654D01*
X11009Y286691D01*
X11075Y286719D01*
X11131Y286764D01*
X11159Y286780D01*
X11174Y286798D01*
X11206Y286824D01*
X12935Y288552D01*
X16903Y290196D01*
X21197Y290196D01*
X25165Y288552D01*
X28202Y285515D01*
X29846Y281547D01*
X29846Y277253D01*
X28202Y273285D01*
X25165Y270248D01*
X21197Y268604D01*
X16903Y268604D01*
X12935Y270248D01*
X11206Y271976D01*
X11148Y272018D01*
X11096Y272067D01*
X11049Y272089D01*
X11007Y272120D01*
X10938Y272141D01*
X10873Y272171D01*
X10821Y272177D01*
X10771Y272192D01*
X10700Y272190D01*
X10629Y272198D01*
X10578Y272187D01*
X10526Y272186D01*
X10458Y272161D01*
X10388Y272146D01*
X10343Y272119D01*
X10295Y272101D01*
X10239Y272056D01*
X10177Y272020D01*
X10143Y271980D01*
X10103Y271948D01*
X10064Y271887D01*
X10017Y271833D01*
X9998Y271785D01*
X9970Y271741D01*
X9952Y271671D01*
X9925Y271605D01*
X9917Y271533D01*
X9909Y271502D01*
X9911Y271479D01*
X9907Y271438D01*
X9907Y189114D01*
X9921Y189023D01*
X9929Y188933D01*
X9941Y188903D01*
X9946Y188871D01*
X9989Y188790D01*
X10025Y188706D01*
X10051Y188674D01*
X10062Y188653D01*
X10085Y188631D01*
X10130Y188575D01*
X26650Y172055D01*
X26724Y172002D01*
X26794Y171942D01*
X26824Y171930D01*
X26850Y171911D01*
X26937Y171884D01*
X27022Y171850D01*
X27063Y171846D01*
X27085Y171839D01*
X27117Y171840D01*
X27189Y171832D01*
X28194Y171832D01*
X32419Y170082D01*
X35652Y166848D01*
X37402Y162624D01*
X37402Y140144D01*
X35652Y135920D01*
X32419Y132686D01*
X28194Y130936D01*
X23622Y130936D01*
X19397Y132686D01*
X16164Y135920D01*
X14414Y140144D01*
X14414Y162624D01*
X16164Y166848D01*
X18442Y169127D01*
X18453Y169143D01*
X18469Y169155D01*
X18525Y169243D01*
X18585Y169326D01*
X18591Y169345D01*
X18602Y169362D01*
X18627Y169463D01*
X18658Y169561D01*
X18657Y169581D01*
X18662Y169601D01*
X18654Y169704D01*
X18651Y169807D01*
X18644Y169826D01*
X18643Y169846D01*
X18603Y169941D01*
X18567Y170038D01*
X18554Y170054D01*
X18547Y170072D01*
X18442Y170203D01*
X3840Y184805D01*
X3782Y184847D01*
X3730Y184896D01*
X3683Y184918D01*
X3641Y184948D01*
X3572Y184969D01*
X3507Y185000D01*
X3455Y185005D01*
X3405Y185021D01*
X3334Y185019D01*
X3263Y185027D01*
X3212Y185016D01*
X3160Y185014D01*
X3092Y184990D01*
X3022Y184974D01*
X2978Y184948D01*
X2929Y184930D01*
X2873Y184885D01*
X2811Y184848D01*
X2777Y184809D01*
X2737Y184776D01*
X2698Y184716D01*
X2651Y184661D01*
X2632Y184613D01*
X2604Y184569D01*
X2586Y184500D01*
X2559Y184433D01*
X2551Y184362D01*
X2543Y184331D01*
X2545Y184307D01*
X2541Y184266D01*
X2541Y3302D01*
X2544Y3282D01*
X2542Y3263D01*
X2564Y3161D01*
X2580Y3059D01*
X2590Y3042D01*
X2594Y3022D01*
X2647Y2933D01*
X2696Y2842D01*
X2710Y2828D01*
X2720Y2811D01*
X2799Y2744D01*
X2874Y2672D01*
X2892Y2664D01*
X2907Y2651D01*
X3003Y2612D01*
X3097Y2569D01*
X3117Y2567D01*
X3135Y2559D01*
X3302Y2541D01*
X377698Y2541D01*
X377718Y2544D01*
G37*
G36*
X194682Y366365D02*
X194682Y366365D01*
X194759Y366367D01*
X194803Y366382D01*
X194848Y366389D01*
X194917Y366424D01*
X194990Y366451D01*
X195026Y366480D01*
X195067Y366501D01*
X195122Y366556D01*
X195183Y366605D01*
X195207Y366644D01*
X195239Y366676D01*
X195305Y366796D01*
X195316Y366812D01*
X195317Y366817D01*
X195320Y366823D01*
X195447Y367130D01*
X198020Y369703D01*
X201381Y371095D01*
X205019Y371095D01*
X208380Y369703D01*
X209520Y368563D01*
X209578Y368521D01*
X209630Y368472D01*
X209677Y368450D01*
X209719Y368419D01*
X209788Y368398D01*
X209853Y368368D01*
X209905Y368362D01*
X209955Y368347D01*
X210026Y368349D01*
X210097Y368341D01*
X210148Y368352D01*
X210200Y368353D01*
X210268Y368378D01*
X210338Y368393D01*
X210383Y368420D01*
X210431Y368438D01*
X210487Y368483D01*
X210549Y368519D01*
X210583Y368559D01*
X210623Y368591D01*
X210662Y368652D01*
X210709Y368706D01*
X210728Y368755D01*
X210756Y368798D01*
X210774Y368868D01*
X210801Y368934D01*
X210809Y369006D01*
X210817Y369037D01*
X210815Y369060D01*
X210819Y369101D01*
X210819Y378580D01*
X210805Y378670D01*
X210797Y378761D01*
X210785Y378791D01*
X210780Y378823D01*
X210737Y378904D01*
X210701Y378987D01*
X210675Y379020D01*
X210664Y379040D01*
X210641Y379062D01*
X210628Y379079D01*
X210622Y379089D01*
X210615Y379095D01*
X210596Y379118D01*
X185419Y404295D01*
X185419Y456399D01*
X185408Y456470D01*
X185406Y456541D01*
X185388Y456590D01*
X185380Y456642D01*
X185346Y456705D01*
X185321Y456772D01*
X185289Y456813D01*
X185264Y456859D01*
X185212Y456908D01*
X185168Y456964D01*
X185124Y456993D01*
X185086Y457028D01*
X185021Y457059D01*
X184961Y457097D01*
X184910Y457110D01*
X184863Y457132D01*
X184792Y457140D01*
X184722Y457157D01*
X184670Y457153D01*
X184619Y457159D01*
X184548Y457144D01*
X184477Y457138D01*
X184429Y457118D01*
X184378Y457107D01*
X184317Y457070D01*
X184251Y457042D01*
X184195Y456997D01*
X184167Y456981D01*
X184152Y456963D01*
X184120Y456937D01*
X182980Y455797D01*
X179619Y454405D01*
X175981Y454405D01*
X172620Y455797D01*
X170047Y458370D01*
X168655Y461731D01*
X168655Y465194D01*
X168641Y465284D01*
X168633Y465375D01*
X168621Y465405D01*
X168616Y465437D01*
X168573Y465518D01*
X168537Y465602D01*
X168511Y465634D01*
X168500Y465654D01*
X168477Y465677D01*
X168432Y465732D01*
X163218Y470946D01*
X160019Y474145D01*
X160019Y494499D01*
X160008Y494570D01*
X160006Y494641D01*
X159988Y494690D01*
X159980Y494742D01*
X159946Y494805D01*
X159921Y494872D01*
X159889Y494913D01*
X159864Y494959D01*
X159812Y495008D01*
X159768Y495064D01*
X159724Y495093D01*
X159686Y495128D01*
X159621Y495159D01*
X159561Y495197D01*
X159510Y495210D01*
X159463Y495232D01*
X159392Y495240D01*
X159322Y495257D01*
X159270Y495253D01*
X159219Y495259D01*
X159148Y495244D01*
X159077Y495238D01*
X159029Y495218D01*
X158978Y495207D01*
X158917Y495170D01*
X158851Y495142D01*
X158795Y495097D01*
X158767Y495081D01*
X158752Y495063D01*
X158720Y495037D01*
X157580Y493897D01*
X154219Y492505D01*
X150581Y492505D01*
X147220Y493897D01*
X144647Y496470D01*
X143255Y499831D01*
X143255Y503469D01*
X144647Y506830D01*
X147220Y509403D01*
X150581Y510795D01*
X154219Y510795D01*
X157580Y509403D01*
X158720Y508263D01*
X158778Y508221D01*
X158830Y508172D01*
X158877Y508150D01*
X158919Y508119D01*
X158988Y508098D01*
X159053Y508068D01*
X159105Y508062D01*
X159155Y508047D01*
X159226Y508049D01*
X159297Y508041D01*
X159348Y508052D01*
X159400Y508053D01*
X159468Y508078D01*
X159538Y508093D01*
X159583Y508120D01*
X159631Y508138D01*
X159687Y508183D01*
X159749Y508219D01*
X159783Y508259D01*
X159823Y508291D01*
X159862Y508352D01*
X159909Y508406D01*
X159928Y508455D01*
X159956Y508498D01*
X159974Y508568D01*
X160001Y508634D01*
X160009Y508706D01*
X160017Y508737D01*
X160015Y508760D01*
X160019Y508801D01*
X160019Y515105D01*
X160005Y515195D01*
X159997Y515286D01*
X159985Y515316D01*
X159980Y515348D01*
X159937Y515429D01*
X159901Y515512D01*
X159875Y515545D01*
X159864Y515565D01*
X159841Y515587D01*
X159796Y515643D01*
X118133Y557306D01*
X118060Y557359D01*
X117990Y557419D01*
X117960Y557431D01*
X117934Y557450D01*
X117847Y557477D01*
X117762Y557511D01*
X117721Y557515D01*
X117699Y557522D01*
X117666Y557521D01*
X117595Y557529D01*
X115959Y557529D01*
X113161Y558688D01*
X113092Y558705D01*
X113025Y558730D01*
X112973Y558732D01*
X112922Y558744D01*
X112851Y558738D01*
X112779Y558741D01*
X112729Y558726D01*
X112677Y558721D01*
X112612Y558692D01*
X112543Y558672D01*
X112500Y558642D01*
X112452Y558621D01*
X112400Y558573D01*
X112341Y558532D01*
X112310Y558490D01*
X112271Y558455D01*
X112237Y558392D01*
X112194Y558334D01*
X112178Y558285D01*
X112153Y558239D01*
X112140Y558169D01*
X112118Y558101D01*
X112118Y558049D01*
X112109Y557997D01*
X112119Y557926D01*
X112120Y557855D01*
X112140Y557786D01*
X112145Y557754D01*
X112155Y557733D01*
X112167Y557694D01*
X112396Y557141D01*
X112396Y554109D01*
X111236Y551308D01*
X109092Y549164D01*
X106291Y548004D01*
X103259Y548004D01*
X100458Y549164D01*
X98314Y551308D01*
X97154Y554109D01*
X97154Y557141D01*
X98366Y560067D01*
X98381Y560131D01*
X98406Y560192D01*
X98415Y560274D01*
X98422Y560306D01*
X98421Y560326D01*
X98424Y560358D01*
X98424Y568608D01*
X98405Y568723D01*
X98388Y568839D01*
X98386Y568844D01*
X98385Y568851D01*
X98330Y568953D01*
X98277Y569058D01*
X98272Y569062D01*
X98269Y569068D01*
X98185Y569148D01*
X98101Y569230D01*
X98095Y569234D01*
X98091Y569237D01*
X98074Y569245D01*
X98017Y569277D01*
X77166Y590128D01*
X76199Y592462D01*
X76199Y622529D01*
X76185Y622619D01*
X76177Y622710D01*
X76165Y622740D01*
X76160Y622772D01*
X76117Y622853D01*
X76081Y622936D01*
X76055Y622969D01*
X76044Y622989D01*
X76021Y623011D01*
X75976Y623067D01*
X68671Y630373D01*
X68577Y630440D01*
X68571Y630445D01*
X68551Y630462D01*
X68545Y630464D01*
X68482Y630511D01*
X68476Y630513D01*
X68471Y630516D01*
X68360Y630550D01*
X68249Y630587D01*
X68242Y630587D01*
X68236Y630589D01*
X68119Y630586D01*
X68003Y630584D01*
X67995Y630582D01*
X67990Y630582D01*
X67973Y630576D01*
X67841Y630538D01*
X65067Y629388D01*
X65016Y629357D01*
X64961Y629334D01*
X64928Y629306D01*
X64892Y629287D01*
X64877Y629271D01*
X64858Y629259D01*
X64820Y629213D01*
X64774Y629174D01*
X64752Y629136D01*
X64725Y629107D01*
X64716Y629087D01*
X64701Y629069D01*
X64680Y629013D01*
X64649Y628962D01*
X64640Y628919D01*
X64623Y628882D01*
X64621Y628861D01*
X64613Y628840D01*
X64610Y628780D01*
X64598Y628721D01*
X64603Y628678D01*
X64599Y628638D01*
X64603Y628617D01*
X64602Y628594D01*
X64619Y628536D01*
X64626Y628477D01*
X64644Y628438D01*
X64653Y628398D01*
X64664Y628380D01*
X64671Y628358D01*
X64705Y628309D01*
X64730Y628254D01*
X64760Y628223D01*
X64782Y628188D01*
X64798Y628174D01*
X64811Y628156D01*
X64859Y628120D01*
X64900Y628077D01*
X64938Y628057D01*
X64970Y628030D01*
X64995Y628019D01*
X65008Y628009D01*
X65040Y627998D01*
X65109Y627967D01*
X65118Y627963D01*
X65121Y627962D01*
X65123Y627961D01*
X67005Y627349D01*
X68715Y626478D01*
X70268Y625350D01*
X71625Y623993D01*
X72753Y622440D01*
X73624Y620730D01*
X74218Y618905D01*
X74428Y617573D01*
X63087Y617573D01*
X63067Y617570D01*
X63048Y617572D01*
X62946Y617550D01*
X62844Y617533D01*
X62827Y617524D01*
X62807Y617520D01*
X62718Y617467D01*
X62627Y617418D01*
X62613Y617404D01*
X62596Y617394D01*
X62529Y617315D01*
X62458Y617240D01*
X62449Y617222D01*
X62436Y617207D01*
X62398Y617111D01*
X62354Y617017D01*
X62352Y616997D01*
X62344Y616979D01*
X62326Y616812D01*
X62326Y615288D01*
X62329Y615268D01*
X62327Y615249D01*
X62349Y615147D01*
X62366Y615045D01*
X62375Y615028D01*
X62379Y615008D01*
X62432Y614919D01*
X62481Y614828D01*
X62495Y614814D01*
X62505Y614797D01*
X62584Y614730D01*
X62659Y614659D01*
X62677Y614650D01*
X62692Y614637D01*
X62788Y614598D01*
X62882Y614555D01*
X62902Y614553D01*
X62920Y614545D01*
X63087Y614527D01*
X74428Y614527D01*
X74218Y613195D01*
X73624Y611370D01*
X72753Y609660D01*
X71625Y608107D01*
X70268Y606750D01*
X68715Y605622D01*
X67005Y604751D01*
X65123Y604139D01*
X65086Y604120D01*
X65045Y604109D01*
X64995Y604076D01*
X64940Y604051D01*
X64924Y604036D01*
X64905Y604026D01*
X64876Y603996D01*
X64840Y603973D01*
X64803Y603925D01*
X64759Y603885D01*
X64748Y603865D01*
X64733Y603850D01*
X64716Y603813D01*
X64689Y603778D01*
X64669Y603722D01*
X64641Y603669D01*
X64637Y603647D01*
X64627Y603628D01*
X64623Y603587D01*
X64608Y603546D01*
X64608Y603486D01*
X64597Y603427D01*
X64600Y603404D01*
X64598Y603383D01*
X64606Y603344D01*
X64606Y603300D01*
X64624Y603243D01*
X64633Y603184D01*
X64643Y603163D01*
X64648Y603143D01*
X64668Y603107D01*
X64682Y603066D01*
X64717Y603018D01*
X64744Y602965D01*
X64761Y602948D01*
X64772Y602930D01*
X64802Y602903D01*
X64828Y602869D01*
X64877Y602834D01*
X64920Y602793D01*
X64945Y602779D01*
X64957Y602768D01*
X64986Y602756D01*
X65003Y602747D01*
X65030Y602728D01*
X65045Y602724D01*
X65067Y602712D01*
X69232Y600986D01*
X72661Y597557D01*
X74518Y593075D01*
X74518Y588225D01*
X72661Y583743D01*
X69232Y580314D01*
X65224Y578653D01*
X65163Y578616D01*
X65097Y578586D01*
X65059Y578551D01*
X65015Y578524D01*
X64969Y578469D01*
X64916Y578420D01*
X64891Y578374D01*
X64858Y578334D01*
X64832Y578267D01*
X64797Y578204D01*
X64788Y578153D01*
X64770Y578105D01*
X64766Y578033D01*
X64754Y577962D01*
X64761Y577911D01*
X64759Y577859D01*
X64779Y577790D01*
X64790Y577719D01*
X64813Y577673D01*
X64828Y577623D01*
X64868Y577564D01*
X64901Y577500D01*
X64938Y577463D01*
X64968Y577421D01*
X65025Y577378D01*
X65077Y577328D01*
X65139Y577293D01*
X65165Y577274D01*
X65188Y577267D01*
X65224Y577247D01*
X69232Y575586D01*
X72661Y572157D01*
X74518Y567675D01*
X74518Y562736D01*
X74514Y562723D01*
X74515Y562716D01*
X74513Y562710D01*
X74524Y562593D01*
X74534Y562478D01*
X74536Y562472D01*
X74537Y562465D01*
X74585Y562358D01*
X74630Y562251D01*
X74635Y562245D01*
X74637Y562241D01*
X74650Y562226D01*
X74735Y562120D01*
X86107Y550748D01*
X86107Y458989D01*
X86121Y458898D01*
X86129Y458808D01*
X86141Y458778D01*
X86146Y458746D01*
X86189Y458665D01*
X86225Y458581D01*
X86251Y458549D01*
X86262Y458528D01*
X86285Y458506D01*
X86330Y458450D01*
X90150Y454630D01*
X92457Y452323D01*
X92457Y420776D01*
X92468Y420705D01*
X92470Y420633D01*
X92488Y420584D01*
X92496Y420533D01*
X92530Y420470D01*
X92555Y420402D01*
X92587Y420362D01*
X92612Y420316D01*
X92664Y420266D01*
X92708Y420210D01*
X92752Y420182D01*
X92790Y420146D01*
X92855Y420116D01*
X92915Y420077D01*
X92966Y420065D01*
X93013Y420043D01*
X93084Y420035D01*
X93154Y420017D01*
X93206Y420021D01*
X93257Y420016D01*
X93328Y420031D01*
X93399Y420036D01*
X93447Y420057D01*
X93498Y420068D01*
X93559Y420105D01*
X93625Y420133D01*
X93681Y420178D01*
X93709Y420194D01*
X93724Y420212D01*
X93756Y420238D01*
X94935Y421416D01*
X120426Y446908D01*
X120479Y446982D01*
X120539Y447051D01*
X120551Y447081D01*
X120570Y447107D01*
X120597Y447194D01*
X120631Y447279D01*
X120635Y447320D01*
X120642Y447342D01*
X120641Y447375D01*
X120649Y447446D01*
X120649Y456653D01*
X120635Y456743D01*
X120627Y456834D01*
X120615Y456864D01*
X120610Y456896D01*
X120567Y456976D01*
X120531Y457060D01*
X120505Y457092D01*
X120494Y457113D01*
X120471Y457135D01*
X120426Y457191D01*
X119247Y458370D01*
X117855Y461731D01*
X117855Y465369D01*
X119247Y468730D01*
X121820Y471303D01*
X125181Y472695D01*
X128819Y472695D01*
X132180Y471303D01*
X134753Y468730D01*
X136145Y465369D01*
X136145Y461731D01*
X134753Y458370D01*
X133574Y457191D01*
X133521Y457117D01*
X133461Y457048D01*
X133449Y457018D01*
X133430Y456991D01*
X133403Y456904D01*
X133369Y456820D01*
X133365Y456779D01*
X133358Y456756D01*
X133359Y456724D01*
X133351Y456653D01*
X133351Y443237D01*
X132384Y440903D01*
X132202Y440720D01*
X132160Y440662D01*
X132110Y440610D01*
X132088Y440563D01*
X132058Y440521D01*
X132037Y440452D01*
X132007Y440387D01*
X132001Y440335D01*
X131986Y440285D01*
X131988Y440214D01*
X131980Y440143D01*
X131991Y440092D01*
X131992Y440040D01*
X132017Y439972D01*
X132032Y439902D01*
X132059Y439857D01*
X132076Y439809D01*
X132121Y439753D01*
X132158Y439691D01*
X132198Y439657D01*
X132230Y439617D01*
X132290Y439578D01*
X132345Y439531D01*
X132393Y439512D01*
X132437Y439484D01*
X132506Y439466D01*
X132573Y439439D01*
X132644Y439431D01*
X132676Y439423D01*
X132699Y439425D01*
X132740Y439421D01*
X134866Y439421D01*
X137667Y438261D01*
X139811Y436117D01*
X140971Y433316D01*
X140971Y430284D01*
X139811Y427483D01*
X137667Y425339D01*
X134866Y424179D01*
X134493Y424179D01*
X134473Y424176D01*
X134454Y424178D01*
X134352Y424156D01*
X134250Y424140D01*
X134233Y424130D01*
X134213Y424126D01*
X134124Y424073D01*
X134033Y424024D01*
X134019Y424010D01*
X134002Y424000D01*
X133935Y423921D01*
X133863Y423846D01*
X133855Y423828D01*
X133842Y423813D01*
X133803Y423717D01*
X133760Y423623D01*
X133758Y423603D01*
X133750Y423585D01*
X133732Y423418D01*
X133732Y422572D01*
X133743Y422501D01*
X133745Y422429D01*
X133763Y422380D01*
X133771Y422329D01*
X133805Y422266D01*
X133830Y422198D01*
X133862Y422158D01*
X133887Y422112D01*
X133939Y422062D01*
X133983Y422006D01*
X134027Y421978D01*
X134065Y421942D01*
X134130Y421912D01*
X134190Y421873D01*
X134241Y421861D01*
X134288Y421839D01*
X134359Y421831D01*
X134429Y421813D01*
X134481Y421817D01*
X134532Y421812D01*
X134603Y421827D01*
X134674Y421832D01*
X134722Y421853D01*
X134773Y421864D01*
X134834Y421901D01*
X134900Y421929D01*
X134956Y421974D01*
X134984Y421990D01*
X134999Y422008D01*
X135031Y422034D01*
X135383Y422386D01*
X138184Y423546D01*
X141216Y423546D01*
X144017Y422386D01*
X146161Y420242D01*
X147321Y417441D01*
X147321Y414409D01*
X147201Y414119D01*
X147174Y414006D01*
X147145Y413892D01*
X147146Y413886D01*
X147144Y413880D01*
X147155Y413763D01*
X147164Y413647D01*
X147167Y413641D01*
X147167Y413635D01*
X147216Y413527D01*
X147261Y413420D01*
X147265Y413415D01*
X147267Y413410D01*
X147280Y413396D01*
X147366Y413289D01*
X194079Y366576D01*
X194116Y366549D01*
X194147Y366516D01*
X194215Y366478D01*
X194279Y366433D01*
X194322Y366419D01*
X194363Y366397D01*
X194439Y366383D01*
X194514Y366360D01*
X194559Y366361D01*
X194605Y366353D01*
X194682Y366365D01*
G37*
%LPC*%
G36*
X353958Y442594D02*
X353958Y442594D01*
X350923Y443851D01*
X348601Y446173D01*
X347344Y449208D01*
X347344Y452492D01*
X348601Y455527D01*
X350923Y457849D01*
X353958Y459106D01*
X357242Y459106D01*
X357892Y458837D01*
X358006Y458810D01*
X358119Y458781D01*
X358125Y458782D01*
X358131Y458780D01*
X358248Y458791D01*
X358364Y458800D01*
X358370Y458803D01*
X358376Y458803D01*
X358484Y458851D01*
X358591Y458897D01*
X358596Y458901D01*
X358601Y458903D01*
X358615Y458916D01*
X358722Y459002D01*
X367695Y467975D01*
X367748Y468049D01*
X367808Y468119D01*
X367820Y468149D01*
X367839Y468175D01*
X367866Y468262D01*
X367900Y468347D01*
X367904Y468388D01*
X367911Y468410D01*
X367910Y468442D01*
X367918Y468514D01*
X367918Y617336D01*
X367904Y617427D01*
X367896Y617517D01*
X367884Y617547D01*
X367879Y617579D01*
X367836Y617660D01*
X367800Y617744D01*
X367774Y617776D01*
X367763Y617797D01*
X367740Y617819D01*
X367695Y617875D01*
X336168Y649402D01*
X336168Y689780D01*
X336149Y689894D01*
X336132Y690010D01*
X336130Y690016D01*
X336129Y690022D01*
X336074Y690125D01*
X336021Y690230D01*
X336016Y690234D01*
X336013Y690240D01*
X335929Y690319D01*
X335845Y690402D01*
X335839Y690406D01*
X335835Y690409D01*
X335818Y690417D01*
X335698Y690483D01*
X332982Y691608D01*
X330472Y694118D01*
X330414Y694159D01*
X330406Y694166D01*
X330322Y694237D01*
X330321Y694237D01*
X330287Y694251D01*
X330272Y694261D01*
X330216Y694279D01*
X330192Y694288D01*
X330093Y694327D01*
X330092Y694327D01*
X330052Y694329D01*
X330037Y694334D01*
X329987Y694333D01*
X329980Y694333D01*
X329847Y694340D01*
X329805Y694328D01*
X329791Y694327D01*
X329748Y694312D01*
X329730Y694307D01*
X329610Y694273D01*
X329573Y694248D01*
X329560Y694243D01*
X329524Y694214D01*
X329493Y694193D01*
X329407Y694134D01*
X329406Y694133D01*
X329372Y694092D01*
X329368Y694089D01*
X329364Y694084D01*
X329299Y694006D01*
X328897Y693404D01*
X327707Y692215D01*
X326308Y691280D01*
X324754Y690636D01*
X323786Y690443D01*
X323786Y704088D01*
X323782Y704108D01*
X323785Y704127D01*
X323763Y704229D01*
X323746Y704331D01*
X323737Y704348D01*
X323732Y704368D01*
X323679Y704457D01*
X323631Y704548D01*
X323616Y704562D01*
X323606Y704579D01*
X323528Y704646D01*
X323453Y704717D01*
X323434Y704726D01*
X323419Y704739D01*
X323323Y704777D01*
X323229Y704821D01*
X323210Y704823D01*
X323191Y704831D01*
X323024Y704849D01*
X321501Y704849D01*
X321481Y704846D01*
X321461Y704848D01*
X321360Y704826D01*
X321258Y704809D01*
X321240Y704800D01*
X321221Y704796D01*
X321132Y704743D01*
X321040Y704694D01*
X321027Y704680D01*
X321010Y704670D01*
X320942Y704591D01*
X320871Y704516D01*
X320863Y704498D01*
X320850Y704483D01*
X320811Y704387D01*
X320767Y704293D01*
X320765Y704273D01*
X320758Y704255D01*
X320739Y704088D01*
X320739Y690443D01*
X319771Y690636D01*
X318217Y691280D01*
X316818Y692215D01*
X315628Y693404D01*
X315226Y694006D01*
X315136Y694102D01*
X315132Y694106D01*
X315101Y694145D01*
X315088Y694153D01*
X315058Y694186D01*
X314956Y694241D01*
X314932Y694254D01*
X314894Y694278D01*
X314881Y694282D01*
X314842Y694302D01*
X314842Y694303D01*
X314716Y694324D01*
X314701Y694327D01*
X314656Y694338D01*
X314642Y694337D01*
X314600Y694344D01*
X314599Y694344D01*
X314490Y694327D01*
X314462Y694323D01*
X314410Y694319D01*
X314396Y694313D01*
X314356Y694307D01*
X314267Y694261D01*
X314241Y694247D01*
X314184Y694223D01*
X314165Y694208D01*
X314138Y694194D01*
X314138Y694193D01*
X314105Y694159D01*
X314053Y694118D01*
X311543Y691608D01*
X308404Y690308D01*
X305006Y690308D01*
X301867Y691608D01*
X299464Y694011D01*
X298164Y697150D01*
X298164Y712550D01*
X299464Y715689D01*
X301867Y718092D01*
X305006Y719392D01*
X308404Y719392D01*
X311543Y718092D01*
X314053Y715582D01*
X314111Y715541D01*
X314132Y715523D01*
X314203Y715463D01*
X314204Y715463D01*
X314238Y715449D01*
X314253Y715439D01*
X314309Y715421D01*
X314333Y715412D01*
X314432Y715373D01*
X314433Y715373D01*
X314473Y715371D01*
X314488Y715366D01*
X314538Y715367D01*
X314545Y715367D01*
X314678Y715360D01*
X314720Y715372D01*
X314734Y715373D01*
X314777Y715388D01*
X314785Y715391D01*
X314915Y715427D01*
X314952Y715452D01*
X314965Y715457D01*
X315001Y715486D01*
X315020Y715499D01*
X315118Y715566D01*
X315119Y715567D01*
X315153Y715608D01*
X315157Y715611D01*
X315161Y715616D01*
X315226Y715694D01*
X315628Y716296D01*
X316818Y717485D01*
X318217Y718420D01*
X319771Y719064D01*
X320739Y719257D01*
X320739Y705612D01*
X320742Y705592D01*
X320740Y705573D01*
X320762Y705471D01*
X320779Y705369D01*
X320788Y705352D01*
X320793Y705332D01*
X320846Y705243D01*
X320894Y705152D01*
X320909Y705138D01*
X320919Y705121D01*
X320997Y705054D01*
X321072Y704983D01*
X321090Y704974D01*
X321106Y704961D01*
X321202Y704923D01*
X321296Y704879D01*
X321315Y704877D01*
X321334Y704869D01*
X321501Y704851D01*
X323024Y704851D01*
X323044Y704854D01*
X323064Y704852D01*
X323165Y704874D01*
X323267Y704891D01*
X323285Y704900D01*
X323304Y704904D01*
X323393Y704957D01*
X323485Y705006D01*
X323498Y705020D01*
X323515Y705030D01*
X323583Y705109D01*
X323654Y705184D01*
X323662Y705202D01*
X323675Y705217D01*
X323714Y705313D01*
X323758Y705407D01*
X323760Y705427D01*
X323767Y705445D01*
X323786Y705612D01*
X323786Y719257D01*
X324754Y719064D01*
X326308Y718420D01*
X327707Y717485D01*
X328897Y716296D01*
X329299Y715694D01*
X329393Y715594D01*
X329424Y715555D01*
X329437Y715547D01*
X329467Y715514D01*
X329574Y715456D01*
X329593Y715446D01*
X329631Y715422D01*
X329644Y715418D01*
X329683Y715398D01*
X329683Y715397D01*
X329809Y715376D01*
X329824Y715373D01*
X329869Y715362D01*
X329883Y715363D01*
X329925Y715356D01*
X329926Y715356D01*
X330031Y715372D01*
X330063Y715377D01*
X330115Y715381D01*
X330129Y715387D01*
X330169Y715393D01*
X330256Y715439D01*
X330284Y715453D01*
X330341Y715477D01*
X330360Y715492D01*
X330387Y715506D01*
X330387Y715507D01*
X330420Y715541D01*
X330472Y715582D01*
X332982Y718092D01*
X336121Y719392D01*
X339519Y719392D01*
X342658Y718092D01*
X345060Y715690D01*
X345077Y715678D01*
X345089Y715663D01*
X345176Y715607D01*
X345260Y715546D01*
X345279Y715540D01*
X345296Y715530D01*
X345396Y715504D01*
X345495Y715474D01*
X345515Y715474D01*
X345535Y715470D01*
X345637Y715478D01*
X345741Y715480D01*
X345760Y715487D01*
X345780Y715489D01*
X345875Y715529D01*
X345972Y715565D01*
X345988Y715577D01*
X346006Y715585D01*
X346137Y715690D01*
X348539Y718092D01*
X351678Y719392D01*
X355077Y719392D01*
X358216Y718092D01*
X360619Y715689D01*
X361919Y712550D01*
X361919Y697150D01*
X360619Y694011D01*
X359380Y692772D01*
X359337Y692712D01*
X359288Y692661D01*
X359281Y692644D01*
X359267Y692629D01*
X359255Y692598D01*
X359236Y692572D01*
X359215Y692502D01*
X359185Y692438D01*
X359183Y692419D01*
X359175Y692400D01*
X359171Y692359D01*
X359164Y692337D01*
X359165Y692305D01*
X359157Y692234D01*
X359157Y662021D01*
X359176Y661907D01*
X359193Y661790D01*
X359195Y661785D01*
X359196Y661779D01*
X359251Y661676D01*
X359304Y661571D01*
X359309Y661567D01*
X359312Y661561D01*
X359396Y661481D01*
X359480Y661399D01*
X359486Y661395D01*
X359490Y661392D01*
X359507Y661384D01*
X359627Y661318D01*
X360277Y661049D01*
X362599Y658727D01*
X363856Y655692D01*
X363856Y652408D01*
X362599Y649373D01*
X360277Y647051D01*
X357242Y645794D01*
X353958Y645794D01*
X350923Y647051D01*
X348601Y649373D01*
X347344Y652408D01*
X347344Y655692D01*
X348601Y658727D01*
X350923Y661049D01*
X351573Y661318D01*
X351673Y661380D01*
X351773Y661440D01*
X351777Y661444D01*
X351782Y661448D01*
X351857Y661538D01*
X351933Y661626D01*
X351935Y661632D01*
X351939Y661637D01*
X351981Y661746D01*
X352025Y661855D01*
X352026Y661862D01*
X352027Y661867D01*
X352028Y661885D01*
X352043Y662021D01*
X352043Y689648D01*
X352024Y689763D01*
X352007Y689879D01*
X352005Y689885D01*
X352004Y689891D01*
X351949Y689993D01*
X351896Y690098D01*
X351891Y690103D01*
X351888Y690108D01*
X351804Y690188D01*
X351720Y690270D01*
X351714Y690274D01*
X351710Y690278D01*
X351693Y690285D01*
X351573Y690351D01*
X348539Y691608D01*
X346137Y694010D01*
X346121Y694022D01*
X346108Y694037D01*
X346021Y694094D01*
X345937Y694154D01*
X345918Y694160D01*
X345901Y694170D01*
X345801Y694196D01*
X345702Y694226D01*
X345682Y694226D01*
X345663Y694230D01*
X345560Y694222D01*
X345456Y694220D01*
X345438Y694213D01*
X345418Y694211D01*
X345323Y694171D01*
X345225Y694135D01*
X345210Y694123D01*
X345191Y694115D01*
X345060Y694010D01*
X343505Y692454D01*
X343452Y692380D01*
X343392Y692311D01*
X343380Y692281D01*
X343361Y692255D01*
X343334Y692168D01*
X343300Y692083D01*
X343296Y692042D01*
X343289Y692020D01*
X343290Y691987D01*
X343282Y691916D01*
X343282Y652664D01*
X343296Y652573D01*
X343304Y652483D01*
X343316Y652453D01*
X343321Y652421D01*
X343364Y652340D01*
X343400Y652256D01*
X343426Y652224D01*
X343437Y652203D01*
X343460Y652181D01*
X343469Y652170D01*
X343477Y652157D01*
X343485Y652150D01*
X343505Y652125D01*
X375032Y620598D01*
X375032Y465252D01*
X372725Y462945D01*
X363752Y453972D01*
X363683Y453876D01*
X363614Y453783D01*
X363612Y453777D01*
X363608Y453772D01*
X363574Y453660D01*
X363537Y453549D01*
X363538Y453543D01*
X363536Y453537D01*
X363539Y453420D01*
X363540Y453303D01*
X363542Y453296D01*
X363542Y453291D01*
X363548Y453273D01*
X363587Y453142D01*
X363856Y452492D01*
X363856Y449208D01*
X362599Y446173D01*
X360277Y443851D01*
X357242Y442594D01*
X353958Y442594D01*
G37*
%LPD*%
G36*
X318977Y257571D02*
X318977Y257571D01*
X319067Y257579D01*
X319097Y257591D01*
X319129Y257596D01*
X319210Y257639D01*
X319294Y257675D01*
X319326Y257701D01*
X319347Y257712D01*
X319349Y257714D01*
X319369Y257735D01*
X319425Y257780D01*
X322635Y260990D01*
X322662Y261027D01*
X322696Y261059D01*
X322734Y261127D01*
X322779Y261190D01*
X322792Y261234D01*
X322814Y261274D01*
X322828Y261351D01*
X322851Y261425D01*
X322850Y261471D01*
X322858Y261516D01*
X322847Y261593D01*
X322845Y261671D01*
X322829Y261714D01*
X322822Y261759D01*
X322787Y261829D01*
X322760Y261902D01*
X322732Y261938D01*
X322711Y261979D01*
X322655Y262033D01*
X322607Y262094D01*
X322568Y262119D01*
X322535Y262151D01*
X322415Y262217D01*
X322400Y262227D01*
X322395Y262228D01*
X322388Y262232D01*
X319533Y263414D01*
X317389Y265558D01*
X316229Y268359D01*
X316229Y271391D01*
X316784Y272731D01*
X316801Y272801D01*
X316826Y272867D01*
X316829Y272919D01*
X316840Y272970D01*
X316834Y273041D01*
X316837Y273113D01*
X316822Y273163D01*
X316817Y273215D01*
X316788Y273281D01*
X316768Y273349D01*
X316739Y273392D01*
X316717Y273440D01*
X316669Y273493D01*
X316628Y273551D01*
X316586Y273583D01*
X316551Y273621D01*
X316488Y273655D01*
X316431Y273698D01*
X316381Y273714D01*
X316335Y273740D01*
X316265Y273752D01*
X316197Y273774D01*
X316145Y273774D01*
X316093Y273783D01*
X316022Y273773D01*
X315951Y273772D01*
X315882Y273752D01*
X315850Y273747D01*
X315829Y273737D01*
X315790Y273725D01*
X315625Y273657D01*
X310775Y273657D01*
X306293Y275514D01*
X302864Y278943D01*
X301007Y283425D01*
X301007Y288275D01*
X302864Y292757D01*
X306293Y296186D01*
X310301Y297847D01*
X310362Y297885D01*
X310428Y297914D01*
X310466Y297949D01*
X310511Y297976D01*
X310556Y298032D01*
X310609Y298080D01*
X310634Y298126D01*
X310667Y298166D01*
X310693Y298233D01*
X310728Y298296D01*
X310737Y298347D01*
X310756Y298395D01*
X310759Y298467D01*
X310771Y298538D01*
X310764Y298589D01*
X310766Y298641D01*
X310746Y298710D01*
X310736Y298781D01*
X310712Y298827D01*
X310697Y298877D01*
X310657Y298936D01*
X310624Y299000D01*
X310587Y299037D01*
X310557Y299079D01*
X310500Y299122D01*
X310448Y299172D01*
X310386Y299207D01*
X310360Y299226D01*
X310338Y299233D01*
X310301Y299253D01*
X306293Y300914D01*
X302864Y304343D01*
X301007Y308825D01*
X301007Y313675D01*
X302864Y318157D01*
X306293Y321586D01*
X310301Y323247D01*
X310362Y323285D01*
X310428Y323314D01*
X310466Y323349D01*
X310511Y323376D01*
X310556Y323432D01*
X310609Y323480D01*
X310634Y323526D01*
X310667Y323566D01*
X310693Y323633D01*
X310728Y323696D01*
X310737Y323747D01*
X310756Y323795D01*
X310759Y323867D01*
X310771Y323938D01*
X310764Y323989D01*
X310766Y324041D01*
X310746Y324110D01*
X310736Y324181D01*
X310712Y324227D01*
X310697Y324277D01*
X310657Y324336D01*
X310624Y324400D01*
X310587Y324437D01*
X310557Y324479D01*
X310500Y324522D01*
X310448Y324572D01*
X310386Y324607D01*
X310360Y324626D01*
X310338Y324633D01*
X310301Y324653D01*
X306293Y326314D01*
X302864Y329743D01*
X301007Y334225D01*
X301007Y339075D01*
X302864Y343557D01*
X306293Y346986D01*
X310301Y348647D01*
X310362Y348685D01*
X310428Y348714D01*
X310466Y348749D01*
X310511Y348776D01*
X310556Y348832D01*
X310609Y348880D01*
X310634Y348926D01*
X310667Y348966D01*
X310693Y349033D01*
X310728Y349096D01*
X310737Y349147D01*
X310756Y349195D01*
X310759Y349267D01*
X310771Y349338D01*
X310764Y349389D01*
X310766Y349441D01*
X310746Y349510D01*
X310736Y349581D01*
X310712Y349627D01*
X310697Y349677D01*
X310657Y349736D01*
X310624Y349800D01*
X310587Y349837D01*
X310557Y349879D01*
X310500Y349922D01*
X310448Y349972D01*
X310386Y350007D01*
X310360Y350026D01*
X310338Y350033D01*
X310301Y350053D01*
X306293Y351714D01*
X302864Y355143D01*
X301007Y359625D01*
X301007Y364475D01*
X302864Y368957D01*
X306293Y372386D01*
X310301Y374047D01*
X310362Y374085D01*
X310428Y374114D01*
X310466Y374149D01*
X310511Y374176D01*
X310556Y374232D01*
X310609Y374280D01*
X310634Y374326D01*
X310667Y374366D01*
X310693Y374433D01*
X310728Y374496D01*
X310737Y374547D01*
X310756Y374595D01*
X310759Y374667D01*
X310771Y374738D01*
X310764Y374789D01*
X310766Y374841D01*
X310746Y374910D01*
X310736Y374981D01*
X310712Y375027D01*
X310697Y375077D01*
X310657Y375136D01*
X310624Y375200D01*
X310587Y375237D01*
X310557Y375279D01*
X310500Y375322D01*
X310448Y375372D01*
X310386Y375407D01*
X310360Y375426D01*
X310338Y375433D01*
X310301Y375453D01*
X306293Y377114D01*
X302864Y380543D01*
X301007Y385025D01*
X301007Y389875D01*
X302864Y394357D01*
X306293Y397786D01*
X310301Y399447D01*
X310362Y399485D01*
X310428Y399514D01*
X310466Y399549D01*
X310511Y399576D01*
X310556Y399632D01*
X310609Y399680D01*
X310634Y399726D01*
X310667Y399766D01*
X310693Y399833D01*
X310728Y399896D01*
X310737Y399947D01*
X310756Y399995D01*
X310759Y400067D01*
X310771Y400138D01*
X310764Y400189D01*
X310766Y400241D01*
X310746Y400310D01*
X310736Y400381D01*
X310712Y400427D01*
X310697Y400477D01*
X310657Y400536D01*
X310624Y400600D01*
X310587Y400637D01*
X310557Y400679D01*
X310500Y400722D01*
X310448Y400772D01*
X310386Y400807D01*
X310360Y400826D01*
X310338Y400833D01*
X310301Y400853D01*
X306293Y402514D01*
X302864Y405943D01*
X301007Y410425D01*
X301007Y415275D01*
X302864Y419757D01*
X306293Y423186D01*
X310301Y424847D01*
X310362Y424885D01*
X310428Y424914D01*
X310466Y424949D01*
X310511Y424976D01*
X310556Y425032D01*
X310609Y425080D01*
X310634Y425126D01*
X310667Y425166D01*
X310693Y425233D01*
X310728Y425296D01*
X310737Y425347D01*
X310756Y425395D01*
X310759Y425467D01*
X310771Y425538D01*
X310764Y425589D01*
X310766Y425641D01*
X310746Y425710D01*
X310736Y425781D01*
X310712Y425827D01*
X310697Y425877D01*
X310657Y425936D01*
X310624Y426000D01*
X310587Y426037D01*
X310557Y426079D01*
X310500Y426122D01*
X310448Y426172D01*
X310386Y426207D01*
X310360Y426226D01*
X310338Y426233D01*
X310301Y426253D01*
X306293Y427914D01*
X302864Y431343D01*
X301007Y435825D01*
X301007Y440675D01*
X302864Y445157D01*
X306293Y448586D01*
X310301Y450247D01*
X310362Y450285D01*
X310428Y450314D01*
X310466Y450349D01*
X310511Y450376D01*
X310556Y450432D01*
X310609Y450480D01*
X310634Y450526D01*
X310667Y450566D01*
X310693Y450633D01*
X310728Y450696D01*
X310737Y450747D01*
X310756Y450795D01*
X310759Y450867D01*
X310771Y450938D01*
X310764Y450989D01*
X310766Y451041D01*
X310746Y451110D01*
X310736Y451181D01*
X310712Y451227D01*
X310697Y451277D01*
X310657Y451336D01*
X310624Y451400D01*
X310587Y451437D01*
X310557Y451479D01*
X310500Y451522D01*
X310448Y451572D01*
X310386Y451607D01*
X310360Y451626D01*
X310338Y451633D01*
X310301Y451653D01*
X306293Y453314D01*
X302864Y456743D01*
X301007Y461225D01*
X301007Y466075D01*
X302864Y470557D01*
X306293Y473986D01*
X310301Y475647D01*
X310362Y475685D01*
X310428Y475714D01*
X310466Y475749D01*
X310511Y475776D01*
X310556Y475832D01*
X310609Y475880D01*
X310634Y475926D01*
X310667Y475966D01*
X310693Y476033D01*
X310728Y476096D01*
X310737Y476147D01*
X310756Y476195D01*
X310759Y476267D01*
X310771Y476338D01*
X310764Y476389D01*
X310766Y476441D01*
X310746Y476510D01*
X310736Y476581D01*
X310712Y476627D01*
X310697Y476677D01*
X310657Y476736D01*
X310624Y476800D01*
X310587Y476837D01*
X310557Y476879D01*
X310500Y476922D01*
X310448Y476972D01*
X310386Y477007D01*
X310360Y477026D01*
X310338Y477033D01*
X310301Y477053D01*
X306293Y478714D01*
X302864Y482143D01*
X301007Y486625D01*
X301007Y491475D01*
X302864Y495957D01*
X306293Y499386D01*
X310301Y501047D01*
X310362Y501085D01*
X310428Y501114D01*
X310466Y501149D01*
X310511Y501176D01*
X310556Y501232D01*
X310609Y501280D01*
X310634Y501326D01*
X310667Y501366D01*
X310693Y501433D01*
X310728Y501496D01*
X310737Y501547D01*
X310756Y501595D01*
X310759Y501667D01*
X310771Y501738D01*
X310764Y501789D01*
X310766Y501841D01*
X310746Y501910D01*
X310736Y501981D01*
X310712Y502027D01*
X310697Y502077D01*
X310657Y502136D01*
X310624Y502200D01*
X310587Y502237D01*
X310557Y502279D01*
X310500Y502322D01*
X310448Y502372D01*
X310386Y502407D01*
X310360Y502426D01*
X310338Y502433D01*
X310301Y502453D01*
X306293Y504114D01*
X302864Y507543D01*
X301007Y512025D01*
X301007Y516875D01*
X302864Y521357D01*
X306293Y524786D01*
X310301Y526447D01*
X310362Y526485D01*
X310428Y526514D01*
X310466Y526549D01*
X310511Y526576D01*
X310556Y526632D01*
X310609Y526680D01*
X310634Y526726D01*
X310667Y526766D01*
X310693Y526833D01*
X310728Y526896D01*
X310737Y526947D01*
X310756Y526995D01*
X310759Y527067D01*
X310771Y527138D01*
X310764Y527189D01*
X310766Y527241D01*
X310746Y527310D01*
X310736Y527381D01*
X310712Y527427D01*
X310697Y527477D01*
X310657Y527536D01*
X310624Y527600D01*
X310587Y527637D01*
X310557Y527679D01*
X310500Y527722D01*
X310448Y527772D01*
X310386Y527807D01*
X310360Y527826D01*
X310338Y527833D01*
X310301Y527853D01*
X306293Y529514D01*
X302864Y532943D01*
X301007Y537425D01*
X301007Y542275D01*
X302864Y546757D01*
X306293Y550186D01*
X310301Y551847D01*
X310362Y551885D01*
X310428Y551914D01*
X310466Y551949D01*
X310511Y551976D01*
X310556Y552032D01*
X310609Y552080D01*
X310634Y552126D01*
X310667Y552166D01*
X310693Y552233D01*
X310728Y552296D01*
X310737Y552347D01*
X310756Y552395D01*
X310759Y552467D01*
X310771Y552538D01*
X310764Y552589D01*
X310766Y552641D01*
X310746Y552710D01*
X310736Y552781D01*
X310712Y552827D01*
X310697Y552877D01*
X310657Y552936D01*
X310624Y553000D01*
X310587Y553037D01*
X310557Y553079D01*
X310500Y553122D01*
X310448Y553172D01*
X310386Y553207D01*
X310360Y553226D01*
X310338Y553233D01*
X310301Y553253D01*
X306293Y554914D01*
X302864Y558343D01*
X301007Y562825D01*
X301007Y567675D01*
X302864Y572157D01*
X306293Y575586D01*
X310301Y577247D01*
X310362Y577285D01*
X310428Y577314D01*
X310466Y577349D01*
X310511Y577376D01*
X310556Y577432D01*
X310609Y577480D01*
X310634Y577526D01*
X310667Y577566D01*
X310693Y577633D01*
X310728Y577696D01*
X310737Y577747D01*
X310756Y577795D01*
X310759Y577867D01*
X310771Y577938D01*
X310764Y577989D01*
X310766Y578041D01*
X310746Y578110D01*
X310736Y578181D01*
X310712Y578227D01*
X310697Y578277D01*
X310657Y578336D01*
X310624Y578400D01*
X310587Y578437D01*
X310557Y578479D01*
X310500Y578522D01*
X310448Y578572D01*
X310386Y578607D01*
X310360Y578626D01*
X310338Y578633D01*
X310301Y578653D01*
X306293Y580314D01*
X302864Y583743D01*
X301007Y588225D01*
X301007Y593075D01*
X302864Y597557D01*
X306293Y600986D01*
X310458Y602712D01*
X310512Y602745D01*
X310570Y602769D01*
X310600Y602795D01*
X310633Y602813D01*
X310648Y602829D01*
X310667Y602841D01*
X310708Y602890D01*
X310755Y602932D01*
X310775Y602966D01*
X310800Y602993D01*
X310809Y603013D01*
X310824Y603031D01*
X310847Y603090D01*
X310878Y603144D01*
X310886Y603184D01*
X310902Y603218D01*
X310904Y603238D01*
X310912Y603260D01*
X310915Y603323D01*
X310928Y603385D01*
X310923Y603425D01*
X310926Y603462D01*
X310922Y603483D01*
X310923Y603506D01*
X310905Y603567D01*
X310897Y603630D01*
X310880Y603666D01*
X310872Y603702D01*
X310861Y603720D01*
X310854Y603742D01*
X310818Y603794D01*
X310791Y603851D01*
X310763Y603880D01*
X310743Y603912D01*
X310727Y603926D01*
X310714Y603944D01*
X310663Y603982D01*
X310619Y604027D01*
X310584Y604045D01*
X310555Y604070D01*
X310530Y604081D01*
X310517Y604091D01*
X310485Y604102D01*
X310402Y604139D01*
X310401Y604139D01*
X310400Y604140D01*
X308520Y604751D01*
X306810Y605622D01*
X305257Y606750D01*
X303900Y608107D01*
X302772Y609660D01*
X301901Y611370D01*
X301307Y613195D01*
X301097Y614527D01*
X312438Y614527D01*
X312458Y614530D01*
X312477Y614528D01*
X312579Y614550D01*
X312681Y614567D01*
X312698Y614576D01*
X312718Y614580D01*
X312807Y614633D01*
X312898Y614682D01*
X312912Y614696D01*
X312929Y614706D01*
X312996Y614785D01*
X313067Y614860D01*
X313076Y614878D01*
X313089Y614893D01*
X313127Y614989D01*
X313171Y615083D01*
X313173Y615103D01*
X313181Y615121D01*
X313199Y615288D01*
X313199Y616812D01*
X313196Y616832D01*
X313198Y616851D01*
X313176Y616953D01*
X313159Y617055D01*
X313150Y617072D01*
X313146Y617092D01*
X313093Y617181D01*
X313044Y617272D01*
X313030Y617286D01*
X313020Y617303D01*
X312941Y617370D01*
X312866Y617441D01*
X312848Y617450D01*
X312833Y617463D01*
X312737Y617502D01*
X312643Y617545D01*
X312623Y617547D01*
X312605Y617555D01*
X312438Y617573D01*
X301097Y617573D01*
X301307Y618905D01*
X301901Y620730D01*
X302772Y622440D01*
X303900Y623993D01*
X305257Y625350D01*
X306810Y626478D01*
X308520Y627349D01*
X310402Y627961D01*
X310436Y627979D01*
X310474Y627988D01*
X310527Y628023D01*
X310585Y628049D01*
X310601Y628064D01*
X310620Y628074D01*
X310647Y628101D01*
X310680Y628123D01*
X310719Y628172D01*
X310766Y628215D01*
X310777Y628235D01*
X310792Y628250D01*
X310808Y628284D01*
X310833Y628316D01*
X310854Y628375D01*
X310884Y628431D01*
X310889Y628454D01*
X310898Y628472D01*
X310902Y628509D01*
X310916Y628547D01*
X310917Y628610D01*
X310928Y628673D01*
X310925Y628696D01*
X310927Y628717D01*
X310920Y628753D01*
X310920Y628793D01*
X310901Y628853D01*
X310892Y628916D01*
X310882Y628937D01*
X310877Y628957D01*
X310859Y628990D01*
X310847Y629028D01*
X310809Y629079D01*
X310781Y629135D01*
X310764Y629152D01*
X310753Y629170D01*
X310725Y629195D01*
X310702Y629227D01*
X310650Y629263D01*
X310605Y629307D01*
X310580Y629321D01*
X310568Y629332D01*
X310540Y629344D01*
X310528Y629350D01*
X310501Y629369D01*
X310484Y629374D01*
X310458Y629388D01*
X306516Y631021D01*
X306402Y631048D01*
X306289Y631077D01*
X306283Y631076D01*
X306276Y631078D01*
X306160Y631067D01*
X306044Y631057D01*
X306038Y631055D01*
X306032Y631054D01*
X305924Y631006D01*
X305817Y630961D01*
X305811Y630956D01*
X305807Y630954D01*
X305793Y630942D01*
X305686Y630856D01*
X299055Y624225D01*
X299008Y624159D01*
X298998Y624149D01*
X298995Y624143D01*
X298942Y624081D01*
X298930Y624051D01*
X298911Y624025D01*
X298884Y623938D01*
X298850Y623853D01*
X298846Y623812D01*
X298839Y623790D01*
X298840Y623758D01*
X298832Y623686D01*
X298832Y309677D01*
X255316Y266161D01*
X255248Y266066D01*
X255178Y265972D01*
X255176Y265966D01*
X255172Y265961D01*
X255138Y265849D01*
X255101Y265738D01*
X255102Y265732D01*
X255100Y265726D01*
X255103Y265609D01*
X255104Y265492D01*
X255106Y265485D01*
X255106Y265480D01*
X255112Y265462D01*
X255151Y265331D01*
X255271Y265041D01*
X255271Y262009D01*
X254111Y259208D01*
X253759Y258856D01*
X253717Y258798D01*
X253667Y258746D01*
X253645Y258699D01*
X253615Y258657D01*
X253594Y258588D01*
X253564Y258523D01*
X253558Y258471D01*
X253543Y258421D01*
X253545Y258350D01*
X253537Y258279D01*
X253548Y258228D01*
X253549Y258176D01*
X253574Y258108D01*
X253589Y258038D01*
X253616Y257993D01*
X253633Y257945D01*
X253678Y257889D01*
X253715Y257827D01*
X253755Y257793D01*
X253787Y257753D01*
X253847Y257714D01*
X253902Y257667D01*
X253950Y257648D01*
X253994Y257620D01*
X254063Y257602D01*
X254130Y257575D01*
X254201Y257567D01*
X254233Y257559D01*
X254256Y257561D01*
X254297Y257557D01*
X318886Y257557D01*
X318977Y257571D01*
G37*
G36*
X101639Y583982D02*
X101639Y583982D01*
X101742Y583985D01*
X101761Y583992D01*
X101781Y583993D01*
X101876Y584034D01*
X101973Y584069D01*
X101989Y584082D01*
X102007Y584090D01*
X102138Y584195D01*
X117941Y599997D01*
X118009Y600092D01*
X118079Y600186D01*
X118081Y600192D01*
X118084Y600197D01*
X118118Y600308D01*
X118155Y600419D01*
X118155Y600426D01*
X118157Y600432D01*
X118154Y600549D01*
X118152Y600665D01*
X118150Y600673D01*
X118150Y600678D01*
X118144Y600695D01*
X118106Y600827D01*
X117855Y601431D01*
X117855Y605069D01*
X119247Y608430D01*
X121820Y611003D01*
X125181Y612395D01*
X127882Y612395D01*
X127953Y612406D01*
X128025Y612408D01*
X128074Y612426D01*
X128125Y612434D01*
X128188Y612468D01*
X128256Y612493D01*
X128296Y612525D01*
X128342Y612550D01*
X128392Y612601D01*
X128448Y612646D01*
X128476Y612690D01*
X128512Y612728D01*
X128542Y612793D01*
X128581Y612853D01*
X128593Y612904D01*
X128615Y612951D01*
X128623Y613022D01*
X128641Y613092D01*
X128637Y613144D01*
X128642Y613195D01*
X128627Y613266D01*
X128622Y613337D01*
X128601Y613385D01*
X128590Y613436D01*
X128553Y613497D01*
X128525Y613563D01*
X128481Y613619D01*
X128464Y613647D01*
X128446Y613662D01*
X128421Y613694D01*
X95432Y646683D01*
X95337Y646751D01*
X95243Y646821D01*
X95237Y646823D01*
X95232Y646827D01*
X95121Y646861D01*
X95009Y646897D01*
X95003Y646897D01*
X94997Y646899D01*
X94880Y646896D01*
X94763Y646895D01*
X94756Y646893D01*
X94751Y646893D01*
X94733Y646886D01*
X94602Y646848D01*
X93591Y646429D01*
X90559Y646429D01*
X87758Y647589D01*
X85614Y649733D01*
X84454Y652534D01*
X84454Y655566D01*
X85614Y658367D01*
X86601Y659354D01*
X86643Y659412D01*
X86693Y659464D01*
X86715Y659511D01*
X86745Y659553D01*
X86766Y659622D01*
X86796Y659687D01*
X86802Y659739D01*
X86817Y659789D01*
X86815Y659860D01*
X86823Y659931D01*
X86812Y659982D01*
X86811Y660034D01*
X86786Y660102D01*
X86771Y660172D01*
X86744Y660217D01*
X86727Y660265D01*
X86682Y660321D01*
X86645Y660383D01*
X86605Y660417D01*
X86573Y660457D01*
X86513Y660496D01*
X86458Y660543D01*
X86410Y660562D01*
X86366Y660590D01*
X86296Y660608D01*
X86230Y660635D01*
X86159Y660643D01*
X86127Y660651D01*
X86104Y660649D01*
X86063Y660653D01*
X63166Y660653D01*
X63076Y660639D01*
X62985Y660631D01*
X62955Y660619D01*
X62923Y660614D01*
X62842Y660571D01*
X62758Y660535D01*
X62726Y660509D01*
X62706Y660498D01*
X62683Y660475D01*
X62627Y660430D01*
X55675Y653478D01*
X55618Y653399D01*
X55556Y653324D01*
X55547Y653300D01*
X55532Y653278D01*
X55503Y653185D01*
X55468Y653094D01*
X55467Y653068D01*
X55459Y653043D01*
X55462Y652946D01*
X55458Y652849D01*
X55465Y652824D01*
X55466Y652797D01*
X55499Y652706D01*
X55526Y652612D01*
X55541Y652591D01*
X55550Y652566D01*
X55611Y652490D01*
X55666Y652410D01*
X55687Y652395D01*
X55704Y652374D01*
X55786Y652322D01*
X55864Y652264D01*
X55889Y652255D01*
X55911Y652241D01*
X56005Y652218D01*
X56098Y652187D01*
X56124Y652188D01*
X56149Y652181D01*
X56246Y652189D01*
X56344Y652190D01*
X56375Y652199D01*
X56394Y652200D01*
X56425Y652213D01*
X56505Y652236D01*
X59900Y653643D01*
X64750Y653643D01*
X69232Y651786D01*
X72661Y648357D01*
X74518Y643875D01*
X74518Y642804D01*
X74532Y642714D01*
X74540Y642623D01*
X74552Y642593D01*
X74557Y642561D01*
X74600Y642480D01*
X74636Y642397D01*
X74662Y642364D01*
X74673Y642344D01*
X74696Y642322D01*
X74741Y642266D01*
X87934Y629072D01*
X88901Y626738D01*
X88901Y596671D01*
X88915Y596581D01*
X88923Y596490D01*
X88935Y596460D01*
X88940Y596428D01*
X88983Y596347D01*
X89019Y596264D01*
X89045Y596231D01*
X89056Y596211D01*
X89079Y596189D01*
X89124Y596133D01*
X101062Y584195D01*
X101078Y584183D01*
X101090Y584167D01*
X101178Y584111D01*
X101261Y584051D01*
X101280Y584045D01*
X101297Y584034D01*
X101398Y584009D01*
X101497Y583979D01*
X101516Y583979D01*
X101536Y583974D01*
X101639Y583982D01*
G37*
G36*
X52032Y423680D02*
X52032Y423680D01*
X52136Y423682D01*
X52155Y423689D01*
X52174Y423691D01*
X52269Y423731D01*
X52367Y423767D01*
X52382Y423779D01*
X52401Y423787D01*
X52532Y423892D01*
X53651Y425012D01*
X53663Y425028D01*
X53679Y425040D01*
X53735Y425127D01*
X53795Y425211D01*
X53801Y425231D01*
X53812Y425247D01*
X53837Y425348D01*
X53867Y425447D01*
X53867Y425466D01*
X53872Y425486D01*
X53864Y425589D01*
X53861Y425692D01*
X53854Y425711D01*
X53853Y425731D01*
X53812Y425826D01*
X53777Y425923D01*
X53764Y425939D01*
X53756Y425957D01*
X53651Y426088D01*
X49835Y429905D01*
X47592Y435319D01*
X47592Y441181D01*
X49835Y446595D01*
X53980Y450740D01*
X56108Y451621D01*
X56169Y451659D01*
X56234Y451688D01*
X56273Y451723D01*
X56317Y451751D01*
X56363Y451806D01*
X56415Y451855D01*
X56440Y451900D01*
X56474Y451940D01*
X56499Y452007D01*
X56534Y452070D01*
X56543Y452121D01*
X56562Y452170D01*
X56565Y452242D01*
X56578Y452312D01*
X56570Y452364D01*
X56572Y452416D01*
X56552Y452485D01*
X56542Y452556D01*
X56518Y452602D01*
X56504Y452652D01*
X56463Y452711D01*
X56430Y452775D01*
X56393Y452811D01*
X56363Y452854D01*
X56306Y452897D01*
X56255Y452947D01*
X56192Y452982D01*
X56166Y453001D01*
X56144Y453008D01*
X56108Y453028D01*
X55418Y453314D01*
X51989Y456743D01*
X50132Y461225D01*
X50132Y466075D01*
X51989Y470557D01*
X55418Y473986D01*
X59426Y475647D01*
X59487Y475684D01*
X59553Y475714D01*
X59591Y475749D01*
X59636Y475776D01*
X59681Y475831D01*
X59734Y475880D01*
X59759Y475926D01*
X59792Y475966D01*
X59818Y476033D01*
X59853Y476096D01*
X59862Y476147D01*
X59881Y476195D01*
X59884Y476267D01*
X59896Y476338D01*
X59889Y476389D01*
X59891Y476441D01*
X59871Y476510D01*
X59861Y476581D01*
X59837Y476627D01*
X59822Y476677D01*
X59782Y476736D01*
X59749Y476800D01*
X59712Y476837D01*
X59682Y476879D01*
X59625Y476922D01*
X59573Y476972D01*
X59511Y477007D01*
X59485Y477026D01*
X59463Y477033D01*
X59426Y477053D01*
X55418Y478714D01*
X51989Y482143D01*
X50132Y486625D01*
X50132Y491475D01*
X51989Y495957D01*
X55418Y499386D01*
X59426Y501047D01*
X59487Y501085D01*
X59553Y501114D01*
X59591Y501149D01*
X59635Y501176D01*
X59681Y501231D01*
X59734Y501280D01*
X59759Y501326D01*
X59792Y501366D01*
X59818Y501433D01*
X59853Y501496D01*
X59862Y501547D01*
X59880Y501595D01*
X59884Y501667D01*
X59896Y501738D01*
X59889Y501789D01*
X59891Y501841D01*
X59871Y501910D01*
X59860Y501981D01*
X59837Y502027D01*
X59822Y502077D01*
X59782Y502136D01*
X59749Y502200D01*
X59712Y502237D01*
X59682Y502279D01*
X59625Y502322D01*
X59573Y502372D01*
X59511Y502407D01*
X59485Y502426D01*
X59462Y502433D01*
X59426Y502453D01*
X55418Y504114D01*
X51989Y507543D01*
X50132Y512025D01*
X50132Y516875D01*
X51989Y521357D01*
X55418Y524786D01*
X59426Y526447D01*
X59487Y526485D01*
X59553Y526514D01*
X59591Y526549D01*
X59635Y526576D01*
X59681Y526631D01*
X59734Y526680D01*
X59759Y526726D01*
X59792Y526766D01*
X59818Y526833D01*
X59853Y526896D01*
X59862Y526947D01*
X59880Y526995D01*
X59884Y527067D01*
X59896Y527138D01*
X59889Y527189D01*
X59891Y527241D01*
X59871Y527310D01*
X59860Y527381D01*
X59837Y527427D01*
X59822Y527477D01*
X59782Y527536D01*
X59749Y527600D01*
X59712Y527637D01*
X59682Y527679D01*
X59625Y527722D01*
X59573Y527772D01*
X59511Y527807D01*
X59485Y527826D01*
X59462Y527833D01*
X59426Y527853D01*
X55418Y529514D01*
X51989Y532943D01*
X50132Y537425D01*
X50132Y542275D01*
X51989Y546757D01*
X55418Y550186D01*
X59426Y551847D01*
X59487Y551885D01*
X59553Y551914D01*
X59591Y551949D01*
X59635Y551976D01*
X59681Y552031D01*
X59734Y552080D01*
X59759Y552126D01*
X59792Y552166D01*
X59818Y552233D01*
X59853Y552296D01*
X59862Y552347D01*
X59880Y552395D01*
X59884Y552467D01*
X59896Y552538D01*
X59889Y552589D01*
X59891Y552641D01*
X59871Y552710D01*
X59860Y552781D01*
X59837Y552827D01*
X59822Y552877D01*
X59782Y552936D01*
X59749Y553000D01*
X59712Y553037D01*
X59682Y553079D01*
X59625Y553122D01*
X59573Y553172D01*
X59511Y553207D01*
X59485Y553226D01*
X59462Y553233D01*
X59426Y553253D01*
X55418Y554914D01*
X51989Y558343D01*
X50132Y562825D01*
X50132Y567675D01*
X51989Y572157D01*
X55418Y575586D01*
X59426Y577247D01*
X59487Y577285D01*
X59553Y577314D01*
X59591Y577349D01*
X59635Y577376D01*
X59681Y577431D01*
X59734Y577480D01*
X59759Y577526D01*
X59792Y577566D01*
X59818Y577633D01*
X59853Y577696D01*
X59862Y577747D01*
X59880Y577795D01*
X59884Y577867D01*
X59896Y577938D01*
X59889Y577989D01*
X59891Y578041D01*
X59871Y578110D01*
X59860Y578181D01*
X59837Y578227D01*
X59822Y578277D01*
X59782Y578336D01*
X59749Y578400D01*
X59712Y578437D01*
X59682Y578479D01*
X59625Y578522D01*
X59573Y578572D01*
X59511Y578607D01*
X59485Y578626D01*
X59462Y578633D01*
X59426Y578653D01*
X55418Y580314D01*
X51989Y583743D01*
X50132Y588225D01*
X50132Y593075D01*
X51989Y597557D01*
X55418Y600986D01*
X59583Y602712D01*
X59634Y602743D01*
X59689Y602766D01*
X59722Y602794D01*
X59758Y602813D01*
X59773Y602829D01*
X59792Y602841D01*
X59830Y602887D01*
X59876Y602926D01*
X59898Y602964D01*
X59925Y602993D01*
X59934Y603013D01*
X59949Y603031D01*
X59970Y603087D01*
X60001Y603138D01*
X60010Y603181D01*
X60027Y603218D01*
X60029Y603239D01*
X60037Y603260D01*
X60040Y603320D01*
X60052Y603379D01*
X60047Y603422D01*
X60051Y603462D01*
X60047Y603483D01*
X60048Y603506D01*
X60031Y603564D01*
X60024Y603623D01*
X60006Y603662D01*
X59997Y603702D01*
X59986Y603720D01*
X59979Y603742D01*
X59945Y603791D01*
X59920Y603846D01*
X59890Y603877D01*
X59868Y603912D01*
X59852Y603926D01*
X59839Y603944D01*
X59791Y603980D01*
X59750Y604023D01*
X59712Y604043D01*
X59680Y604070D01*
X59655Y604081D01*
X59642Y604091D01*
X59610Y604102D01*
X59541Y604133D01*
X59532Y604137D01*
X59529Y604138D01*
X59527Y604139D01*
X57645Y604751D01*
X55935Y605622D01*
X54382Y606750D01*
X53025Y608107D01*
X51897Y609660D01*
X51026Y611370D01*
X50432Y613195D01*
X50222Y614527D01*
X61563Y614527D01*
X61583Y614530D01*
X61602Y614528D01*
X61704Y614550D01*
X61806Y614567D01*
X61823Y614576D01*
X61843Y614580D01*
X61932Y614633D01*
X62023Y614682D01*
X62037Y614696D01*
X62054Y614706D01*
X62121Y614785D01*
X62192Y614860D01*
X62201Y614878D01*
X62214Y614893D01*
X62252Y614989D01*
X62296Y615083D01*
X62298Y615103D01*
X62306Y615121D01*
X62324Y615288D01*
X62324Y616812D01*
X62321Y616832D01*
X62323Y616851D01*
X62301Y616953D01*
X62284Y617055D01*
X62275Y617072D01*
X62271Y617092D01*
X62218Y617181D01*
X62169Y617272D01*
X62155Y617286D01*
X62145Y617303D01*
X62066Y617370D01*
X61991Y617441D01*
X61973Y617450D01*
X61958Y617463D01*
X61862Y617502D01*
X61768Y617545D01*
X61748Y617547D01*
X61730Y617555D01*
X61563Y617573D01*
X50222Y617573D01*
X50432Y618905D01*
X51026Y620730D01*
X51897Y622440D01*
X53025Y623993D01*
X54382Y625350D01*
X55935Y626478D01*
X57645Y627349D01*
X59527Y627961D01*
X59564Y627980D01*
X59605Y627991D01*
X59655Y628024D01*
X59710Y628049D01*
X59726Y628064D01*
X59745Y628074D01*
X59774Y628104D01*
X59810Y628127D01*
X59847Y628175D01*
X59891Y628215D01*
X59902Y628235D01*
X59917Y628250D01*
X59934Y628287D01*
X59961Y628322D01*
X59981Y628378D01*
X60009Y628431D01*
X60013Y628453D01*
X60023Y628472D01*
X60027Y628513D01*
X60042Y628554D01*
X60042Y628614D01*
X60053Y628673D01*
X60050Y628696D01*
X60052Y628717D01*
X60044Y628756D01*
X60044Y628800D01*
X60026Y628857D01*
X60017Y628916D01*
X60007Y628937D01*
X60002Y628957D01*
X59982Y628993D01*
X59968Y629034D01*
X59933Y629082D01*
X59906Y629135D01*
X59889Y629152D01*
X59878Y629170D01*
X59848Y629197D01*
X59822Y629231D01*
X59773Y629266D01*
X59730Y629307D01*
X59705Y629321D01*
X59693Y629332D01*
X59664Y629344D01*
X59647Y629353D01*
X59620Y629372D01*
X59605Y629376D01*
X59583Y629388D01*
X55418Y631114D01*
X51989Y634543D01*
X50132Y639025D01*
X50132Y643875D01*
X51539Y647270D01*
X51561Y647365D01*
X51589Y647458D01*
X51589Y647484D01*
X51595Y647510D01*
X51586Y647607D01*
X51583Y647704D01*
X51574Y647729D01*
X51572Y647755D01*
X51532Y647843D01*
X51499Y647935D01*
X51482Y647955D01*
X51472Y647979D01*
X51406Y648051D01*
X51345Y648127D01*
X51323Y648141D01*
X51305Y648160D01*
X51220Y648207D01*
X51138Y648260D01*
X51113Y648266D01*
X51090Y648279D01*
X50994Y648296D01*
X50899Y648320D01*
X50873Y648318D01*
X50848Y648323D01*
X50751Y648309D01*
X50654Y648301D01*
X50630Y648291D01*
X50604Y648287D01*
X50517Y648243D01*
X50428Y648205D01*
X50402Y648184D01*
X50385Y648175D01*
X50362Y648152D01*
X50297Y648100D01*
X44420Y642223D01*
X44367Y642149D01*
X44307Y642079D01*
X44295Y642049D01*
X44276Y642023D01*
X44249Y641936D01*
X44215Y641851D01*
X44211Y641810D01*
X44204Y641788D01*
X44205Y641756D01*
X44197Y641684D01*
X44197Y431466D01*
X44211Y431376D01*
X44219Y431285D01*
X44231Y431255D01*
X44236Y431223D01*
X44279Y431142D01*
X44315Y431058D01*
X44341Y431026D01*
X44352Y431006D01*
X44375Y430983D01*
X44420Y430927D01*
X51455Y423892D01*
X51471Y423880D01*
X51484Y423865D01*
X51571Y423809D01*
X51655Y423748D01*
X51674Y423743D01*
X51691Y423732D01*
X51791Y423706D01*
X51890Y423676D01*
X51910Y423677D01*
X51929Y423672D01*
X52032Y423680D01*
G37*
%LPC*%
G36*
X352859Y95630D02*
X352859Y95630D01*
X347794Y97728D01*
X343918Y101605D01*
X341820Y106669D01*
X341820Y134631D01*
X343918Y139695D01*
X347794Y143572D01*
X352859Y145670D01*
X358341Y145670D01*
X363406Y143572D01*
X367282Y139695D01*
X369380Y134631D01*
X369380Y106669D01*
X367282Y101605D01*
X363406Y97728D01*
X358341Y95630D01*
X352859Y95630D01*
G37*
%LPD*%
%LPC*%
G36*
X213159Y95630D02*
X213159Y95630D01*
X208094Y97728D01*
X204218Y101605D01*
X202120Y106669D01*
X202120Y134631D01*
X204218Y139695D01*
X208094Y143572D01*
X213159Y145670D01*
X218641Y145670D01*
X223706Y143572D01*
X227582Y139695D01*
X229680Y134631D01*
X229680Y106669D01*
X227582Y101605D01*
X223706Y97728D01*
X218641Y95630D01*
X213159Y95630D01*
G37*
%LPD*%
%LPC*%
G36*
X131051Y4825D02*
X131051Y4825D01*
X126803Y6585D01*
X123552Y9836D01*
X121792Y14084D01*
X121792Y36716D01*
X123552Y40964D01*
X126803Y44215D01*
X131051Y45975D01*
X135649Y45975D01*
X139897Y44215D01*
X143148Y40964D01*
X144908Y36716D01*
X144908Y14084D01*
X143148Y9836D01*
X139897Y6585D01*
X135649Y4825D01*
X131051Y4825D01*
G37*
%LPD*%
%LPC*%
G36*
X23622Y5968D02*
X23622Y5968D01*
X19397Y7718D01*
X16164Y10952D01*
X14414Y15176D01*
X14414Y37656D01*
X16164Y41880D01*
X19397Y45114D01*
X23622Y46864D01*
X28194Y46864D01*
X32419Y45114D01*
X35652Y41880D01*
X37402Y37656D01*
X37402Y15176D01*
X35652Y10952D01*
X32419Y7718D01*
X28194Y5968D01*
X23622Y5968D01*
G37*
%LPD*%
%LPC*%
G36*
X73406Y5968D02*
X73406Y5968D01*
X69181Y7718D01*
X65948Y10952D01*
X64198Y15176D01*
X64198Y37656D01*
X65948Y41880D01*
X69181Y45114D01*
X73406Y46864D01*
X77978Y46864D01*
X82203Y45114D01*
X85436Y41880D01*
X87186Y37656D01*
X87186Y15176D01*
X85436Y10952D01*
X82203Y7718D01*
X77978Y5968D01*
X73406Y5968D01*
G37*
%LPD*%
%LPC*%
G36*
X73406Y130936D02*
X73406Y130936D01*
X69181Y132686D01*
X65948Y135920D01*
X64198Y140144D01*
X64198Y162624D01*
X65948Y166848D01*
X69181Y170082D01*
X73406Y171832D01*
X77978Y171832D01*
X82203Y170082D01*
X85436Y166848D01*
X87186Y162624D01*
X87186Y140144D01*
X85436Y135920D01*
X82203Y132686D01*
X77978Y130936D01*
X73406Y130936D01*
G37*
%LPD*%
%LPC*%
G36*
X352568Y734059D02*
X352568Y734059D01*
X346967Y736380D01*
X342680Y740667D01*
X340359Y746268D01*
X340359Y752332D01*
X342680Y757933D01*
X346967Y762220D01*
X352568Y764541D01*
X358632Y764541D01*
X364233Y762220D01*
X368520Y757933D01*
X370841Y752332D01*
X370841Y746268D01*
X368520Y740667D01*
X364233Y736380D01*
X358632Y734059D01*
X352568Y734059D01*
G37*
%LPD*%
%LPC*%
G36*
X327168Y156209D02*
X327168Y156209D01*
X321567Y158530D01*
X317280Y162817D01*
X314959Y168418D01*
X314959Y174482D01*
X317280Y180083D01*
X321567Y184370D01*
X327168Y186691D01*
X333232Y186691D01*
X338833Y184370D01*
X343120Y180083D01*
X345441Y174482D01*
X345441Y168418D01*
X343120Y162817D01*
X338833Y158530D01*
X333232Y156209D01*
X327168Y156209D01*
G37*
%LPD*%
%LPC*%
G36*
X28718Y226059D02*
X28718Y226059D01*
X23117Y228380D01*
X18830Y232667D01*
X16509Y238268D01*
X16509Y244332D01*
X18830Y249933D01*
X23117Y254220D01*
X28718Y256541D01*
X34782Y256541D01*
X40383Y254220D01*
X44670Y249933D01*
X46991Y244332D01*
X46991Y238268D01*
X44670Y232667D01*
X40383Y228380D01*
X34782Y226059D01*
X28718Y226059D01*
G37*
%LPD*%
G36*
X329147Y558950D02*
X329147Y558950D01*
X329199Y558952D01*
X329267Y558976D01*
X329337Y558992D01*
X329381Y559018D01*
X329430Y559036D01*
X329486Y559081D01*
X329548Y559118D01*
X329582Y559157D01*
X329622Y559190D01*
X329661Y559250D01*
X329708Y559305D01*
X329727Y559353D01*
X329755Y559397D01*
X329773Y559466D01*
X329800Y559533D01*
X329808Y559604D01*
X329816Y559635D01*
X329814Y559659D01*
X329818Y559700D01*
X329818Y642736D01*
X329804Y642827D01*
X329796Y642917D01*
X329784Y642947D01*
X329779Y642979D01*
X329736Y643060D01*
X329700Y643144D01*
X329674Y643176D01*
X329663Y643197D01*
X329640Y643219D01*
X329631Y643231D01*
X329623Y643243D01*
X329615Y643250D01*
X329595Y643275D01*
X325552Y647318D01*
X325473Y647375D01*
X325398Y647437D01*
X325373Y647446D01*
X325352Y647462D01*
X325259Y647490D01*
X325168Y647525D01*
X325142Y647526D01*
X325117Y647534D01*
X325020Y647532D01*
X324922Y647536D01*
X324897Y647528D01*
X324871Y647528D01*
X324780Y647494D01*
X324686Y647467D01*
X324665Y647452D01*
X324640Y647443D01*
X324564Y647382D01*
X324484Y647327D01*
X324469Y647306D01*
X324448Y647290D01*
X324395Y647208D01*
X324337Y647130D01*
X324329Y647105D01*
X324315Y647083D01*
X324291Y646988D01*
X324261Y646896D01*
X324261Y646869D01*
X324255Y646844D01*
X324263Y646747D01*
X324264Y646650D01*
X324273Y646618D01*
X324274Y646599D01*
X324287Y646569D01*
X324310Y646489D01*
X325393Y643875D01*
X325393Y639025D01*
X323536Y634543D01*
X320107Y631114D01*
X315942Y629388D01*
X315888Y629355D01*
X315830Y629331D01*
X315800Y629305D01*
X315767Y629287D01*
X315752Y629271D01*
X315733Y629259D01*
X315692Y629210D01*
X315645Y629168D01*
X315625Y629134D01*
X315600Y629107D01*
X315591Y629087D01*
X315576Y629069D01*
X315553Y629010D01*
X315522Y628956D01*
X315514Y628916D01*
X315498Y628882D01*
X315496Y628862D01*
X315488Y628840D01*
X315485Y628777D01*
X315472Y628715D01*
X315477Y628675D01*
X315474Y628638D01*
X315478Y628617D01*
X315477Y628594D01*
X315495Y628533D01*
X315503Y628470D01*
X315520Y628434D01*
X315528Y628398D01*
X315539Y628380D01*
X315546Y628358D01*
X315582Y628306D01*
X315609Y628249D01*
X315637Y628220D01*
X315657Y628188D01*
X315673Y628174D01*
X315686Y628156D01*
X315737Y628118D01*
X315781Y628073D01*
X315816Y628055D01*
X315845Y628030D01*
X315870Y628019D01*
X315883Y628009D01*
X315915Y627998D01*
X315998Y627961D01*
X315999Y627961D01*
X316000Y627960D01*
X317880Y627349D01*
X319590Y626478D01*
X321143Y625350D01*
X322500Y623993D01*
X323628Y622440D01*
X324499Y620730D01*
X325093Y618905D01*
X325303Y617573D01*
X313962Y617573D01*
X313942Y617570D01*
X313923Y617572D01*
X313821Y617550D01*
X313719Y617533D01*
X313702Y617524D01*
X313682Y617520D01*
X313593Y617467D01*
X313502Y617418D01*
X313488Y617404D01*
X313471Y617394D01*
X313404Y617315D01*
X313333Y617240D01*
X313324Y617222D01*
X313311Y617207D01*
X313273Y617111D01*
X313229Y617017D01*
X313227Y616997D01*
X313219Y616979D01*
X313201Y616812D01*
X313201Y615288D01*
X313204Y615268D01*
X313202Y615249D01*
X313224Y615147D01*
X313241Y615045D01*
X313250Y615028D01*
X313254Y615008D01*
X313307Y614919D01*
X313356Y614828D01*
X313370Y614814D01*
X313380Y614797D01*
X313459Y614730D01*
X313534Y614659D01*
X313552Y614650D01*
X313567Y614637D01*
X313663Y614598D01*
X313757Y614555D01*
X313777Y614553D01*
X313795Y614545D01*
X313962Y614527D01*
X325303Y614527D01*
X325093Y613195D01*
X324499Y611370D01*
X323628Y609660D01*
X322500Y608107D01*
X321143Y606750D01*
X319590Y605622D01*
X317880Y604751D01*
X315998Y604139D01*
X315964Y604121D01*
X315926Y604112D01*
X315873Y604077D01*
X315815Y604051D01*
X315799Y604036D01*
X315780Y604026D01*
X315753Y603999D01*
X315720Y603977D01*
X315681Y603928D01*
X315634Y603885D01*
X315623Y603865D01*
X315608Y603850D01*
X315592Y603816D01*
X315567Y603784D01*
X315546Y603725D01*
X315516Y603669D01*
X315511Y603646D01*
X315502Y603628D01*
X315498Y603591D01*
X315484Y603553D01*
X315483Y603490D01*
X315472Y603427D01*
X315475Y603404D01*
X315473Y603383D01*
X315480Y603347D01*
X315480Y603307D01*
X315499Y603247D01*
X315508Y603184D01*
X315518Y603163D01*
X315523Y603143D01*
X315541Y603110D01*
X315553Y603072D01*
X315591Y603021D01*
X315619Y602965D01*
X315636Y602948D01*
X315647Y602930D01*
X315675Y602905D01*
X315698Y602873D01*
X315750Y602837D01*
X315795Y602793D01*
X315820Y602779D01*
X315832Y602768D01*
X315860Y602756D01*
X315872Y602750D01*
X315899Y602731D01*
X315916Y602726D01*
X315942Y602712D01*
X320107Y600986D01*
X323536Y597557D01*
X325393Y593075D01*
X325393Y588225D01*
X323536Y583743D01*
X320107Y580314D01*
X316099Y578653D01*
X316038Y578616D01*
X315972Y578586D01*
X315934Y578551D01*
X315889Y578524D01*
X315844Y578469D01*
X315791Y578420D01*
X315766Y578374D01*
X315733Y578334D01*
X315707Y578267D01*
X315672Y578204D01*
X315663Y578153D01*
X315644Y578105D01*
X315641Y578033D01*
X315629Y577962D01*
X315636Y577911D01*
X315634Y577859D01*
X315654Y577790D01*
X315664Y577719D01*
X315688Y577673D01*
X315703Y577623D01*
X315743Y577564D01*
X315776Y577500D01*
X315813Y577463D01*
X315843Y577421D01*
X315900Y577378D01*
X315952Y577328D01*
X316014Y577293D01*
X316040Y577274D01*
X316062Y577267D01*
X316099Y577247D01*
X320107Y575586D01*
X323536Y572157D01*
X325393Y567675D01*
X325393Y562759D01*
X325375Y562687D01*
X325375Y562681D01*
X325374Y562675D01*
X325385Y562558D01*
X325394Y562442D01*
X325396Y562437D01*
X325397Y562430D01*
X325445Y562322D01*
X325490Y562216D01*
X325495Y562210D01*
X325497Y562206D01*
X325509Y562192D01*
X325595Y562085D01*
X328519Y559161D01*
X328577Y559119D01*
X328629Y559070D01*
X328676Y559048D01*
X328718Y559018D01*
X328787Y558997D01*
X328852Y558966D01*
X328904Y558961D01*
X328954Y558945D01*
X329025Y558947D01*
X329096Y558939D01*
X329147Y558950D01*
G37*
%LPC*%
G36*
X346103Y221734D02*
X346103Y221734D01*
X342412Y223263D01*
X339588Y226087D01*
X338059Y229778D01*
X338059Y233772D01*
X339588Y237463D01*
X342412Y240287D01*
X346103Y241816D01*
X365097Y241816D01*
X368788Y240287D01*
X371612Y237463D01*
X373141Y233772D01*
X373141Y229778D01*
X371612Y226087D01*
X368788Y223263D01*
X365097Y221734D01*
X346103Y221734D01*
G37*
%LPD*%
%LPC*%
G36*
X346103Y247134D02*
X346103Y247134D01*
X342412Y248663D01*
X339588Y251487D01*
X338059Y255178D01*
X338059Y259172D01*
X339588Y262863D01*
X342412Y265687D01*
X346103Y267216D01*
X365097Y267216D01*
X368788Y265687D01*
X371612Y262863D01*
X373141Y259172D01*
X373141Y255178D01*
X371612Y251487D01*
X368788Y248663D01*
X365097Y247134D01*
X346103Y247134D01*
G37*
%LPD*%
%LPC*%
G36*
X150581Y454405D02*
X150581Y454405D01*
X147220Y455797D01*
X144647Y458370D01*
X143255Y461731D01*
X143255Y465369D01*
X144647Y468730D01*
X147220Y471303D01*
X150581Y472695D01*
X154219Y472695D01*
X157580Y471303D01*
X160153Y468730D01*
X161545Y465369D01*
X161545Y461731D01*
X160153Y458370D01*
X157580Y455797D01*
X154219Y454405D01*
X150581Y454405D01*
G37*
%LPD*%
%LPC*%
G36*
X150581Y200405D02*
X150581Y200405D01*
X147220Y201797D01*
X144647Y204370D01*
X143255Y207731D01*
X143255Y211369D01*
X144647Y214730D01*
X147220Y217303D01*
X150581Y218695D01*
X154219Y218695D01*
X157580Y217303D01*
X160153Y214730D01*
X161545Y211369D01*
X161545Y207731D01*
X160153Y204370D01*
X157580Y201797D01*
X154219Y200405D01*
X150581Y200405D01*
G37*
%LPD*%
%LPC*%
G36*
X252181Y200405D02*
X252181Y200405D01*
X248820Y201797D01*
X246247Y204370D01*
X244855Y207731D01*
X244855Y211369D01*
X246247Y214730D01*
X248820Y217303D01*
X252181Y218695D01*
X255819Y218695D01*
X259180Y217303D01*
X261753Y214730D01*
X263145Y211369D01*
X263145Y207731D01*
X261753Y204370D01*
X259180Y201797D01*
X255819Y200405D01*
X252181Y200405D01*
G37*
%LPD*%
%LPC*%
G36*
X125181Y200405D02*
X125181Y200405D01*
X121820Y201797D01*
X119247Y204370D01*
X117855Y207731D01*
X117855Y211369D01*
X119247Y214730D01*
X121820Y217303D01*
X125181Y218695D01*
X128819Y218695D01*
X132180Y217303D01*
X134753Y214730D01*
X136145Y211369D01*
X136145Y207731D01*
X134753Y204370D01*
X132180Y201797D01*
X128819Y200405D01*
X125181Y200405D01*
G37*
%LPD*%
%LPC*%
G36*
X277581Y200405D02*
X277581Y200405D01*
X274220Y201797D01*
X271647Y204370D01*
X270255Y207731D01*
X270255Y211369D01*
X271647Y214730D01*
X274220Y217303D01*
X277581Y218695D01*
X281219Y218695D01*
X284580Y217303D01*
X287153Y214730D01*
X288545Y211369D01*
X288545Y207731D01*
X287153Y204370D01*
X284580Y201797D01*
X281219Y200405D01*
X277581Y200405D01*
G37*
%LPD*%
%LPC*%
G36*
X125181Y492505D02*
X125181Y492505D01*
X121820Y493897D01*
X119247Y496470D01*
X117855Y499831D01*
X117855Y503469D01*
X119247Y506830D01*
X121820Y509403D01*
X125181Y510795D01*
X128819Y510795D01*
X132180Y509403D01*
X134753Y506830D01*
X136145Y503469D01*
X136145Y499831D01*
X134753Y496470D01*
X132180Y493897D01*
X128819Y492505D01*
X125181Y492505D01*
G37*
%LPD*%
%LPC*%
G36*
X175981Y200405D02*
X175981Y200405D01*
X172620Y201797D01*
X170047Y204370D01*
X168655Y207731D01*
X168655Y211369D01*
X170047Y214730D01*
X172620Y217303D01*
X175981Y218695D01*
X179619Y218695D01*
X182980Y217303D01*
X185553Y214730D01*
X186945Y211369D01*
X186945Y207731D01*
X185553Y204370D01*
X182980Y201797D01*
X179619Y200405D01*
X175981Y200405D01*
G37*
%LPD*%
%LPC*%
G36*
X207908Y163194D02*
X207908Y163194D01*
X204873Y164451D01*
X202551Y166773D01*
X201294Y169808D01*
X201294Y173092D01*
X202551Y176127D01*
X204873Y178449D01*
X207908Y179706D01*
X211192Y179706D01*
X214227Y178449D01*
X216549Y176127D01*
X217806Y173092D01*
X217806Y169808D01*
X216549Y166773D01*
X214227Y164451D01*
X211192Y163194D01*
X207908Y163194D01*
G37*
%LPD*%
%LPC*%
G36*
X353958Y467994D02*
X353958Y467994D01*
X350923Y469251D01*
X348601Y471573D01*
X347344Y474608D01*
X347344Y477892D01*
X348601Y480927D01*
X350923Y483249D01*
X353958Y484506D01*
X357242Y484506D01*
X360277Y483249D01*
X362599Y480927D01*
X363856Y477892D01*
X363856Y474608D01*
X362599Y471573D01*
X360277Y469251D01*
X357242Y467994D01*
X353958Y467994D01*
G37*
%LPD*%
%LPC*%
G36*
X157108Y169544D02*
X157108Y169544D01*
X154073Y170801D01*
X151751Y173123D01*
X150494Y176158D01*
X150494Y179442D01*
X151751Y182477D01*
X154073Y184799D01*
X157108Y186056D01*
X160392Y186056D01*
X163427Y184799D01*
X165749Y182477D01*
X167006Y179442D01*
X167006Y176158D01*
X165749Y173123D01*
X163427Y170801D01*
X160392Y169544D01*
X157108Y169544D01*
G37*
%LPD*%
%LPC*%
G36*
X353958Y569594D02*
X353958Y569594D01*
X350923Y570851D01*
X348601Y573173D01*
X347344Y576208D01*
X347344Y579492D01*
X348601Y582527D01*
X350923Y584849D01*
X353958Y586106D01*
X357242Y586106D01*
X360277Y584849D01*
X362599Y582527D01*
X363856Y579492D01*
X363856Y576208D01*
X362599Y573173D01*
X360277Y570851D01*
X357242Y569594D01*
X353958Y569594D01*
G37*
%LPD*%
%LPC*%
G36*
X353958Y544194D02*
X353958Y544194D01*
X350923Y545451D01*
X348601Y547773D01*
X347344Y550808D01*
X347344Y554092D01*
X348601Y557127D01*
X350923Y559449D01*
X353958Y560706D01*
X357242Y560706D01*
X360277Y559449D01*
X362599Y557127D01*
X363856Y554092D01*
X363856Y550808D01*
X362599Y547773D01*
X360277Y545451D01*
X357242Y544194D01*
X353958Y544194D01*
G37*
%LPD*%
%LPC*%
G36*
X160273Y26923D02*
X160273Y26923D01*
X160273Y45878D01*
X161456Y45690D01*
X163187Y45128D01*
X164808Y44302D01*
X166279Y43233D01*
X167566Y41946D01*
X168635Y40475D01*
X169461Y38854D01*
X170023Y37123D01*
X170308Y35327D01*
X170308Y26923D01*
X160273Y26923D01*
G37*
%LPD*%
%LPC*%
G36*
X160273Y23877D02*
X160273Y23877D01*
X170308Y23877D01*
X170308Y15473D01*
X170023Y13677D01*
X169461Y11946D01*
X168635Y10325D01*
X167566Y8854D01*
X166279Y7567D01*
X164808Y6498D01*
X163187Y5672D01*
X161456Y5110D01*
X160273Y4922D01*
X160273Y23877D01*
G37*
%LPD*%
%LPC*%
G36*
X147192Y26923D02*
X147192Y26923D01*
X147192Y35327D01*
X147477Y37123D01*
X148039Y38854D01*
X148865Y40475D01*
X149934Y41946D01*
X151221Y43233D01*
X152692Y44302D01*
X154313Y45128D01*
X156044Y45690D01*
X157227Y45878D01*
X157227Y26923D01*
X147192Y26923D01*
G37*
%LPD*%
%LPC*%
G36*
X156044Y5110D02*
X156044Y5110D01*
X154313Y5672D01*
X152692Y6498D01*
X151221Y7567D01*
X149934Y8854D01*
X148865Y10325D01*
X148039Y11946D01*
X147477Y13677D01*
X147192Y15473D01*
X147192Y23877D01*
X157227Y23877D01*
X157227Y4922D01*
X156044Y5110D01*
G37*
%LPD*%
%LPC*%
G36*
X103123Y604773D02*
X103123Y604773D01*
X103123Y612395D01*
X108538Y612395D01*
X109185Y612222D01*
X109764Y611887D01*
X110237Y611414D01*
X110572Y610835D01*
X110745Y610188D01*
X110745Y604773D01*
X103123Y604773D01*
G37*
%LPD*%
%LPC*%
G36*
X103123Y465073D02*
X103123Y465073D01*
X103123Y472695D01*
X108538Y472695D01*
X109185Y472522D01*
X109764Y472187D01*
X110237Y471714D01*
X110572Y471135D01*
X110745Y470488D01*
X110745Y465073D01*
X103123Y465073D01*
G37*
%LPD*%
%LPC*%
G36*
X103123Y363473D02*
X103123Y363473D01*
X103123Y371095D01*
X108538Y371095D01*
X109185Y370922D01*
X109764Y370587D01*
X110237Y370114D01*
X110572Y369535D01*
X110745Y368888D01*
X110745Y363473D01*
X103123Y363473D01*
G37*
%LPD*%
%LPC*%
G36*
X103123Y503173D02*
X103123Y503173D01*
X103123Y510795D01*
X108538Y510795D01*
X109185Y510622D01*
X109764Y510287D01*
X110237Y509814D01*
X110572Y509235D01*
X110745Y508588D01*
X110745Y503173D01*
X103123Y503173D01*
G37*
%LPD*%
%LPC*%
G36*
X103123Y312673D02*
X103123Y312673D01*
X103123Y320295D01*
X108538Y320295D01*
X109185Y320122D01*
X109764Y319787D01*
X110237Y319314D01*
X110572Y318735D01*
X110745Y318088D01*
X110745Y312673D01*
X103123Y312673D01*
G37*
%LPD*%
%LPC*%
G36*
X103123Y211073D02*
X103123Y211073D01*
X103123Y218695D01*
X108538Y218695D01*
X109185Y218522D01*
X109764Y218187D01*
X110237Y217714D01*
X110572Y217135D01*
X110745Y216488D01*
X110745Y211073D01*
X103123Y211073D01*
G37*
%LPD*%
%LPC*%
G36*
X103123Y454405D02*
X103123Y454405D01*
X103123Y462027D01*
X110745Y462027D01*
X110745Y456612D01*
X110572Y455965D01*
X110237Y455386D01*
X109764Y454913D01*
X109185Y454578D01*
X108538Y454405D01*
X103123Y454405D01*
G37*
%LPD*%
%LPC*%
G36*
X92455Y604773D02*
X92455Y604773D01*
X92455Y610188D01*
X92628Y610835D01*
X92963Y611414D01*
X93436Y611887D01*
X94015Y612222D01*
X94662Y612395D01*
X100077Y612395D01*
X100077Y604773D01*
X92455Y604773D01*
G37*
%LPD*%
%LPC*%
G36*
X92455Y363473D02*
X92455Y363473D01*
X92455Y368888D01*
X92628Y369535D01*
X92963Y370114D01*
X93436Y370587D01*
X94015Y370922D01*
X94662Y371095D01*
X100077Y371095D01*
X100077Y363473D01*
X92455Y363473D01*
G37*
%LPD*%
%LPC*%
G36*
X92455Y211073D02*
X92455Y211073D01*
X92455Y216488D01*
X92628Y217135D01*
X92963Y217714D01*
X93436Y218187D01*
X94015Y218522D01*
X94662Y218695D01*
X100077Y218695D01*
X100077Y211073D01*
X92455Y211073D01*
G37*
%LPD*%
%LPC*%
G36*
X103123Y200405D02*
X103123Y200405D01*
X103123Y208027D01*
X110745Y208027D01*
X110745Y202612D01*
X110572Y201965D01*
X110237Y201386D01*
X109764Y200913D01*
X109185Y200578D01*
X108538Y200405D01*
X103123Y200405D01*
G37*
%LPD*%
%LPC*%
G36*
X92455Y465073D02*
X92455Y465073D01*
X92455Y470488D01*
X92628Y471135D01*
X92963Y471714D01*
X93436Y472187D01*
X94015Y472522D01*
X94662Y472695D01*
X100077Y472695D01*
X100077Y465073D01*
X92455Y465073D01*
G37*
%LPD*%
%LPC*%
G36*
X103123Y594105D02*
X103123Y594105D01*
X103123Y601727D01*
X110745Y601727D01*
X110745Y596312D01*
X110572Y595665D01*
X110237Y595086D01*
X109764Y594613D01*
X109185Y594278D01*
X108538Y594105D01*
X103123Y594105D01*
G37*
%LPD*%
%LPC*%
G36*
X92455Y503173D02*
X92455Y503173D01*
X92455Y508588D01*
X92628Y509235D01*
X92963Y509814D01*
X93436Y510287D01*
X94015Y510622D01*
X94662Y510795D01*
X100077Y510795D01*
X100077Y503173D01*
X92455Y503173D01*
G37*
%LPD*%
%LPC*%
G36*
X103123Y492505D02*
X103123Y492505D01*
X103123Y500127D01*
X110745Y500127D01*
X110745Y494712D01*
X110572Y494065D01*
X110237Y493486D01*
X109764Y493013D01*
X109185Y492678D01*
X108538Y492505D01*
X103123Y492505D01*
G37*
%LPD*%
%LPC*%
G36*
X92455Y312673D02*
X92455Y312673D01*
X92455Y318088D01*
X92628Y318735D01*
X92963Y319314D01*
X93436Y319787D01*
X94015Y320122D01*
X94662Y320295D01*
X100077Y320295D01*
X100077Y312673D01*
X92455Y312673D01*
G37*
%LPD*%
%LPC*%
G36*
X94662Y454405D02*
X94662Y454405D01*
X94015Y454578D01*
X93436Y454913D01*
X92963Y455386D01*
X92628Y455965D01*
X92455Y456612D01*
X92455Y462027D01*
X100077Y462027D01*
X100077Y454405D01*
X94662Y454405D01*
G37*
%LPD*%
%LPC*%
G36*
X94662Y352805D02*
X94662Y352805D01*
X94015Y352978D01*
X93436Y353313D01*
X92963Y353786D01*
X92628Y354365D01*
X92455Y355012D01*
X92455Y360427D01*
X100077Y360427D01*
X100077Y352805D01*
X94662Y352805D01*
G37*
%LPD*%
%LPC*%
G36*
X94662Y200405D02*
X94662Y200405D01*
X94015Y200578D01*
X93436Y200913D01*
X92963Y201386D01*
X92628Y201965D01*
X92455Y202612D01*
X92455Y208027D01*
X100077Y208027D01*
X100077Y200405D01*
X94662Y200405D01*
G37*
%LPD*%
%LPC*%
G36*
X94662Y492505D02*
X94662Y492505D01*
X94015Y492678D01*
X93436Y493013D01*
X92963Y493486D01*
X92628Y494065D01*
X92455Y494712D01*
X92455Y500127D01*
X100077Y500127D01*
X100077Y492505D01*
X94662Y492505D01*
G37*
%LPD*%
%LPC*%
G36*
X94662Y594105D02*
X94662Y594105D01*
X94015Y594278D01*
X93436Y594613D01*
X92963Y595086D01*
X92628Y595665D01*
X92455Y596312D01*
X92455Y601727D01*
X100077Y601727D01*
X100077Y594105D01*
X94662Y594105D01*
G37*
%LPD*%
%LPC*%
G36*
X287273Y172973D02*
X287273Y172973D01*
X287273Y179564D01*
X288158Y179388D01*
X289661Y178766D01*
X291013Y177863D01*
X292163Y176713D01*
X293066Y175361D01*
X293688Y173858D01*
X293864Y172973D01*
X287273Y172973D01*
G37*
%LPD*%
%LPC*%
G36*
X20573Y687323D02*
X20573Y687323D01*
X20573Y693914D01*
X21458Y693738D01*
X22961Y693116D01*
X24313Y692213D01*
X25463Y691063D01*
X26366Y689711D01*
X26988Y688208D01*
X27164Y687323D01*
X20573Y687323D01*
G37*
%LPD*%
%LPC*%
G36*
X20573Y661923D02*
X20573Y661923D01*
X20573Y668514D01*
X21458Y668338D01*
X22961Y667716D01*
X24313Y666813D01*
X25463Y665663D01*
X26366Y664311D01*
X26988Y662808D01*
X27164Y661923D01*
X20573Y661923D01*
G37*
%LPD*%
%LPC*%
G36*
X20573Y484123D02*
X20573Y484123D01*
X20573Y490714D01*
X21458Y490538D01*
X22961Y489916D01*
X24313Y489013D01*
X25463Y487863D01*
X26366Y486511D01*
X26988Y485008D01*
X27164Y484123D01*
X20573Y484123D01*
G37*
%LPD*%
%LPC*%
G36*
X20573Y458723D02*
X20573Y458723D01*
X20573Y465314D01*
X21458Y465138D01*
X22961Y464516D01*
X24313Y463613D01*
X25463Y462463D01*
X26366Y461111D01*
X26988Y459608D01*
X27164Y458723D01*
X20573Y458723D01*
G37*
%LPD*%
%LPC*%
G36*
X20573Y357123D02*
X20573Y357123D01*
X20573Y363714D01*
X21458Y363538D01*
X22961Y362916D01*
X24313Y362013D01*
X25463Y360863D01*
X26366Y359511D01*
X26988Y358008D01*
X27164Y357123D01*
X20573Y357123D01*
G37*
%LPD*%
%LPC*%
G36*
X128523Y103123D02*
X128523Y103123D01*
X128523Y109714D01*
X129408Y109538D01*
X130911Y108916D01*
X132263Y108013D01*
X133413Y106863D01*
X134316Y105511D01*
X134938Y104008D01*
X135114Y103123D01*
X128523Y103123D01*
G37*
%LPD*%
%LPC*%
G36*
X20573Y658877D02*
X20573Y658877D01*
X27164Y658877D01*
X26988Y657992D01*
X26366Y656489D01*
X25463Y655137D01*
X24313Y653987D01*
X22961Y653084D01*
X21458Y652462D01*
X20573Y652286D01*
X20573Y658877D01*
G37*
%LPD*%
%LPC*%
G36*
X277636Y172973D02*
X277636Y172973D01*
X277812Y173858D01*
X278434Y175361D01*
X279337Y176713D01*
X280487Y177863D01*
X281839Y178766D01*
X283342Y179388D01*
X284227Y179564D01*
X284227Y172973D01*
X277636Y172973D01*
G37*
%LPD*%
%LPC*%
G36*
X287273Y169927D02*
X287273Y169927D01*
X293864Y169927D01*
X293688Y169042D01*
X293066Y167539D01*
X292163Y166187D01*
X291013Y165037D01*
X289661Y164134D01*
X288158Y163512D01*
X287273Y163336D01*
X287273Y169927D01*
G37*
%LPD*%
%LPC*%
G36*
X10936Y661923D02*
X10936Y661923D01*
X11112Y662808D01*
X11734Y664311D01*
X12637Y665663D01*
X13787Y666813D01*
X15139Y667716D01*
X16642Y668338D01*
X17527Y668514D01*
X17527Y661923D01*
X10936Y661923D01*
G37*
%LPD*%
%LPC*%
G36*
X20573Y481077D02*
X20573Y481077D01*
X27164Y481077D01*
X26988Y480192D01*
X26366Y478689D01*
X25463Y477337D01*
X24313Y476187D01*
X22961Y475284D01*
X21458Y474662D01*
X20573Y474486D01*
X20573Y481077D01*
G37*
%LPD*%
%LPC*%
G36*
X118886Y103123D02*
X118886Y103123D01*
X119062Y104008D01*
X119684Y105511D01*
X120587Y106863D01*
X121737Y108013D01*
X123089Y108916D01*
X124592Y109538D01*
X125477Y109714D01*
X125477Y103123D01*
X118886Y103123D01*
G37*
%LPD*%
%LPC*%
G36*
X20573Y684277D02*
X20573Y684277D01*
X27164Y684277D01*
X26988Y683392D01*
X26366Y681889D01*
X25463Y680537D01*
X24313Y679387D01*
X22961Y678484D01*
X21458Y677862D01*
X20573Y677686D01*
X20573Y684277D01*
G37*
%LPD*%
%LPC*%
G36*
X128523Y100077D02*
X128523Y100077D01*
X135114Y100077D01*
X134938Y99192D01*
X134316Y97689D01*
X133413Y96337D01*
X132263Y95187D01*
X130911Y94284D01*
X129408Y93662D01*
X128523Y93486D01*
X128523Y100077D01*
G37*
%LPD*%
%LPC*%
G36*
X10936Y687323D02*
X10936Y687323D01*
X11112Y688208D01*
X11734Y689711D01*
X12637Y691063D01*
X13787Y692213D01*
X15139Y693116D01*
X16642Y693738D01*
X17527Y693914D01*
X17527Y687323D01*
X10936Y687323D01*
G37*
%LPD*%
%LPC*%
G36*
X20573Y354077D02*
X20573Y354077D01*
X27164Y354077D01*
X26988Y353192D01*
X26366Y351689D01*
X25463Y350337D01*
X24313Y349187D01*
X22961Y348284D01*
X21458Y347662D01*
X20573Y347486D01*
X20573Y354077D01*
G37*
%LPD*%
%LPC*%
G36*
X16642Y652462D02*
X16642Y652462D01*
X15139Y653084D01*
X13787Y653987D01*
X12637Y655137D01*
X11734Y656489D01*
X11112Y657992D01*
X10936Y658877D01*
X17527Y658877D01*
X17527Y652286D01*
X16642Y652462D01*
G37*
%LPD*%
%LPC*%
G36*
X283342Y163512D02*
X283342Y163512D01*
X281839Y164134D01*
X280487Y165037D01*
X279337Y166187D01*
X278434Y167539D01*
X277812Y169042D01*
X277636Y169927D01*
X284227Y169927D01*
X284227Y163336D01*
X283342Y163512D01*
G37*
%LPD*%
%LPC*%
G36*
X16642Y677862D02*
X16642Y677862D01*
X15139Y678484D01*
X13787Y679387D01*
X12637Y680537D01*
X11734Y681889D01*
X11112Y683392D01*
X10936Y684277D01*
X17527Y684277D01*
X17527Y677686D01*
X16642Y677862D01*
G37*
%LPD*%
%LPC*%
G36*
X124592Y93662D02*
X124592Y93662D01*
X123089Y94284D01*
X121737Y95187D01*
X120587Y96337D01*
X119684Y97689D01*
X119062Y99192D01*
X118886Y100077D01*
X125477Y100077D01*
X125477Y93486D01*
X124592Y93662D01*
G37*
%LPD*%
%LPC*%
G36*
X101599Y501649D02*
X101599Y501649D01*
X101599Y501651D01*
X101601Y501651D01*
X101601Y501649D01*
X101599Y501649D01*
G37*
%LPD*%
%LPC*%
G36*
X101599Y603249D02*
X101599Y603249D01*
X101599Y603251D01*
X101601Y603251D01*
X101601Y603249D01*
X101599Y603249D01*
G37*
%LPD*%
%LPC*%
G36*
X19049Y660399D02*
X19049Y660399D01*
X19049Y660401D01*
X19051Y660401D01*
X19051Y660399D01*
X19049Y660399D01*
G37*
%LPD*%
%LPC*%
G36*
X285749Y171449D02*
X285749Y171449D01*
X285749Y171451D01*
X285751Y171451D01*
X285751Y171449D01*
X285749Y171449D01*
G37*
%LPD*%
%LPC*%
G36*
X19049Y685799D02*
X19049Y685799D01*
X19049Y685801D01*
X19051Y685801D01*
X19051Y685799D01*
X19049Y685799D01*
G37*
%LPD*%
%LPC*%
G36*
X101599Y361949D02*
X101599Y361949D01*
X101599Y361951D01*
X101601Y361951D01*
X101601Y361949D01*
X101599Y361949D01*
G37*
%LPD*%
%LPC*%
G36*
X101599Y209549D02*
X101599Y209549D01*
X101599Y209551D01*
X101601Y209551D01*
X101601Y209549D01*
X101599Y209549D01*
G37*
%LPD*%
%LPC*%
G36*
X101599Y463549D02*
X101599Y463549D01*
X101599Y463551D01*
X101601Y463551D01*
X101601Y463549D01*
X101599Y463549D01*
G37*
%LPD*%
%LPC*%
G36*
X158749Y25399D02*
X158749Y25399D01*
X158749Y25401D01*
X158751Y25401D01*
X158751Y25399D01*
X158749Y25399D01*
G37*
%LPD*%
%LPC*%
G36*
X126999Y101599D02*
X126999Y101599D01*
X126999Y101601D01*
X127001Y101601D01*
X127001Y101599D01*
X126999Y101599D01*
G37*
%LPD*%
D10*
X355600Y577850D03*
X355600Y654050D03*
D11*
X101600Y361950D03*
X101600Y463550D03*
D12*
X127000Y361950D03*
X127000Y463550D03*
X152400Y361950D03*
X152400Y463550D03*
X177800Y361950D03*
X177800Y463550D03*
X203200Y361950D03*
X203200Y463550D03*
X228600Y361950D03*
X228600Y463550D03*
X254000Y361950D03*
X254000Y463550D03*
X279400Y361950D03*
X279400Y463550D03*
D11*
X101600Y501650D03*
X101600Y603250D03*
D12*
X127000Y501650D03*
X127000Y603250D03*
X152400Y501650D03*
X152400Y603250D03*
X177800Y501650D03*
X177800Y603250D03*
X203200Y501650D03*
X203200Y603250D03*
X228600Y501650D03*
X228600Y603250D03*
X254000Y501650D03*
X254000Y603250D03*
X279400Y501650D03*
X279400Y603250D03*
D11*
X101600Y209550D03*
X101600Y311150D03*
D12*
X127000Y209550D03*
X127000Y311150D03*
X152400Y209550D03*
X152400Y311150D03*
X177800Y209550D03*
X177800Y311150D03*
X203200Y209550D03*
X203200Y311150D03*
X228600Y209550D03*
X228600Y311150D03*
X254000Y209550D03*
X254000Y311150D03*
X279400Y209550D03*
X279400Y311150D03*
D13*
X313200Y641450D03*
X313200Y616050D03*
X313200Y590650D03*
X313200Y565250D03*
X313200Y539850D03*
X313200Y514450D03*
X313200Y489050D03*
X313200Y463650D03*
X313200Y438250D03*
X313200Y412850D03*
X313200Y387450D03*
X313200Y362050D03*
X313200Y336650D03*
X313200Y311250D03*
X313200Y285850D03*
X62325Y641450D03*
X62325Y616050D03*
X62325Y590650D03*
X62325Y565250D03*
X62325Y539850D03*
X62325Y514450D03*
X62325Y489050D03*
X62325Y463650D03*
X62325Y438250D03*
X62325Y412850D03*
X62325Y387450D03*
X62325Y362050D03*
X62325Y336650D03*
X62325Y311250D03*
X62325Y285850D03*
D14*
X346583Y292100D02*
X364617Y292100D01*
X364617Y317500D02*
X346583Y317500D01*
X346583Y342900D02*
X364617Y342900D01*
D10*
X355600Y374650D03*
X355600Y450850D03*
D15*
X133350Y660400D03*
D16*
X133350Y685800D03*
X158750Y660400D03*
X158750Y685800D03*
X184150Y660400D03*
X184150Y685800D03*
X209550Y660400D03*
X209550Y685800D03*
X234950Y660400D03*
X234950Y685800D03*
D17*
X322263Y698849D02*
X322263Y710851D01*
X306705Y710851D02*
X306705Y698849D01*
X337820Y698849D02*
X337820Y710851D01*
X353378Y710851D02*
X353378Y698849D01*
D10*
X355600Y552450D03*
X355600Y476250D03*
X209550Y171450D03*
X285750Y171450D03*
X158750Y101600D03*
X158750Y177800D03*
X19050Y558800D03*
X19050Y482600D03*
X19050Y381000D03*
X19050Y457200D03*
X19050Y584200D03*
X19050Y660400D03*
X19050Y762000D03*
X19050Y685800D03*
X19050Y279400D03*
X19050Y355600D03*
D18*
X25908Y160338D02*
X25908Y142431D01*
X25908Y35370D02*
X25908Y17463D01*
X75692Y142431D02*
X75692Y160338D01*
X75692Y35370D02*
X75692Y17463D01*
D10*
X127000Y177800D03*
X127000Y101600D03*
D19*
X355600Y109411D02*
X355600Y131890D01*
X285750Y131890D02*
X285750Y109411D01*
X215900Y109411D02*
X215900Y131890D01*
D14*
X133350Y34417D02*
X133350Y16383D01*
X158750Y16383D02*
X158750Y34417D01*
D20*
X348100Y257175D02*
X363100Y257175D01*
X363100Y231775D02*
X348100Y231775D01*
X348100Y206375D02*
X363100Y206375D01*
D21*
X22225Y584200D02*
X19050Y584200D01*
X22225Y584200D02*
X38100Y568325D01*
X38100Y428625D01*
X53975Y412750D01*
X60325Y412750D01*
X62325Y412850D01*
X187325Y574675D02*
X165100Y596900D01*
X165100Y609600D01*
X133350Y641350D01*
X123825Y641350D01*
X98425Y666750D01*
X60325Y666750D01*
X38100Y644525D01*
X38100Y568325D01*
D22*
X187325Y574675D03*
D21*
X47625Y695325D02*
X47625Y727075D01*
X19050Y755650D01*
X19050Y762000D01*
D22*
X47625Y695325D03*
D21*
X19050Y558800D02*
X19050Y501650D01*
X6350Y488950D01*
X6350Y428625D01*
X12700Y422275D01*
X38100Y396875D02*
X38100Y377825D01*
X53975Y361950D01*
X60325Y361950D01*
X62325Y362050D01*
X254000Y463550D02*
X254000Y482600D01*
X266700Y495300D01*
X266700Y527050D01*
X279400Y539750D01*
X279400Y584200D01*
X266700Y596900D01*
X266700Y660400D01*
D22*
X12700Y422275D03*
X38100Y396875D03*
X266700Y660400D03*
D21*
X279400Y463550D02*
X215900Y400050D01*
D22*
X215900Y400050D03*
D21*
X228600Y501650D02*
X266700Y539750D01*
X266700Y542925D01*
D22*
X266700Y542925D03*
D21*
X139700Y298450D02*
X228600Y209550D01*
X139700Y298450D02*
X139700Y403225D01*
X130175Y412750D01*
X130175Y428625D01*
X133350Y431800D01*
D22*
X133350Y431800D03*
D21*
X114300Y298450D02*
X203200Y209550D01*
X114300Y298450D02*
X88900Y298450D01*
X82550Y304800D01*
X82550Y349250D01*
X79375Y352425D01*
X79375Y454025D01*
X76200Y457200D01*
X76200Y504825D01*
X63500Y517525D01*
X62325Y514450D01*
D23*
X215900Y323850D02*
X203200Y311150D01*
X215900Y323850D02*
X215900Y381000D01*
X190500Y406400D01*
X190500Y441325D02*
X190500Y530225D01*
X190500Y441325D02*
X190500Y406400D01*
X190500Y530225D02*
X215900Y555625D01*
X215900Y622300D01*
X209550Y628650D01*
D22*
X209550Y628650D03*
D24*
X190500Y441325D03*
D23*
X266700Y349250D02*
X228600Y311150D01*
X266700Y349250D02*
X266700Y384175D01*
X273050Y390525D01*
X273050Y400050D01*
X254000Y419100D01*
X228600Y549275D02*
X228600Y587375D01*
D22*
X254000Y419100D03*
X228600Y549275D03*
X228600Y587375D03*
D23*
X215900Y476250D02*
X228600Y463550D01*
X215900Y476250D02*
X215900Y517525D01*
X266700Y568325D01*
X292100Y635000D02*
X292100Y654050D01*
X231775Y714375D01*
X136525Y714375D01*
X114300Y692150D01*
X114300Y679450D01*
X133350Y660400D01*
D22*
X266700Y568325D03*
X292100Y635000D03*
D23*
X190500Y546100D02*
X139700Y596900D01*
X139700Y609600D01*
X95250Y654050D01*
X92075Y654050D01*
D22*
X190500Y546100D03*
X92075Y654050D03*
D23*
X165100Y476250D02*
X177800Y463550D01*
X165100Y476250D02*
X165100Y517525D01*
X117475Y565150D01*
D22*
X117475Y565150D03*
D21*
X260350Y393700D02*
X228600Y361950D01*
D22*
X260350Y393700D03*
D25*
X104775Y574675D02*
X104775Y577850D01*
X104775Y574675D02*
X104775Y555625D01*
X104775Y577850D02*
X127000Y600075D01*
X127000Y603250D01*
X66675Y641350D02*
X63500Y641350D01*
X66675Y641350D02*
X82550Y625475D01*
X82550Y593725D01*
X101600Y574675D01*
X63500Y641350D02*
X62325Y641450D01*
X101600Y574675D02*
X104775Y574675D01*
X158750Y101600D02*
X174625Y85725D01*
X193675Y85725D02*
X247650Y85725D01*
X193675Y85725D02*
X174625Y85725D01*
X247650Y85725D02*
X282575Y120650D01*
X285750Y120650D01*
X111125Y247650D02*
X111125Y288925D01*
X111125Y247650D02*
X82550Y219075D01*
X82550Y200025D01*
X193675Y88900D01*
X193675Y85725D01*
X127000Y444500D02*
X127000Y463550D01*
X127000Y444500D02*
X98425Y415925D01*
X98425Y387350D01*
D22*
X104775Y555625D03*
X111125Y288925D03*
X98425Y387350D03*
D21*
X247650Y263525D02*
X295275Y311150D01*
X295275Y625475D01*
X311150Y641350D01*
X313200Y641450D01*
D22*
X247650Y263525D03*
D21*
X355600Y374650D02*
X333375Y396875D01*
X333375Y644525D01*
X273050Y704850D01*
X257175Y704850D01*
D22*
X257175Y704850D03*
D21*
X355600Y704850D02*
X355600Y654050D01*
X355600Y704850D02*
X353378Y704850D01*
X371475Y466725D02*
X355600Y450850D01*
X371475Y466725D02*
X371475Y619125D01*
X339725Y650875D01*
X339725Y704850D01*
X337820Y704850D01*
X349250Y342900D02*
X355600Y342900D01*
X349250Y342900D02*
X333375Y327025D01*
X333375Y266700D01*
X320675Y254000D01*
X219075Y254000D01*
X180975Y292100D01*
D22*
X180975Y292100D03*
D21*
X25400Y406400D02*
X25400Y441325D01*
X25400Y406400D02*
X6350Y387350D01*
X6350Y187325D01*
X25400Y168275D01*
X25400Y152400D01*
X25908Y151384D01*
D22*
X25400Y441325D03*
D23*
X177800Y603250D02*
X177800Y615950D01*
X146050Y647700D01*
X146050Y692150D01*
X158750Y704850D01*
X190500Y704850D01*
X209550Y685800D01*
X171450Y635000D02*
X203200Y603250D01*
X171450Y635000D02*
X171450Y673100D01*
X184150Y685800D01*
X228600Y625475D02*
X228600Y603250D01*
X228600Y625475D02*
X212725Y641350D01*
X203200Y641350D01*
X184150Y660400D01*
D21*
X327025Y273050D02*
X323850Y269875D01*
X327025Y273050D02*
X327025Y555625D01*
X314325Y568325D01*
X313200Y565250D01*
D22*
X323850Y269875D03*
D21*
X231775Y273050D02*
X225425Y273050D01*
X190500Y307975D01*
X190500Y320675D01*
X200025Y330200D01*
X200025Y349250D01*
X190500Y358775D01*
X190500Y365125D01*
X139700Y415925D01*
D22*
X231775Y273050D03*
X139700Y415925D03*
D21*
X304800Y206375D02*
X355600Y206375D01*
X304800Y206375D02*
X263525Y247650D01*
X212725Y247650D01*
X165100Y295275D01*
X165100Y320675D01*
X107950Y346075D02*
X92075Y346075D01*
X85725Y352425D01*
X85725Y400050D01*
X88900Y403225D01*
X88900Y450850D01*
X82550Y457200D01*
X82550Y549275D01*
X63500Y568325D01*
X62325Y565250D01*
D22*
X165100Y320675D03*
X107950Y346075D03*
M02*
