G04 EAGLE Gerber RS-274X export*
G75*
%MOMM*%
%FSLAX34Y34*%
%LPD*%
%INBottom Copper*%
%IPPOS*%
%AMOC8*
5,1,8,0,0,1.08239X$1,22.5*%
G01*
%ADD10C,1.143000*%
%ADD11R,1.320800X1.320800*%
%ADD12C,1.320800*%
%ADD13C,1.930400*%
%ADD14C,1.803400*%
%ADD15C,1.524000*%
%ADD16P,1.649562X8X202.500000*%
%ADD17C,1.200150*%
%ADD18C,1.790700*%
%ADD19C,2.247900*%
%ADD20C,1.500000*%
%ADD21C,0.203200*%
%ADD22C,1.016000*%
%ADD23C,0.508000*%
%ADD24C,0.762000*%

G36*
X377718Y2544D02*
X377718Y2544D01*
X377737Y2542D01*
X377839Y2564D01*
X377941Y2580D01*
X377958Y2590D01*
X377978Y2594D01*
X378067Y2647D01*
X378158Y2696D01*
X378172Y2710D01*
X378189Y2720D01*
X378256Y2799D01*
X378328Y2874D01*
X378336Y2892D01*
X378349Y2907D01*
X378388Y3003D01*
X378431Y3097D01*
X378433Y3117D01*
X378441Y3135D01*
X378459Y3302D01*
X378459Y771398D01*
X378456Y771418D01*
X378458Y771437D01*
X378436Y771539D01*
X378420Y771641D01*
X378410Y771658D01*
X378406Y771678D01*
X378353Y771767D01*
X378304Y771858D01*
X378290Y771872D01*
X378280Y771889D01*
X378201Y771956D01*
X378126Y772028D01*
X378108Y772036D01*
X378093Y772049D01*
X377997Y772088D01*
X377903Y772131D01*
X377883Y772133D01*
X377865Y772141D01*
X377698Y772159D01*
X25996Y772159D01*
X25925Y772148D01*
X25854Y772146D01*
X25805Y772128D01*
X25753Y772120D01*
X25690Y772086D01*
X25623Y772061D01*
X25582Y772029D01*
X25536Y772004D01*
X25487Y771952D01*
X25431Y771908D01*
X25402Y771864D01*
X25367Y771826D01*
X25336Y771761D01*
X25298Y771701D01*
X25285Y771650D01*
X25263Y771603D01*
X25255Y771532D01*
X25237Y771462D01*
X25242Y771410D01*
X25236Y771359D01*
X25251Y771288D01*
X25257Y771217D01*
X25277Y771169D01*
X25288Y771118D01*
X25325Y771057D01*
X25353Y770991D01*
X25398Y770935D01*
X25414Y770907D01*
X25432Y770892D01*
X25458Y770860D01*
X28202Y768115D01*
X29846Y764147D01*
X29846Y760142D01*
X29860Y760052D01*
X29868Y759961D01*
X29880Y759931D01*
X29885Y759899D01*
X29928Y759818D01*
X29964Y759734D01*
X29990Y759702D01*
X30001Y759682D01*
X30024Y759659D01*
X30069Y759603D01*
X56277Y733395D01*
X56351Y733342D01*
X56421Y733282D01*
X56451Y733270D01*
X56477Y733251D01*
X56564Y733224D01*
X56649Y733190D01*
X56690Y733186D01*
X56712Y733179D01*
X56744Y733180D01*
X56816Y733172D01*
X274263Y733172D01*
X276504Y732244D01*
X284569Y724179D01*
X285497Y721938D01*
X285497Y641012D01*
X285508Y640941D01*
X285510Y640869D01*
X285528Y640820D01*
X285536Y640769D01*
X285570Y640706D01*
X285595Y640638D01*
X285627Y640598D01*
X285652Y640552D01*
X285704Y640502D01*
X285748Y640446D01*
X285792Y640418D01*
X285830Y640382D01*
X285895Y640352D01*
X285955Y640313D01*
X286006Y640301D01*
X286053Y640279D01*
X286124Y640271D01*
X286194Y640253D01*
X286246Y640257D01*
X286297Y640252D01*
X286368Y640267D01*
X286439Y640272D01*
X286487Y640293D01*
X286538Y640304D01*
X286599Y640341D01*
X286665Y640369D01*
X286721Y640414D01*
X286749Y640430D01*
X286764Y640448D01*
X286796Y640474D01*
X287783Y641461D01*
X290584Y642621D01*
X293616Y642621D01*
X296417Y641461D01*
X298561Y639317D01*
X298798Y638745D01*
X298832Y638689D01*
X298858Y638629D01*
X298910Y638564D01*
X298927Y638536D01*
X298942Y638523D01*
X298963Y638498D01*
X300120Y637341D01*
X300199Y637284D01*
X300274Y637222D01*
X300298Y637212D01*
X300319Y637197D01*
X300412Y637168D01*
X300503Y637133D01*
X300530Y637132D01*
X300555Y637125D01*
X300652Y637127D01*
X300749Y637123D01*
X300774Y637130D01*
X300800Y637131D01*
X300892Y637164D01*
X300985Y637192D01*
X301007Y637207D01*
X301031Y637216D01*
X301107Y637276D01*
X301187Y637332D01*
X301203Y637353D01*
X301223Y637369D01*
X301276Y637451D01*
X301334Y637529D01*
X301342Y637554D01*
X301356Y637576D01*
X301380Y637671D01*
X301410Y637763D01*
X301410Y637789D01*
X301416Y637815D01*
X301409Y637912D01*
X301408Y638009D01*
X301399Y638041D01*
X301397Y638060D01*
X301384Y638090D01*
X301361Y638170D01*
X301007Y639025D01*
X301007Y643875D01*
X302864Y648357D01*
X306293Y651786D01*
X310775Y653643D01*
X315625Y653643D01*
X320107Y651786D01*
X323536Y648357D01*
X325393Y643875D01*
X325393Y639025D01*
X323536Y634543D01*
X320107Y631114D01*
X315942Y629388D01*
X315888Y629355D01*
X315830Y629331D01*
X315800Y629305D01*
X315767Y629287D01*
X315752Y629271D01*
X315733Y629259D01*
X315692Y629210D01*
X315645Y629168D01*
X315625Y629134D01*
X315600Y629107D01*
X315591Y629087D01*
X315576Y629069D01*
X315553Y629010D01*
X315522Y628956D01*
X315514Y628916D01*
X315498Y628882D01*
X315496Y628862D01*
X315488Y628840D01*
X315485Y628777D01*
X315472Y628715D01*
X315477Y628675D01*
X315474Y628638D01*
X315478Y628617D01*
X315477Y628594D01*
X315495Y628533D01*
X315503Y628470D01*
X315520Y628434D01*
X315528Y628398D01*
X315539Y628380D01*
X315546Y628358D01*
X315582Y628306D01*
X315609Y628249D01*
X315637Y628220D01*
X315657Y628188D01*
X315673Y628174D01*
X315686Y628156D01*
X315737Y628118D01*
X315781Y628073D01*
X315816Y628055D01*
X315845Y628030D01*
X315870Y628019D01*
X315883Y628009D01*
X315915Y627998D01*
X315998Y627961D01*
X315999Y627961D01*
X316000Y627960D01*
X317880Y627349D01*
X319590Y626478D01*
X321143Y625350D01*
X322500Y623993D01*
X323628Y622440D01*
X324499Y620730D01*
X325093Y618905D01*
X325303Y617573D01*
X313962Y617573D01*
X313942Y617570D01*
X313923Y617572D01*
X313821Y617550D01*
X313719Y617533D01*
X313702Y617524D01*
X313682Y617520D01*
X313593Y617467D01*
X313502Y617418D01*
X313488Y617404D01*
X313471Y617394D01*
X313404Y617315D01*
X313333Y617240D01*
X313324Y617222D01*
X313311Y617207D01*
X313273Y617111D01*
X313229Y617017D01*
X313227Y616997D01*
X313219Y616979D01*
X313201Y616812D01*
X313201Y615288D01*
X313204Y615268D01*
X313202Y615249D01*
X313224Y615147D01*
X313241Y615045D01*
X313250Y615028D01*
X313254Y615008D01*
X313307Y614919D01*
X313356Y614828D01*
X313370Y614814D01*
X313380Y614797D01*
X313459Y614730D01*
X313534Y614659D01*
X313552Y614650D01*
X313567Y614637D01*
X313663Y614598D01*
X313757Y614555D01*
X313777Y614553D01*
X313795Y614545D01*
X313962Y614527D01*
X325303Y614527D01*
X325093Y613195D01*
X324499Y611370D01*
X323628Y609660D01*
X322500Y608107D01*
X321143Y606750D01*
X319590Y605622D01*
X317880Y604751D01*
X315998Y604139D01*
X315964Y604121D01*
X315926Y604112D01*
X315873Y604077D01*
X315815Y604051D01*
X315799Y604036D01*
X315780Y604026D01*
X315753Y603999D01*
X315720Y603977D01*
X315681Y603928D01*
X315634Y603885D01*
X315623Y603865D01*
X315608Y603850D01*
X315592Y603816D01*
X315567Y603784D01*
X315546Y603725D01*
X315516Y603669D01*
X315511Y603646D01*
X315502Y603628D01*
X315498Y603591D01*
X315484Y603553D01*
X315483Y603490D01*
X315472Y603427D01*
X315475Y603404D01*
X315473Y603383D01*
X315480Y603347D01*
X315480Y603307D01*
X315499Y603247D01*
X315508Y603184D01*
X315518Y603163D01*
X315523Y603143D01*
X315541Y603110D01*
X315553Y603072D01*
X315591Y603021D01*
X315619Y602965D01*
X315636Y602948D01*
X315647Y602930D01*
X315675Y602905D01*
X315698Y602873D01*
X315750Y602837D01*
X315795Y602793D01*
X315820Y602779D01*
X315832Y602768D01*
X315860Y602756D01*
X315872Y602750D01*
X315899Y602731D01*
X315916Y602726D01*
X315942Y602712D01*
X320107Y600986D01*
X323536Y597557D01*
X325393Y593075D01*
X325393Y591693D01*
X325396Y591673D01*
X325394Y591654D01*
X325416Y591552D01*
X325432Y591450D01*
X325442Y591433D01*
X325446Y591413D01*
X325499Y591324D01*
X325548Y591233D01*
X325562Y591219D01*
X325572Y591202D01*
X325651Y591135D01*
X325726Y591063D01*
X325744Y591055D01*
X325759Y591042D01*
X325855Y591003D01*
X325949Y590960D01*
X325969Y590958D01*
X325987Y590950D01*
X326154Y590932D01*
X347548Y590932D01*
X352478Y586002D01*
X352573Y585934D01*
X352667Y585864D01*
X352673Y585862D01*
X352678Y585858D01*
X352790Y585824D01*
X352901Y585787D01*
X352907Y585788D01*
X352913Y585786D01*
X353030Y585789D01*
X353147Y585790D01*
X353154Y585792D01*
X353159Y585792D01*
X353177Y585798D01*
X353308Y585837D01*
X353958Y586106D01*
X357242Y586106D01*
X360277Y584849D01*
X362599Y582527D01*
X363856Y579492D01*
X363856Y576208D01*
X362599Y573173D01*
X360277Y570851D01*
X357242Y569594D01*
X353958Y569594D01*
X350923Y570851D01*
X348601Y573173D01*
X347344Y576208D01*
X347344Y579492D01*
X347613Y580142D01*
X347640Y580255D01*
X347669Y580369D01*
X347668Y580375D01*
X347670Y580381D01*
X347659Y580498D01*
X347650Y580614D01*
X347647Y580620D01*
X347647Y580626D01*
X347598Y580734D01*
X347553Y580841D01*
X347549Y580846D01*
X347547Y580851D01*
X347534Y580865D01*
X347448Y580972D01*
X344825Y583595D01*
X344751Y583648D01*
X344681Y583708D01*
X344651Y583720D01*
X344625Y583739D01*
X344538Y583766D01*
X344453Y583800D01*
X344412Y583804D01*
X344390Y583811D01*
X344358Y583810D01*
X344286Y583818D01*
X323927Y583818D01*
X323837Y583804D01*
X323746Y583796D01*
X323716Y583784D01*
X323684Y583779D01*
X323603Y583736D01*
X323519Y583700D01*
X323487Y583674D01*
X323467Y583663D01*
X323444Y583640D01*
X323388Y583595D01*
X320107Y580314D01*
X316099Y578653D01*
X316038Y578616D01*
X315972Y578586D01*
X315934Y578551D01*
X315889Y578524D01*
X315844Y578469D01*
X315791Y578420D01*
X315766Y578374D01*
X315733Y578334D01*
X315707Y578267D01*
X315672Y578204D01*
X315663Y578153D01*
X315644Y578105D01*
X315641Y578033D01*
X315629Y577962D01*
X315636Y577911D01*
X315634Y577859D01*
X315654Y577790D01*
X315664Y577719D01*
X315688Y577673D01*
X315703Y577623D01*
X315743Y577564D01*
X315776Y577500D01*
X315813Y577463D01*
X315843Y577421D01*
X315900Y577378D01*
X315952Y577328D01*
X316014Y577293D01*
X316040Y577274D01*
X316062Y577267D01*
X316099Y577247D01*
X320107Y575586D01*
X323536Y572157D01*
X325393Y567675D01*
X325393Y562825D01*
X323536Y558343D01*
X320107Y554914D01*
X316099Y553253D01*
X316038Y553216D01*
X315972Y553186D01*
X315934Y553151D01*
X315889Y553124D01*
X315844Y553069D01*
X315791Y553020D01*
X315766Y552974D01*
X315733Y552934D01*
X315707Y552867D01*
X315672Y552804D01*
X315663Y552753D01*
X315644Y552705D01*
X315641Y552633D01*
X315629Y552562D01*
X315636Y552511D01*
X315634Y552459D01*
X315654Y552390D01*
X315664Y552319D01*
X315688Y552273D01*
X315703Y552223D01*
X315743Y552164D01*
X315776Y552100D01*
X315813Y552063D01*
X315843Y552021D01*
X315900Y551978D01*
X315952Y551928D01*
X316014Y551893D01*
X316040Y551874D01*
X316062Y551867D01*
X316099Y551847D01*
X320107Y550186D01*
X323536Y546757D01*
X325393Y542275D01*
X325393Y537425D01*
X323536Y532943D01*
X320107Y529514D01*
X316099Y527853D01*
X316038Y527816D01*
X315972Y527786D01*
X315934Y527751D01*
X315889Y527724D01*
X315844Y527669D01*
X315791Y527620D01*
X315766Y527574D01*
X315733Y527534D01*
X315707Y527467D01*
X315672Y527404D01*
X315663Y527353D01*
X315644Y527305D01*
X315641Y527233D01*
X315629Y527162D01*
X315636Y527111D01*
X315634Y527059D01*
X315654Y526990D01*
X315664Y526919D01*
X315688Y526873D01*
X315703Y526823D01*
X315743Y526764D01*
X315776Y526700D01*
X315813Y526663D01*
X315843Y526621D01*
X315900Y526578D01*
X315952Y526528D01*
X316014Y526493D01*
X316040Y526474D01*
X316062Y526467D01*
X316099Y526447D01*
X320107Y524786D01*
X323536Y521357D01*
X325393Y516875D01*
X325393Y512025D01*
X323536Y507543D01*
X320107Y504114D01*
X316099Y502453D01*
X316038Y502416D01*
X315972Y502386D01*
X315934Y502351D01*
X315889Y502324D01*
X315844Y502269D01*
X315791Y502220D01*
X315766Y502174D01*
X315733Y502134D01*
X315707Y502067D01*
X315672Y502004D01*
X315663Y501953D01*
X315644Y501905D01*
X315641Y501833D01*
X315629Y501762D01*
X315636Y501711D01*
X315634Y501659D01*
X315654Y501590D01*
X315664Y501519D01*
X315688Y501473D01*
X315703Y501423D01*
X315743Y501364D01*
X315776Y501300D01*
X315813Y501263D01*
X315843Y501221D01*
X315900Y501178D01*
X315952Y501128D01*
X316014Y501093D01*
X316040Y501074D01*
X316062Y501067D01*
X316099Y501047D01*
X320107Y499386D01*
X323536Y495957D01*
X325393Y491475D01*
X325393Y486625D01*
X323536Y482143D01*
X320107Y478714D01*
X316099Y477053D01*
X316038Y477016D01*
X315972Y476986D01*
X315934Y476951D01*
X315889Y476924D01*
X315844Y476869D01*
X315791Y476820D01*
X315766Y476774D01*
X315733Y476734D01*
X315707Y476667D01*
X315672Y476604D01*
X315663Y476553D01*
X315644Y476505D01*
X315641Y476433D01*
X315629Y476362D01*
X315636Y476311D01*
X315634Y476259D01*
X315654Y476190D01*
X315664Y476119D01*
X315688Y476073D01*
X315703Y476023D01*
X315743Y475964D01*
X315776Y475900D01*
X315813Y475863D01*
X315843Y475821D01*
X315900Y475778D01*
X315952Y475728D01*
X316014Y475693D01*
X316040Y475674D01*
X316062Y475667D01*
X316099Y475647D01*
X320107Y473986D01*
X323588Y470505D01*
X323662Y470452D01*
X323732Y470392D01*
X323762Y470380D01*
X323788Y470361D01*
X323875Y470334D01*
X323960Y470300D01*
X324001Y470296D01*
X324023Y470289D01*
X324055Y470290D01*
X324127Y470282D01*
X344286Y470282D01*
X344377Y470296D01*
X344467Y470304D01*
X344497Y470316D01*
X344529Y470321D01*
X344610Y470364D01*
X344694Y470400D01*
X344726Y470426D01*
X344747Y470437D01*
X344769Y470460D01*
X344825Y470505D01*
X347448Y473128D01*
X347517Y473224D01*
X347586Y473317D01*
X347588Y473323D01*
X347592Y473328D01*
X347626Y473440D01*
X347663Y473551D01*
X347662Y473557D01*
X347664Y473563D01*
X347661Y473680D01*
X347660Y473797D01*
X347658Y473804D01*
X347658Y473809D01*
X347652Y473827D01*
X347613Y473958D01*
X347344Y474608D01*
X347344Y477892D01*
X348601Y480927D01*
X350923Y483249D01*
X353958Y484506D01*
X357242Y484506D01*
X360277Y483249D01*
X362599Y480927D01*
X363856Y477892D01*
X363856Y474608D01*
X362599Y471573D01*
X360277Y469251D01*
X357242Y467994D01*
X353958Y467994D01*
X353308Y468263D01*
X353194Y468290D01*
X353081Y468319D01*
X353075Y468318D01*
X353069Y468320D01*
X352952Y468309D01*
X352836Y468300D01*
X352830Y468297D01*
X352824Y468297D01*
X352716Y468249D01*
X352609Y468203D01*
X352603Y468199D01*
X352599Y468197D01*
X352585Y468184D01*
X352478Y468098D01*
X349855Y465475D01*
X347548Y463168D01*
X326154Y463168D01*
X326134Y463165D01*
X326115Y463167D01*
X326013Y463145D01*
X325911Y463129D01*
X325894Y463119D01*
X325874Y463115D01*
X325785Y463062D01*
X325694Y463013D01*
X325680Y462999D01*
X325663Y462989D01*
X325596Y462910D01*
X325524Y462835D01*
X325516Y462817D01*
X325503Y462802D01*
X325464Y462706D01*
X325421Y462612D01*
X325419Y462592D01*
X325411Y462574D01*
X325393Y462407D01*
X325393Y461225D01*
X323536Y456743D01*
X320107Y453314D01*
X316099Y451653D01*
X316038Y451616D01*
X315972Y451586D01*
X315934Y451551D01*
X315889Y451524D01*
X315844Y451469D01*
X315791Y451420D01*
X315766Y451374D01*
X315733Y451334D01*
X315707Y451267D01*
X315672Y451204D01*
X315663Y451153D01*
X315644Y451105D01*
X315641Y451033D01*
X315629Y450962D01*
X315636Y450911D01*
X315634Y450859D01*
X315654Y450790D01*
X315664Y450719D01*
X315688Y450673D01*
X315703Y450623D01*
X315743Y450564D01*
X315776Y450500D01*
X315813Y450463D01*
X315843Y450421D01*
X315900Y450378D01*
X315952Y450328D01*
X316014Y450293D01*
X316040Y450274D01*
X316062Y450267D01*
X316099Y450247D01*
X320107Y448586D01*
X323536Y445157D01*
X325393Y440675D01*
X325393Y435825D01*
X323536Y431343D01*
X320107Y427914D01*
X316099Y426253D01*
X316038Y426216D01*
X315972Y426186D01*
X315934Y426151D01*
X315889Y426124D01*
X315844Y426069D01*
X315791Y426020D01*
X315766Y425974D01*
X315733Y425934D01*
X315707Y425867D01*
X315672Y425804D01*
X315663Y425753D01*
X315644Y425705D01*
X315641Y425633D01*
X315629Y425562D01*
X315636Y425511D01*
X315634Y425459D01*
X315654Y425390D01*
X315664Y425319D01*
X315688Y425273D01*
X315703Y425223D01*
X315743Y425164D01*
X315776Y425100D01*
X315813Y425063D01*
X315843Y425021D01*
X315900Y424978D01*
X315952Y424928D01*
X316014Y424893D01*
X316040Y424874D01*
X316062Y424867D01*
X316099Y424847D01*
X320107Y423186D01*
X323536Y419757D01*
X325393Y415275D01*
X325393Y410425D01*
X323536Y405943D01*
X320107Y402514D01*
X316099Y400853D01*
X316038Y400816D01*
X315972Y400786D01*
X315934Y400751D01*
X315889Y400724D01*
X315844Y400669D01*
X315791Y400620D01*
X315766Y400574D01*
X315733Y400534D01*
X315707Y400467D01*
X315672Y400404D01*
X315663Y400353D01*
X315644Y400305D01*
X315641Y400233D01*
X315629Y400162D01*
X315636Y400111D01*
X315634Y400059D01*
X315654Y399990D01*
X315664Y399919D01*
X315688Y399873D01*
X315703Y399823D01*
X315743Y399764D01*
X315776Y399700D01*
X315813Y399663D01*
X315843Y399621D01*
X315900Y399578D01*
X315952Y399528D01*
X316014Y399493D01*
X316040Y399474D01*
X316062Y399467D01*
X316099Y399447D01*
X320107Y397786D01*
X323536Y394357D01*
X325393Y389875D01*
X325393Y385025D01*
X323536Y380543D01*
X320107Y377114D01*
X316099Y375453D01*
X316038Y375416D01*
X315972Y375386D01*
X315934Y375351D01*
X315889Y375324D01*
X315844Y375269D01*
X315791Y375220D01*
X315766Y375174D01*
X315733Y375134D01*
X315707Y375067D01*
X315672Y375004D01*
X315663Y374953D01*
X315644Y374905D01*
X315641Y374833D01*
X315629Y374762D01*
X315636Y374711D01*
X315634Y374659D01*
X315654Y374590D01*
X315664Y374519D01*
X315688Y374473D01*
X315703Y374423D01*
X315743Y374364D01*
X315776Y374300D01*
X315813Y374263D01*
X315843Y374221D01*
X315900Y374178D01*
X315952Y374128D01*
X316014Y374093D01*
X316040Y374074D01*
X316062Y374067D01*
X316099Y374047D01*
X320107Y372386D01*
X323536Y368957D01*
X325393Y364475D01*
X325393Y359918D01*
X325396Y359898D01*
X325394Y359879D01*
X325416Y359777D01*
X325432Y359675D01*
X325442Y359658D01*
X325446Y359638D01*
X325499Y359549D01*
X325548Y359458D01*
X325562Y359444D01*
X325572Y359427D01*
X325651Y359360D01*
X325726Y359288D01*
X325744Y359280D01*
X325759Y359267D01*
X325855Y359228D01*
X325949Y359185D01*
X325969Y359183D01*
X325987Y359175D01*
X326154Y359157D01*
X331673Y359157D01*
X333757Y357073D01*
X333757Y345963D01*
X333772Y345867D01*
X333782Y345770D01*
X333792Y345747D01*
X333796Y345721D01*
X333842Y345635D01*
X333882Y345546D01*
X333899Y345526D01*
X333912Y345503D01*
X333982Y345436D01*
X334048Y345365D01*
X334071Y345352D01*
X334090Y345334D01*
X334178Y345293D01*
X334264Y345246D01*
X334289Y345241D01*
X334313Y345230D01*
X334410Y345220D01*
X334506Y345202D01*
X334532Y345206D01*
X334557Y345203D01*
X334653Y345224D01*
X334749Y345238D01*
X334772Y345250D01*
X334798Y345256D01*
X334881Y345305D01*
X334968Y345350D01*
X334987Y345368D01*
X335009Y345382D01*
X335072Y345456D01*
X335140Y345525D01*
X335156Y345554D01*
X335169Y345569D01*
X335181Y345599D01*
X335221Y345672D01*
X336785Y349447D01*
X340036Y352698D01*
X344284Y354458D01*
X366916Y354458D01*
X371164Y352698D01*
X374415Y349447D01*
X376175Y345199D01*
X376175Y340601D01*
X374415Y336353D01*
X371164Y333102D01*
X366916Y331342D01*
X344284Y331342D01*
X341254Y332597D01*
X341159Y332620D01*
X341066Y332648D01*
X341040Y332648D01*
X341014Y332654D01*
X340917Y332645D01*
X340820Y332642D01*
X340795Y332633D01*
X340769Y332631D01*
X340681Y332591D01*
X340589Y332558D01*
X340568Y332541D01*
X340545Y332531D01*
X340473Y332465D01*
X340397Y332404D01*
X340383Y332382D01*
X340363Y332364D01*
X340317Y332279D01*
X340264Y332197D01*
X340258Y332172D01*
X340245Y332149D01*
X340228Y332053D01*
X340204Y331958D01*
X340206Y331932D01*
X340201Y331907D01*
X340215Y331810D01*
X340223Y331713D01*
X340233Y331689D01*
X340237Y331663D01*
X340281Y331576D01*
X340319Y331487D01*
X340340Y331461D01*
X340348Y331444D01*
X340372Y331421D01*
X340424Y331356D01*
X342820Y328960D01*
X342914Y328892D01*
X343009Y328822D01*
X343015Y328820D01*
X343020Y328816D01*
X343131Y328782D01*
X343243Y328746D01*
X343249Y328746D01*
X343255Y328744D01*
X343372Y328747D01*
X343489Y328748D01*
X343496Y328750D01*
X343501Y328750D01*
X343518Y328757D01*
X343650Y328795D01*
X344284Y329058D01*
X366916Y329058D01*
X371164Y327298D01*
X374415Y324047D01*
X376175Y319799D01*
X376175Y315201D01*
X374415Y310953D01*
X371164Y307702D01*
X366916Y305942D01*
X344284Y305942D01*
X341254Y307197D01*
X341159Y307220D01*
X341066Y307248D01*
X341040Y307248D01*
X341014Y307254D01*
X340917Y307245D01*
X340820Y307242D01*
X340795Y307233D01*
X340769Y307231D01*
X340681Y307191D01*
X340589Y307158D01*
X340568Y307141D01*
X340545Y307131D01*
X340473Y307065D01*
X340397Y307004D01*
X340383Y306982D01*
X340363Y306964D01*
X340317Y306879D01*
X340264Y306797D01*
X340258Y306772D01*
X340245Y306749D01*
X340228Y306653D01*
X340204Y306558D01*
X340206Y306532D01*
X340201Y306507D01*
X340215Y306410D01*
X340223Y306313D01*
X340233Y306289D01*
X340237Y306263D01*
X340281Y306176D01*
X340319Y306087D01*
X340340Y306061D01*
X340348Y306044D01*
X340372Y306021D01*
X340424Y305956D01*
X342820Y303560D01*
X342914Y303492D01*
X343009Y303422D01*
X343015Y303420D01*
X343020Y303416D01*
X343131Y303382D01*
X343243Y303346D01*
X343249Y303346D01*
X343255Y303344D01*
X343372Y303347D01*
X343489Y303348D01*
X343496Y303350D01*
X343501Y303350D01*
X343518Y303357D01*
X343650Y303395D01*
X344284Y303658D01*
X366916Y303658D01*
X371164Y301898D01*
X374415Y298647D01*
X376175Y294399D01*
X376175Y289801D01*
X374415Y285553D01*
X371164Y282302D01*
X366916Y280542D01*
X344284Y280542D01*
X340036Y282302D01*
X336785Y285553D01*
X335025Y289801D01*
X335025Y294399D01*
X336821Y298733D01*
X336834Y298752D01*
X336840Y298771D01*
X336851Y298788D01*
X336876Y298888D01*
X336906Y298987D01*
X336906Y299007D01*
X336911Y299027D01*
X336903Y299130D01*
X336900Y299233D01*
X336893Y299252D01*
X336892Y299272D01*
X336852Y299367D01*
X336816Y299464D01*
X336803Y299480D01*
X336795Y299498D01*
X336691Y299629D01*
X328950Y307370D01*
X326692Y309628D01*
X326634Y309670D01*
X326582Y309719D01*
X326535Y309741D01*
X326493Y309771D01*
X326424Y309792D01*
X326359Y309823D01*
X326307Y309828D01*
X326257Y309844D01*
X326186Y309842D01*
X326115Y309850D01*
X326064Y309839D01*
X326012Y309837D01*
X325944Y309813D01*
X325874Y309797D01*
X325829Y309771D01*
X325781Y309753D01*
X325725Y309708D01*
X325663Y309671D01*
X325629Y309632D01*
X325589Y309599D01*
X325550Y309539D01*
X325503Y309484D01*
X325484Y309436D01*
X325456Y309392D01*
X325438Y309323D01*
X325411Y309256D01*
X325403Y309185D01*
X325395Y309154D01*
X325397Y309130D01*
X325393Y309089D01*
X325393Y308825D01*
X323536Y304343D01*
X320107Y300914D01*
X316099Y299253D01*
X316038Y299216D01*
X315972Y299186D01*
X315934Y299151D01*
X315889Y299124D01*
X315844Y299069D01*
X315791Y299020D01*
X315766Y298974D01*
X315733Y298934D01*
X315707Y298867D01*
X315672Y298804D01*
X315663Y298753D01*
X315644Y298705D01*
X315641Y298633D01*
X315629Y298562D01*
X315636Y298511D01*
X315634Y298459D01*
X315654Y298390D01*
X315664Y298319D01*
X315688Y298273D01*
X315703Y298223D01*
X315743Y298164D01*
X315776Y298100D01*
X315813Y298063D01*
X315843Y298021D01*
X315900Y297978D01*
X315952Y297928D01*
X316014Y297893D01*
X316040Y297874D01*
X316062Y297867D01*
X316099Y297847D01*
X320107Y296186D01*
X323536Y292757D01*
X325393Y288275D01*
X325393Y283425D01*
X323536Y278943D01*
X323388Y278795D01*
X323347Y278737D01*
X323297Y278685D01*
X323275Y278638D01*
X323245Y278596D01*
X323224Y278527D01*
X323194Y278462D01*
X323188Y278410D01*
X323172Y278360D01*
X323174Y278289D01*
X323166Y278218D01*
X323178Y278167D01*
X323179Y278115D01*
X323203Y278047D01*
X323219Y277977D01*
X323245Y277932D01*
X323263Y277884D01*
X323308Y277828D01*
X323345Y277766D01*
X323384Y277732D01*
X323417Y277692D01*
X323477Y277653D01*
X323532Y277606D01*
X323580Y277587D01*
X323624Y277559D01*
X323693Y277541D01*
X323760Y277514D01*
X323831Y277506D01*
X323862Y277498D01*
X323886Y277500D01*
X323927Y277496D01*
X325366Y277496D01*
X328167Y276336D01*
X330311Y274192D01*
X330431Y273902D01*
X330492Y273802D01*
X330552Y273702D01*
X330557Y273698D01*
X330560Y273693D01*
X330650Y273618D01*
X330739Y273542D01*
X330745Y273540D01*
X330750Y273536D01*
X330858Y273494D01*
X330967Y273450D01*
X330975Y273449D01*
X330979Y273448D01*
X330998Y273447D01*
X331134Y273432D01*
X344373Y273432D01*
X350366Y267439D01*
X350440Y267386D01*
X350510Y267326D01*
X350540Y267314D01*
X350566Y267295D01*
X350653Y267268D01*
X350738Y267234D01*
X350779Y267230D01*
X350801Y267223D01*
X350833Y267224D01*
X350905Y267216D01*
X365097Y267216D01*
X368788Y265687D01*
X371612Y262863D01*
X373141Y259172D01*
X373141Y255178D01*
X371612Y251487D01*
X368788Y248663D01*
X365097Y247134D01*
X346103Y247134D01*
X342412Y248663D01*
X339588Y251487D01*
X338059Y255178D01*
X338059Y259172D01*
X339588Y262863D01*
X341697Y264972D01*
X341708Y264988D01*
X341724Y265000D01*
X341780Y265087D01*
X341840Y265171D01*
X341846Y265190D01*
X341857Y265207D01*
X341882Y265308D01*
X341913Y265406D01*
X341912Y265426D01*
X341917Y265446D01*
X341909Y265549D01*
X341906Y265652D01*
X341900Y265671D01*
X341898Y265691D01*
X341858Y265786D01*
X341822Y265883D01*
X341809Y265899D01*
X341802Y265917D01*
X341697Y266048D01*
X341650Y266095D01*
X341576Y266148D01*
X341506Y266208D01*
X341476Y266220D01*
X341450Y266239D01*
X341363Y266266D01*
X341278Y266300D01*
X341237Y266304D01*
X341215Y266311D01*
X341183Y266310D01*
X341111Y266318D01*
X331134Y266318D01*
X331019Y266299D01*
X330903Y266282D01*
X330897Y266280D01*
X330891Y266279D01*
X330789Y266224D01*
X330684Y266171D01*
X330679Y266166D01*
X330674Y266163D01*
X330594Y266079D01*
X330512Y265995D01*
X330508Y265989D01*
X330505Y265985D01*
X330497Y265968D01*
X330431Y265848D01*
X330311Y265558D01*
X328167Y263414D01*
X325366Y262254D01*
X322334Y262254D01*
X319533Y263414D01*
X317389Y265558D01*
X316229Y268359D01*
X316229Y271391D01*
X316784Y272731D01*
X316801Y272800D01*
X316826Y272867D01*
X316829Y272920D01*
X316840Y272970D01*
X316834Y273041D01*
X316837Y273113D01*
X316822Y273163D01*
X316817Y273215D01*
X316788Y273281D01*
X316768Y273349D01*
X316738Y273392D01*
X316717Y273440D01*
X316669Y273493D01*
X316628Y273552D01*
X316586Y273583D01*
X316551Y273621D01*
X316488Y273656D01*
X316431Y273698D01*
X316381Y273714D01*
X316335Y273740D01*
X316265Y273752D01*
X316197Y273774D01*
X316145Y273774D01*
X316093Y273783D01*
X316022Y273773D01*
X315951Y273772D01*
X315882Y273752D01*
X315850Y273747D01*
X315829Y273737D01*
X315790Y273725D01*
X315625Y273657D01*
X310775Y273657D01*
X306293Y275514D01*
X302864Y278943D01*
X301007Y283425D01*
X301007Y288275D01*
X302864Y292757D01*
X305213Y295106D01*
X305224Y295122D01*
X305240Y295134D01*
X305270Y295182D01*
X305282Y295194D01*
X305291Y295215D01*
X305296Y295222D01*
X305356Y295306D01*
X305362Y295325D01*
X305373Y295341D01*
X305398Y295442D01*
X305429Y295541D01*
X305428Y295561D01*
X305433Y295580D01*
X305425Y295683D01*
X305422Y295786D01*
X305415Y295805D01*
X305414Y295825D01*
X305373Y295920D01*
X305338Y296018D01*
X305325Y296033D01*
X305317Y296051D01*
X305213Y296182D01*
X289844Y311551D01*
X289786Y311593D01*
X289734Y311642D01*
X289687Y311664D01*
X289645Y311694D01*
X289576Y311715D01*
X289511Y311746D01*
X289459Y311751D01*
X289409Y311767D01*
X289338Y311765D01*
X289267Y311773D01*
X289216Y311762D01*
X289164Y311760D01*
X289096Y311736D01*
X289026Y311720D01*
X288982Y311694D01*
X288933Y311676D01*
X288877Y311631D01*
X288815Y311594D01*
X288781Y311555D01*
X288741Y311522D01*
X288702Y311462D01*
X288655Y311407D01*
X288636Y311359D01*
X288608Y311315D01*
X288590Y311246D01*
X288563Y311179D01*
X288555Y311108D01*
X288547Y311077D01*
X288549Y311053D01*
X288545Y311012D01*
X288545Y309331D01*
X287153Y305970D01*
X284580Y303397D01*
X281219Y302005D01*
X277581Y302005D01*
X274220Y303397D01*
X271647Y305970D01*
X270255Y309331D01*
X270255Y312969D01*
X271647Y316330D01*
X274220Y318903D01*
X277581Y320295D01*
X279262Y320295D01*
X279333Y320306D01*
X279405Y320308D01*
X279454Y320326D01*
X279505Y320334D01*
X279569Y320368D01*
X279636Y320393D01*
X279677Y320425D01*
X279723Y320450D01*
X279772Y320502D01*
X279828Y320546D01*
X279856Y320590D01*
X279892Y320628D01*
X279922Y320693D01*
X279961Y320753D01*
X279974Y320804D01*
X279996Y320851D01*
X280004Y320922D01*
X280021Y320992D01*
X280017Y321044D01*
X280023Y321095D01*
X280007Y321166D01*
X280002Y321237D01*
X279982Y321285D01*
X279970Y321336D01*
X279934Y321397D01*
X279906Y321463D01*
X279861Y321519D01*
X279844Y321547D01*
X279826Y321562D01*
X279801Y321594D01*
X278150Y323245D01*
X278076Y323298D01*
X278006Y323358D01*
X277976Y323370D01*
X277950Y323389D01*
X277863Y323416D01*
X277778Y323450D01*
X277737Y323454D01*
X277715Y323461D01*
X277683Y323460D01*
X277611Y323468D01*
X258622Y323468D01*
X258526Y323453D01*
X258429Y323443D01*
X258405Y323433D01*
X258379Y323429D01*
X258293Y323383D01*
X258204Y323343D01*
X258185Y323326D01*
X258162Y323313D01*
X258095Y323243D01*
X258023Y323177D01*
X258010Y323154D01*
X257992Y323135D01*
X257951Y323047D01*
X257904Y322961D01*
X257900Y322936D01*
X257889Y322912D01*
X257878Y322815D01*
X257861Y322719D01*
X257864Y322693D01*
X257862Y322668D01*
X257882Y322572D01*
X257896Y322476D01*
X257908Y322453D01*
X257914Y322427D01*
X257964Y322344D01*
X258008Y322257D01*
X258027Y322238D01*
X258040Y322216D01*
X258114Y322153D01*
X258183Y322085D01*
X258212Y322069D01*
X258227Y322056D01*
X258258Y322044D01*
X258330Y322004D01*
X260619Y321056D01*
X263906Y317769D01*
X265685Y313474D01*
X265685Y308826D01*
X263906Y304531D01*
X260619Y301244D01*
X256324Y299465D01*
X251676Y299465D01*
X251624Y299487D01*
X251510Y299514D01*
X251396Y299542D01*
X251390Y299542D01*
X251384Y299543D01*
X251267Y299532D01*
X251151Y299523D01*
X251146Y299521D01*
X251139Y299520D01*
X251031Y299472D01*
X250925Y299427D01*
X250919Y299422D01*
X250915Y299420D01*
X250901Y299407D01*
X250794Y299322D01*
X233285Y281813D01*
X233258Y281775D01*
X233224Y281744D01*
X233186Y281676D01*
X233141Y281613D01*
X233128Y281569D01*
X233105Y281529D01*
X233092Y281452D01*
X233069Y281378D01*
X233070Y281332D01*
X233062Y281287D01*
X233073Y281210D01*
X233075Y281132D01*
X233091Y281089D01*
X233098Y281043D01*
X233133Y280974D01*
X233160Y280901D01*
X233188Y280865D01*
X233209Y280824D01*
X233265Y280770D01*
X233313Y280709D01*
X233352Y280684D01*
X233385Y280652D01*
X233504Y280586D01*
X233520Y280576D01*
X233525Y280575D01*
X233532Y280571D01*
X236092Y279511D01*
X238236Y277367D01*
X238356Y277077D01*
X238417Y276978D01*
X238477Y276877D01*
X238482Y276873D01*
X238485Y276868D01*
X238575Y276793D01*
X238664Y276717D01*
X238670Y276715D01*
X238675Y276711D01*
X238783Y276669D01*
X238892Y276625D01*
X238900Y276624D01*
X238904Y276623D01*
X238923Y276622D01*
X239059Y276607D01*
X299923Y276607D01*
X337800Y238730D01*
X337874Y238677D01*
X337944Y238617D01*
X337974Y238605D01*
X338000Y238586D01*
X338087Y238559D01*
X338172Y238525D01*
X338213Y238521D01*
X338235Y238514D01*
X338267Y238515D01*
X338339Y238507D01*
X340317Y238507D01*
X340407Y238521D01*
X340498Y238529D01*
X340527Y238541D01*
X340559Y238546D01*
X340640Y238589D01*
X340724Y238625D01*
X340756Y238651D01*
X340777Y238662D01*
X340796Y238682D01*
X340798Y238683D01*
X340803Y238689D01*
X340855Y238730D01*
X342412Y240287D01*
X346103Y241816D01*
X365097Y241816D01*
X368788Y240287D01*
X371612Y237463D01*
X373141Y233772D01*
X373141Y229778D01*
X371612Y226087D01*
X368788Y223263D01*
X365097Y221734D01*
X346103Y221734D01*
X342412Y223263D01*
X339588Y226087D01*
X338059Y229778D01*
X338059Y230632D01*
X338056Y230652D01*
X338058Y230671D01*
X338036Y230773D01*
X338020Y230875D01*
X338010Y230892D01*
X338006Y230912D01*
X337953Y231001D01*
X337904Y231092D01*
X337890Y231106D01*
X337880Y231123D01*
X337801Y231190D01*
X337726Y231262D01*
X337708Y231270D01*
X337693Y231283D01*
X337597Y231322D01*
X337503Y231365D01*
X337483Y231367D01*
X337465Y231375D01*
X337298Y231393D01*
X335077Y231393D01*
X297200Y269270D01*
X297126Y269323D01*
X297056Y269383D01*
X297026Y269395D01*
X297000Y269414D01*
X296913Y269441D01*
X296828Y269475D01*
X296787Y269479D01*
X296765Y269486D01*
X296733Y269485D01*
X296661Y269493D01*
X254297Y269493D01*
X254226Y269482D01*
X254154Y269480D01*
X254105Y269462D01*
X254054Y269454D01*
X253991Y269420D01*
X253923Y269395D01*
X253883Y269363D01*
X253837Y269338D01*
X253787Y269286D01*
X253731Y269242D01*
X253703Y269198D01*
X253667Y269160D01*
X253637Y269095D01*
X253598Y269035D01*
X253586Y268984D01*
X253564Y268937D01*
X253556Y268866D01*
X253538Y268796D01*
X253542Y268744D01*
X253537Y268693D01*
X253552Y268622D01*
X253557Y268551D01*
X253578Y268503D01*
X253589Y268452D01*
X253626Y268391D01*
X253654Y268325D01*
X253699Y268269D01*
X253715Y268241D01*
X253733Y268226D01*
X253759Y268194D01*
X254111Y267842D01*
X255271Y265041D01*
X255271Y262009D01*
X254111Y259208D01*
X251967Y257064D01*
X249166Y255904D01*
X246134Y255904D01*
X245909Y255997D01*
X245865Y256008D01*
X245823Y256027D01*
X245746Y256036D01*
X245670Y256054D01*
X245624Y256049D01*
X245579Y256054D01*
X245502Y256038D01*
X245425Y256030D01*
X245383Y256012D01*
X245338Y256002D01*
X245271Y255962D01*
X245200Y255931D01*
X245166Y255899D01*
X245127Y255876D01*
X245076Y255817D01*
X245019Y255764D01*
X244997Y255724D01*
X244967Y255689D01*
X244938Y255617D01*
X244901Y255549D01*
X244892Y255504D01*
X244875Y255461D01*
X244860Y255325D01*
X244857Y255307D01*
X244858Y255302D01*
X244857Y255294D01*
X244857Y215177D01*
X244868Y215106D01*
X244870Y215035D01*
X244888Y214986D01*
X244896Y214934D01*
X244930Y214871D01*
X244955Y214804D01*
X244987Y214763D01*
X245012Y214717D01*
X245064Y214668D01*
X245108Y214612D01*
X245152Y214583D01*
X245190Y214548D01*
X245255Y214517D01*
X245315Y214479D01*
X245366Y214466D01*
X245413Y214444D01*
X245484Y214436D01*
X245554Y214419D01*
X245606Y214423D01*
X245657Y214417D01*
X245728Y214432D01*
X245799Y214438D01*
X245847Y214458D01*
X245898Y214469D01*
X245959Y214506D01*
X246025Y214534D01*
X246081Y214579D01*
X246109Y214595D01*
X246124Y214613D01*
X246156Y214639D01*
X248820Y217303D01*
X252181Y218695D01*
X255819Y218695D01*
X259180Y217303D01*
X261753Y214730D01*
X263145Y211369D01*
X263145Y207731D01*
X261753Y204370D01*
X259180Y201797D01*
X255819Y200405D01*
X252181Y200405D01*
X248820Y201797D01*
X246156Y204461D01*
X246098Y204503D01*
X246046Y204552D01*
X245999Y204574D01*
X245957Y204605D01*
X245888Y204626D01*
X245823Y204656D01*
X245771Y204662D01*
X245721Y204677D01*
X245650Y204675D01*
X245579Y204683D01*
X245528Y204672D01*
X245476Y204671D01*
X245408Y204646D01*
X245338Y204631D01*
X245293Y204604D01*
X245245Y204586D01*
X245189Y204541D01*
X245127Y204505D01*
X245093Y204465D01*
X245053Y204433D01*
X245014Y204372D01*
X244967Y204318D01*
X244948Y204269D01*
X244920Y204226D01*
X244902Y204156D01*
X244875Y204090D01*
X244867Y204018D01*
X244859Y203987D01*
X244861Y203964D01*
X244857Y203923D01*
X244857Y182677D01*
X214198Y152018D01*
X87947Y152018D01*
X87928Y152015D01*
X87908Y152017D01*
X87807Y151995D01*
X87705Y151979D01*
X87687Y151969D01*
X87668Y151965D01*
X87579Y151912D01*
X87487Y151863D01*
X87474Y151849D01*
X87457Y151839D01*
X87389Y151760D01*
X87318Y151685D01*
X87310Y151667D01*
X87297Y151652D01*
X87258Y151556D01*
X87214Y151462D01*
X87212Y151442D01*
X87205Y151424D01*
X87186Y151257D01*
X87186Y140144D01*
X85436Y135920D01*
X82203Y132686D01*
X77978Y130936D01*
X73406Y130936D01*
X69181Y132686D01*
X65948Y135920D01*
X64198Y140144D01*
X64198Y162624D01*
X65948Y166848D01*
X69181Y170082D01*
X73406Y171832D01*
X77978Y171832D01*
X82203Y170082D01*
X85436Y166848D01*
X87186Y162624D01*
X87186Y159893D01*
X87189Y159873D01*
X87187Y159854D01*
X87209Y159752D01*
X87226Y159650D01*
X87235Y159633D01*
X87240Y159613D01*
X87293Y159524D01*
X87341Y159433D01*
X87355Y159419D01*
X87366Y159402D01*
X87444Y159335D01*
X87519Y159263D01*
X87537Y159255D01*
X87553Y159242D01*
X87649Y159203D01*
X87742Y159160D01*
X87762Y159158D01*
X87781Y159150D01*
X87947Y159132D01*
X210936Y159132D01*
X211027Y159146D01*
X211117Y159154D01*
X211147Y159166D01*
X211179Y159171D01*
X211260Y159214D01*
X211344Y159250D01*
X211376Y159276D01*
X211397Y159287D01*
X211419Y159310D01*
X211475Y159355D01*
X237520Y185400D01*
X237573Y185474D01*
X237633Y185544D01*
X237645Y185574D01*
X237664Y185600D01*
X237691Y185687D01*
X237725Y185772D01*
X237729Y185813D01*
X237736Y185835D01*
X237735Y185867D01*
X237743Y185939D01*
X237743Y203923D01*
X237732Y203994D01*
X237730Y204065D01*
X237712Y204114D01*
X237704Y204166D01*
X237670Y204229D01*
X237645Y204296D01*
X237613Y204337D01*
X237588Y204383D01*
X237536Y204432D01*
X237492Y204488D01*
X237448Y204517D01*
X237410Y204552D01*
X237345Y204583D01*
X237285Y204621D01*
X237234Y204634D01*
X237187Y204656D01*
X237116Y204664D01*
X237046Y204681D01*
X236994Y204677D01*
X236943Y204683D01*
X236872Y204668D01*
X236801Y204662D01*
X236753Y204642D01*
X236702Y204631D01*
X236641Y204594D01*
X236575Y204566D01*
X236519Y204521D01*
X236491Y204505D01*
X236476Y204487D01*
X236444Y204461D01*
X233780Y201797D01*
X230419Y200405D01*
X226781Y200405D01*
X223420Y201797D01*
X220847Y204370D01*
X219455Y207731D01*
X219455Y211369D01*
X220847Y214730D01*
X223420Y217303D01*
X226781Y218695D01*
X230419Y218695D01*
X233780Y217303D01*
X236444Y214639D01*
X236502Y214597D01*
X236554Y214548D01*
X236601Y214526D01*
X236643Y214495D01*
X236712Y214474D01*
X236777Y214444D01*
X236829Y214438D01*
X236879Y214423D01*
X236950Y214425D01*
X237021Y214417D01*
X237072Y214428D01*
X237124Y214429D01*
X237192Y214454D01*
X237262Y214469D01*
X237307Y214496D01*
X237355Y214514D01*
X237411Y214559D01*
X237473Y214595D01*
X237507Y214635D01*
X237547Y214667D01*
X237586Y214728D01*
X237633Y214782D01*
X237652Y214831D01*
X237680Y214874D01*
X237698Y214944D01*
X237725Y215010D01*
X237733Y215082D01*
X237741Y215113D01*
X237739Y215136D01*
X237743Y215177D01*
X237743Y264998D01*
X239827Y267082D01*
X240366Y267082D01*
X240481Y267101D01*
X240597Y267118D01*
X240603Y267120D01*
X240609Y267121D01*
X240711Y267176D01*
X240816Y267229D01*
X240821Y267234D01*
X240826Y267237D01*
X240906Y267321D01*
X240988Y267405D01*
X240992Y267411D01*
X240995Y267415D01*
X241003Y267432D01*
X241069Y267552D01*
X241189Y267842D01*
X241541Y268194D01*
X241583Y268252D01*
X241633Y268304D01*
X241655Y268351D01*
X241685Y268393D01*
X241706Y268462D01*
X241736Y268527D01*
X241742Y268579D01*
X241757Y268629D01*
X241755Y268700D01*
X241763Y268771D01*
X241752Y268822D01*
X241751Y268874D01*
X241726Y268942D01*
X241711Y269012D01*
X241684Y269057D01*
X241667Y269105D01*
X241622Y269161D01*
X241585Y269223D01*
X241545Y269257D01*
X241513Y269297D01*
X241453Y269336D01*
X241398Y269383D01*
X241350Y269402D01*
X241306Y269430D01*
X241237Y269448D01*
X241170Y269475D01*
X241099Y269483D01*
X241067Y269491D01*
X241044Y269489D01*
X241003Y269493D01*
X239059Y269493D01*
X238945Y269475D01*
X238828Y269457D01*
X238822Y269455D01*
X238816Y269454D01*
X238714Y269399D01*
X238609Y269346D01*
X238604Y269341D01*
X238599Y269338D01*
X238519Y269254D01*
X238437Y269170D01*
X238433Y269164D01*
X238429Y269160D01*
X238422Y269143D01*
X238356Y269023D01*
X238236Y268733D01*
X236092Y266589D01*
X233291Y265429D01*
X230259Y265429D01*
X227458Y266589D01*
X225314Y268733D01*
X224254Y271293D01*
X224230Y271332D01*
X224214Y271376D01*
X224165Y271436D01*
X224124Y271502D01*
X224089Y271532D01*
X224060Y271568D01*
X223995Y271610D01*
X223935Y271659D01*
X223892Y271676D01*
X223853Y271701D01*
X223778Y271720D01*
X223705Y271747D01*
X223659Y271749D01*
X223615Y271761D01*
X223537Y271755D01*
X223460Y271758D01*
X223415Y271745D01*
X223370Y271741D01*
X223298Y271711D01*
X223223Y271689D01*
X223186Y271663D01*
X223143Y271645D01*
X223037Y271560D01*
X223021Y271549D01*
X223018Y271545D01*
X223012Y271540D01*
X211651Y260179D01*
X209829Y258356D01*
X207588Y257428D01*
X54240Y257428D01*
X54169Y257417D01*
X54097Y257415D01*
X54048Y257397D01*
X53997Y257389D01*
X53934Y257355D01*
X53866Y257330D01*
X53825Y257298D01*
X53779Y257273D01*
X53730Y257222D01*
X53674Y257177D01*
X53646Y257133D01*
X53610Y257095D01*
X53580Y257030D01*
X53541Y256970D01*
X53528Y256919D01*
X53506Y256872D01*
X53498Y256801D01*
X53481Y256731D01*
X53485Y256679D01*
X53479Y256628D01*
X53495Y256557D01*
X53500Y256486D01*
X53520Y256438D01*
X53532Y256387D01*
X53568Y256326D01*
X53596Y256260D01*
X53641Y256204D01*
X53658Y256176D01*
X53676Y256161D01*
X53701Y256129D01*
X77450Y232380D01*
X79757Y230073D01*
X79757Y204989D01*
X79771Y204898D01*
X79779Y204808D01*
X79791Y204778D01*
X79796Y204746D01*
X79839Y204665D01*
X79875Y204581D01*
X79901Y204549D01*
X79912Y204528D01*
X79935Y204506D01*
X79980Y204450D01*
X86975Y197455D01*
X87049Y197402D01*
X87119Y197342D01*
X87149Y197330D01*
X87175Y197311D01*
X87262Y197284D01*
X87347Y197250D01*
X87388Y197246D01*
X87410Y197239D01*
X87442Y197240D01*
X87514Y197232D01*
X144348Y197232D01*
X155628Y185952D01*
X155724Y185883D01*
X155817Y185814D01*
X155823Y185812D01*
X155828Y185808D01*
X155940Y185774D01*
X156051Y185737D01*
X156057Y185738D01*
X156063Y185736D01*
X156180Y185739D01*
X156297Y185740D01*
X156304Y185742D01*
X156309Y185742D01*
X156327Y185748D01*
X156458Y185787D01*
X157108Y186056D01*
X160392Y186056D01*
X161042Y185787D01*
X161155Y185760D01*
X161269Y185731D01*
X161275Y185732D01*
X161281Y185730D01*
X161398Y185741D01*
X161514Y185750D01*
X161520Y185753D01*
X161526Y185753D01*
X161634Y185802D01*
X161741Y185847D01*
X161746Y185851D01*
X161751Y185853D01*
X161765Y185866D01*
X161872Y185952D01*
X163627Y187707D01*
X198323Y187707D01*
X200630Y185400D01*
X206428Y179602D01*
X206524Y179533D01*
X206617Y179464D01*
X206623Y179462D01*
X206628Y179458D01*
X206740Y179424D01*
X206851Y179387D01*
X206857Y179388D01*
X206863Y179386D01*
X206980Y179389D01*
X207097Y179390D01*
X207104Y179392D01*
X207109Y179392D01*
X207127Y179398D01*
X207258Y179437D01*
X207908Y179706D01*
X211192Y179706D01*
X214227Y178449D01*
X216549Y176127D01*
X217806Y173092D01*
X217806Y169808D01*
X216549Y166773D01*
X214227Y164451D01*
X211192Y163194D01*
X207908Y163194D01*
X204873Y164451D01*
X202551Y166773D01*
X201294Y169808D01*
X201294Y173092D01*
X201563Y173742D01*
X201590Y173855D01*
X201619Y173969D01*
X201618Y173975D01*
X201620Y173981D01*
X201609Y174098D01*
X201600Y174214D01*
X201597Y174220D01*
X201597Y174226D01*
X201549Y174334D01*
X201503Y174441D01*
X201499Y174446D01*
X201497Y174451D01*
X201484Y174465D01*
X201398Y174572D01*
X195600Y180370D01*
X195526Y180423D01*
X195456Y180483D01*
X195426Y180495D01*
X195400Y180514D01*
X195313Y180541D01*
X195228Y180575D01*
X195187Y180579D01*
X195165Y180586D01*
X195133Y180585D01*
X195061Y180593D01*
X167668Y180593D01*
X167623Y180586D01*
X167577Y180588D01*
X167502Y180566D01*
X167425Y180554D01*
X167385Y180532D01*
X167341Y180519D01*
X167277Y180475D01*
X167208Y180438D01*
X167177Y180405D01*
X167139Y180379D01*
X167092Y180316D01*
X167039Y180260D01*
X167019Y180218D01*
X166992Y180182D01*
X166968Y180108D01*
X166935Y180037D01*
X166930Y179991D01*
X166916Y179948D01*
X166917Y179870D01*
X166908Y179793D01*
X166918Y179748D01*
X166918Y179702D01*
X166956Y179570D01*
X166960Y179552D01*
X166963Y179548D01*
X166965Y179541D01*
X167006Y179442D01*
X167006Y176158D01*
X165749Y173123D01*
X163427Y170801D01*
X160392Y169544D01*
X157108Y169544D01*
X154073Y170801D01*
X151751Y173123D01*
X150494Y176158D01*
X150494Y179442D01*
X150763Y180092D01*
X150790Y180205D01*
X150819Y180319D01*
X150818Y180325D01*
X150820Y180331D01*
X150809Y180448D01*
X150800Y180564D01*
X150797Y180570D01*
X150797Y180576D01*
X150749Y180684D01*
X150703Y180791D01*
X150699Y180796D01*
X150697Y180801D01*
X150684Y180815D01*
X150598Y180922D01*
X141625Y189895D01*
X141551Y189948D01*
X141481Y190008D01*
X141451Y190020D01*
X141425Y190039D01*
X141338Y190066D01*
X141253Y190100D01*
X141212Y190104D01*
X141190Y190111D01*
X141158Y190110D01*
X141086Y190118D01*
X84252Y190118D01*
X72643Y201727D01*
X72643Y226811D01*
X72629Y226902D01*
X72621Y226992D01*
X72609Y227022D01*
X72604Y227054D01*
X72561Y227135D01*
X72525Y227219D01*
X72499Y227251D01*
X72488Y227272D01*
X72465Y227294D01*
X72420Y227350D01*
X40025Y259745D01*
X39951Y259798D01*
X39881Y259858D01*
X39851Y259870D01*
X39825Y259889D01*
X39738Y259916D01*
X39653Y259950D01*
X39612Y259954D01*
X39590Y259961D01*
X39558Y259960D01*
X39486Y259968D01*
X4877Y259968D01*
X3840Y261005D01*
X3782Y261047D01*
X3730Y261096D01*
X3683Y261118D01*
X3641Y261148D01*
X3572Y261169D01*
X3507Y261200D01*
X3455Y261205D01*
X3405Y261221D01*
X3334Y261219D01*
X3263Y261227D01*
X3212Y261216D01*
X3160Y261214D01*
X3092Y261190D01*
X3022Y261174D01*
X2977Y261148D01*
X2929Y261130D01*
X2873Y261085D01*
X2811Y261048D01*
X2777Y261009D01*
X2737Y260976D01*
X2698Y260916D01*
X2651Y260861D01*
X2632Y260813D01*
X2604Y260769D01*
X2586Y260700D01*
X2559Y260633D01*
X2551Y260562D01*
X2543Y260531D01*
X2545Y260507D01*
X2541Y260466D01*
X2541Y3302D01*
X2544Y3282D01*
X2542Y3263D01*
X2564Y3161D01*
X2580Y3059D01*
X2590Y3042D01*
X2594Y3022D01*
X2647Y2933D01*
X2696Y2842D01*
X2710Y2828D01*
X2720Y2811D01*
X2799Y2744D01*
X2874Y2672D01*
X2892Y2664D01*
X2907Y2651D01*
X3003Y2612D01*
X3097Y2569D01*
X3117Y2567D01*
X3135Y2559D01*
X3302Y2541D01*
X377698Y2541D01*
X377718Y2544D01*
G37*
G36*
X203624Y269636D02*
X203624Y269636D01*
X203715Y269644D01*
X203745Y269656D01*
X203777Y269661D01*
X203858Y269704D01*
X203942Y269740D01*
X203974Y269766D01*
X203994Y269777D01*
X204017Y269800D01*
X204073Y269845D01*
X242172Y307944D01*
X242240Y308038D01*
X242310Y308133D01*
X242312Y308139D01*
X242315Y308144D01*
X242350Y308255D01*
X242386Y308367D01*
X242386Y308373D01*
X242388Y308379D01*
X242385Y308495D01*
X242384Y308613D01*
X242382Y308620D01*
X242381Y308625D01*
X242375Y308642D01*
X242337Y308774D01*
X242315Y308826D01*
X242315Y313474D01*
X244094Y317769D01*
X247381Y321056D01*
X249670Y322004D01*
X249753Y322055D01*
X249838Y322101D01*
X249856Y322119D01*
X249879Y322133D01*
X249941Y322209D01*
X250008Y322279D01*
X250019Y322303D01*
X250035Y322323D01*
X250070Y322414D01*
X250111Y322502D01*
X250114Y322528D01*
X250124Y322552D01*
X250128Y322650D01*
X250138Y322746D01*
X250133Y322772D01*
X250134Y322798D01*
X250107Y322892D01*
X250086Y322987D01*
X250073Y323009D01*
X250065Y323034D01*
X250010Y323114D01*
X249960Y323198D01*
X249940Y323215D01*
X249925Y323236D01*
X249847Y323295D01*
X249773Y323358D01*
X249749Y323368D01*
X249728Y323383D01*
X249635Y323413D01*
X249545Y323450D01*
X249512Y323453D01*
X249494Y323459D01*
X249461Y323459D01*
X249378Y323468D01*
X185852Y323468D01*
X183545Y325775D01*
X156202Y353118D01*
X156108Y353186D01*
X156013Y353256D01*
X156007Y353258D01*
X156002Y353262D01*
X155891Y353296D01*
X155779Y353332D01*
X155773Y353332D01*
X155767Y353334D01*
X155650Y353331D01*
X155534Y353330D01*
X155526Y353328D01*
X155521Y353328D01*
X155504Y353321D01*
X155372Y353283D01*
X154219Y352805D01*
X150581Y352805D01*
X147220Y354197D01*
X144647Y356770D01*
X143255Y360131D01*
X143255Y363769D01*
X144647Y367130D01*
X147220Y369703D01*
X150581Y371095D01*
X154219Y371095D01*
X157580Y369703D01*
X160153Y367130D01*
X161545Y363769D01*
X161545Y360131D01*
X161067Y358978D01*
X161040Y358864D01*
X161012Y358750D01*
X161012Y358744D01*
X161011Y358738D01*
X161022Y358622D01*
X161031Y358505D01*
X161033Y358500D01*
X161034Y358493D01*
X161082Y358386D01*
X161127Y358279D01*
X161132Y358273D01*
X161134Y358269D01*
X161147Y358255D01*
X161232Y358148D01*
X188575Y330805D01*
X188649Y330752D01*
X188719Y330692D01*
X188749Y330680D01*
X188775Y330661D01*
X188862Y330634D01*
X188947Y330600D01*
X188988Y330596D01*
X189010Y330589D01*
X189042Y330590D01*
X189114Y330582D01*
X202300Y330582D01*
X202371Y330593D01*
X202443Y330595D01*
X202492Y330613D01*
X202543Y330621D01*
X202607Y330655D01*
X202674Y330680D01*
X202715Y330712D01*
X202761Y330737D01*
X202810Y330788D01*
X202866Y330833D01*
X202894Y330877D01*
X202930Y330915D01*
X202960Y330980D01*
X202999Y331040D01*
X203012Y331091D01*
X203034Y331138D01*
X203042Y331209D01*
X203059Y331279D01*
X203055Y331331D01*
X203061Y331382D01*
X203045Y331453D01*
X203040Y331524D01*
X203020Y331572D01*
X203008Y331623D01*
X202972Y331684D01*
X202944Y331750D01*
X202899Y331806D01*
X202882Y331834D01*
X202864Y331849D01*
X202839Y331881D01*
X202595Y332125D01*
X181602Y353118D01*
X181508Y353186D01*
X181413Y353256D01*
X181407Y353258D01*
X181402Y353262D01*
X181291Y353296D01*
X181179Y353332D01*
X181173Y353332D01*
X181167Y353334D01*
X181050Y353331D01*
X180934Y353330D01*
X180926Y353328D01*
X180921Y353328D01*
X180904Y353321D01*
X180772Y353283D01*
X179619Y352805D01*
X175981Y352805D01*
X172620Y354197D01*
X170047Y356770D01*
X168655Y360131D01*
X168655Y363769D01*
X170047Y367130D01*
X172620Y369703D01*
X175981Y371095D01*
X179619Y371095D01*
X182980Y369703D01*
X185553Y367130D01*
X186945Y363769D01*
X186945Y360131D01*
X186467Y358978D01*
X186440Y358864D01*
X186412Y358750D01*
X186412Y358744D01*
X186411Y358738D01*
X186422Y358622D01*
X186431Y358505D01*
X186433Y358500D01*
X186434Y358493D01*
X186482Y358386D01*
X186527Y358279D01*
X186532Y358273D01*
X186534Y358269D01*
X186547Y358255D01*
X186632Y358148D01*
X207625Y337155D01*
X207699Y337102D01*
X207769Y337042D01*
X207799Y337030D01*
X207825Y337011D01*
X207912Y336984D01*
X207997Y336950D01*
X208038Y336946D01*
X208060Y336939D01*
X208092Y336940D01*
X208164Y336932D01*
X290398Y336932D01*
X305545Y321785D01*
X305639Y321718D01*
X305734Y321647D01*
X305740Y321645D01*
X305745Y321642D01*
X305855Y321607D01*
X305967Y321571D01*
X305974Y321571D01*
X305980Y321569D01*
X306096Y321572D01*
X306213Y321573D01*
X306221Y321575D01*
X306226Y321576D01*
X306243Y321582D01*
X306374Y321620D01*
X310301Y323247D01*
X310362Y323285D01*
X310428Y323314D01*
X310466Y323349D01*
X310511Y323376D01*
X310556Y323432D01*
X310609Y323480D01*
X310634Y323526D01*
X310667Y323566D01*
X310693Y323633D01*
X310728Y323696D01*
X310737Y323747D01*
X310756Y323795D01*
X310759Y323867D01*
X310771Y323938D01*
X310764Y323989D01*
X310766Y324041D01*
X310746Y324110D01*
X310736Y324181D01*
X310712Y324227D01*
X310697Y324277D01*
X310657Y324336D01*
X310624Y324400D01*
X310587Y324437D01*
X310557Y324479D01*
X310500Y324522D01*
X310448Y324572D01*
X310386Y324607D01*
X310360Y324626D01*
X310338Y324633D01*
X310301Y324653D01*
X306293Y326314D01*
X302864Y329743D01*
X301007Y334225D01*
X301007Y339075D01*
X302864Y343557D01*
X306293Y346986D01*
X310301Y348647D01*
X310362Y348685D01*
X310428Y348714D01*
X310466Y348749D01*
X310511Y348776D01*
X310556Y348832D01*
X310609Y348880D01*
X310634Y348926D01*
X310667Y348966D01*
X310693Y349033D01*
X310728Y349096D01*
X310737Y349147D01*
X310756Y349195D01*
X310759Y349267D01*
X310771Y349338D01*
X310764Y349389D01*
X310766Y349441D01*
X310746Y349510D01*
X310736Y349581D01*
X310712Y349627D01*
X310697Y349677D01*
X310657Y349736D01*
X310624Y349800D01*
X310587Y349837D01*
X310557Y349879D01*
X310500Y349922D01*
X310448Y349972D01*
X310386Y350007D01*
X310360Y350026D01*
X310338Y350033D01*
X310301Y350053D01*
X306293Y351714D01*
X302864Y355143D01*
X301007Y359625D01*
X301007Y364475D01*
X302864Y368957D01*
X306293Y372386D01*
X310301Y374047D01*
X310362Y374085D01*
X310428Y374114D01*
X310466Y374149D01*
X310511Y374176D01*
X310556Y374232D01*
X310609Y374280D01*
X310634Y374326D01*
X310667Y374366D01*
X310693Y374433D01*
X310728Y374496D01*
X310737Y374547D01*
X310756Y374595D01*
X310759Y374667D01*
X310771Y374738D01*
X310764Y374789D01*
X310766Y374841D01*
X310746Y374910D01*
X310736Y374981D01*
X310712Y375027D01*
X310697Y375077D01*
X310657Y375136D01*
X310624Y375200D01*
X310587Y375237D01*
X310557Y375279D01*
X310500Y375322D01*
X310448Y375372D01*
X310386Y375407D01*
X310360Y375426D01*
X310338Y375433D01*
X310301Y375453D01*
X306293Y377114D01*
X303012Y380395D01*
X302938Y380448D01*
X302868Y380508D01*
X302838Y380520D01*
X302812Y380539D01*
X302725Y380566D01*
X302640Y380600D01*
X302599Y380604D01*
X302577Y380611D01*
X302545Y380610D01*
X302473Y380618D01*
X227214Y380618D01*
X227123Y380604D01*
X227033Y380596D01*
X227003Y380584D01*
X226971Y380579D01*
X226890Y380536D01*
X226806Y380500D01*
X226774Y380474D01*
X226753Y380463D01*
X226731Y380440D01*
X226675Y380395D01*
X212032Y365752D01*
X211964Y365658D01*
X211894Y365563D01*
X211892Y365557D01*
X211888Y365552D01*
X211854Y365441D01*
X211818Y365329D01*
X211818Y365323D01*
X211816Y365317D01*
X211819Y365200D01*
X211820Y365084D01*
X211822Y365076D01*
X211822Y365071D01*
X211829Y365054D01*
X211867Y364922D01*
X212345Y363769D01*
X212345Y360131D01*
X210953Y356770D01*
X208380Y354197D01*
X205019Y352805D01*
X201381Y352805D01*
X198020Y354197D01*
X195447Y356770D01*
X194055Y360131D01*
X194055Y363769D01*
X195447Y367130D01*
X198020Y369703D01*
X201381Y371095D01*
X205019Y371095D01*
X206172Y370617D01*
X206286Y370590D01*
X206400Y370562D01*
X206406Y370562D01*
X206412Y370561D01*
X206528Y370572D01*
X206645Y370581D01*
X206650Y370583D01*
X206657Y370584D01*
X206764Y370632D01*
X206871Y370677D01*
X206877Y370682D01*
X206881Y370684D01*
X206895Y370697D01*
X207002Y370782D01*
X221645Y385425D01*
X223952Y387732D01*
X253703Y387732D01*
X253774Y387743D01*
X253846Y387745D01*
X253895Y387763D01*
X253946Y387771D01*
X254009Y387805D01*
X254077Y387830D01*
X254117Y387862D01*
X254163Y387887D01*
X254213Y387939D01*
X254269Y387983D01*
X254297Y388027D01*
X254333Y388065D01*
X254363Y388130D01*
X254402Y388190D01*
X254414Y388241D01*
X254436Y388288D01*
X254444Y388359D01*
X254462Y388429D01*
X254458Y388481D01*
X254463Y388532D01*
X254448Y388603D01*
X254443Y388674D01*
X254422Y388722D01*
X254411Y388773D01*
X254374Y388834D01*
X254346Y388900D01*
X254301Y388956D01*
X254285Y388984D01*
X254284Y388985D01*
X254283Y388985D01*
X254267Y389000D01*
X254241Y389031D01*
X253889Y389383D01*
X252729Y392184D01*
X252729Y395216D01*
X253889Y398017D01*
X254241Y398369D01*
X254283Y398427D01*
X254333Y398479D01*
X254355Y398526D01*
X254385Y398568D01*
X254406Y398637D01*
X254436Y398702D01*
X254442Y398754D01*
X254457Y398804D01*
X254455Y398875D01*
X254463Y398946D01*
X254452Y398997D01*
X254451Y399049D01*
X254426Y399117D01*
X254411Y399187D01*
X254384Y399232D01*
X254367Y399280D01*
X254322Y399336D01*
X254285Y399398D01*
X254245Y399432D01*
X254213Y399472D01*
X254153Y399511D01*
X254098Y399558D01*
X254050Y399577D01*
X254006Y399605D01*
X253937Y399623D01*
X253870Y399650D01*
X253799Y399658D01*
X253767Y399666D01*
X253744Y399664D01*
X253703Y399668D01*
X239827Y399668D01*
X237520Y401975D01*
X214650Y424845D01*
X214576Y424898D01*
X214506Y424958D01*
X214476Y424970D01*
X214450Y424989D01*
X214363Y425016D01*
X214278Y425050D01*
X214237Y425054D01*
X214215Y425061D01*
X214183Y425060D01*
X214111Y425068D01*
X169977Y425068D01*
X161543Y433502D01*
X161543Y457923D01*
X161532Y457994D01*
X161530Y458065D01*
X161512Y458114D01*
X161504Y458166D01*
X161470Y458229D01*
X161445Y458296D01*
X161413Y458337D01*
X161388Y458383D01*
X161336Y458432D01*
X161292Y458488D01*
X161248Y458517D01*
X161210Y458552D01*
X161145Y458583D01*
X161085Y458621D01*
X161034Y458634D01*
X160987Y458656D01*
X160916Y458664D01*
X160846Y458681D01*
X160794Y458677D01*
X160743Y458683D01*
X160672Y458668D01*
X160601Y458662D01*
X160553Y458642D01*
X160502Y458631D01*
X160441Y458594D01*
X160375Y458566D01*
X160319Y458521D01*
X160291Y458505D01*
X160276Y458487D01*
X160244Y458461D01*
X157580Y455797D01*
X154219Y454405D01*
X150581Y454405D01*
X147220Y455797D01*
X144647Y458370D01*
X143255Y461731D01*
X143255Y465194D01*
X143241Y465284D01*
X143233Y465375D01*
X143221Y465405D01*
X143216Y465437D01*
X143173Y465518D01*
X143137Y465601D01*
X143111Y465634D01*
X143100Y465654D01*
X143077Y465676D01*
X143032Y465732D01*
X134650Y474115D01*
X134592Y474156D01*
X134540Y474206D01*
X134493Y474228D01*
X134451Y474258D01*
X134382Y474279D01*
X134317Y474309D01*
X134265Y474315D01*
X134215Y474330D01*
X134144Y474329D01*
X134073Y474336D01*
X134022Y474325D01*
X133970Y474324D01*
X133902Y474299D01*
X133832Y474284D01*
X133787Y474257D01*
X133739Y474240D01*
X133683Y474195D01*
X133621Y474158D01*
X133587Y474118D01*
X133547Y474086D01*
X133508Y474026D01*
X133461Y473971D01*
X133442Y473923D01*
X133414Y473879D01*
X133396Y473810D01*
X133369Y473743D01*
X133361Y473672D01*
X133353Y473640D01*
X133355Y473617D01*
X133351Y473576D01*
X133351Y470447D01*
X133365Y470357D01*
X133373Y470266D01*
X133385Y470236D01*
X133390Y470204D01*
X133433Y470124D01*
X133469Y470040D01*
X133495Y470008D01*
X133506Y469987D01*
X133529Y469965D01*
X133574Y469909D01*
X134753Y468730D01*
X136145Y465369D01*
X136145Y461731D01*
X134753Y458370D01*
X132180Y455797D01*
X128819Y454405D01*
X125181Y454405D01*
X121820Y455797D01*
X119247Y458370D01*
X117855Y461731D01*
X117855Y465369D01*
X119247Y468730D01*
X120426Y469909D01*
X120479Y469983D01*
X120539Y470052D01*
X120551Y470082D01*
X120570Y470109D01*
X120597Y470196D01*
X120631Y470280D01*
X120635Y470321D01*
X120642Y470344D01*
X120641Y470376D01*
X120649Y470447D01*
X120649Y475488D01*
X120646Y475508D01*
X120648Y475527D01*
X120626Y475629D01*
X120610Y475731D01*
X120600Y475748D01*
X120596Y475768D01*
X120543Y475857D01*
X120494Y475948D01*
X120480Y475962D01*
X120470Y475979D01*
X120391Y476046D01*
X120316Y476118D01*
X120298Y476126D01*
X120283Y476139D01*
X120187Y476178D01*
X120093Y476221D01*
X120073Y476223D01*
X120055Y476231D01*
X119888Y476249D01*
X90812Y476249D01*
X88478Y477216D01*
X77166Y488528D01*
X76199Y490862D01*
X76199Y537838D01*
X77166Y540172D01*
X78237Y541244D01*
X78279Y541302D01*
X78329Y541354D01*
X78351Y541401D01*
X78381Y541443D01*
X78402Y541512D01*
X78432Y541577D01*
X78438Y541629D01*
X78453Y541679D01*
X78451Y541750D01*
X78459Y541821D01*
X78448Y541872D01*
X78447Y541924D01*
X78422Y541992D01*
X78407Y542062D01*
X78380Y542107D01*
X78363Y542155D01*
X78318Y542211D01*
X78281Y542273D01*
X78241Y542307D01*
X78209Y542347D01*
X78149Y542386D01*
X78094Y542433D01*
X78046Y542452D01*
X78002Y542480D01*
X77932Y542498D01*
X77866Y542525D01*
X77795Y542533D01*
X77763Y542541D01*
X77740Y542539D01*
X77699Y542543D01*
X75279Y542543D01*
X75259Y542540D01*
X75240Y542542D01*
X75138Y542520D01*
X75036Y542504D01*
X75019Y542494D01*
X74999Y542490D01*
X74910Y542437D01*
X74819Y542388D01*
X74805Y542374D01*
X74788Y542364D01*
X74721Y542285D01*
X74649Y542210D01*
X74641Y542192D01*
X74628Y542177D01*
X74589Y542081D01*
X74546Y541987D01*
X74544Y541967D01*
X74536Y541949D01*
X74518Y541782D01*
X74518Y537425D01*
X72661Y532943D01*
X69232Y529514D01*
X65224Y527853D01*
X65163Y527816D01*
X65097Y527786D01*
X65059Y527751D01*
X65015Y527724D01*
X64969Y527669D01*
X64916Y527620D01*
X64891Y527574D01*
X64858Y527534D01*
X64832Y527467D01*
X64797Y527404D01*
X64788Y527353D01*
X64770Y527305D01*
X64766Y527233D01*
X64754Y527162D01*
X64761Y527111D01*
X64759Y527059D01*
X64779Y526990D01*
X64790Y526919D01*
X64813Y526873D01*
X64828Y526823D01*
X64868Y526764D01*
X64901Y526700D01*
X64938Y526663D01*
X64968Y526621D01*
X65025Y526578D01*
X65077Y526528D01*
X65139Y526493D01*
X65165Y526474D01*
X65188Y526467D01*
X65224Y526447D01*
X69232Y524786D01*
X72661Y521357D01*
X74518Y516875D01*
X74518Y512025D01*
X72661Y507543D01*
X69232Y504114D01*
X65224Y502453D01*
X65163Y502416D01*
X65097Y502386D01*
X65059Y502351D01*
X65015Y502324D01*
X64969Y502269D01*
X64916Y502220D01*
X64891Y502174D01*
X64858Y502134D01*
X64832Y502067D01*
X64797Y502004D01*
X64788Y501953D01*
X64770Y501905D01*
X64766Y501833D01*
X64754Y501762D01*
X64761Y501711D01*
X64759Y501659D01*
X64779Y501590D01*
X64790Y501519D01*
X64813Y501473D01*
X64828Y501423D01*
X64868Y501364D01*
X64901Y501300D01*
X64938Y501263D01*
X64968Y501221D01*
X65025Y501178D01*
X65077Y501128D01*
X65139Y501093D01*
X65165Y501074D01*
X65188Y501067D01*
X65224Y501047D01*
X69232Y499386D01*
X72661Y495957D01*
X74518Y491475D01*
X74518Y486536D01*
X74514Y486523D01*
X74515Y486517D01*
X74513Y486511D01*
X74525Y486393D01*
X74534Y486278D01*
X74536Y486272D01*
X74536Y486266D01*
X74585Y486157D01*
X74630Y486051D01*
X74634Y486046D01*
X74636Y486041D01*
X74649Y486027D01*
X74735Y485920D01*
X86107Y474548D01*
X86107Y458989D01*
X86121Y458898D01*
X86129Y458808D01*
X86141Y458778D01*
X86146Y458746D01*
X86189Y458665D01*
X86225Y458581D01*
X86251Y458549D01*
X86262Y458528D01*
X86285Y458506D01*
X86330Y458450D01*
X93325Y451455D01*
X93399Y451402D01*
X93469Y451342D01*
X93499Y451330D01*
X93525Y451311D01*
X93612Y451284D01*
X93697Y451250D01*
X93738Y451246D01*
X93760Y451239D01*
X93792Y451240D01*
X93864Y451232D01*
X118948Y451232D01*
X130714Y439466D01*
X130809Y439398D01*
X130903Y439328D01*
X130909Y439326D01*
X130914Y439322D01*
X131026Y439288D01*
X131137Y439251D01*
X131143Y439252D01*
X131149Y439250D01*
X131266Y439253D01*
X131383Y439254D01*
X131390Y439256D01*
X131395Y439256D01*
X131413Y439262D01*
X131544Y439301D01*
X131834Y439421D01*
X134866Y439421D01*
X137667Y438261D01*
X139811Y436117D01*
X140971Y433316D01*
X140971Y430284D01*
X139811Y427483D01*
X137667Y425339D01*
X137057Y425087D01*
X137018Y425063D01*
X136975Y425047D01*
X136914Y424998D01*
X136848Y424957D01*
X136818Y424922D01*
X136783Y424893D01*
X136741Y424828D01*
X136691Y424768D01*
X136674Y424725D01*
X136650Y424686D01*
X136631Y424611D01*
X136603Y424538D01*
X136601Y424492D01*
X136590Y424448D01*
X136596Y424370D01*
X136592Y424292D01*
X136605Y424248D01*
X136609Y424202D01*
X136639Y424131D01*
X136661Y424056D01*
X136687Y424018D01*
X136705Y423976D01*
X136790Y423870D01*
X136801Y423854D01*
X136805Y423851D01*
X136810Y423845D01*
X137064Y423591D01*
X137159Y423523D01*
X137253Y423453D01*
X137259Y423451D01*
X137264Y423447D01*
X137376Y423413D01*
X137487Y423376D01*
X137493Y423377D01*
X137499Y423375D01*
X137616Y423378D01*
X137733Y423379D01*
X137740Y423381D01*
X137745Y423381D01*
X137763Y423387D01*
X137894Y423426D01*
X138184Y423546D01*
X141216Y423546D01*
X144017Y422386D01*
X146161Y420242D01*
X147321Y417441D01*
X147321Y414409D01*
X146161Y411608D01*
X144017Y409464D01*
X141216Y408304D01*
X138184Y408304D01*
X135383Y409464D01*
X133239Y411608D01*
X132079Y414409D01*
X132079Y417441D01*
X132172Y417666D01*
X132183Y417710D01*
X132202Y417752D01*
X132211Y417829D01*
X132229Y417905D01*
X132224Y417951D01*
X132229Y417996D01*
X132213Y418073D01*
X132205Y418150D01*
X132187Y418192D01*
X132177Y418237D01*
X132137Y418304D01*
X132106Y418375D01*
X132074Y418409D01*
X132051Y418448D01*
X131992Y418499D01*
X131939Y418556D01*
X131899Y418578D01*
X131864Y418608D01*
X131792Y418637D01*
X131724Y418674D01*
X131679Y418683D01*
X131636Y418700D01*
X131500Y418715D01*
X131482Y418718D01*
X131477Y418717D01*
X131469Y418718D01*
X106477Y418718D01*
X71095Y454100D01*
X71079Y454112D01*
X71066Y454127D01*
X70979Y454183D01*
X70895Y454244D01*
X70876Y454250D01*
X70859Y454260D01*
X70759Y454286D01*
X70660Y454316D01*
X70640Y454316D01*
X70621Y454320D01*
X70518Y454312D01*
X70414Y454310D01*
X70395Y454303D01*
X70376Y454301D01*
X70281Y454261D01*
X70183Y454225D01*
X70168Y454213D01*
X70149Y454205D01*
X70018Y454100D01*
X69232Y453314D01*
X68542Y453028D01*
X68481Y452990D01*
X68416Y452961D01*
X68377Y452926D01*
X68333Y452898D01*
X68287Y452843D01*
X68235Y452795D01*
X68210Y452749D01*
X68176Y452709D01*
X68151Y452642D01*
X68116Y452579D01*
X68107Y452528D01*
X68088Y452479D01*
X68085Y452408D01*
X68072Y452337D01*
X68080Y452286D01*
X68078Y452234D01*
X68098Y452165D01*
X68108Y452094D01*
X68132Y452047D01*
X68146Y451997D01*
X68187Y451938D01*
X68220Y451874D01*
X68257Y451838D01*
X68287Y451795D01*
X68344Y451752D01*
X68395Y451702D01*
X68458Y451668D01*
X68484Y451648D01*
X68506Y451641D01*
X68542Y451621D01*
X70670Y450740D01*
X74815Y446595D01*
X77058Y441181D01*
X77058Y435319D01*
X74815Y429905D01*
X70999Y426088D01*
X70987Y426072D01*
X70971Y426060D01*
X70915Y425972D01*
X70855Y425889D01*
X70849Y425870D01*
X70838Y425853D01*
X70813Y425752D01*
X70783Y425653D01*
X70783Y425634D01*
X70778Y425614D01*
X70786Y425511D01*
X70789Y425408D01*
X70796Y425389D01*
X70797Y425369D01*
X70838Y425274D01*
X70873Y425177D01*
X70886Y425161D01*
X70894Y425143D01*
X70999Y425012D01*
X74815Y421195D01*
X77058Y415781D01*
X77058Y409919D01*
X74815Y404505D01*
X70999Y400688D01*
X70987Y400672D01*
X70971Y400660D01*
X70915Y400572D01*
X70855Y400489D01*
X70849Y400470D01*
X70838Y400453D01*
X70813Y400352D01*
X70783Y400253D01*
X70783Y400234D01*
X70778Y400214D01*
X70786Y400111D01*
X70789Y400008D01*
X70796Y399989D01*
X70797Y399969D01*
X70838Y399873D01*
X70873Y399777D01*
X70886Y399761D01*
X70894Y399743D01*
X70998Y399612D01*
X71706Y398904D01*
X71722Y398893D01*
X71734Y398877D01*
X71822Y398821D01*
X71906Y398761D01*
X71925Y398755D01*
X71941Y398744D01*
X72042Y398719D01*
X72141Y398689D01*
X72161Y398689D01*
X72180Y398684D01*
X72283Y398692D01*
X72386Y398695D01*
X72405Y398702D01*
X72425Y398703D01*
X72520Y398744D01*
X72618Y398779D01*
X72633Y398792D01*
X72651Y398800D01*
X72782Y398904D01*
X79096Y405219D01*
X81337Y406147D01*
X207312Y406147D01*
X207402Y406161D01*
X207493Y406169D01*
X207523Y406181D01*
X207555Y406186D01*
X207635Y406229D01*
X207719Y406265D01*
X207751Y406291D01*
X207772Y406302D01*
X207794Y406325D01*
X207850Y406370D01*
X210144Y408664D01*
X213879Y410211D01*
X217921Y410211D01*
X221656Y408664D01*
X224514Y405806D01*
X226061Y402071D01*
X226061Y398029D01*
X224514Y394294D01*
X221656Y391436D01*
X217921Y389889D01*
X213879Y389889D01*
X210144Y391436D01*
X207850Y393730D01*
X207776Y393783D01*
X207707Y393843D01*
X207677Y393855D01*
X207651Y393874D01*
X207564Y393901D01*
X207479Y393935D01*
X207438Y393939D01*
X207415Y393946D01*
X207383Y393945D01*
X207312Y393953D01*
X104437Y393953D01*
X104366Y393942D01*
X104294Y393940D01*
X104245Y393922D01*
X104194Y393914D01*
X104131Y393880D01*
X104063Y393855D01*
X104023Y393823D01*
X103977Y393798D01*
X103927Y393746D01*
X103871Y393702D01*
X103843Y393658D01*
X103807Y393620D01*
X103777Y393555D01*
X103738Y393495D01*
X103726Y393444D01*
X103704Y393397D01*
X103696Y393326D01*
X103678Y393256D01*
X103682Y393204D01*
X103677Y393153D01*
X103692Y393082D01*
X103697Y393011D01*
X103718Y392963D01*
X103729Y392912D01*
X103766Y392851D01*
X103794Y392785D01*
X103839Y392729D01*
X103855Y392701D01*
X103873Y392686D01*
X103899Y392654D01*
X104886Y391667D01*
X106046Y388866D01*
X106046Y385834D01*
X104886Y383033D01*
X102742Y380889D01*
X99816Y379677D01*
X99760Y379643D01*
X99700Y379617D01*
X99635Y379565D01*
X99607Y379548D01*
X99594Y379533D01*
X99569Y379512D01*
X89124Y369067D01*
X89071Y368993D01*
X89011Y368924D01*
X88999Y368894D01*
X88980Y368868D01*
X88953Y368781D01*
X88919Y368696D01*
X88915Y368655D01*
X88908Y368633D01*
X88909Y368600D01*
X88901Y368529D01*
X88901Y299212D01*
X88904Y299192D01*
X88902Y299173D01*
X88924Y299071D01*
X88940Y298969D01*
X88950Y298952D01*
X88954Y298932D01*
X89007Y298843D01*
X89056Y298752D01*
X89070Y298738D01*
X89080Y298721D01*
X89159Y298654D01*
X89234Y298582D01*
X89252Y298574D01*
X89267Y298561D01*
X89363Y298522D01*
X89457Y298479D01*
X89477Y298477D01*
X89495Y298469D01*
X89662Y298451D01*
X112388Y298451D01*
X114722Y297484D01*
X116535Y295671D01*
X116551Y295646D01*
X116610Y295546D01*
X116615Y295542D01*
X116618Y295537D01*
X116708Y295462D01*
X116797Y295386D01*
X116803Y295384D01*
X116808Y295380D01*
X116916Y295338D01*
X117025Y295294D01*
X117033Y295293D01*
X117038Y295292D01*
X117056Y295291D01*
X117192Y295276D01*
X119888Y295276D01*
X119908Y295279D01*
X119927Y295277D01*
X120029Y295299D01*
X120131Y295315D01*
X120148Y295325D01*
X120168Y295329D01*
X120257Y295382D01*
X120348Y295431D01*
X120362Y295445D01*
X120379Y295455D01*
X120446Y295534D01*
X120518Y295609D01*
X120526Y295627D01*
X120539Y295642D01*
X120578Y295738D01*
X120621Y295832D01*
X120623Y295852D01*
X120631Y295870D01*
X120649Y296037D01*
X120649Y304253D01*
X120635Y304343D01*
X120627Y304434D01*
X120615Y304464D01*
X120610Y304496D01*
X120567Y304576D01*
X120531Y304660D01*
X120505Y304692D01*
X120494Y304713D01*
X120471Y304735D01*
X120426Y304791D01*
X119247Y305970D01*
X117855Y309331D01*
X117855Y312969D01*
X119247Y316330D01*
X121820Y318903D01*
X125181Y320295D01*
X128819Y320295D01*
X132180Y318903D01*
X134753Y316330D01*
X136145Y312969D01*
X136145Y309331D01*
X134753Y305970D01*
X133574Y304791D01*
X133521Y304717D01*
X133461Y304648D01*
X133449Y304618D01*
X133430Y304591D01*
X133403Y304504D01*
X133369Y304420D01*
X133365Y304379D01*
X133358Y304356D01*
X133359Y304324D01*
X133351Y304253D01*
X133351Y287662D01*
X132384Y285328D01*
X131313Y284256D01*
X131271Y284198D01*
X131221Y284146D01*
X131199Y284099D01*
X131169Y284057D01*
X131148Y283988D01*
X131118Y283923D01*
X131112Y283871D01*
X131097Y283821D01*
X131099Y283750D01*
X131091Y283679D01*
X131102Y283628D01*
X131103Y283576D01*
X131128Y283508D01*
X131143Y283438D01*
X131170Y283393D01*
X131187Y283345D01*
X131232Y283289D01*
X131269Y283227D01*
X131309Y283193D01*
X131341Y283153D01*
X131401Y283114D01*
X131456Y283067D01*
X131504Y283048D01*
X131548Y283020D01*
X131618Y283002D01*
X131684Y282975D01*
X131755Y282967D01*
X131787Y282959D01*
X131810Y282961D01*
X131851Y282957D01*
X166486Y282957D01*
X166577Y282971D01*
X166667Y282979D01*
X166697Y282991D01*
X166729Y282996D01*
X166810Y283039D01*
X166894Y283075D01*
X166926Y283101D01*
X166947Y283112D01*
X166969Y283135D01*
X167025Y283180D01*
X173309Y289464D01*
X173377Y289559D01*
X173447Y289653D01*
X173449Y289659D01*
X173453Y289664D01*
X173487Y289776D01*
X173524Y289887D01*
X173523Y289893D01*
X173525Y289899D01*
X173522Y290016D01*
X173521Y290133D01*
X173519Y290140D01*
X173519Y290145D01*
X173513Y290163D01*
X173474Y290294D01*
X173354Y290584D01*
X173354Y293616D01*
X174514Y296417D01*
X176658Y298561D01*
X179459Y299721D01*
X182491Y299721D01*
X185292Y298561D01*
X187436Y296417D01*
X188596Y293616D01*
X188596Y290584D01*
X187436Y287783D01*
X185292Y285639D01*
X182491Y284479D01*
X179459Y284479D01*
X179169Y284599D01*
X179056Y284626D01*
X178942Y284655D01*
X178936Y284654D01*
X178930Y284656D01*
X178813Y284645D01*
X178697Y284636D01*
X178691Y284633D01*
X178685Y284633D01*
X178577Y284584D01*
X178470Y284539D01*
X178465Y284535D01*
X178460Y284533D01*
X178446Y284520D01*
X178339Y284434D01*
X169748Y275843D01*
X71552Y275843D01*
X71095Y276300D01*
X71079Y276312D01*
X71066Y276327D01*
X70979Y276383D01*
X70895Y276444D01*
X70876Y276450D01*
X70859Y276460D01*
X70759Y276486D01*
X70660Y276516D01*
X70640Y276516D01*
X70621Y276520D01*
X70518Y276512D01*
X70414Y276510D01*
X70395Y276503D01*
X70376Y276501D01*
X70281Y276461D01*
X70183Y276425D01*
X70168Y276413D01*
X70149Y276405D01*
X70018Y276300D01*
X69232Y275514D01*
X64750Y273657D01*
X59900Y273657D01*
X55418Y275514D01*
X51989Y278943D01*
X50132Y283425D01*
X50132Y288275D01*
X51989Y292757D01*
X55418Y296186D01*
X56108Y296472D01*
X56169Y296510D01*
X56234Y296539D01*
X56273Y296574D01*
X56317Y296602D01*
X56363Y296657D01*
X56415Y296705D01*
X56440Y296751D01*
X56474Y296791D01*
X56499Y296858D01*
X56534Y296921D01*
X56543Y296972D01*
X56562Y297021D01*
X56565Y297092D01*
X56578Y297163D01*
X56570Y297214D01*
X56572Y297266D01*
X56552Y297335D01*
X56542Y297406D01*
X56518Y297453D01*
X56504Y297503D01*
X56463Y297562D01*
X56430Y297626D01*
X56393Y297662D01*
X56363Y297705D01*
X56306Y297748D01*
X56255Y297798D01*
X56192Y297832D01*
X56166Y297852D01*
X56144Y297859D01*
X56108Y297879D01*
X53980Y298760D01*
X51044Y301696D01*
X51028Y301707D01*
X51016Y301723D01*
X50928Y301779D01*
X50844Y301839D01*
X50825Y301845D01*
X50809Y301856D01*
X50708Y301881D01*
X50609Y301911D01*
X50589Y301911D01*
X50570Y301916D01*
X50467Y301908D01*
X50364Y301905D01*
X50345Y301898D01*
X50325Y301897D01*
X50230Y301856D01*
X50132Y301821D01*
X50117Y301808D01*
X50099Y301800D01*
X49968Y301696D01*
X37735Y289463D01*
X37724Y289447D01*
X37708Y289435D01*
X37652Y289347D01*
X37592Y289264D01*
X37586Y289245D01*
X37575Y289228D01*
X37550Y289127D01*
X37519Y289028D01*
X37520Y289009D01*
X37515Y288989D01*
X37523Y288886D01*
X37526Y288783D01*
X37533Y288764D01*
X37534Y288744D01*
X37575Y288649D01*
X37610Y288552D01*
X37623Y288536D01*
X37631Y288518D01*
X37735Y288387D01*
X56277Y269845D01*
X56351Y269792D01*
X56421Y269732D01*
X56451Y269720D01*
X56477Y269701D01*
X56564Y269674D01*
X56649Y269640D01*
X56690Y269636D01*
X56712Y269629D01*
X56744Y269630D01*
X56816Y269622D01*
X203534Y269622D01*
X203624Y269636D01*
G37*
G36*
X169528Y468432D02*
X169528Y468432D01*
X169599Y468438D01*
X169647Y468458D01*
X169698Y468469D01*
X169759Y468506D01*
X169825Y468534D01*
X169875Y468573D01*
X169888Y468581D01*
X169893Y468586D01*
X169909Y468595D01*
X169924Y468613D01*
X169956Y468639D01*
X172620Y471303D01*
X175172Y472360D01*
X175211Y472384D01*
X175254Y472400D01*
X175315Y472448D01*
X175381Y472489D01*
X175410Y472525D01*
X175446Y472553D01*
X175488Y472619D01*
X175538Y472679D01*
X175554Y472722D01*
X175579Y472760D01*
X175598Y472836D01*
X175626Y472908D01*
X175628Y472954D01*
X175639Y472999D01*
X175633Y473076D01*
X175636Y473154D01*
X175624Y473198D01*
X175620Y473244D01*
X175590Y473315D01*
X175568Y473390D01*
X175542Y473428D01*
X175524Y473470D01*
X175438Y473577D01*
X175428Y473592D01*
X175424Y473595D01*
X175419Y473601D01*
X174243Y474777D01*
X174243Y492716D01*
X174224Y492831D01*
X174207Y492947D01*
X174205Y492953D01*
X174204Y492959D01*
X174149Y493062D01*
X174096Y493167D01*
X174091Y493171D01*
X174088Y493177D01*
X174004Y493256D01*
X173920Y493339D01*
X173914Y493342D01*
X173910Y493346D01*
X173893Y493354D01*
X173773Y493420D01*
X172620Y493897D01*
X170047Y496470D01*
X168655Y499831D01*
X168655Y503469D01*
X170047Y506830D01*
X172620Y509403D01*
X175981Y510795D01*
X179619Y510795D01*
X182980Y509403D01*
X184120Y508263D01*
X184178Y508221D01*
X184230Y508172D01*
X184277Y508150D01*
X184319Y508119D01*
X184388Y508098D01*
X184453Y508068D01*
X184505Y508062D01*
X184555Y508047D01*
X184626Y508049D01*
X184697Y508041D01*
X184748Y508052D01*
X184800Y508053D01*
X184868Y508078D01*
X184938Y508093D01*
X184983Y508120D01*
X185031Y508138D01*
X185087Y508183D01*
X185149Y508219D01*
X185183Y508259D01*
X185223Y508291D01*
X185262Y508352D01*
X185309Y508406D01*
X185328Y508455D01*
X185356Y508498D01*
X185374Y508568D01*
X185401Y508634D01*
X185409Y508706D01*
X185417Y508737D01*
X185415Y508760D01*
X185419Y508801D01*
X185419Y540088D01*
X185405Y540178D01*
X185397Y540269D01*
X185385Y540299D01*
X185380Y540331D01*
X185337Y540412D01*
X185301Y540495D01*
X185275Y540528D01*
X185264Y540548D01*
X185241Y540570D01*
X185196Y540626D01*
X184039Y541783D01*
X182879Y544584D01*
X182879Y547616D01*
X184039Y550417D01*
X186183Y552561D01*
X188984Y553721D01*
X192016Y553721D01*
X194817Y552561D01*
X196961Y550417D01*
X198121Y547616D01*
X198121Y544584D01*
X196961Y541783D01*
X195804Y540626D01*
X195751Y540552D01*
X195691Y540483D01*
X195679Y540453D01*
X195660Y540427D01*
X195633Y540340D01*
X195599Y540255D01*
X195595Y540214D01*
X195588Y540192D01*
X195589Y540159D01*
X195581Y540088D01*
X195581Y508801D01*
X195592Y508730D01*
X195594Y508659D01*
X195612Y508610D01*
X195620Y508558D01*
X195654Y508495D01*
X195679Y508428D01*
X195711Y508387D01*
X195736Y508341D01*
X195788Y508292D01*
X195832Y508236D01*
X195876Y508207D01*
X195914Y508172D01*
X195979Y508141D01*
X196039Y508103D01*
X196090Y508090D01*
X196137Y508068D01*
X196208Y508060D01*
X196278Y508043D01*
X196330Y508047D01*
X196381Y508041D01*
X196452Y508056D01*
X196523Y508062D01*
X196571Y508082D01*
X196622Y508093D01*
X196683Y508130D01*
X196749Y508158D01*
X196805Y508203D01*
X196833Y508219D01*
X196848Y508237D01*
X196880Y508263D01*
X198020Y509403D01*
X199173Y509880D01*
X199273Y509942D01*
X199373Y510002D01*
X199377Y510007D01*
X199382Y510010D01*
X199457Y510100D01*
X199533Y510189D01*
X199535Y510195D01*
X199539Y510199D01*
X199581Y510308D01*
X199625Y510417D01*
X199626Y510424D01*
X199627Y510429D01*
X199628Y510447D01*
X199643Y510584D01*
X199643Y560273D01*
X201727Y562357D01*
X239598Y562357D01*
X257815Y544140D01*
X257852Y544113D01*
X257884Y544079D01*
X257952Y544041D01*
X258015Y543996D01*
X258059Y543983D01*
X258099Y543961D01*
X258176Y543947D01*
X258250Y543924D01*
X258296Y543925D01*
X258341Y543917D01*
X258418Y543928D01*
X258496Y543930D01*
X258539Y543946D01*
X258584Y543953D01*
X258654Y543988D01*
X258727Y544015D01*
X258763Y544043D01*
X258804Y544064D01*
X258858Y544120D01*
X258919Y544168D01*
X258944Y544207D01*
X258976Y544240D01*
X259042Y544360D01*
X259052Y544375D01*
X259053Y544380D01*
X259057Y544387D01*
X260239Y547242D01*
X262383Y549386D01*
X265184Y550546D01*
X268216Y550546D01*
X271017Y549386D01*
X273161Y547242D01*
X273281Y546952D01*
X273342Y546852D01*
X273402Y546752D01*
X273407Y546748D01*
X273410Y546743D01*
X273500Y546668D01*
X273589Y546592D01*
X273595Y546590D01*
X273600Y546586D01*
X273708Y546544D01*
X273817Y546500D01*
X273825Y546499D01*
X273829Y546498D01*
X273848Y546497D01*
X273984Y546482D01*
X302273Y546482D01*
X302363Y546496D01*
X302454Y546504D01*
X302484Y546516D01*
X302516Y546521D01*
X302597Y546564D01*
X302681Y546600D01*
X302713Y546626D01*
X302733Y546637D01*
X302756Y546660D01*
X302812Y546705D01*
X306293Y550186D01*
X310301Y551847D01*
X310362Y551885D01*
X310428Y551914D01*
X310466Y551949D01*
X310511Y551976D01*
X310556Y552032D01*
X310609Y552080D01*
X310634Y552126D01*
X310667Y552166D01*
X310693Y552233D01*
X310728Y552296D01*
X310737Y552347D01*
X310756Y552395D01*
X310759Y552467D01*
X310771Y552538D01*
X310764Y552589D01*
X310766Y552641D01*
X310746Y552710D01*
X310736Y552781D01*
X310712Y552827D01*
X310697Y552877D01*
X310657Y552936D01*
X310624Y553000D01*
X310587Y553037D01*
X310557Y553079D01*
X310500Y553122D01*
X310448Y553172D01*
X310386Y553207D01*
X310360Y553226D01*
X310338Y553233D01*
X310301Y553253D01*
X306293Y554914D01*
X302864Y558343D01*
X301007Y562825D01*
X301007Y567675D01*
X302864Y572157D01*
X306293Y575586D01*
X310301Y577247D01*
X310362Y577285D01*
X310428Y577314D01*
X310466Y577349D01*
X310511Y577376D01*
X310556Y577432D01*
X310609Y577480D01*
X310634Y577526D01*
X310667Y577566D01*
X310693Y577633D01*
X310728Y577696D01*
X310737Y577747D01*
X310756Y577795D01*
X310759Y577867D01*
X310771Y577938D01*
X310764Y577989D01*
X310766Y578041D01*
X310746Y578110D01*
X310736Y578181D01*
X310712Y578227D01*
X310697Y578277D01*
X310657Y578336D01*
X310624Y578400D01*
X310587Y578437D01*
X310557Y578479D01*
X310500Y578522D01*
X310448Y578572D01*
X310386Y578607D01*
X310360Y578626D01*
X310338Y578633D01*
X310301Y578653D01*
X306293Y580314D01*
X302864Y583743D01*
X301007Y588225D01*
X301007Y593075D01*
X301220Y593588D01*
X301242Y593683D01*
X301271Y593776D01*
X301270Y593802D01*
X301276Y593828D01*
X301267Y593925D01*
X301264Y594022D01*
X301255Y594047D01*
X301253Y594073D01*
X301213Y594162D01*
X301180Y594253D01*
X301164Y594274D01*
X301153Y594297D01*
X301087Y594369D01*
X301026Y594445D01*
X301004Y594459D01*
X300986Y594479D01*
X300901Y594525D01*
X300819Y594578D01*
X300794Y594585D01*
X300771Y594597D01*
X300675Y594615D01*
X300581Y594638D01*
X300555Y594636D01*
X300529Y594641D01*
X300432Y594627D01*
X300336Y594619D01*
X300311Y594609D01*
X300286Y594605D01*
X300199Y594561D01*
X300109Y594523D01*
X300084Y594502D01*
X300066Y594494D01*
X300043Y594470D01*
X299978Y594418D01*
X297157Y591596D01*
X274544Y568983D01*
X274491Y568910D01*
X274431Y568840D01*
X274419Y568810D01*
X274400Y568784D01*
X274373Y568697D01*
X274339Y568612D01*
X274335Y568571D01*
X274328Y568549D01*
X274329Y568516D01*
X274321Y568445D01*
X274321Y566809D01*
X273161Y564008D01*
X271017Y561864D01*
X268216Y560704D01*
X265184Y560704D01*
X262383Y561864D01*
X260239Y564008D01*
X259079Y566809D01*
X259079Y569841D01*
X260239Y572642D01*
X262383Y574786D01*
X265184Y575946D01*
X266820Y575946D01*
X266910Y575960D01*
X267001Y575968D01*
X267031Y575980D01*
X267063Y575985D01*
X267144Y576028D01*
X267228Y576064D01*
X267260Y576090D01*
X267280Y576101D01*
X267303Y576124D01*
X267358Y576169D01*
X281456Y590266D01*
X281497Y590324D01*
X281547Y590376D01*
X281569Y590423D01*
X281599Y590465D01*
X281620Y590534D01*
X281650Y590599D01*
X281656Y590651D01*
X281671Y590701D01*
X281670Y590772D01*
X281677Y590843D01*
X281666Y590894D01*
X281665Y590946D01*
X281640Y591014D01*
X281625Y591084D01*
X281599Y591128D01*
X281581Y591177D01*
X281536Y591233D01*
X281499Y591295D01*
X281459Y591329D01*
X281427Y591369D01*
X281367Y591408D01*
X281312Y591455D01*
X281264Y591474D01*
X281220Y591502D01*
X281151Y591520D01*
X281084Y591547D01*
X281013Y591555D01*
X280981Y591563D01*
X280958Y591561D01*
X280917Y591565D01*
X277076Y591565D01*
X272781Y593344D01*
X269494Y596631D01*
X267715Y600926D01*
X267715Y605574D01*
X269494Y609869D01*
X272781Y613156D01*
X272833Y613177D01*
X272933Y613239D01*
X273033Y613299D01*
X273037Y613304D01*
X273042Y613307D01*
X273116Y613396D01*
X273193Y613486D01*
X273195Y613492D01*
X273199Y613497D01*
X273241Y613605D01*
X273285Y613714D01*
X273286Y613722D01*
X273287Y613726D01*
X273288Y613744D01*
X273303Y613881D01*
X273303Y650998D01*
X273296Y651043D01*
X273298Y651089D01*
X273276Y651164D01*
X273264Y651241D01*
X273242Y651281D01*
X273229Y651325D01*
X273185Y651389D01*
X273148Y651458D01*
X273115Y651490D01*
X273089Y651527D01*
X273026Y651574D01*
X272970Y651627D01*
X272928Y651647D01*
X272892Y651674D01*
X272818Y651698D01*
X272747Y651731D01*
X272701Y651736D01*
X272658Y651750D01*
X272580Y651750D01*
X272503Y651758D01*
X272458Y651748D01*
X272412Y651748D01*
X272280Y651710D01*
X272262Y651706D01*
X272258Y651703D01*
X272251Y651701D01*
X268721Y650239D01*
X264679Y650239D01*
X260944Y651786D01*
X258086Y654644D01*
X256539Y658379D01*
X256539Y662421D01*
X258086Y666156D01*
X260380Y668450D01*
X260433Y668524D01*
X260493Y668593D01*
X260505Y668623D01*
X260524Y668650D01*
X260551Y668736D01*
X260585Y668821D01*
X260589Y668862D01*
X260596Y668885D01*
X260595Y668917D01*
X260603Y668988D01*
X260603Y696882D01*
X260596Y696927D01*
X260598Y696973D01*
X260576Y697048D01*
X260564Y697125D01*
X260542Y697165D01*
X260529Y697210D01*
X260485Y697274D01*
X260448Y697342D01*
X260415Y697374D01*
X260389Y697412D01*
X260327Y697458D01*
X260270Y697512D01*
X260228Y697531D01*
X260192Y697558D01*
X260118Y697582D01*
X260047Y697615D01*
X260001Y697620D01*
X259958Y697635D01*
X259880Y697634D01*
X259803Y697642D01*
X259758Y697633D01*
X259712Y697632D01*
X259581Y697594D01*
X259562Y697590D01*
X259558Y697588D01*
X259551Y697585D01*
X258691Y697229D01*
X255659Y697229D01*
X253653Y698060D01*
X253589Y698075D01*
X253528Y698100D01*
X253445Y698109D01*
X253413Y698116D01*
X253394Y698115D01*
X253362Y698118D01*
X128789Y698118D01*
X128698Y698104D01*
X128608Y698096D01*
X128578Y698084D01*
X128546Y698079D01*
X128465Y698036D01*
X128381Y698000D01*
X128349Y697974D01*
X128328Y697963D01*
X128306Y697940D01*
X128250Y697895D01*
X122535Y692180D01*
X122493Y692122D01*
X122444Y692070D01*
X122422Y692023D01*
X122392Y691981D01*
X122371Y691912D01*
X122340Y691847D01*
X122335Y691795D01*
X122319Y691745D01*
X122321Y691674D01*
X122313Y691603D01*
X122324Y691552D01*
X122326Y691500D01*
X122350Y691432D01*
X122366Y691362D01*
X122392Y691317D01*
X122410Y691269D01*
X122455Y691213D01*
X122492Y691151D01*
X122531Y691117D01*
X122564Y691077D01*
X122624Y691038D01*
X122679Y690991D01*
X122727Y690972D01*
X122771Y690944D01*
X122840Y690926D01*
X122907Y690899D01*
X122978Y690891D01*
X123009Y690883D01*
X123033Y690885D01*
X123074Y690881D01*
X123746Y690881D01*
X123836Y690895D01*
X123927Y690903D01*
X123957Y690915D01*
X123989Y690920D01*
X124069Y690963D01*
X124153Y690999D01*
X124185Y691025D01*
X124206Y691036D01*
X124228Y691059D01*
X124284Y691104D01*
X129141Y695961D01*
X137559Y695961D01*
X143511Y690009D01*
X143511Y681591D01*
X141400Y679480D01*
X141358Y679422D01*
X141308Y679370D01*
X141287Y679323D01*
X141256Y679281D01*
X141235Y679212D01*
X141205Y679147D01*
X141199Y679095D01*
X141184Y679045D01*
X141186Y678974D01*
X141178Y678903D01*
X141189Y678852D01*
X141190Y678800D01*
X141215Y678732D01*
X141230Y678662D01*
X141257Y678617D01*
X141275Y678569D01*
X141319Y678513D01*
X141356Y678451D01*
X141396Y678417D01*
X141428Y678377D01*
X141489Y678338D01*
X141543Y678291D01*
X141591Y678272D01*
X141635Y678244D01*
X141705Y678226D01*
X141771Y678199D01*
X141843Y678191D01*
X141874Y678183D01*
X141897Y678185D01*
X141938Y678181D01*
X143630Y678181D01*
X143720Y678195D01*
X143811Y678203D01*
X143841Y678215D01*
X143873Y678220D01*
X143954Y678263D01*
X144037Y678299D01*
X144070Y678325D01*
X144090Y678336D01*
X144112Y678359D01*
X144168Y678404D01*
X148366Y682602D01*
X148415Y682669D01*
X148416Y682670D01*
X148416Y682671D01*
X148419Y682675D01*
X148479Y682745D01*
X148491Y682775D01*
X148510Y682801D01*
X148537Y682888D01*
X148571Y682973D01*
X148575Y683014D01*
X148582Y683036D01*
X148581Y683069D01*
X148589Y683140D01*
X148589Y690009D01*
X154541Y695961D01*
X162959Y695961D01*
X168911Y690009D01*
X168911Y681591D01*
X162959Y675639D01*
X156090Y675639D01*
X156000Y675625D01*
X155909Y675617D01*
X155879Y675605D01*
X155847Y675600D01*
X155766Y675557D01*
X155683Y675521D01*
X155650Y675495D01*
X155630Y675484D01*
X155608Y675461D01*
X155552Y675416D01*
X148155Y668019D01*
X141938Y668019D01*
X141867Y668008D01*
X141796Y668006D01*
X141747Y667988D01*
X141695Y667980D01*
X141632Y667946D01*
X141565Y667921D01*
X141524Y667889D01*
X141478Y667864D01*
X141429Y667813D01*
X141373Y667768D01*
X141344Y667724D01*
X141308Y667686D01*
X141278Y667621D01*
X141240Y667561D01*
X141227Y667510D01*
X141205Y667463D01*
X141197Y667392D01*
X141179Y667322D01*
X141184Y667270D01*
X141178Y667219D01*
X141193Y667148D01*
X141199Y667077D01*
X141219Y667029D01*
X141230Y666978D01*
X141267Y666917D01*
X141295Y666851D01*
X141340Y666795D01*
X141356Y666767D01*
X141374Y666752D01*
X141400Y666720D01*
X141964Y666156D01*
X143511Y662421D01*
X143511Y658379D01*
X141964Y654644D01*
X139106Y651786D01*
X135371Y650239D01*
X131329Y650239D01*
X127594Y651786D01*
X124736Y654644D01*
X123189Y658379D01*
X123189Y660266D01*
X123186Y660284D01*
X123188Y660300D01*
X123177Y660350D01*
X123176Y660409D01*
X123158Y660458D01*
X123150Y660509D01*
X123138Y660530D01*
X123136Y660541D01*
X123114Y660577D01*
X123091Y660640D01*
X123059Y660680D01*
X123034Y660726D01*
X123012Y660747D01*
X123010Y660752D01*
X122990Y660769D01*
X122982Y660776D01*
X122938Y660832D01*
X122894Y660860D01*
X122856Y660896D01*
X122824Y660911D01*
X122823Y660912D01*
X122816Y660914D01*
X122791Y660926D01*
X122731Y660965D01*
X122680Y660977D01*
X122633Y660999D01*
X122562Y661007D01*
X122492Y661025D01*
X122440Y661021D01*
X122389Y661026D01*
X122318Y661011D01*
X122247Y661006D01*
X122200Y660985D01*
X122180Y660982D01*
X122176Y660980D01*
X122148Y660974D01*
X122087Y660937D01*
X122021Y660909D01*
X121979Y660876D01*
X121962Y660867D01*
X121954Y660858D01*
X121937Y660848D01*
X121922Y660830D01*
X121890Y660805D01*
X97355Y636269D01*
X94742Y636269D01*
X94722Y636266D01*
X94703Y636268D01*
X94601Y636246D01*
X94499Y636230D01*
X94482Y636220D01*
X94462Y636216D01*
X94373Y636163D01*
X94282Y636114D01*
X94268Y636100D01*
X94251Y636090D01*
X94184Y636011D01*
X94112Y635936D01*
X94104Y635918D01*
X94091Y635903D01*
X94052Y635807D01*
X94009Y635713D01*
X94007Y635693D01*
X93999Y635675D01*
X93981Y635508D01*
X93981Y613156D01*
X93984Y613136D01*
X93982Y613117D01*
X94004Y613015D01*
X94020Y612913D01*
X94030Y612896D01*
X94034Y612876D01*
X94087Y612787D01*
X94136Y612696D01*
X94150Y612682D01*
X94160Y612665D01*
X94239Y612598D01*
X94314Y612526D01*
X94332Y612518D01*
X94347Y612505D01*
X94443Y612466D01*
X94537Y612423D01*
X94557Y612421D01*
X94575Y612413D01*
X94742Y612395D01*
X100077Y612395D01*
X100077Y604012D01*
X100080Y603992D01*
X100078Y603973D01*
X100100Y603871D01*
X100117Y603769D01*
X100126Y603752D01*
X100130Y603732D01*
X100183Y603643D01*
X100232Y603552D01*
X100246Y603538D01*
X100256Y603521D01*
X100335Y603454D01*
X100410Y603383D01*
X100428Y603374D01*
X100443Y603361D01*
X100539Y603323D01*
X100633Y603279D01*
X100653Y603277D01*
X100671Y603269D01*
X100838Y603251D01*
X101601Y603251D01*
X101601Y603249D01*
X100838Y603249D01*
X100818Y603246D01*
X100799Y603248D01*
X100697Y603226D01*
X100595Y603209D01*
X100578Y603200D01*
X100558Y603196D01*
X100469Y603143D01*
X100378Y603094D01*
X100364Y603080D01*
X100347Y603070D01*
X100280Y602991D01*
X100209Y602916D01*
X100200Y602898D01*
X100187Y602883D01*
X100148Y602787D01*
X100105Y602693D01*
X100103Y602673D01*
X100095Y602655D01*
X100077Y602488D01*
X100077Y594105D01*
X97543Y594105D01*
X97472Y594094D01*
X97400Y594092D01*
X97351Y594074D01*
X97300Y594066D01*
X97237Y594032D01*
X97169Y594007D01*
X97129Y593975D01*
X97083Y593950D01*
X97033Y593898D01*
X96977Y593854D01*
X96949Y593810D01*
X96913Y593772D01*
X96883Y593707D01*
X96844Y593647D01*
X96832Y593596D01*
X96810Y593549D01*
X96802Y593478D01*
X96784Y593408D01*
X96788Y593356D01*
X96783Y593305D01*
X96798Y593234D01*
X96803Y593163D01*
X96824Y593115D01*
X96835Y593064D01*
X96872Y593003D01*
X96900Y592937D01*
X96944Y592881D01*
X96961Y592853D01*
X96979Y592838D01*
X97004Y592806D01*
X116817Y572994D01*
X116890Y572941D01*
X116960Y572881D01*
X116990Y572869D01*
X117016Y572850D01*
X117103Y572823D01*
X117188Y572789D01*
X117229Y572785D01*
X117251Y572778D01*
X117284Y572779D01*
X117355Y572771D01*
X118991Y572771D01*
X121792Y571611D01*
X123936Y569467D01*
X125096Y566666D01*
X125096Y563634D01*
X123936Y560833D01*
X121792Y558689D01*
X118991Y557529D01*
X115959Y557529D01*
X113161Y558688D01*
X113092Y558705D01*
X113025Y558730D01*
X112973Y558732D01*
X112922Y558744D01*
X112851Y558738D01*
X112779Y558741D01*
X112729Y558726D01*
X112677Y558721D01*
X112612Y558692D01*
X112543Y558672D01*
X112500Y558642D01*
X112452Y558621D01*
X112400Y558573D01*
X112341Y558532D01*
X112310Y558490D01*
X112271Y558455D01*
X112237Y558392D01*
X112194Y558334D01*
X112178Y558285D01*
X112153Y558239D01*
X112140Y558169D01*
X112118Y558101D01*
X112118Y558049D01*
X112109Y557997D01*
X112119Y557926D01*
X112120Y557855D01*
X112140Y557786D01*
X112145Y557754D01*
X112155Y557733D01*
X112167Y557693D01*
X112396Y557141D01*
X112396Y554109D01*
X111236Y551308D01*
X109092Y549164D01*
X106166Y547952D01*
X106110Y547918D01*
X106050Y547892D01*
X105985Y547840D01*
X105957Y547823D01*
X105944Y547808D01*
X105919Y547787D01*
X89296Y531165D01*
X89271Y531149D01*
X89171Y531090D01*
X89167Y531085D01*
X89162Y531082D01*
X89087Y530992D01*
X89011Y530903D01*
X89009Y530897D01*
X89005Y530892D01*
X88963Y530784D01*
X88919Y530675D01*
X88918Y530667D01*
X88917Y530662D01*
X88916Y530644D01*
X88901Y530508D01*
X88901Y495071D01*
X88905Y495046D01*
X88903Y495030D01*
X88916Y494969D01*
X88923Y494890D01*
X88935Y494860D01*
X88940Y494828D01*
X88952Y494807D01*
X88955Y494790D01*
X88989Y494733D01*
X89019Y494664D01*
X89045Y494631D01*
X89056Y494611D01*
X89071Y494596D01*
X89082Y494579D01*
X89099Y494564D01*
X89124Y494533D01*
X94483Y489174D01*
X94557Y489121D01*
X94626Y489061D01*
X94656Y489049D01*
X94682Y489030D01*
X94769Y489003D01*
X94854Y488969D01*
X94895Y488965D01*
X94917Y488958D01*
X94950Y488959D01*
X95021Y488951D01*
X128263Y488951D01*
X130392Y488069D01*
X130436Y488059D01*
X130478Y488039D01*
X130555Y488031D01*
X130631Y488013D01*
X130677Y488017D01*
X130722Y488012D01*
X130799Y488029D01*
X130876Y488036D01*
X130918Y488055D01*
X130963Y488064D01*
X131030Y488104D01*
X131101Y488136D01*
X131135Y488167D01*
X131174Y488191D01*
X131225Y488250D01*
X131282Y488302D01*
X131304Y488343D01*
X131334Y488378D01*
X131363Y488450D01*
X131400Y488518D01*
X131409Y488563D01*
X131426Y488606D01*
X131441Y488742D01*
X131444Y488760D01*
X131443Y488765D01*
X131444Y488772D01*
X131444Y492453D01*
X131437Y492499D01*
X131439Y492545D01*
X131417Y492619D01*
X131405Y492696D01*
X131383Y492737D01*
X131370Y492781D01*
X131326Y492845D01*
X131289Y492914D01*
X131256Y492945D01*
X131230Y492983D01*
X131168Y493029D01*
X131111Y493083D01*
X131069Y493102D01*
X131033Y493130D01*
X130959Y493154D01*
X130888Y493187D01*
X130842Y493192D01*
X130799Y493206D01*
X130721Y493205D01*
X130644Y493214D01*
X130599Y493204D01*
X130553Y493203D01*
X130421Y493165D01*
X130403Y493161D01*
X130399Y493159D01*
X130392Y493157D01*
X128819Y492505D01*
X125181Y492505D01*
X121820Y493897D01*
X119247Y496470D01*
X117855Y499831D01*
X117855Y503469D01*
X119247Y506830D01*
X121820Y509403D01*
X125181Y510795D01*
X128819Y510795D01*
X132180Y509403D01*
X133320Y508263D01*
X133378Y508221D01*
X133430Y508172D01*
X133477Y508150D01*
X133519Y508119D01*
X133588Y508098D01*
X133653Y508068D01*
X133705Y508062D01*
X133755Y508047D01*
X133826Y508049D01*
X133897Y508041D01*
X133948Y508052D01*
X134000Y508053D01*
X134068Y508078D01*
X134138Y508093D01*
X134183Y508120D01*
X134231Y508138D01*
X134287Y508183D01*
X134349Y508219D01*
X134383Y508259D01*
X134423Y508291D01*
X134462Y508352D01*
X134509Y508406D01*
X134528Y508455D01*
X134556Y508498D01*
X134574Y508568D01*
X134601Y508634D01*
X134609Y508706D01*
X134617Y508737D01*
X134615Y508760D01*
X134619Y508801D01*
X134619Y543680D01*
X134605Y543770D01*
X134597Y543861D01*
X134585Y543891D01*
X134580Y543923D01*
X134537Y544004D01*
X134501Y544087D01*
X134475Y544120D01*
X134464Y544140D01*
X134441Y544162D01*
X134396Y544218D01*
X131444Y547170D01*
X131444Y594053D01*
X131442Y594064D01*
X131443Y594071D01*
X131437Y594100D01*
X131439Y594145D01*
X131417Y594219D01*
X131405Y594296D01*
X131383Y594337D01*
X131370Y594381D01*
X131326Y594445D01*
X131289Y594514D01*
X131256Y594545D01*
X131230Y594583D01*
X131168Y594629D01*
X131111Y594683D01*
X131069Y594702D01*
X131033Y594730D01*
X130959Y594754D01*
X130888Y594787D01*
X130842Y594792D01*
X130799Y594806D01*
X130721Y594805D01*
X130644Y594814D01*
X130599Y594804D01*
X130553Y594803D01*
X130421Y594765D01*
X130403Y594761D01*
X130399Y594759D01*
X130392Y594757D01*
X128819Y594105D01*
X125181Y594105D01*
X121820Y595497D01*
X119247Y598070D01*
X117855Y601431D01*
X117855Y605069D01*
X119247Y608430D01*
X121820Y611003D01*
X125181Y612395D01*
X128819Y612395D01*
X132180Y611003D01*
X133320Y609863D01*
X133378Y609821D01*
X133430Y609772D01*
X133477Y609750D01*
X133519Y609719D01*
X133588Y609698D01*
X133653Y609668D01*
X133705Y609662D01*
X133755Y609647D01*
X133826Y609649D01*
X133897Y609641D01*
X133948Y609652D01*
X134000Y609653D01*
X134068Y609678D01*
X134138Y609693D01*
X134183Y609720D01*
X134231Y609738D01*
X134287Y609783D01*
X134349Y609819D01*
X134383Y609859D01*
X134423Y609891D01*
X134462Y609952D01*
X134509Y610006D01*
X134528Y610055D01*
X134556Y610098D01*
X134574Y610168D01*
X134601Y610234D01*
X134609Y610306D01*
X134617Y610337D01*
X134615Y610360D01*
X134619Y610401D01*
X134619Y624405D01*
X150271Y640057D01*
X150324Y640130D01*
X150384Y640200D01*
X150396Y640230D01*
X150415Y640256D01*
X150442Y640343D01*
X150476Y640428D01*
X150480Y640469D01*
X150487Y640491D01*
X150486Y640524D01*
X150494Y640595D01*
X150494Y653971D01*
X150480Y654061D01*
X150472Y654152D01*
X150460Y654182D01*
X150455Y654214D01*
X150412Y654294D01*
X150376Y654378D01*
X150350Y654411D01*
X150339Y654431D01*
X150316Y654453D01*
X150271Y654509D01*
X148589Y656191D01*
X148589Y664609D01*
X154541Y670561D01*
X162959Y670561D01*
X168911Y664609D01*
X168911Y656191D01*
X162959Y650239D01*
X161417Y650239D01*
X161397Y650236D01*
X161378Y650238D01*
X161276Y650216D01*
X161174Y650200D01*
X161157Y650190D01*
X161137Y650186D01*
X161048Y650133D01*
X160957Y650084D01*
X160943Y650070D01*
X160926Y650060D01*
X160859Y649981D01*
X160787Y649906D01*
X160779Y649888D01*
X160766Y649873D01*
X160727Y649777D01*
X160684Y649683D01*
X160682Y649663D01*
X160674Y649645D01*
X160656Y649478D01*
X160656Y636070D01*
X145004Y620418D01*
X144957Y620353D01*
X144947Y620343D01*
X144944Y620337D01*
X144891Y620275D01*
X144879Y620245D01*
X144860Y620219D01*
X144833Y620132D01*
X144799Y620047D01*
X144795Y620006D01*
X144788Y619984D01*
X144789Y619951D01*
X144781Y619880D01*
X144781Y610401D01*
X144792Y610330D01*
X144794Y610259D01*
X144812Y610210D01*
X144820Y610158D01*
X144854Y610095D01*
X144879Y610028D01*
X144911Y609987D01*
X144936Y609941D01*
X144988Y609892D01*
X145032Y609836D01*
X145076Y609807D01*
X145114Y609772D01*
X145179Y609741D01*
X145239Y609703D01*
X145290Y609690D01*
X145337Y609668D01*
X145408Y609660D01*
X145478Y609643D01*
X145530Y609647D01*
X145581Y609641D01*
X145652Y609656D01*
X145723Y609662D01*
X145771Y609682D01*
X145822Y609693D01*
X145883Y609730D01*
X145949Y609758D01*
X146005Y609803D01*
X146033Y609819D01*
X146048Y609837D01*
X146080Y609863D01*
X147220Y611003D01*
X150581Y612395D01*
X154219Y612395D01*
X155372Y611917D01*
X155486Y611890D01*
X155600Y611862D01*
X155606Y611862D01*
X155612Y611861D01*
X155728Y611872D01*
X155845Y611881D01*
X155850Y611883D01*
X155857Y611884D01*
X155964Y611932D01*
X156071Y611977D01*
X156077Y611982D01*
X156081Y611984D01*
X156095Y611997D01*
X156202Y612082D01*
X199312Y655192D01*
X199324Y655208D01*
X199339Y655221D01*
X199395Y655308D01*
X199456Y655392D01*
X199461Y655411D01*
X199472Y655428D01*
X199498Y655528D01*
X199528Y655627D01*
X199527Y655647D01*
X199532Y655666D01*
X199524Y655769D01*
X199522Y655873D01*
X199515Y655891D01*
X199513Y655911D01*
X199473Y656007D01*
X199437Y656104D01*
X199425Y656119D01*
X199417Y656138D01*
X199389Y656172D01*
X199389Y664609D01*
X205341Y670561D01*
X213759Y670561D01*
X215870Y668450D01*
X215928Y668408D01*
X215980Y668358D01*
X216027Y668337D01*
X216069Y668306D01*
X216138Y668285D01*
X216203Y668255D01*
X216255Y668249D01*
X216305Y668234D01*
X216376Y668236D01*
X216447Y668228D01*
X216498Y668239D01*
X216550Y668240D01*
X216618Y668265D01*
X216688Y668280D01*
X216733Y668307D01*
X216781Y668325D01*
X216837Y668369D01*
X216899Y668406D01*
X216933Y668446D01*
X216973Y668478D01*
X217012Y668539D01*
X217059Y668593D01*
X217078Y668641D01*
X217106Y668685D01*
X217124Y668755D01*
X217151Y668821D01*
X217159Y668893D01*
X217167Y668924D01*
X217165Y668947D01*
X217169Y668988D01*
X217169Y677212D01*
X217158Y677283D01*
X217156Y677354D01*
X217138Y677403D01*
X217130Y677455D01*
X217096Y677518D01*
X217071Y677585D01*
X217039Y677626D01*
X217014Y677672D01*
X216962Y677722D01*
X216918Y677778D01*
X216874Y677806D01*
X216836Y677842D01*
X216771Y677872D01*
X216711Y677911D01*
X216660Y677923D01*
X216613Y677945D01*
X216542Y677953D01*
X216472Y677971D01*
X216420Y677967D01*
X216369Y677972D01*
X216298Y677957D01*
X216227Y677951D01*
X216179Y677931D01*
X216128Y677920D01*
X216067Y677883D01*
X216001Y677855D01*
X215945Y677810D01*
X215917Y677794D01*
X215902Y677776D01*
X215870Y677750D01*
X213759Y675639D01*
X205341Y675639D01*
X199389Y681591D01*
X199389Y690009D01*
X205341Y695961D01*
X213759Y695961D01*
X219711Y690009D01*
X219711Y682117D01*
X219714Y682097D01*
X219712Y682078D01*
X219734Y681976D01*
X219750Y681874D01*
X219760Y681857D01*
X219764Y681837D01*
X219817Y681748D01*
X219866Y681657D01*
X219880Y681643D01*
X219890Y681626D01*
X219969Y681559D01*
X220044Y681487D01*
X220062Y681479D01*
X220077Y681466D01*
X220173Y681427D01*
X220267Y681384D01*
X220287Y681382D01*
X220305Y681374D01*
X220472Y681356D01*
X223005Y681356D01*
X223095Y681370D01*
X223186Y681378D01*
X223216Y681390D01*
X223248Y681395D01*
X223329Y681438D01*
X223412Y681474D01*
X223445Y681500D01*
X223465Y681511D01*
X223487Y681534D01*
X223543Y681579D01*
X224566Y682602D01*
X224615Y682669D01*
X224616Y682670D01*
X224616Y682671D01*
X224619Y682675D01*
X224679Y682745D01*
X224691Y682775D01*
X224710Y682801D01*
X224737Y682888D01*
X224771Y682973D01*
X224775Y683014D01*
X224782Y683036D01*
X224781Y683069D01*
X224789Y683140D01*
X224789Y690009D01*
X230741Y695961D01*
X239159Y695961D01*
X245111Y690009D01*
X245111Y681591D01*
X239159Y675639D01*
X232290Y675639D01*
X232200Y675625D01*
X232109Y675617D01*
X232079Y675605D01*
X232047Y675600D01*
X231966Y675557D01*
X231883Y675521D01*
X231850Y675495D01*
X231830Y675484D01*
X231808Y675461D01*
X231752Y675416D01*
X227554Y671218D01*
X227501Y671145D01*
X227441Y671075D01*
X227429Y671045D01*
X227410Y671019D01*
X227383Y670932D01*
X227349Y670847D01*
X227345Y670806D01*
X227338Y670784D01*
X227339Y670751D01*
X227331Y670680D01*
X227331Y668988D01*
X227342Y668917D01*
X227344Y668846D01*
X227362Y668797D01*
X227370Y668745D01*
X227404Y668682D01*
X227429Y668615D01*
X227461Y668574D01*
X227486Y668528D01*
X227538Y668478D01*
X227582Y668422D01*
X227626Y668394D01*
X227664Y668358D01*
X227729Y668328D01*
X227789Y668289D01*
X227840Y668277D01*
X227887Y668255D01*
X227958Y668247D01*
X228028Y668229D01*
X228080Y668233D01*
X228131Y668228D01*
X228202Y668243D01*
X228273Y668249D01*
X228321Y668269D01*
X228372Y668280D01*
X228433Y668317D01*
X228499Y668345D01*
X228555Y668390D01*
X228583Y668406D01*
X228598Y668424D01*
X228630Y668450D01*
X230741Y670561D01*
X239159Y670561D01*
X245111Y664609D01*
X245111Y656191D01*
X239159Y650239D01*
X237617Y650239D01*
X237597Y650236D01*
X237578Y650238D01*
X237476Y650216D01*
X237374Y650200D01*
X237357Y650190D01*
X237337Y650186D01*
X237248Y650133D01*
X237157Y650084D01*
X237143Y650070D01*
X237126Y650060D01*
X237059Y649981D01*
X236987Y649906D01*
X236979Y649888D01*
X236966Y649873D01*
X236927Y649777D01*
X236884Y649683D01*
X236882Y649663D01*
X236874Y649645D01*
X236856Y649478D01*
X236856Y632895D01*
X221204Y617243D01*
X221151Y617170D01*
X221091Y617100D01*
X221079Y617070D01*
X221060Y617044D01*
X221033Y616957D01*
X220999Y616872D01*
X220995Y616831D01*
X220988Y616809D01*
X220989Y616776D01*
X220981Y616705D01*
X220981Y610401D01*
X220992Y610330D01*
X220994Y610259D01*
X221012Y610210D01*
X221020Y610158D01*
X221054Y610095D01*
X221079Y610028D01*
X221111Y609987D01*
X221136Y609941D01*
X221188Y609892D01*
X221232Y609836D01*
X221276Y609807D01*
X221314Y609772D01*
X221379Y609741D01*
X221439Y609703D01*
X221490Y609690D01*
X221537Y609668D01*
X221608Y609660D01*
X221678Y609643D01*
X221730Y609647D01*
X221781Y609641D01*
X221852Y609656D01*
X221923Y609662D01*
X221971Y609682D01*
X222022Y609693D01*
X222083Y609730D01*
X222149Y609758D01*
X222205Y609803D01*
X222233Y609819D01*
X222248Y609837D01*
X222280Y609863D01*
X223420Y611003D01*
X226781Y612395D01*
X230419Y612395D01*
X233780Y611003D01*
X236353Y608430D01*
X237745Y605069D01*
X237745Y601431D01*
X236353Y598070D01*
X233780Y595497D01*
X233040Y595191D01*
X232979Y595153D01*
X232913Y595124D01*
X232875Y595089D01*
X232831Y595061D01*
X232785Y595006D01*
X232732Y594957D01*
X232707Y594912D01*
X232674Y594872D01*
X232648Y594805D01*
X232614Y594741D01*
X232605Y594690D01*
X232586Y594642D01*
X232583Y594570D01*
X232570Y594499D01*
X232578Y594448D01*
X232576Y594397D01*
X232596Y594327D01*
X232606Y594256D01*
X232630Y594210D01*
X232644Y594160D01*
X232685Y594101D01*
X232718Y594037D01*
X232755Y594001D01*
X232785Y593958D01*
X232822Y593931D01*
X234335Y592417D01*
X234372Y592390D01*
X234403Y592357D01*
X234472Y592319D01*
X234535Y592274D01*
X234579Y592260D01*
X234619Y592238D01*
X234696Y592224D01*
X234770Y592201D01*
X234816Y592203D01*
X234861Y592194D01*
X234938Y592206D01*
X235016Y592208D01*
X235059Y592223D01*
X235104Y592230D01*
X235174Y592265D01*
X235247Y592292D01*
X235283Y592321D01*
X235324Y592342D01*
X235378Y592397D01*
X235439Y592446D01*
X235464Y592484D01*
X235496Y592517D01*
X235562Y592637D01*
X235572Y592653D01*
X235573Y592658D01*
X235577Y592664D01*
X236131Y594004D01*
X237954Y595826D01*
X242172Y600044D01*
X242240Y600139D01*
X242310Y600233D01*
X242312Y600239D01*
X242315Y600244D01*
X242350Y600356D01*
X242386Y600467D01*
X242386Y600473D01*
X242388Y600479D01*
X242385Y600595D01*
X242384Y600713D01*
X242382Y600720D01*
X242381Y600725D01*
X242375Y600742D01*
X242337Y600874D01*
X242315Y600926D01*
X242315Y605574D01*
X244094Y609869D01*
X247381Y613156D01*
X251676Y614935D01*
X256324Y614935D01*
X260619Y613156D01*
X263906Y609869D01*
X265685Y605574D01*
X265685Y600926D01*
X263906Y596631D01*
X260619Y593344D01*
X256324Y591565D01*
X251676Y591565D01*
X251624Y591587D01*
X251510Y591614D01*
X251396Y591642D01*
X251390Y591642D01*
X251384Y591643D01*
X251267Y591632D01*
X251151Y591623D01*
X251146Y591621D01*
X251139Y591620D01*
X251031Y591572D01*
X250925Y591527D01*
X250919Y591522D01*
X250915Y591520D01*
X250901Y591507D01*
X250794Y591422D01*
X247620Y588248D01*
X247567Y588174D01*
X247507Y588104D01*
X247495Y588074D01*
X247476Y588048D01*
X247449Y587961D01*
X247415Y587876D01*
X247411Y587835D01*
X247404Y587813D01*
X247405Y587781D01*
X247397Y587709D01*
X247397Y573462D01*
X246469Y571221D01*
X244754Y569506D01*
X242513Y568578D01*
X195913Y568578D01*
X195823Y568564D01*
X195732Y568556D01*
X195702Y568544D01*
X195670Y568539D01*
X195590Y568496D01*
X195506Y568460D01*
X195474Y568434D01*
X195453Y568423D01*
X195431Y568400D01*
X195375Y568355D01*
X193081Y566061D01*
X189346Y564514D01*
X185304Y564514D01*
X181569Y566061D01*
X178711Y568919D01*
X177164Y572654D01*
X177164Y576696D01*
X178711Y580431D01*
X181569Y583289D01*
X185304Y584836D01*
X189346Y584836D01*
X193081Y583289D01*
X195375Y580995D01*
X195449Y580942D01*
X195518Y580882D01*
X195548Y580870D01*
X195575Y580851D01*
X195661Y580824D01*
X195746Y580790D01*
X195787Y580786D01*
X195810Y580779D01*
X195842Y580780D01*
X195913Y580772D01*
X222588Y580772D01*
X222659Y580783D01*
X222731Y580785D01*
X222780Y580803D01*
X222831Y580811D01*
X222894Y580845D01*
X222962Y580870D01*
X223002Y580902D01*
X223048Y580927D01*
X223098Y580979D01*
X223154Y581023D01*
X223182Y581067D01*
X223218Y581105D01*
X223248Y581170D01*
X223287Y581230D01*
X223299Y581281D01*
X223321Y581328D01*
X223329Y581399D01*
X223347Y581469D01*
X223343Y581521D01*
X223348Y581572D01*
X223333Y581643D01*
X223328Y581714D01*
X223307Y581762D01*
X223296Y581813D01*
X223259Y581874D01*
X223231Y581940D01*
X223186Y581996D01*
X223170Y582024D01*
X223152Y582039D01*
X223126Y582071D01*
X222139Y583058D01*
X221335Y584999D01*
X221274Y585099D01*
X221214Y585199D01*
X221209Y585203D01*
X221206Y585208D01*
X221116Y585283D01*
X221027Y585359D01*
X221021Y585361D01*
X221016Y585365D01*
X220908Y585407D01*
X220799Y585451D01*
X220791Y585452D01*
X220787Y585453D01*
X220768Y585454D01*
X220632Y585469D01*
X220145Y585469D01*
X210819Y594795D01*
X210819Y596099D01*
X210808Y596170D01*
X210806Y596241D01*
X210788Y596290D01*
X210780Y596342D01*
X210746Y596405D01*
X210721Y596472D01*
X210689Y596513D01*
X210664Y596559D01*
X210612Y596608D01*
X210568Y596664D01*
X210524Y596693D01*
X210486Y596728D01*
X210421Y596759D01*
X210361Y596797D01*
X210310Y596810D01*
X210263Y596832D01*
X210192Y596840D01*
X210122Y596857D01*
X210070Y596853D01*
X210019Y596859D01*
X209948Y596844D01*
X209877Y596838D01*
X209829Y596818D01*
X209778Y596807D01*
X209717Y596770D01*
X209651Y596742D01*
X209595Y596697D01*
X209567Y596681D01*
X209552Y596663D01*
X209520Y596637D01*
X208380Y595497D01*
X205019Y594105D01*
X201381Y594105D01*
X198020Y595497D01*
X195447Y598070D01*
X194055Y601431D01*
X194055Y605069D01*
X195447Y608430D01*
X198020Y611003D01*
X201381Y612395D01*
X205019Y612395D01*
X208380Y611003D01*
X209520Y609863D01*
X209578Y609821D01*
X209630Y609772D01*
X209677Y609750D01*
X209719Y609719D01*
X209788Y609698D01*
X209853Y609668D01*
X209905Y609662D01*
X209955Y609647D01*
X210026Y609649D01*
X210097Y609641D01*
X210148Y609652D01*
X210200Y609653D01*
X210268Y609678D01*
X210338Y609693D01*
X210383Y609720D01*
X210431Y609738D01*
X210487Y609783D01*
X210549Y609819D01*
X210583Y609859D01*
X210623Y609891D01*
X210662Y609952D01*
X210709Y610006D01*
X210728Y610055D01*
X210756Y610098D01*
X210774Y610168D01*
X210801Y610234D01*
X210809Y610306D01*
X210817Y610337D01*
X210815Y610360D01*
X210819Y610401D01*
X210819Y620268D01*
X210816Y620288D01*
X210818Y620307D01*
X210796Y620409D01*
X210780Y620511D01*
X210770Y620528D01*
X210766Y620548D01*
X210713Y620637D01*
X210664Y620728D01*
X210650Y620742D01*
X210640Y620759D01*
X210561Y620826D01*
X210486Y620898D01*
X210468Y620906D01*
X210453Y620919D01*
X210357Y620958D01*
X210263Y621001D01*
X210243Y621003D01*
X210225Y621011D01*
X210058Y621029D01*
X208034Y621029D01*
X205233Y622189D01*
X203089Y624333D01*
X201929Y627134D01*
X201929Y630166D01*
X203089Y632967D01*
X205233Y635111D01*
X208034Y636271D01*
X209670Y636271D01*
X209760Y636285D01*
X209851Y636293D01*
X209881Y636305D01*
X209913Y636310D01*
X209994Y636353D01*
X210077Y636389D01*
X210110Y636415D01*
X210130Y636426D01*
X210152Y636449D01*
X210208Y636494D01*
X216946Y643232D01*
X216999Y643305D01*
X217059Y643375D01*
X217071Y643405D01*
X217090Y643431D01*
X217117Y643518D01*
X217151Y643603D01*
X217155Y643644D01*
X217162Y643666D01*
X217161Y643699D01*
X217169Y643770D01*
X217169Y651812D01*
X217158Y651883D01*
X217156Y651954D01*
X217138Y652003D01*
X217130Y652055D01*
X217096Y652118D01*
X217071Y652185D01*
X217039Y652226D01*
X217014Y652272D01*
X216962Y652322D01*
X216918Y652378D01*
X216874Y652406D01*
X216836Y652442D01*
X216771Y652472D01*
X216711Y652511D01*
X216660Y652523D01*
X216613Y652545D01*
X216542Y652553D01*
X216472Y652571D01*
X216420Y652567D01*
X216369Y652572D01*
X216298Y652557D01*
X216227Y652551D01*
X216179Y652531D01*
X216128Y652520D01*
X216067Y652483D01*
X216001Y652455D01*
X215945Y652410D01*
X215917Y652394D01*
X215902Y652376D01*
X215870Y652350D01*
X213759Y650239D01*
X205313Y650239D01*
X205296Y650254D01*
X205284Y650259D01*
X205219Y650306D01*
X205200Y650311D01*
X205183Y650322D01*
X205083Y650347D01*
X204984Y650378D01*
X204964Y650377D01*
X204945Y650382D01*
X204842Y650374D01*
X204738Y650372D01*
X204719Y650365D01*
X204699Y650363D01*
X204604Y650323D01*
X204507Y650287D01*
X204491Y650275D01*
X204473Y650267D01*
X204405Y650213D01*
X204400Y650210D01*
X204394Y650203D01*
X204342Y650162D01*
X161232Y607052D01*
X161164Y606958D01*
X161094Y606863D01*
X161092Y606857D01*
X161088Y606852D01*
X161054Y606741D01*
X161018Y606629D01*
X161018Y606623D01*
X161016Y606617D01*
X161019Y606500D01*
X161020Y606384D01*
X161022Y606376D01*
X161022Y606371D01*
X161029Y606354D01*
X161067Y606222D01*
X161545Y605069D01*
X161545Y601431D01*
X160153Y598070D01*
X157580Y595497D01*
X154219Y594105D01*
X150581Y594105D01*
X147220Y595497D01*
X146080Y596637D01*
X146022Y596679D01*
X145970Y596728D01*
X145923Y596750D01*
X145881Y596781D01*
X145812Y596802D01*
X145747Y596832D01*
X145695Y596838D01*
X145645Y596853D01*
X145574Y596851D01*
X145503Y596859D01*
X145452Y596848D01*
X145400Y596847D01*
X145332Y596822D01*
X145262Y596807D01*
X145217Y596780D01*
X145169Y596762D01*
X145113Y596717D01*
X145051Y596681D01*
X145017Y596641D01*
X144977Y596609D01*
X144938Y596548D01*
X144891Y596494D01*
X144872Y596445D01*
X144844Y596402D01*
X144826Y596332D01*
X144799Y596266D01*
X144791Y596194D01*
X144783Y596163D01*
X144785Y596140D01*
X144781Y596099D01*
X144781Y594795D01*
X141829Y591843D01*
X141776Y591770D01*
X141716Y591700D01*
X141704Y591670D01*
X141685Y591644D01*
X141658Y591557D01*
X141624Y591472D01*
X141620Y591431D01*
X141613Y591409D01*
X141614Y591376D01*
X141606Y591305D01*
X141606Y551695D01*
X141620Y551605D01*
X141628Y551514D01*
X141640Y551484D01*
X141645Y551452D01*
X141688Y551371D01*
X141724Y551288D01*
X141750Y551255D01*
X141761Y551235D01*
X141784Y551213D01*
X141829Y551157D01*
X144781Y548205D01*
X144781Y508801D01*
X144792Y508730D01*
X144794Y508659D01*
X144812Y508610D01*
X144820Y508558D01*
X144854Y508495D01*
X144879Y508428D01*
X144911Y508387D01*
X144936Y508341D01*
X144988Y508292D01*
X145032Y508236D01*
X145076Y508207D01*
X145114Y508172D01*
X145179Y508141D01*
X145239Y508103D01*
X145290Y508090D01*
X145337Y508068D01*
X145408Y508060D01*
X145478Y508043D01*
X145530Y508047D01*
X145581Y508041D01*
X145652Y508056D01*
X145723Y508062D01*
X145771Y508082D01*
X145822Y508093D01*
X145883Y508130D01*
X145949Y508158D01*
X146005Y508203D01*
X146033Y508219D01*
X146048Y508237D01*
X146080Y508263D01*
X147220Y509403D01*
X150581Y510795D01*
X154219Y510795D01*
X157580Y509403D01*
X160153Y506830D01*
X161545Y503469D01*
X161545Y499831D01*
X161067Y498678D01*
X161040Y498564D01*
X161012Y498450D01*
X161012Y498444D01*
X161011Y498438D01*
X161022Y498322D01*
X161031Y498205D01*
X161033Y498200D01*
X161034Y498193D01*
X161082Y498086D01*
X161127Y497979D01*
X161132Y497973D01*
X161134Y497969D01*
X161147Y497955D01*
X161232Y497848D01*
X166350Y492730D01*
X168657Y490423D01*
X168657Y469177D01*
X168659Y469161D01*
X168658Y469148D01*
X168669Y469098D01*
X168670Y469035D01*
X168688Y468986D01*
X168696Y468934D01*
X168709Y468910D01*
X168710Y468907D01*
X168718Y468894D01*
X168730Y468871D01*
X168755Y468804D01*
X168787Y468763D01*
X168812Y468717D01*
X168864Y468668D01*
X168908Y468612D01*
X168952Y468583D01*
X168990Y468548D01*
X169055Y468517D01*
X169115Y468479D01*
X169166Y468466D01*
X169213Y468444D01*
X169284Y468436D01*
X169354Y468419D01*
X169406Y468423D01*
X169457Y468417D01*
X169528Y468432D01*
G37*
G36*
X70695Y549088D02*
X70695Y549088D01*
X70799Y549090D01*
X70818Y549097D01*
X70838Y549099D01*
X70933Y549139D01*
X71030Y549175D01*
X71046Y549187D01*
X71064Y549195D01*
X71195Y549300D01*
X71552Y549657D01*
X78232Y549657D01*
X78252Y549660D01*
X78271Y549658D01*
X78373Y549680D01*
X78475Y549696D01*
X78492Y549706D01*
X78512Y549710D01*
X78601Y549763D01*
X78692Y549812D01*
X78706Y549826D01*
X78723Y549836D01*
X78790Y549915D01*
X78862Y549990D01*
X78870Y550008D01*
X78883Y550023D01*
X78922Y550119D01*
X78965Y550213D01*
X78967Y550233D01*
X78975Y550251D01*
X78993Y550418D01*
X78993Y658698D01*
X125527Y705232D01*
X248793Y705232D01*
X248813Y705235D01*
X248832Y705233D01*
X248934Y705255D01*
X249036Y705271D01*
X249053Y705281D01*
X249073Y705285D01*
X249162Y705338D01*
X249253Y705387D01*
X249267Y705401D01*
X249284Y705411D01*
X249351Y705490D01*
X249423Y705565D01*
X249431Y705583D01*
X249444Y705598D01*
X249483Y705694D01*
X249526Y705788D01*
X249528Y705808D01*
X249536Y705826D01*
X249554Y705993D01*
X249554Y706366D01*
X250714Y709167D01*
X251701Y710154D01*
X251743Y710212D01*
X251793Y710264D01*
X251815Y710311D01*
X251845Y710353D01*
X251866Y710422D01*
X251896Y710487D01*
X251902Y710539D01*
X251917Y710589D01*
X251915Y710660D01*
X251923Y710731D01*
X251912Y710782D01*
X251911Y710834D01*
X251886Y710902D01*
X251871Y710972D01*
X251844Y711017D01*
X251827Y711065D01*
X251782Y711121D01*
X251745Y711183D01*
X251705Y711217D01*
X251673Y711257D01*
X251613Y711296D01*
X251558Y711343D01*
X251510Y711362D01*
X251466Y711390D01*
X251396Y711408D01*
X251330Y711435D01*
X251259Y711443D01*
X251227Y711451D01*
X251204Y711449D01*
X251163Y711453D01*
X56816Y711453D01*
X56726Y711439D01*
X56635Y711431D01*
X56605Y711419D01*
X56573Y711414D01*
X56492Y711371D01*
X56408Y711335D01*
X56376Y711309D01*
X56356Y711298D01*
X56333Y711275D01*
X56277Y711230D01*
X51079Y706032D01*
X51052Y705994D01*
X51018Y705963D01*
X50981Y705895D01*
X50935Y705832D01*
X50922Y705788D01*
X50899Y705748D01*
X50886Y705671D01*
X50863Y705597D01*
X50864Y705551D01*
X50856Y705506D01*
X50867Y705429D01*
X50869Y705351D01*
X50885Y705308D01*
X50892Y705262D01*
X50927Y705193D01*
X50954Y705120D01*
X50982Y705084D01*
X51003Y705043D01*
X51059Y704989D01*
X51107Y704928D01*
X51146Y704903D01*
X51179Y704871D01*
X51299Y704805D01*
X51314Y704795D01*
X51319Y704794D01*
X51326Y704790D01*
X53381Y703939D01*
X56239Y701081D01*
X57786Y697346D01*
X57786Y693304D01*
X56239Y689569D01*
X53945Y687275D01*
X53892Y687201D01*
X53832Y687132D01*
X53820Y687102D01*
X53801Y687075D01*
X53774Y686989D01*
X53740Y686904D01*
X53736Y686863D01*
X53729Y686840D01*
X53730Y686808D01*
X53722Y686737D01*
X53722Y652837D01*
X53244Y651683D01*
X53221Y651588D01*
X53193Y651495D01*
X53193Y651469D01*
X53187Y651443D01*
X53196Y651347D01*
X53199Y651249D01*
X53208Y651225D01*
X53210Y651199D01*
X53250Y651110D01*
X53283Y651018D01*
X53300Y650998D01*
X53310Y650974D01*
X53376Y650902D01*
X53437Y650826D01*
X53459Y650812D01*
X53477Y650793D01*
X53562Y650746D01*
X53644Y650693D01*
X53669Y650687D01*
X53692Y650674D01*
X53788Y650657D01*
X53883Y650633D01*
X53909Y650635D01*
X53934Y650630D01*
X54031Y650645D01*
X54128Y650652D01*
X54152Y650662D01*
X54178Y650666D01*
X54265Y650710D01*
X54354Y650748D01*
X54380Y650769D01*
X54397Y650778D01*
X54420Y650801D01*
X54485Y650853D01*
X55418Y651786D01*
X59900Y653643D01*
X64750Y653643D01*
X69232Y651786D01*
X72661Y648357D01*
X74518Y643875D01*
X74518Y639025D01*
X72661Y634543D01*
X69232Y631114D01*
X65067Y629388D01*
X65016Y629357D01*
X64961Y629334D01*
X64928Y629306D01*
X64892Y629287D01*
X64877Y629271D01*
X64858Y629259D01*
X64820Y629213D01*
X64774Y629174D01*
X64752Y629136D01*
X64725Y629107D01*
X64716Y629087D01*
X64701Y629069D01*
X64680Y629013D01*
X64649Y628962D01*
X64640Y628919D01*
X64623Y628882D01*
X64621Y628861D01*
X64613Y628840D01*
X64610Y628780D01*
X64598Y628721D01*
X64603Y628678D01*
X64599Y628638D01*
X64603Y628617D01*
X64602Y628594D01*
X64619Y628536D01*
X64626Y628477D01*
X64644Y628438D01*
X64653Y628398D01*
X64664Y628380D01*
X64671Y628358D01*
X64705Y628309D01*
X64730Y628254D01*
X64760Y628223D01*
X64782Y628188D01*
X64798Y628174D01*
X64811Y628156D01*
X64859Y628120D01*
X64900Y628077D01*
X64938Y628057D01*
X64970Y628030D01*
X64995Y628019D01*
X65008Y628009D01*
X65040Y627998D01*
X65109Y627967D01*
X65118Y627963D01*
X65121Y627962D01*
X65123Y627961D01*
X67005Y627349D01*
X68715Y626478D01*
X70268Y625350D01*
X71625Y623993D01*
X72753Y622440D01*
X73624Y620730D01*
X74218Y618905D01*
X74428Y617573D01*
X63087Y617573D01*
X63067Y617570D01*
X63048Y617572D01*
X62946Y617550D01*
X62844Y617533D01*
X62827Y617524D01*
X62807Y617520D01*
X62718Y617467D01*
X62627Y617418D01*
X62613Y617404D01*
X62596Y617394D01*
X62529Y617315D01*
X62458Y617240D01*
X62449Y617222D01*
X62436Y617207D01*
X62398Y617111D01*
X62354Y617017D01*
X62352Y616997D01*
X62344Y616979D01*
X62326Y616812D01*
X62326Y615288D01*
X62329Y615268D01*
X62327Y615249D01*
X62349Y615147D01*
X62366Y615045D01*
X62375Y615028D01*
X62379Y615008D01*
X62432Y614919D01*
X62481Y614828D01*
X62495Y614814D01*
X62505Y614797D01*
X62584Y614730D01*
X62659Y614659D01*
X62677Y614650D01*
X62692Y614637D01*
X62788Y614598D01*
X62882Y614555D01*
X62902Y614553D01*
X62920Y614545D01*
X63087Y614527D01*
X74428Y614527D01*
X74218Y613195D01*
X73624Y611370D01*
X72753Y609660D01*
X71625Y608107D01*
X70268Y606750D01*
X68715Y605622D01*
X67005Y604751D01*
X65123Y604139D01*
X65086Y604120D01*
X65045Y604109D01*
X64995Y604076D01*
X64940Y604051D01*
X64924Y604036D01*
X64905Y604026D01*
X64876Y603996D01*
X64840Y603973D01*
X64803Y603925D01*
X64759Y603885D01*
X64748Y603865D01*
X64733Y603850D01*
X64716Y603813D01*
X64689Y603778D01*
X64669Y603722D01*
X64641Y603669D01*
X64637Y603647D01*
X64627Y603628D01*
X64623Y603587D01*
X64608Y603546D01*
X64608Y603486D01*
X64597Y603427D01*
X64600Y603404D01*
X64598Y603383D01*
X64606Y603344D01*
X64606Y603300D01*
X64624Y603243D01*
X64633Y603184D01*
X64643Y603163D01*
X64648Y603143D01*
X64668Y603107D01*
X64682Y603066D01*
X64717Y603018D01*
X64744Y602965D01*
X64761Y602948D01*
X64772Y602930D01*
X64802Y602903D01*
X64828Y602869D01*
X64877Y602834D01*
X64920Y602793D01*
X64945Y602779D01*
X64957Y602768D01*
X64986Y602756D01*
X65003Y602747D01*
X65030Y602728D01*
X65045Y602724D01*
X65067Y602712D01*
X69232Y600986D01*
X72661Y597557D01*
X74518Y593075D01*
X74518Y588225D01*
X72661Y583743D01*
X69232Y580314D01*
X65224Y578653D01*
X65163Y578616D01*
X65097Y578586D01*
X65059Y578551D01*
X65015Y578524D01*
X64969Y578469D01*
X64916Y578420D01*
X64891Y578374D01*
X64858Y578334D01*
X64832Y578267D01*
X64797Y578204D01*
X64788Y578153D01*
X64770Y578105D01*
X64766Y578033D01*
X64754Y577962D01*
X64761Y577911D01*
X64759Y577859D01*
X64779Y577790D01*
X64790Y577719D01*
X64813Y577673D01*
X64828Y577623D01*
X64868Y577564D01*
X64901Y577500D01*
X64938Y577463D01*
X64968Y577421D01*
X65025Y577378D01*
X65077Y577328D01*
X65139Y577293D01*
X65165Y577274D01*
X65188Y577267D01*
X65224Y577247D01*
X69232Y575586D01*
X72661Y572157D01*
X74518Y567675D01*
X74518Y562825D01*
X72661Y558343D01*
X69232Y554914D01*
X65224Y553253D01*
X65163Y553216D01*
X65097Y553186D01*
X65059Y553151D01*
X65015Y553124D01*
X64969Y553069D01*
X64916Y553020D01*
X64891Y552974D01*
X64858Y552934D01*
X64832Y552867D01*
X64797Y552804D01*
X64788Y552753D01*
X64770Y552705D01*
X64766Y552633D01*
X64754Y552562D01*
X64761Y552511D01*
X64759Y552459D01*
X64779Y552390D01*
X64790Y552319D01*
X64813Y552273D01*
X64828Y552223D01*
X64868Y552164D01*
X64901Y552100D01*
X64938Y552063D01*
X64968Y552021D01*
X65025Y551978D01*
X65077Y551928D01*
X65139Y551893D01*
X65165Y551874D01*
X65188Y551867D01*
X65224Y551847D01*
X69232Y550186D01*
X70118Y549300D01*
X70135Y549288D01*
X70147Y549273D01*
X70234Y549217D01*
X70318Y549156D01*
X70337Y549150D01*
X70354Y549140D01*
X70454Y549114D01*
X70553Y549084D01*
X70573Y549084D01*
X70592Y549080D01*
X70695Y549088D01*
G37*
G36*
X3412Y288064D02*
X3412Y288064D01*
X3483Y288069D01*
X3531Y288089D01*
X3582Y288101D01*
X3643Y288137D01*
X3709Y288165D01*
X3765Y288210D01*
X3793Y288227D01*
X3808Y288245D01*
X3840Y288270D01*
X49909Y334339D01*
X49962Y334413D01*
X50022Y334483D01*
X50034Y334513D01*
X50053Y334539D01*
X50080Y334626D01*
X50114Y334711D01*
X50118Y334752D01*
X50125Y334774D01*
X50124Y334806D01*
X50132Y334878D01*
X50132Y339075D01*
X51989Y343557D01*
X55418Y346986D01*
X56108Y347272D01*
X56169Y347310D01*
X56234Y347339D01*
X56273Y347374D01*
X56317Y347402D01*
X56363Y347457D01*
X56415Y347505D01*
X56440Y347551D01*
X56474Y347591D01*
X56499Y347658D01*
X56534Y347721D01*
X56543Y347772D01*
X56562Y347821D01*
X56565Y347892D01*
X56578Y347963D01*
X56570Y348014D01*
X56572Y348066D01*
X56552Y348135D01*
X56542Y348206D01*
X56518Y348253D01*
X56504Y348303D01*
X56463Y348362D01*
X56430Y348426D01*
X56393Y348462D01*
X56363Y348505D01*
X56306Y348548D01*
X56255Y348598D01*
X56192Y348632D01*
X56166Y348652D01*
X56144Y348659D01*
X56108Y348679D01*
X53980Y349560D01*
X49835Y353705D01*
X47592Y359119D01*
X47592Y364981D01*
X49835Y370395D01*
X53651Y374212D01*
X53663Y374228D01*
X53679Y374240D01*
X53735Y374328D01*
X53795Y374411D01*
X53801Y374430D01*
X53812Y374447D01*
X53837Y374548D01*
X53867Y374647D01*
X53867Y374666D01*
X53872Y374686D01*
X53864Y374789D01*
X53861Y374892D01*
X53854Y374911D01*
X53853Y374931D01*
X53812Y375026D01*
X53777Y375123D01*
X53764Y375139D01*
X53756Y375157D01*
X53651Y375288D01*
X51084Y377855D01*
X51011Y377908D01*
X50941Y377968D01*
X50911Y377980D01*
X50885Y377999D01*
X50798Y378026D01*
X50713Y378060D01*
X50672Y378064D01*
X50650Y378071D01*
X50617Y378070D01*
X50546Y378078D01*
X30034Y378078D01*
X29919Y378059D01*
X29803Y378042D01*
X29797Y378040D01*
X29791Y378039D01*
X29688Y377984D01*
X29583Y377931D01*
X29579Y377926D01*
X29574Y377923D01*
X29494Y377839D01*
X29411Y377755D01*
X29408Y377749D01*
X29404Y377745D01*
X29396Y377728D01*
X29330Y377608D01*
X28202Y374885D01*
X25165Y371848D01*
X21197Y370204D01*
X16903Y370204D01*
X12935Y371848D01*
X9898Y374885D01*
X8254Y378853D01*
X8254Y383147D01*
X9898Y387115D01*
X12935Y390152D01*
X16903Y391796D01*
X21197Y391796D01*
X24737Y390330D01*
X24801Y390315D01*
X24861Y390290D01*
X24944Y390281D01*
X24976Y390274D01*
X24996Y390275D01*
X25028Y390272D01*
X28698Y390272D01*
X28743Y390279D01*
X28789Y390277D01*
X28864Y390299D01*
X28941Y390311D01*
X28981Y390333D01*
X29025Y390346D01*
X29089Y390390D01*
X29158Y390427D01*
X29190Y390460D01*
X29227Y390486D01*
X29274Y390549D01*
X29327Y390605D01*
X29347Y390647D01*
X29374Y390683D01*
X29398Y390757D01*
X29431Y390828D01*
X29436Y390874D01*
X29450Y390917D01*
X29450Y390995D01*
X29458Y391072D01*
X29448Y391117D01*
X29448Y391163D01*
X29410Y391295D01*
X29406Y391313D01*
X29403Y391317D01*
X29401Y391324D01*
X27939Y394854D01*
X27939Y398098D01*
X27925Y398188D01*
X27917Y398279D01*
X27905Y398309D01*
X27900Y398341D01*
X27857Y398422D01*
X27821Y398506D01*
X27795Y398538D01*
X27784Y398558D01*
X27761Y398581D01*
X27716Y398637D01*
X14462Y411891D01*
X14388Y411944D01*
X14318Y412004D01*
X14288Y412016D01*
X14262Y412035D01*
X14175Y412062D01*
X14090Y412096D01*
X14049Y412100D01*
X14027Y412107D01*
X13995Y412106D01*
X13923Y412114D01*
X10679Y412114D01*
X6944Y413661D01*
X4086Y416519D01*
X4005Y416715D01*
X3954Y416797D01*
X3908Y416883D01*
X3889Y416901D01*
X3876Y416924D01*
X3801Y416986D01*
X3730Y417053D01*
X3706Y417064D01*
X3686Y417081D01*
X3595Y417115D01*
X3507Y417156D01*
X3481Y417159D01*
X3457Y417169D01*
X3359Y417173D01*
X3263Y417184D01*
X3237Y417178D01*
X3211Y417179D01*
X3117Y417152D01*
X3022Y417131D01*
X3000Y417118D01*
X2975Y417111D01*
X2895Y417055D01*
X2811Y417005D01*
X2794Y416985D01*
X2773Y416970D01*
X2714Y416892D01*
X2651Y416818D01*
X2641Y416794D01*
X2626Y416773D01*
X2596Y416681D01*
X2559Y416590D01*
X2556Y416558D01*
X2550Y416539D01*
X2550Y416506D01*
X2541Y416423D01*
X2541Y288809D01*
X2552Y288738D01*
X2554Y288666D01*
X2572Y288617D01*
X2580Y288566D01*
X2614Y288502D01*
X2639Y288435D01*
X2671Y288394D01*
X2696Y288348D01*
X2748Y288299D01*
X2792Y288243D01*
X2836Y288215D01*
X2874Y288179D01*
X2939Y288149D01*
X2999Y288110D01*
X3050Y288097D01*
X3097Y288075D01*
X3168Y288067D01*
X3238Y288050D01*
X3290Y288054D01*
X3341Y288048D01*
X3412Y288064D01*
G37*
G36*
X3412Y596456D02*
X3412Y596456D01*
X3483Y596461D01*
X3531Y596482D01*
X3582Y596493D01*
X3643Y596529D01*
X3709Y596558D01*
X3765Y596602D01*
X3793Y596619D01*
X3808Y596637D01*
X3840Y596662D01*
X6380Y599202D01*
X6433Y599276D01*
X6493Y599346D01*
X6505Y599376D01*
X6524Y599402D01*
X6551Y599489D01*
X6585Y599574D01*
X6589Y599615D01*
X6596Y599637D01*
X6595Y599669D01*
X6603Y599741D01*
X6603Y633038D01*
X7531Y635279D01*
X9354Y637101D01*
X24657Y652404D01*
X24685Y652443D01*
X24721Y652477D01*
X24757Y652543D01*
X24800Y652603D01*
X24814Y652650D01*
X24838Y652693D01*
X24850Y652767D01*
X24872Y652838D01*
X24871Y652887D01*
X24879Y652936D01*
X24868Y653010D01*
X24866Y653084D01*
X24849Y653130D01*
X24842Y653179D01*
X24807Y653245D01*
X24782Y653315D01*
X24751Y653354D01*
X24728Y653397D01*
X24675Y653449D01*
X24628Y653507D01*
X24587Y653534D01*
X24551Y653568D01*
X24484Y653600D01*
X24421Y653640D01*
X24373Y653652D01*
X24329Y653673D01*
X24255Y653682D01*
X24182Y653700D01*
X24134Y653697D01*
X24085Y653702D01*
X24012Y653687D01*
X23937Y653681D01*
X23892Y653662D01*
X23844Y653652D01*
X23733Y653594D01*
X23711Y653585D01*
X23704Y653579D01*
X23695Y653575D01*
X22961Y653084D01*
X21458Y652462D01*
X20573Y652286D01*
X20573Y658877D01*
X27164Y658877D01*
X26988Y657992D01*
X26366Y656489D01*
X25875Y655755D01*
X25855Y655710D01*
X25826Y655670D01*
X25804Y655599D01*
X25773Y655531D01*
X25768Y655482D01*
X25754Y655435D01*
X25756Y655360D01*
X25748Y655286D01*
X25759Y655238D01*
X25760Y655189D01*
X25786Y655119D01*
X25802Y655046D01*
X25828Y655004D01*
X25845Y654958D01*
X25891Y654900D01*
X25930Y654836D01*
X25968Y654804D01*
X25998Y654766D01*
X26061Y654726D01*
X26119Y654678D01*
X26164Y654660D01*
X26205Y654633D01*
X26278Y654615D01*
X26347Y654588D01*
X26396Y654585D01*
X26444Y654573D01*
X26518Y654579D01*
X26593Y654575D01*
X26640Y654589D01*
X26689Y654592D01*
X26758Y654622D01*
X26830Y654642D01*
X26870Y654669D01*
X26915Y654689D01*
X27013Y654767D01*
X27033Y654780D01*
X27039Y654788D01*
X27046Y654793D01*
X28605Y656352D01*
X28658Y656426D01*
X28718Y656496D01*
X28730Y656526D01*
X28749Y656552D01*
X28776Y656639D01*
X28810Y656724D01*
X28814Y656765D01*
X28821Y656787D01*
X28820Y656819D01*
X28828Y656891D01*
X28828Y699713D01*
X29756Y701954D01*
X31579Y703776D01*
X49577Y721774D01*
X49589Y721790D01*
X49604Y721803D01*
X49660Y721890D01*
X49721Y721974D01*
X49727Y721993D01*
X49737Y722010D01*
X49763Y722110D01*
X49793Y722209D01*
X49793Y722229D01*
X49797Y722248D01*
X49789Y722351D01*
X49787Y722455D01*
X49780Y722474D01*
X49778Y722493D01*
X49738Y722588D01*
X49702Y722686D01*
X49690Y722702D01*
X49682Y722720D01*
X49577Y722851D01*
X21447Y750981D01*
X21373Y751034D01*
X21303Y751094D01*
X21273Y751106D01*
X21247Y751125D01*
X21160Y751152D01*
X21075Y751186D01*
X21034Y751190D01*
X21012Y751197D01*
X20980Y751196D01*
X20908Y751204D01*
X16903Y751204D01*
X12935Y752848D01*
X9898Y755885D01*
X8254Y759853D01*
X8254Y764147D01*
X9898Y768115D01*
X12642Y770860D01*
X12684Y770918D01*
X12733Y770970D01*
X12755Y771017D01*
X12786Y771059D01*
X12807Y771128D01*
X12837Y771193D01*
X12843Y771245D01*
X12858Y771295D01*
X12856Y771366D01*
X12864Y771437D01*
X12853Y771488D01*
X12852Y771540D01*
X12827Y771608D01*
X12812Y771678D01*
X12785Y771723D01*
X12767Y771771D01*
X12722Y771827D01*
X12686Y771889D01*
X12646Y771923D01*
X12614Y771963D01*
X12553Y772002D01*
X12499Y772049D01*
X12451Y772068D01*
X12407Y772096D01*
X12337Y772114D01*
X12271Y772141D01*
X12199Y772149D01*
X12168Y772157D01*
X12145Y772155D01*
X12104Y772159D01*
X3302Y772159D01*
X3282Y772156D01*
X3263Y772158D01*
X3161Y772136D01*
X3059Y772120D01*
X3042Y772110D01*
X3022Y772106D01*
X2933Y772053D01*
X2842Y772004D01*
X2828Y771990D01*
X2811Y771980D01*
X2744Y771901D01*
X2672Y771826D01*
X2664Y771808D01*
X2651Y771793D01*
X2612Y771697D01*
X2569Y771603D01*
X2567Y771583D01*
X2559Y771565D01*
X2541Y771398D01*
X2541Y597201D01*
X2552Y597130D01*
X2554Y597058D01*
X2572Y597009D01*
X2580Y596958D01*
X2614Y596895D01*
X2639Y596827D01*
X2671Y596787D01*
X2696Y596740D01*
X2748Y596691D01*
X2792Y596635D01*
X2836Y596607D01*
X2874Y596571D01*
X2939Y596541D01*
X2999Y596502D01*
X3050Y596489D01*
X3097Y596467D01*
X3168Y596460D01*
X3238Y596442D01*
X3290Y596446D01*
X3341Y596440D01*
X3412Y596456D01*
G37*
%LPC*%
G36*
X131051Y4825D02*
X131051Y4825D01*
X126803Y6585D01*
X123552Y9836D01*
X121792Y14084D01*
X121792Y36716D01*
X123552Y40964D01*
X126776Y44188D01*
X126829Y44262D01*
X126889Y44332D01*
X126901Y44362D01*
X126920Y44388D01*
X126947Y44475D01*
X126981Y44560D01*
X126985Y44601D01*
X126992Y44623D01*
X126991Y44655D01*
X126999Y44727D01*
X126999Y71113D01*
X127966Y73447D01*
X142453Y87934D01*
X144787Y88901D01*
X162154Y88901D01*
X162244Y88915D01*
X162335Y88923D01*
X162365Y88935D01*
X162397Y88940D01*
X162478Y88983D01*
X162561Y89019D01*
X162594Y89045D01*
X162614Y89056D01*
X162636Y89079D01*
X162692Y89124D01*
X199603Y126034D01*
X201650Y126882D01*
X201750Y126944D01*
X201849Y127003D01*
X201853Y127008D01*
X201859Y127011D01*
X201934Y127102D01*
X202009Y127190D01*
X202012Y127196D01*
X202016Y127201D01*
X202057Y127309D01*
X202101Y127418D01*
X202102Y127426D01*
X202104Y127431D01*
X202105Y127449D01*
X202120Y127585D01*
X202120Y134631D01*
X204218Y139695D01*
X208094Y143572D01*
X213159Y145670D01*
X218641Y145670D01*
X223706Y143572D01*
X227582Y139695D01*
X229680Y134631D01*
X229680Y106669D01*
X227582Y101605D01*
X223706Y97728D01*
X218641Y95630D01*
X213159Y95630D01*
X208094Y97728D01*
X204218Y101605D01*
X202120Y106669D01*
X202120Y108751D01*
X202108Y108821D01*
X202106Y108893D01*
X202088Y108942D01*
X202080Y108993D01*
X202046Y109057D01*
X202022Y109124D01*
X201989Y109165D01*
X201965Y109211D01*
X201913Y109260D01*
X201868Y109316D01*
X201824Y109344D01*
X201787Y109380D01*
X201722Y109410D01*
X201661Y109449D01*
X201611Y109462D01*
X201564Y109484D01*
X201492Y109492D01*
X201423Y109509D01*
X201371Y109505D01*
X201319Y109511D01*
X201249Y109496D01*
X201178Y109490D01*
X201130Y109470D01*
X201079Y109459D01*
X201017Y109422D01*
X200951Y109394D01*
X200895Y109349D01*
X200868Y109332D01*
X200852Y109315D01*
X200820Y109289D01*
X168697Y77166D01*
X166363Y76199D01*
X148996Y76199D01*
X148906Y76185D01*
X148815Y76177D01*
X148785Y76165D01*
X148753Y76160D01*
X148672Y76117D01*
X148589Y76081D01*
X148556Y76055D01*
X148536Y76044D01*
X148514Y76021D01*
X148458Y75976D01*
X139924Y67442D01*
X139871Y67368D01*
X139811Y67299D01*
X139799Y67269D01*
X139780Y67243D01*
X139753Y67156D01*
X139719Y67071D01*
X139715Y67030D01*
X139708Y67008D01*
X139709Y66975D01*
X139701Y66904D01*
X139701Y44727D01*
X139715Y44637D01*
X139723Y44546D01*
X139735Y44516D01*
X139740Y44484D01*
X139783Y44403D01*
X139819Y44319D01*
X139845Y44287D01*
X139856Y44267D01*
X139879Y44244D01*
X139924Y44188D01*
X143148Y40964D01*
X144908Y36716D01*
X144908Y14084D01*
X143148Y9836D01*
X139897Y6585D01*
X135649Y4825D01*
X131051Y4825D01*
G37*
%LPD*%
%LPC*%
G36*
X353958Y544194D02*
X353958Y544194D01*
X350923Y545451D01*
X348601Y547773D01*
X347344Y550808D01*
X347344Y554092D01*
X348601Y557127D01*
X350923Y559449D01*
X353958Y560706D01*
X357242Y560706D01*
X357892Y560437D01*
X358006Y560410D01*
X358119Y560381D01*
X358125Y560382D01*
X358131Y560380D01*
X358248Y560391D01*
X358364Y560400D01*
X358370Y560403D01*
X358376Y560403D01*
X358484Y560451D01*
X358591Y560497D01*
X358596Y560501D01*
X358601Y560503D01*
X358615Y560516D01*
X358722Y560602D01*
X367695Y569575D01*
X367748Y569649D01*
X367808Y569719D01*
X367820Y569749D01*
X367839Y569775D01*
X367866Y569862D01*
X367900Y569947D01*
X367904Y569988D01*
X367911Y570010D01*
X367910Y570042D01*
X367918Y570114D01*
X367918Y633857D01*
X367915Y633877D01*
X367917Y633896D01*
X367895Y633998D01*
X367879Y634100D01*
X367869Y634117D01*
X367865Y634137D01*
X367812Y634226D01*
X367763Y634317D01*
X367749Y634331D01*
X367739Y634348D01*
X367660Y634415D01*
X367585Y634487D01*
X367567Y634495D01*
X367552Y634508D01*
X367456Y634547D01*
X367362Y634590D01*
X367342Y634592D01*
X367324Y634600D01*
X367157Y634618D01*
X350952Y634618D01*
X301243Y684327D01*
X301243Y691916D01*
X301229Y692006D01*
X301221Y692097D01*
X301209Y692127D01*
X301204Y692159D01*
X301161Y692240D01*
X301125Y692323D01*
X301099Y692356D01*
X301088Y692376D01*
X301065Y692398D01*
X301020Y692454D01*
X299464Y694011D01*
X298164Y697150D01*
X298164Y712550D01*
X299464Y715689D01*
X301867Y718092D01*
X305006Y719392D01*
X308404Y719392D01*
X311543Y718092D01*
X314053Y715582D01*
X314111Y715541D01*
X314132Y715523D01*
X314203Y715463D01*
X314204Y715463D01*
X314238Y715449D01*
X314253Y715439D01*
X314309Y715421D01*
X314333Y715412D01*
X314432Y715373D01*
X314433Y715373D01*
X314473Y715371D01*
X314488Y715366D01*
X314538Y715367D01*
X314545Y715367D01*
X314678Y715360D01*
X314720Y715372D01*
X314734Y715373D01*
X314777Y715388D01*
X314785Y715391D01*
X314915Y715427D01*
X314952Y715452D01*
X314965Y715457D01*
X315001Y715486D01*
X315020Y715499D01*
X315118Y715566D01*
X315119Y715567D01*
X315153Y715608D01*
X315157Y715611D01*
X315161Y715616D01*
X315226Y715694D01*
X315628Y716296D01*
X316818Y717485D01*
X318217Y718420D01*
X319771Y719064D01*
X320739Y719257D01*
X320739Y705612D01*
X320742Y705592D01*
X320740Y705573D01*
X320762Y705471D01*
X320779Y705369D01*
X320788Y705352D01*
X320793Y705332D01*
X320846Y705243D01*
X320894Y705152D01*
X320909Y705138D01*
X320919Y705121D01*
X320997Y705054D01*
X321072Y704983D01*
X321090Y704974D01*
X321106Y704961D01*
X321202Y704923D01*
X321296Y704879D01*
X321315Y704877D01*
X321334Y704869D01*
X321501Y704851D01*
X323024Y704851D01*
X323044Y704854D01*
X323064Y704852D01*
X323165Y704874D01*
X323267Y704891D01*
X323285Y704900D01*
X323304Y704904D01*
X323393Y704957D01*
X323485Y705006D01*
X323498Y705020D01*
X323515Y705030D01*
X323583Y705109D01*
X323654Y705184D01*
X323662Y705202D01*
X323675Y705217D01*
X323714Y705313D01*
X323758Y705407D01*
X323760Y705427D01*
X323767Y705445D01*
X323786Y705612D01*
X323786Y719257D01*
X324754Y719064D01*
X326308Y718420D01*
X327707Y717485D01*
X328897Y716296D01*
X329299Y715694D01*
X329393Y715594D01*
X329424Y715555D01*
X329437Y715547D01*
X329467Y715514D01*
X329574Y715456D01*
X329593Y715446D01*
X329631Y715422D01*
X329644Y715418D01*
X329683Y715398D01*
X329683Y715397D01*
X329809Y715376D01*
X329824Y715373D01*
X329869Y715362D01*
X329883Y715363D01*
X329925Y715356D01*
X329926Y715356D01*
X330031Y715372D01*
X330063Y715377D01*
X330115Y715381D01*
X330129Y715387D01*
X330169Y715393D01*
X330256Y715439D01*
X330284Y715453D01*
X330341Y715477D01*
X330360Y715492D01*
X330387Y715506D01*
X330387Y715507D01*
X330420Y715541D01*
X330472Y715582D01*
X332982Y718092D01*
X336121Y719392D01*
X339519Y719392D01*
X342658Y718092D01*
X345060Y715690D01*
X345077Y715678D01*
X345089Y715663D01*
X345176Y715607D01*
X345260Y715546D01*
X345279Y715540D01*
X345296Y715530D01*
X345396Y715504D01*
X345495Y715474D01*
X345515Y715474D01*
X345535Y715470D01*
X345637Y715478D01*
X345741Y715480D01*
X345760Y715487D01*
X345780Y715489D01*
X345875Y715529D01*
X345972Y715565D01*
X345988Y715577D01*
X346006Y715585D01*
X346137Y715690D01*
X348539Y718092D01*
X351678Y719392D01*
X355077Y719392D01*
X358216Y718092D01*
X360619Y715689D01*
X361919Y712550D01*
X361919Y697150D01*
X360619Y694011D01*
X358216Y691608D01*
X355077Y690308D01*
X351678Y690308D01*
X348539Y691608D01*
X346137Y694010D01*
X346121Y694022D01*
X346108Y694037D01*
X346021Y694094D01*
X345937Y694154D01*
X345918Y694160D01*
X345901Y694170D01*
X345801Y694196D01*
X345702Y694226D01*
X345682Y694226D01*
X345663Y694230D01*
X345560Y694222D01*
X345456Y694220D01*
X345438Y694213D01*
X345418Y694211D01*
X345323Y694171D01*
X345225Y694135D01*
X345210Y694123D01*
X345191Y694115D01*
X345060Y694010D01*
X342658Y691608D01*
X339519Y690308D01*
X336121Y690308D01*
X332982Y691608D01*
X330472Y694118D01*
X330414Y694159D01*
X330406Y694166D01*
X330322Y694237D01*
X330321Y694237D01*
X330287Y694251D01*
X330272Y694261D01*
X330216Y694279D01*
X330192Y694288D01*
X330093Y694327D01*
X330092Y694327D01*
X330052Y694329D01*
X330037Y694334D01*
X329987Y694333D01*
X329980Y694333D01*
X329847Y694340D01*
X329805Y694328D01*
X329791Y694327D01*
X329748Y694312D01*
X329730Y694307D01*
X329610Y694273D01*
X329573Y694248D01*
X329560Y694243D01*
X329524Y694214D01*
X329493Y694193D01*
X329407Y694134D01*
X329406Y694133D01*
X329372Y694092D01*
X329368Y694089D01*
X329364Y694084D01*
X329299Y694006D01*
X328897Y693404D01*
X327707Y692215D01*
X326308Y691280D01*
X324754Y690636D01*
X323786Y690443D01*
X323786Y704088D01*
X323782Y704108D01*
X323785Y704127D01*
X323763Y704229D01*
X323746Y704331D01*
X323737Y704348D01*
X323732Y704368D01*
X323679Y704457D01*
X323631Y704548D01*
X323616Y704562D01*
X323606Y704579D01*
X323528Y704646D01*
X323453Y704717D01*
X323434Y704726D01*
X323419Y704739D01*
X323323Y704777D01*
X323229Y704821D01*
X323210Y704823D01*
X323191Y704831D01*
X323024Y704849D01*
X321501Y704849D01*
X321481Y704846D01*
X321461Y704848D01*
X321360Y704826D01*
X321258Y704809D01*
X321240Y704800D01*
X321221Y704796D01*
X321132Y704743D01*
X321040Y704694D01*
X321027Y704680D01*
X321010Y704670D01*
X320942Y704591D01*
X320871Y704516D01*
X320863Y704498D01*
X320850Y704483D01*
X320811Y704387D01*
X320767Y704293D01*
X320765Y704273D01*
X320758Y704255D01*
X320739Y704088D01*
X320739Y690443D01*
X319771Y690636D01*
X318217Y691280D01*
X316818Y692215D01*
X315628Y693404D01*
X315226Y694006D01*
X315136Y694102D01*
X315132Y694106D01*
X315101Y694145D01*
X315088Y694153D01*
X315058Y694186D01*
X314956Y694241D01*
X314932Y694254D01*
X314894Y694278D01*
X314881Y694282D01*
X314842Y694302D01*
X314842Y694303D01*
X314716Y694324D01*
X314701Y694327D01*
X314656Y694338D01*
X314642Y694337D01*
X314600Y694344D01*
X314599Y694344D01*
X314490Y694327D01*
X314462Y694323D01*
X314410Y694319D01*
X314396Y694313D01*
X314356Y694307D01*
X314267Y694261D01*
X314241Y694247D01*
X314184Y694223D01*
X314165Y694208D01*
X314138Y694194D01*
X314138Y694193D01*
X314105Y694159D01*
X314053Y694118D01*
X311543Y691608D01*
X308827Y690483D01*
X308727Y690421D01*
X308627Y690361D01*
X308623Y690357D01*
X308618Y690353D01*
X308543Y690264D01*
X308467Y690174D01*
X308465Y690169D01*
X308461Y690164D01*
X308419Y690056D01*
X308375Y689946D01*
X308374Y689939D01*
X308373Y689934D01*
X308372Y689916D01*
X308357Y689780D01*
X308357Y687589D01*
X308371Y687498D01*
X308379Y687408D01*
X308391Y687378D01*
X308396Y687346D01*
X308439Y687265D01*
X308475Y687181D01*
X308501Y687149D01*
X308512Y687128D01*
X308535Y687106D01*
X308580Y687050D01*
X353675Y641955D01*
X353749Y641902D01*
X353819Y641842D01*
X353849Y641830D01*
X353875Y641811D01*
X353962Y641784D01*
X354047Y641750D01*
X354088Y641746D01*
X354110Y641739D01*
X354142Y641740D01*
X354214Y641732D01*
X372948Y641732D01*
X375032Y639648D01*
X375032Y566852D01*
X372725Y564545D01*
X363752Y555572D01*
X363683Y555476D01*
X363614Y555383D01*
X363612Y555377D01*
X363608Y555372D01*
X363574Y555260D01*
X363537Y555149D01*
X363538Y555143D01*
X363536Y555137D01*
X363539Y555020D01*
X363540Y554903D01*
X363542Y554896D01*
X363542Y554891D01*
X363548Y554873D01*
X363587Y554742D01*
X363856Y554092D01*
X363856Y550808D01*
X362599Y547773D01*
X360277Y545451D01*
X357242Y544194D01*
X353958Y544194D01*
G37*
%LPD*%
G36*
X17240Y442623D02*
X17240Y442623D01*
X17318Y442625D01*
X17361Y442641D01*
X17407Y442648D01*
X17476Y442683D01*
X17549Y442710D01*
X17585Y442738D01*
X17626Y442759D01*
X17680Y442815D01*
X17741Y442863D01*
X17766Y442902D01*
X17798Y442935D01*
X17864Y443054D01*
X17874Y443070D01*
X17875Y443075D01*
X17879Y443082D01*
X18939Y445642D01*
X21058Y447760D01*
X21072Y447779D01*
X21089Y447794D01*
X21143Y447879D01*
X21202Y447960D01*
X21208Y447982D01*
X21221Y448002D01*
X21244Y448099D01*
X21274Y448195D01*
X21273Y448218D01*
X21279Y448241D01*
X21270Y448341D01*
X21268Y448441D01*
X21260Y448463D01*
X21258Y448486D01*
X21218Y448578D01*
X21183Y448672D01*
X21169Y448690D01*
X21160Y448711D01*
X21092Y448786D01*
X21030Y448864D01*
X21010Y448877D01*
X20995Y448894D01*
X20907Y448943D01*
X20823Y448997D01*
X20800Y449003D01*
X20780Y449014D01*
X20681Y449033D01*
X20584Y449057D01*
X20573Y449056D01*
X20573Y455677D01*
X27164Y455677D01*
X26988Y454792D01*
X26366Y453289D01*
X25463Y451937D01*
X24313Y450787D01*
X23643Y450340D01*
X23626Y450324D01*
X23606Y450313D01*
X23537Y450241D01*
X23463Y450172D01*
X23452Y450152D01*
X23436Y450135D01*
X23394Y450044D01*
X23346Y449956D01*
X23343Y449933D01*
X23333Y449912D01*
X23322Y449812D01*
X23305Y449713D01*
X23308Y449690D01*
X23306Y449668D01*
X23327Y449569D01*
X23343Y449470D01*
X23353Y449450D01*
X23358Y449427D01*
X23410Y449341D01*
X23456Y449252D01*
X23472Y449236D01*
X23484Y449216D01*
X23560Y449151D01*
X23633Y449081D01*
X23654Y449071D01*
X23671Y449056D01*
X23764Y449019D01*
X23855Y448976D01*
X23878Y448973D01*
X23899Y448964D01*
X24066Y448946D01*
X26916Y448946D01*
X29717Y447786D01*
X31861Y445642D01*
X31981Y445352D01*
X32042Y445252D01*
X32102Y445152D01*
X32107Y445148D01*
X32110Y445143D01*
X32200Y445068D01*
X32289Y444992D01*
X32295Y444990D01*
X32300Y444986D01*
X32408Y444944D01*
X32517Y444900D01*
X32525Y444899D01*
X32529Y444898D01*
X32548Y444897D01*
X32684Y444882D01*
X33136Y444882D01*
X33227Y444896D01*
X33317Y444904D01*
X33347Y444916D01*
X33379Y444921D01*
X33460Y444964D01*
X33544Y445000D01*
X33576Y445026D01*
X33597Y445037D01*
X33619Y445060D01*
X33675Y445105D01*
X37495Y448925D01*
X37548Y448999D01*
X37608Y449069D01*
X37620Y449099D01*
X37639Y449125D01*
X37666Y449212D01*
X37700Y449297D01*
X37704Y449338D01*
X37711Y449360D01*
X37710Y449392D01*
X37718Y449464D01*
X37718Y547958D01*
X37707Y548029D01*
X37705Y548101D01*
X37687Y548150D01*
X37679Y548201D01*
X37645Y548264D01*
X37620Y548332D01*
X37588Y548372D01*
X37563Y548419D01*
X37511Y548468D01*
X37467Y548524D01*
X37423Y548552D01*
X37385Y548588D01*
X37320Y548618D01*
X37260Y548657D01*
X37209Y548670D01*
X37162Y548692D01*
X37091Y548699D01*
X37021Y548717D01*
X36969Y548713D01*
X36918Y548719D01*
X36847Y548703D01*
X36776Y548698D01*
X36728Y548677D01*
X36677Y548666D01*
X36616Y548630D01*
X36550Y548601D01*
X36494Y548557D01*
X36466Y548540D01*
X36451Y548522D01*
X36419Y548497D01*
X35096Y547174D01*
X22504Y534581D01*
X20263Y533653D01*
X13208Y533653D01*
X13188Y533650D01*
X13169Y533652D01*
X13067Y533630D01*
X12965Y533614D01*
X12948Y533604D01*
X12928Y533600D01*
X12839Y533547D01*
X12748Y533498D01*
X12734Y533484D01*
X12717Y533474D01*
X12650Y533395D01*
X12578Y533320D01*
X12570Y533302D01*
X12557Y533287D01*
X12518Y533191D01*
X12475Y533097D01*
X12473Y533077D01*
X12465Y533059D01*
X12447Y532892D01*
X12447Y489510D01*
X12458Y489439D01*
X12460Y489367D01*
X12478Y489318D01*
X12486Y489267D01*
X12520Y489204D01*
X12545Y489136D01*
X12577Y489096D01*
X12602Y489050D01*
X12653Y489000D01*
X12698Y488944D01*
X12742Y488916D01*
X12780Y488880D01*
X12845Y488850D01*
X12905Y488811D01*
X12956Y488799D01*
X13003Y488777D01*
X13074Y488769D01*
X13144Y488751D01*
X13196Y488755D01*
X13247Y488750D01*
X13318Y488765D01*
X13389Y488771D01*
X13437Y488791D01*
X13488Y488802D01*
X13549Y488839D01*
X13615Y488867D01*
X13671Y488912D01*
X13699Y488928D01*
X13714Y488946D01*
X13746Y488972D01*
X13787Y489013D01*
X15139Y489916D01*
X16642Y490538D01*
X17527Y490714D01*
X17527Y483362D01*
X17530Y483342D01*
X17528Y483323D01*
X17550Y483221D01*
X17567Y483119D01*
X17576Y483102D01*
X17580Y483082D01*
X17633Y482993D01*
X17682Y482902D01*
X17696Y482888D01*
X17706Y482871D01*
X17785Y482804D01*
X17860Y482733D01*
X17878Y482724D01*
X17893Y482711D01*
X17989Y482673D01*
X18083Y482629D01*
X18103Y482627D01*
X18121Y482619D01*
X18288Y482601D01*
X19051Y482601D01*
X19051Y482599D01*
X18288Y482599D01*
X18268Y482596D01*
X18249Y482598D01*
X18147Y482576D01*
X18045Y482559D01*
X18028Y482550D01*
X18008Y482546D01*
X17919Y482493D01*
X17828Y482444D01*
X17814Y482430D01*
X17797Y482420D01*
X17730Y482341D01*
X17659Y482266D01*
X17650Y482248D01*
X17637Y482233D01*
X17598Y482137D01*
X17555Y482043D01*
X17553Y482023D01*
X17545Y482005D01*
X17527Y481838D01*
X17527Y474486D01*
X16642Y474662D01*
X15139Y475284D01*
X13787Y476187D01*
X13746Y476228D01*
X13688Y476270D01*
X13636Y476320D01*
X13589Y476342D01*
X13547Y476372D01*
X13478Y476393D01*
X13413Y476423D01*
X13361Y476429D01*
X13312Y476444D01*
X13240Y476442D01*
X13169Y476450D01*
X13118Y476439D01*
X13066Y476438D01*
X12998Y476413D01*
X12928Y476398D01*
X12883Y476371D01*
X12835Y476354D01*
X12779Y476309D01*
X12717Y476272D01*
X12683Y476232D01*
X12643Y476200D01*
X12604Y476140D01*
X12557Y476085D01*
X12538Y476037D01*
X12510Y475993D01*
X12492Y475923D01*
X12465Y475857D01*
X12457Y475786D01*
X12449Y475754D01*
X12451Y475731D01*
X12447Y475690D01*
X12447Y464110D01*
X12458Y464039D01*
X12460Y463967D01*
X12478Y463918D01*
X12486Y463867D01*
X12520Y463804D01*
X12545Y463736D01*
X12577Y463696D01*
X12602Y463650D01*
X12653Y463600D01*
X12698Y463544D01*
X12742Y463516D01*
X12780Y463480D01*
X12845Y463450D01*
X12905Y463411D01*
X12956Y463399D01*
X13003Y463377D01*
X13074Y463369D01*
X13144Y463351D01*
X13196Y463355D01*
X13247Y463350D01*
X13318Y463365D01*
X13389Y463371D01*
X13437Y463391D01*
X13488Y463402D01*
X13549Y463439D01*
X13615Y463467D01*
X13671Y463512D01*
X13699Y463528D01*
X13714Y463546D01*
X13746Y463572D01*
X13787Y463613D01*
X15139Y464516D01*
X16642Y465138D01*
X17527Y465314D01*
X17527Y457962D01*
X17530Y457942D01*
X17528Y457923D01*
X17550Y457821D01*
X17567Y457719D01*
X17576Y457702D01*
X17580Y457682D01*
X17633Y457593D01*
X17682Y457502D01*
X17696Y457488D01*
X17706Y457471D01*
X17785Y457404D01*
X17860Y457333D01*
X17878Y457324D01*
X17893Y457311D01*
X17989Y457272D01*
X18083Y457229D01*
X18103Y457227D01*
X18121Y457219D01*
X18288Y457201D01*
X19051Y457201D01*
X19051Y457199D01*
X18288Y457199D01*
X18268Y457196D01*
X18249Y457198D01*
X18147Y457176D01*
X18045Y457159D01*
X18028Y457150D01*
X18008Y457146D01*
X17919Y457093D01*
X17828Y457044D01*
X17814Y457030D01*
X17797Y457020D01*
X17730Y456941D01*
X17659Y456866D01*
X17650Y456848D01*
X17637Y456833D01*
X17598Y456737D01*
X17555Y456643D01*
X17553Y456623D01*
X17545Y456605D01*
X17527Y456438D01*
X17527Y449086D01*
X16642Y449262D01*
X15139Y449884D01*
X13787Y450787D01*
X13746Y450828D01*
X13688Y450870D01*
X13636Y450920D01*
X13589Y450942D01*
X13547Y450972D01*
X13478Y450993D01*
X13413Y451023D01*
X13361Y451029D01*
X13312Y451044D01*
X13240Y451042D01*
X13169Y451050D01*
X13118Y451039D01*
X13066Y451038D01*
X12998Y451013D01*
X12928Y450998D01*
X12883Y450971D01*
X12835Y450954D01*
X12779Y450909D01*
X12717Y450872D01*
X12683Y450832D01*
X12643Y450800D01*
X12604Y450740D01*
X12557Y450685D01*
X12538Y450637D01*
X12510Y450593D01*
X12492Y450523D01*
X12465Y450457D01*
X12457Y450386D01*
X12449Y450354D01*
X12451Y450331D01*
X12447Y450290D01*
X12447Y447341D01*
X12461Y447251D01*
X12469Y447160D01*
X12481Y447130D01*
X12486Y447098D01*
X12529Y447017D01*
X12565Y446933D01*
X12591Y446901D01*
X12602Y446881D01*
X12625Y446858D01*
X12670Y446802D01*
X16637Y442835D01*
X16675Y442808D01*
X16706Y442774D01*
X16774Y442736D01*
X16837Y442691D01*
X16881Y442678D01*
X16921Y442655D01*
X16998Y442642D01*
X17072Y442619D01*
X17118Y442620D01*
X17163Y442612D01*
X17240Y442623D01*
G37*
%LPC*%
G36*
X23622Y130936D02*
X23622Y130936D01*
X19397Y132686D01*
X16164Y135920D01*
X14414Y140144D01*
X14414Y162624D01*
X16164Y166848D01*
X19397Y170082D01*
X23622Y171832D01*
X28194Y171832D01*
X32419Y170082D01*
X35652Y166848D01*
X37402Y162624D01*
X37402Y161745D01*
X37414Y161674D01*
X37416Y161603D01*
X37434Y161554D01*
X37442Y161502D01*
X37476Y161439D01*
X37500Y161372D01*
X37533Y161331D01*
X37557Y161285D01*
X37609Y161236D01*
X37654Y161180D01*
X37698Y161151D01*
X37735Y161116D01*
X37800Y161085D01*
X37861Y161047D01*
X37911Y161034D01*
X37958Y161012D01*
X38030Y161004D01*
X38099Y160986D01*
X38151Y160991D01*
X38203Y160985D01*
X38273Y161000D01*
X38344Y161006D01*
X38392Y161026D01*
X38443Y161037D01*
X38505Y161074D01*
X38571Y161102D01*
X38627Y161147D01*
X38654Y161163D01*
X38670Y161181D01*
X38702Y161207D01*
X58852Y181357D01*
X119029Y181357D01*
X119143Y181376D01*
X119260Y181393D01*
X119265Y181395D01*
X119271Y181396D01*
X119374Y181451D01*
X119479Y181504D01*
X119483Y181509D01*
X119489Y181512D01*
X119569Y181596D01*
X119651Y181680D01*
X119655Y181686D01*
X119658Y181690D01*
X119666Y181707D01*
X119732Y181827D01*
X120001Y182477D01*
X122323Y184799D01*
X125358Y186056D01*
X128642Y186056D01*
X131677Y184799D01*
X133999Y182477D01*
X135256Y179442D01*
X135256Y176158D01*
X133999Y173123D01*
X131677Y170801D01*
X128642Y169544D01*
X125358Y169544D01*
X122323Y170801D01*
X120001Y173123D01*
X119732Y173773D01*
X119671Y173872D01*
X119610Y173973D01*
X119606Y173977D01*
X119602Y173982D01*
X119512Y174057D01*
X119424Y174133D01*
X119418Y174135D01*
X119413Y174139D01*
X119304Y174181D01*
X119195Y174225D01*
X119188Y174226D01*
X119183Y174227D01*
X119165Y174228D01*
X119029Y174243D01*
X62114Y174243D01*
X62023Y174229D01*
X61933Y174221D01*
X61903Y174209D01*
X61871Y174204D01*
X61790Y174161D01*
X61706Y174125D01*
X61674Y174099D01*
X61653Y174088D01*
X61631Y174065D01*
X61575Y174020D01*
X38705Y151150D01*
X37625Y150070D01*
X37572Y149996D01*
X37513Y149927D01*
X37501Y149897D01*
X37482Y149871D01*
X37455Y149783D01*
X37421Y149699D01*
X37416Y149658D01*
X37409Y149635D01*
X37410Y149603D01*
X37402Y149532D01*
X37402Y140144D01*
X35652Y135920D01*
X32419Y132686D01*
X28194Y130936D01*
X23622Y130936D01*
G37*
%LPD*%
%LPC*%
G36*
X150581Y302005D02*
X150581Y302005D01*
X147220Y303397D01*
X144647Y305970D01*
X143255Y309331D01*
X143255Y312969D01*
X144647Y316330D01*
X147220Y318903D01*
X150581Y320295D01*
X154219Y320295D01*
X156427Y319380D01*
X156471Y319370D01*
X156513Y319350D01*
X156590Y319342D01*
X156666Y319324D01*
X156712Y319328D01*
X156757Y319323D01*
X156834Y319340D01*
X156911Y319347D01*
X156953Y319366D01*
X156998Y319376D01*
X157065Y319416D01*
X157136Y319447D01*
X157170Y319478D01*
X157209Y319502D01*
X157260Y319561D01*
X157317Y319614D01*
X157339Y319654D01*
X157369Y319689D01*
X157398Y319761D01*
X157435Y319829D01*
X157444Y319874D01*
X157461Y319917D01*
X157476Y320053D01*
X157479Y320071D01*
X157478Y320076D01*
X157479Y320084D01*
X157479Y322191D01*
X157599Y322481D01*
X157626Y322594D01*
X157655Y322708D01*
X157654Y322714D01*
X157656Y322720D01*
X157645Y322837D01*
X157636Y322953D01*
X157633Y322959D01*
X157633Y322965D01*
X157584Y323073D01*
X157539Y323180D01*
X157535Y323185D01*
X157533Y323190D01*
X157520Y323204D01*
X157434Y323311D01*
X138450Y342295D01*
X138376Y342348D01*
X138306Y342408D01*
X138276Y342420D01*
X138250Y342439D01*
X138163Y342466D01*
X138078Y342500D01*
X138037Y342504D01*
X138015Y342511D01*
X137983Y342510D01*
X137911Y342518D01*
X115234Y342518D01*
X115119Y342499D01*
X115003Y342482D01*
X114997Y342480D01*
X114991Y342479D01*
X114889Y342424D01*
X114784Y342371D01*
X114779Y342366D01*
X114774Y342363D01*
X114694Y342279D01*
X114612Y342195D01*
X114608Y342189D01*
X114605Y342185D01*
X114597Y342168D01*
X114531Y342048D01*
X114411Y341758D01*
X112267Y339614D01*
X109466Y338454D01*
X106434Y338454D01*
X103633Y339614D01*
X101489Y341758D01*
X100329Y344559D01*
X100329Y347591D01*
X101489Y350392D01*
X102900Y351803D01*
X102953Y351876D01*
X103013Y351946D01*
X103025Y351976D01*
X103044Y352002D01*
X103071Y352089D01*
X103105Y352174D01*
X103109Y352215D01*
X103116Y352237D01*
X103115Y352270D01*
X103123Y352341D01*
X103123Y360427D01*
X110745Y360427D01*
X110745Y355012D01*
X110572Y354365D01*
X110480Y354207D01*
X110456Y354142D01*
X110422Y354081D01*
X110412Y354028D01*
X110393Y353977D01*
X110391Y353908D01*
X110378Y353839D01*
X110386Y353785D01*
X110384Y353731D01*
X110404Y353664D01*
X110414Y353596D01*
X110439Y353547D01*
X110454Y353495D01*
X110494Y353438D01*
X110526Y353376D01*
X110564Y353338D01*
X110595Y353294D01*
X110651Y353253D01*
X110701Y353204D01*
X110767Y353168D01*
X110793Y353148D01*
X110814Y353142D01*
X110848Y353123D01*
X112267Y352536D01*
X114411Y350392D01*
X114531Y350102D01*
X114592Y350002D01*
X114652Y349902D01*
X114657Y349898D01*
X114660Y349893D01*
X114750Y349818D01*
X114839Y349742D01*
X114845Y349740D01*
X114850Y349736D01*
X114958Y349694D01*
X115067Y349650D01*
X115075Y349649D01*
X115079Y349648D01*
X115098Y349647D01*
X115234Y349632D01*
X141173Y349632D01*
X162464Y328341D01*
X162559Y328273D01*
X162653Y328203D01*
X162659Y328201D01*
X162664Y328197D01*
X162776Y328163D01*
X162887Y328126D01*
X162893Y328127D01*
X162899Y328125D01*
X163016Y328128D01*
X163133Y328129D01*
X163140Y328131D01*
X163145Y328131D01*
X163163Y328137D01*
X163294Y328176D01*
X163584Y328296D01*
X166616Y328296D01*
X169417Y327136D01*
X171561Y324992D01*
X172721Y322191D01*
X172721Y320084D01*
X172728Y320038D01*
X172726Y319992D01*
X172748Y319918D01*
X172760Y319841D01*
X172782Y319800D01*
X172795Y319756D01*
X172839Y319692D01*
X172876Y319623D01*
X172909Y319592D01*
X172935Y319554D01*
X172998Y319508D01*
X173054Y319454D01*
X173096Y319435D01*
X173132Y319407D01*
X173206Y319383D01*
X173277Y319350D01*
X173323Y319345D01*
X173366Y319331D01*
X173444Y319332D01*
X173521Y319323D01*
X173566Y319333D01*
X173612Y319334D01*
X173744Y319372D01*
X173762Y319376D01*
X173766Y319378D01*
X173773Y319380D01*
X175981Y320295D01*
X179619Y320295D01*
X182980Y318903D01*
X185553Y316330D01*
X186945Y312969D01*
X186945Y309331D01*
X185553Y305970D01*
X182980Y303397D01*
X179619Y302005D01*
X175981Y302005D01*
X172620Y303397D01*
X170047Y305970D01*
X168655Y309331D01*
X168655Y312760D01*
X168648Y312805D01*
X168650Y312851D01*
X168628Y312926D01*
X168616Y313002D01*
X168594Y313043D01*
X168581Y313087D01*
X168537Y313151D01*
X168500Y313220D01*
X168467Y313251D01*
X168441Y313289D01*
X168379Y313336D01*
X168322Y313389D01*
X168280Y313409D01*
X168244Y313436D01*
X168170Y313460D01*
X168099Y313493D01*
X168053Y313498D01*
X168010Y313512D01*
X167932Y313511D01*
X167855Y313520D01*
X167810Y313510D01*
X167764Y313510D01*
X167632Y313472D01*
X167614Y313468D01*
X167610Y313465D01*
X167603Y313463D01*
X166616Y313054D01*
X163584Y313054D01*
X162597Y313463D01*
X162553Y313474D01*
X162511Y313493D01*
X162434Y313501D01*
X162358Y313519D01*
X162312Y313515D01*
X162267Y313520D01*
X162190Y313503D01*
X162113Y313496D01*
X162071Y313477D01*
X162026Y313468D01*
X161959Y313428D01*
X161888Y313396D01*
X161854Y313365D01*
X161815Y313342D01*
X161764Y313282D01*
X161707Y313230D01*
X161685Y313189D01*
X161655Y313155D01*
X161626Y313082D01*
X161589Y313014D01*
X161580Y312969D01*
X161563Y312926D01*
X161548Y312791D01*
X161545Y312772D01*
X161546Y312767D01*
X161545Y312760D01*
X161545Y309331D01*
X160153Y305970D01*
X157580Y303397D01*
X154219Y302005D01*
X150581Y302005D01*
G37*
%LPD*%
%LPC*%
G36*
X283009Y95630D02*
X283009Y95630D01*
X277944Y97728D01*
X274068Y101605D01*
X271970Y106669D01*
X271970Y134631D01*
X274068Y139695D01*
X277944Y143572D01*
X283009Y145670D01*
X288491Y145670D01*
X293556Y143572D01*
X297432Y139695D01*
X299530Y134631D01*
X299530Y106669D01*
X297432Y101605D01*
X293556Y97728D01*
X288491Y95630D01*
X283009Y95630D01*
G37*
%LPD*%
%LPC*%
G36*
X352859Y95630D02*
X352859Y95630D01*
X347794Y97728D01*
X343918Y101605D01*
X341820Y106669D01*
X341820Y134631D01*
X343918Y139695D01*
X347794Y143572D01*
X352859Y145670D01*
X358341Y145670D01*
X363406Y143572D01*
X367282Y139695D01*
X369380Y134631D01*
X369380Y106669D01*
X367282Y101605D01*
X363406Y97728D01*
X358341Y95630D01*
X352859Y95630D01*
G37*
%LPD*%
G36*
X38718Y574195D02*
X38718Y574195D01*
X38789Y574200D01*
X38837Y574220D01*
X38888Y574232D01*
X38949Y574268D01*
X39015Y574296D01*
X39071Y574341D01*
X39099Y574358D01*
X39114Y574376D01*
X39146Y574401D01*
X40025Y575280D01*
X50604Y585859D01*
X50672Y585953D01*
X50742Y586047D01*
X50744Y586053D01*
X50747Y586058D01*
X50781Y586169D01*
X50818Y586281D01*
X50818Y586287D01*
X50820Y586293D01*
X50817Y586410D01*
X50816Y586458D01*
X50816Y586459D01*
X50816Y586460D01*
X50815Y586527D01*
X50813Y586534D01*
X50813Y586539D01*
X50807Y586557D01*
X50769Y586688D01*
X50132Y588225D01*
X50132Y593075D01*
X51989Y597557D01*
X55418Y600986D01*
X59583Y602712D01*
X59634Y602743D01*
X59689Y602766D01*
X59722Y602794D01*
X59758Y602813D01*
X59773Y602829D01*
X59792Y602841D01*
X59830Y602887D01*
X59876Y602926D01*
X59898Y602964D01*
X59925Y602993D01*
X59934Y603013D01*
X59949Y603031D01*
X59970Y603087D01*
X60001Y603138D01*
X60010Y603181D01*
X60027Y603218D01*
X60029Y603239D01*
X60037Y603260D01*
X60040Y603320D01*
X60052Y603379D01*
X60047Y603422D01*
X60051Y603462D01*
X60047Y603483D01*
X60048Y603506D01*
X60031Y603564D01*
X60024Y603623D01*
X60006Y603662D01*
X59997Y603702D01*
X59986Y603720D01*
X59979Y603742D01*
X59945Y603791D01*
X59920Y603846D01*
X59890Y603877D01*
X59868Y603912D01*
X59852Y603926D01*
X59839Y603944D01*
X59791Y603980D01*
X59750Y604023D01*
X59712Y604043D01*
X59680Y604070D01*
X59655Y604081D01*
X59642Y604091D01*
X59610Y604102D01*
X59541Y604133D01*
X59532Y604137D01*
X59529Y604138D01*
X59527Y604139D01*
X57645Y604751D01*
X55935Y605622D01*
X54382Y606750D01*
X53025Y608107D01*
X51897Y609660D01*
X51026Y611370D01*
X50432Y613195D01*
X50222Y614527D01*
X61563Y614527D01*
X61583Y614530D01*
X61602Y614528D01*
X61704Y614550D01*
X61806Y614567D01*
X61823Y614576D01*
X61843Y614580D01*
X61932Y614633D01*
X62023Y614682D01*
X62037Y614696D01*
X62054Y614706D01*
X62121Y614785D01*
X62192Y614860D01*
X62201Y614878D01*
X62214Y614893D01*
X62252Y614989D01*
X62296Y615083D01*
X62298Y615103D01*
X62306Y615121D01*
X62324Y615288D01*
X62324Y616812D01*
X62321Y616832D01*
X62323Y616851D01*
X62301Y616953D01*
X62284Y617055D01*
X62275Y617072D01*
X62271Y617092D01*
X62218Y617181D01*
X62169Y617272D01*
X62155Y617286D01*
X62145Y617303D01*
X62066Y617370D01*
X61991Y617441D01*
X61973Y617450D01*
X61958Y617463D01*
X61862Y617502D01*
X61768Y617545D01*
X61748Y617547D01*
X61730Y617555D01*
X61563Y617573D01*
X50222Y617573D01*
X50432Y618905D01*
X51026Y620730D01*
X51897Y622440D01*
X53025Y623993D01*
X54382Y625350D01*
X55935Y626478D01*
X57645Y627349D01*
X59527Y627961D01*
X59564Y627980D01*
X59605Y627991D01*
X59655Y628024D01*
X59710Y628049D01*
X59726Y628064D01*
X59745Y628074D01*
X59774Y628104D01*
X59810Y628127D01*
X59847Y628175D01*
X59891Y628215D01*
X59902Y628235D01*
X59917Y628250D01*
X59934Y628287D01*
X59961Y628322D01*
X59981Y628378D01*
X60009Y628431D01*
X60013Y628453D01*
X60023Y628472D01*
X60027Y628513D01*
X60042Y628554D01*
X60042Y628614D01*
X60053Y628673D01*
X60050Y628696D01*
X60052Y628717D01*
X60044Y628756D01*
X60044Y628800D01*
X60026Y628857D01*
X60017Y628916D01*
X60007Y628937D01*
X60002Y628957D01*
X59982Y628993D01*
X59968Y629034D01*
X59933Y629082D01*
X59906Y629135D01*
X59889Y629152D01*
X59878Y629170D01*
X59848Y629197D01*
X59822Y629231D01*
X59773Y629266D01*
X59730Y629307D01*
X59705Y629321D01*
X59693Y629332D01*
X59664Y629344D01*
X59647Y629353D01*
X59620Y629372D01*
X59605Y629376D01*
X59583Y629388D01*
X55418Y631114D01*
X51989Y634543D01*
X50132Y639025D01*
X50132Y643875D01*
X51539Y647270D01*
X51561Y647365D01*
X51589Y647458D01*
X51589Y647484D01*
X51595Y647510D01*
X51586Y647607D01*
X51583Y647704D01*
X51574Y647729D01*
X51572Y647755D01*
X51532Y647844D01*
X51499Y647935D01*
X51482Y647955D01*
X51472Y647979D01*
X51406Y648051D01*
X51345Y648127D01*
X51323Y648141D01*
X51305Y648160D01*
X51220Y648207D01*
X51138Y648260D01*
X51113Y648266D01*
X51090Y648279D01*
X50994Y648296D01*
X50899Y648320D01*
X50873Y648318D01*
X50848Y648323D01*
X50751Y648309D01*
X50654Y648301D01*
X50630Y648291D01*
X50604Y648287D01*
X50517Y648243D01*
X50428Y648205D01*
X50402Y648184D01*
X50385Y648175D01*
X50362Y648152D01*
X50297Y648100D01*
X38070Y635873D01*
X38017Y635799D01*
X37957Y635729D01*
X37945Y635699D01*
X37926Y635673D01*
X37899Y635586D01*
X37865Y635501D01*
X37861Y635460D01*
X37854Y635438D01*
X37855Y635406D01*
X37847Y635334D01*
X37847Y574940D01*
X37858Y574869D01*
X37860Y574797D01*
X37878Y574748D01*
X37886Y574697D01*
X37920Y574633D01*
X37945Y574566D01*
X37977Y574525D01*
X38002Y574479D01*
X38054Y574430D01*
X38098Y574374D01*
X38142Y574346D01*
X38180Y574310D01*
X38245Y574280D01*
X38305Y574241D01*
X38356Y574228D01*
X38403Y574206D01*
X38474Y574198D01*
X38544Y574181D01*
X38596Y574185D01*
X38647Y574179D01*
X38718Y574195D01*
G37*
%LPC*%
G36*
X23622Y5968D02*
X23622Y5968D01*
X19397Y7718D01*
X16164Y10952D01*
X14414Y15176D01*
X14414Y37656D01*
X16164Y41880D01*
X19397Y45114D01*
X23622Y46864D01*
X28194Y46864D01*
X32419Y45114D01*
X35652Y41880D01*
X37402Y37656D01*
X37402Y15176D01*
X35652Y10952D01*
X32419Y7718D01*
X28194Y5968D01*
X23622Y5968D01*
G37*
%LPD*%
%LPC*%
G36*
X73406Y5968D02*
X73406Y5968D01*
X69181Y7718D01*
X65948Y10952D01*
X64198Y15176D01*
X64198Y37656D01*
X65948Y41880D01*
X69181Y45114D01*
X73406Y46864D01*
X77978Y46864D01*
X82203Y45114D01*
X85436Y41880D01*
X87186Y37656D01*
X87186Y15176D01*
X85436Y10952D01*
X82203Y7718D01*
X77978Y5968D01*
X73406Y5968D01*
G37*
%LPD*%
%LPC*%
G36*
X352568Y734059D02*
X352568Y734059D01*
X346967Y736380D01*
X342680Y740667D01*
X340359Y746268D01*
X340359Y752332D01*
X342680Y757933D01*
X346967Y762220D01*
X352568Y764541D01*
X358632Y764541D01*
X364233Y762220D01*
X368520Y757933D01*
X370841Y752332D01*
X370841Y746268D01*
X368520Y740667D01*
X364233Y736380D01*
X358632Y734059D01*
X352568Y734059D01*
G37*
%LPD*%
%LPC*%
G36*
X28718Y226059D02*
X28718Y226059D01*
X23117Y228380D01*
X18830Y232667D01*
X16509Y238268D01*
X16509Y244332D01*
X18830Y249933D01*
X23117Y254220D01*
X28718Y256541D01*
X34782Y256541D01*
X40383Y254220D01*
X44670Y249933D01*
X46991Y244332D01*
X46991Y238268D01*
X44670Y232667D01*
X40383Y228380D01*
X34782Y226059D01*
X28718Y226059D01*
G37*
%LPD*%
%LPC*%
G36*
X327168Y156209D02*
X327168Y156209D01*
X321567Y158530D01*
X317280Y162817D01*
X314959Y168418D01*
X314959Y174482D01*
X317280Y180083D01*
X321567Y184370D01*
X327168Y186691D01*
X333232Y186691D01*
X338833Y184370D01*
X343120Y180083D01*
X345441Y174482D01*
X345441Y168418D01*
X343120Y162817D01*
X338833Y158530D01*
X333232Y156209D01*
X327168Y156209D01*
G37*
%LPD*%
%LPC*%
G36*
X346103Y196334D02*
X346103Y196334D01*
X342412Y197863D01*
X339588Y200687D01*
X338059Y204378D01*
X338059Y208372D01*
X339588Y212063D01*
X342412Y214887D01*
X346103Y216416D01*
X365097Y216416D01*
X368788Y214887D01*
X371612Y212063D01*
X373141Y208372D01*
X373141Y204378D01*
X371612Y200687D01*
X368788Y197863D01*
X365097Y196334D01*
X346103Y196334D01*
G37*
%LPD*%
%LPC*%
G36*
X179941Y675639D02*
X179941Y675639D01*
X173989Y681591D01*
X173989Y690009D01*
X179941Y695961D01*
X188359Y695961D01*
X194311Y690009D01*
X194311Y681591D01*
X188359Y675639D01*
X179941Y675639D01*
G37*
%LPD*%
%LPC*%
G36*
X179941Y650239D02*
X179941Y650239D01*
X173989Y656191D01*
X173989Y664609D01*
X179941Y670561D01*
X188359Y670561D01*
X194311Y664609D01*
X194311Y656191D01*
X188359Y650239D01*
X179941Y650239D01*
G37*
%LPD*%
%LPC*%
G36*
X125181Y352805D02*
X125181Y352805D01*
X121820Y354197D01*
X119247Y356770D01*
X117855Y360131D01*
X117855Y363769D01*
X119247Y367130D01*
X121820Y369703D01*
X125181Y371095D01*
X128819Y371095D01*
X132180Y369703D01*
X134753Y367130D01*
X136145Y363769D01*
X136145Y360131D01*
X134753Y356770D01*
X132180Y354197D01*
X128819Y352805D01*
X125181Y352805D01*
G37*
%LPD*%
%LPC*%
G36*
X226781Y302005D02*
X226781Y302005D01*
X223420Y303397D01*
X220847Y305970D01*
X219455Y309331D01*
X219455Y312969D01*
X220847Y316330D01*
X223420Y318903D01*
X226781Y320295D01*
X230419Y320295D01*
X233780Y318903D01*
X236353Y316330D01*
X237745Y312969D01*
X237745Y309331D01*
X236353Y305970D01*
X233780Y303397D01*
X230419Y302005D01*
X226781Y302005D01*
G37*
%LPD*%
%LPC*%
G36*
X252181Y352805D02*
X252181Y352805D01*
X248820Y354197D01*
X246247Y356770D01*
X244855Y360131D01*
X244855Y363769D01*
X246247Y367130D01*
X248820Y369703D01*
X252181Y371095D01*
X255819Y371095D01*
X259180Y369703D01*
X261753Y367130D01*
X263145Y363769D01*
X263145Y360131D01*
X261753Y356770D01*
X259180Y354197D01*
X255819Y352805D01*
X252181Y352805D01*
G37*
%LPD*%
%LPC*%
G36*
X201381Y302005D02*
X201381Y302005D01*
X198020Y303397D01*
X195447Y305970D01*
X194055Y309331D01*
X194055Y312969D01*
X195447Y316330D01*
X198020Y318903D01*
X201381Y320295D01*
X205019Y320295D01*
X208380Y318903D01*
X210953Y316330D01*
X212345Y312969D01*
X212345Y309331D01*
X210953Y305970D01*
X208380Y303397D01*
X205019Y302005D01*
X201381Y302005D01*
G37*
%LPD*%
%LPC*%
G36*
X175981Y594105D02*
X175981Y594105D01*
X172620Y595497D01*
X170047Y598070D01*
X168655Y601431D01*
X168655Y605069D01*
X170047Y608430D01*
X172620Y611003D01*
X175981Y612395D01*
X179619Y612395D01*
X182980Y611003D01*
X185553Y608430D01*
X186945Y605069D01*
X186945Y601431D01*
X185553Y598070D01*
X182980Y595497D01*
X179619Y594105D01*
X175981Y594105D01*
G37*
%LPD*%
%LPC*%
G36*
X277581Y352805D02*
X277581Y352805D01*
X274220Y354197D01*
X271647Y356770D01*
X270255Y360131D01*
X270255Y363769D01*
X271647Y367130D01*
X274220Y369703D01*
X277581Y371095D01*
X281219Y371095D01*
X284580Y369703D01*
X287153Y367130D01*
X288545Y363769D01*
X288545Y360131D01*
X287153Y356770D01*
X284580Y354197D01*
X281219Y352805D01*
X277581Y352805D01*
G37*
%LPD*%
%LPC*%
G36*
X125181Y200405D02*
X125181Y200405D01*
X121820Y201797D01*
X119247Y204370D01*
X117855Y207731D01*
X117855Y211369D01*
X119247Y214730D01*
X121820Y217303D01*
X125181Y218695D01*
X128819Y218695D01*
X132180Y217303D01*
X134753Y214730D01*
X136145Y211369D01*
X136145Y207731D01*
X134753Y204370D01*
X132180Y201797D01*
X128819Y200405D01*
X125181Y200405D01*
G37*
%LPD*%
%LPC*%
G36*
X150581Y200405D02*
X150581Y200405D01*
X147220Y201797D01*
X144647Y204370D01*
X143255Y207731D01*
X143255Y211369D01*
X144647Y214730D01*
X147220Y217303D01*
X150581Y218695D01*
X154219Y218695D01*
X157580Y217303D01*
X160153Y214730D01*
X161545Y211369D01*
X161545Y207731D01*
X160153Y204370D01*
X157580Y201797D01*
X154219Y200405D01*
X150581Y200405D01*
G37*
%LPD*%
%LPC*%
G36*
X175981Y200405D02*
X175981Y200405D01*
X172620Y201797D01*
X170047Y204370D01*
X168655Y207731D01*
X168655Y211369D01*
X170047Y214730D01*
X172620Y217303D01*
X175981Y218695D01*
X179619Y218695D01*
X182980Y217303D01*
X185553Y214730D01*
X186945Y211369D01*
X186945Y207731D01*
X185553Y204370D01*
X182980Y201797D01*
X179619Y200405D01*
X175981Y200405D01*
G37*
%LPD*%
%LPC*%
G36*
X201381Y200405D02*
X201381Y200405D01*
X198020Y201797D01*
X195447Y204370D01*
X194055Y207731D01*
X194055Y211369D01*
X195447Y214730D01*
X198020Y217303D01*
X201381Y218695D01*
X205019Y218695D01*
X208380Y217303D01*
X210953Y214730D01*
X212345Y211369D01*
X212345Y207731D01*
X210953Y204370D01*
X208380Y201797D01*
X205019Y200405D01*
X201381Y200405D01*
G37*
%LPD*%
%LPC*%
G36*
X277581Y200405D02*
X277581Y200405D01*
X274220Y201797D01*
X271647Y204370D01*
X270255Y207731D01*
X270255Y211369D01*
X271647Y214730D01*
X274220Y217303D01*
X277581Y218695D01*
X281219Y218695D01*
X284580Y217303D01*
X287153Y214730D01*
X288545Y211369D01*
X288545Y207731D01*
X287153Y204370D01*
X284580Y201797D01*
X281219Y200405D01*
X277581Y200405D01*
G37*
%LPD*%
%LPC*%
G36*
X226781Y352805D02*
X226781Y352805D01*
X223420Y354197D01*
X220847Y356770D01*
X219455Y360131D01*
X219455Y363769D01*
X220847Y367130D01*
X223420Y369703D01*
X226781Y371095D01*
X230419Y371095D01*
X233780Y369703D01*
X236353Y367130D01*
X237745Y363769D01*
X237745Y360131D01*
X236353Y356770D01*
X233780Y354197D01*
X230419Y352805D01*
X226781Y352805D01*
G37*
%LPD*%
%LPC*%
G36*
X157108Y93344D02*
X157108Y93344D01*
X154073Y94601D01*
X151751Y96923D01*
X150494Y99958D01*
X150494Y103242D01*
X151751Y106277D01*
X154073Y108599D01*
X157108Y109856D01*
X160392Y109856D01*
X163427Y108599D01*
X165749Y106277D01*
X167006Y103242D01*
X167006Y99958D01*
X165749Y96923D01*
X163427Y94601D01*
X160392Y93344D01*
X157108Y93344D01*
G37*
%LPD*%
%LPC*%
G36*
X353958Y442594D02*
X353958Y442594D01*
X350923Y443851D01*
X348601Y446173D01*
X347344Y449208D01*
X347344Y452492D01*
X348601Y455527D01*
X350923Y457849D01*
X353958Y459106D01*
X357242Y459106D01*
X360277Y457849D01*
X362599Y455527D01*
X363856Y452492D01*
X363856Y449208D01*
X362599Y446173D01*
X360277Y443851D01*
X357242Y442594D01*
X353958Y442594D01*
G37*
%LPD*%
%LPC*%
G36*
X353958Y645794D02*
X353958Y645794D01*
X350923Y647051D01*
X348601Y649373D01*
X347344Y652408D01*
X347344Y655692D01*
X348601Y658727D01*
X350923Y661049D01*
X353958Y662306D01*
X357242Y662306D01*
X360277Y661049D01*
X362599Y658727D01*
X363856Y655692D01*
X363856Y652408D01*
X362599Y649373D01*
X360277Y647051D01*
X357242Y645794D01*
X353958Y645794D01*
G37*
%LPD*%
%LPC*%
G36*
X353958Y366394D02*
X353958Y366394D01*
X350923Y367651D01*
X348601Y369973D01*
X347344Y373008D01*
X347344Y376292D01*
X348601Y379327D01*
X350923Y381649D01*
X353958Y382906D01*
X357242Y382906D01*
X360277Y381649D01*
X362599Y379327D01*
X363856Y376292D01*
X363856Y373008D01*
X362599Y369973D01*
X360277Y367651D01*
X357242Y366394D01*
X353958Y366394D01*
G37*
%LPD*%
%LPC*%
G36*
X160273Y26923D02*
X160273Y26923D01*
X160273Y45878D01*
X161456Y45690D01*
X163187Y45128D01*
X164808Y44302D01*
X166279Y43233D01*
X167566Y41946D01*
X168635Y40475D01*
X169461Y38854D01*
X170023Y37123D01*
X170308Y35327D01*
X170308Y26923D01*
X160273Y26923D01*
G37*
%LPD*%
%LPC*%
G36*
X160273Y23877D02*
X160273Y23877D01*
X170308Y23877D01*
X170308Y15473D01*
X170023Y13677D01*
X169461Y11946D01*
X168635Y10325D01*
X167566Y8854D01*
X166279Y7567D01*
X164808Y6498D01*
X163187Y5672D01*
X161456Y5110D01*
X160273Y4922D01*
X160273Y23877D01*
G37*
%LPD*%
%LPC*%
G36*
X147192Y26923D02*
X147192Y26923D01*
X147192Y35327D01*
X147477Y37123D01*
X148039Y38854D01*
X148865Y40475D01*
X149934Y41946D01*
X151221Y43233D01*
X152692Y44302D01*
X154313Y45128D01*
X156044Y45690D01*
X157227Y45878D01*
X157227Y26923D01*
X147192Y26923D01*
G37*
%LPD*%
%LPC*%
G36*
X156044Y5110D02*
X156044Y5110D01*
X154313Y5672D01*
X152692Y6498D01*
X151221Y7567D01*
X149934Y8854D01*
X148865Y10325D01*
X148039Y11946D01*
X147477Y13677D01*
X147192Y15473D01*
X147192Y23877D01*
X157227Y23877D01*
X157227Y4922D01*
X156044Y5110D01*
G37*
%LPD*%
%LPC*%
G36*
X103123Y503173D02*
X103123Y503173D01*
X103123Y510795D01*
X108538Y510795D01*
X109185Y510622D01*
X109764Y510287D01*
X110237Y509814D01*
X110572Y509235D01*
X110745Y508588D01*
X110745Y503173D01*
X103123Y503173D01*
G37*
%LPD*%
%LPC*%
G36*
X103123Y363473D02*
X103123Y363473D01*
X103123Y371095D01*
X108538Y371095D01*
X109185Y370922D01*
X109764Y370587D01*
X110237Y370114D01*
X110572Y369535D01*
X110745Y368888D01*
X110745Y363473D01*
X103123Y363473D01*
G37*
%LPD*%
%LPC*%
G36*
X103123Y465073D02*
X103123Y465073D01*
X103123Y472695D01*
X108538Y472695D01*
X109185Y472522D01*
X109764Y472187D01*
X110237Y471714D01*
X110572Y471135D01*
X110745Y470488D01*
X110745Y465073D01*
X103123Y465073D01*
G37*
%LPD*%
%LPC*%
G36*
X103123Y211073D02*
X103123Y211073D01*
X103123Y218695D01*
X108538Y218695D01*
X109185Y218522D01*
X109764Y218187D01*
X110237Y217714D01*
X110572Y217135D01*
X110745Y216488D01*
X110745Y211073D01*
X103123Y211073D01*
G37*
%LPD*%
%LPC*%
G36*
X103123Y604773D02*
X103123Y604773D01*
X103123Y612395D01*
X108538Y612395D01*
X109185Y612222D01*
X109764Y611887D01*
X110237Y611414D01*
X110572Y610835D01*
X110745Y610188D01*
X110745Y604773D01*
X103123Y604773D01*
G37*
%LPD*%
%LPC*%
G36*
X103123Y312673D02*
X103123Y312673D01*
X103123Y320295D01*
X108538Y320295D01*
X109185Y320122D01*
X109764Y319787D01*
X110237Y319314D01*
X110572Y318735D01*
X110745Y318088D01*
X110745Y312673D01*
X103123Y312673D01*
G37*
%LPD*%
%LPC*%
G36*
X92455Y503173D02*
X92455Y503173D01*
X92455Y508588D01*
X92628Y509235D01*
X92963Y509814D01*
X93436Y510287D01*
X94015Y510622D01*
X94662Y510795D01*
X100077Y510795D01*
X100077Y503173D01*
X92455Y503173D01*
G37*
%LPD*%
%LPC*%
G36*
X92455Y211073D02*
X92455Y211073D01*
X92455Y216488D01*
X92628Y217135D01*
X92963Y217714D01*
X93436Y218187D01*
X94015Y218522D01*
X94662Y218695D01*
X100077Y218695D01*
X100077Y211073D01*
X92455Y211073D01*
G37*
%LPD*%
%LPC*%
G36*
X103123Y302005D02*
X103123Y302005D01*
X103123Y309627D01*
X110745Y309627D01*
X110745Y304212D01*
X110572Y303565D01*
X110237Y302986D01*
X109764Y302513D01*
X109185Y302178D01*
X108538Y302005D01*
X103123Y302005D01*
G37*
%LPD*%
%LPC*%
G36*
X103123Y454405D02*
X103123Y454405D01*
X103123Y462027D01*
X110745Y462027D01*
X110745Y456612D01*
X110572Y455965D01*
X110237Y455386D01*
X109764Y454913D01*
X109185Y454578D01*
X108538Y454405D01*
X103123Y454405D01*
G37*
%LPD*%
%LPC*%
G36*
X92455Y465073D02*
X92455Y465073D01*
X92455Y470488D01*
X92628Y471135D01*
X92963Y471714D01*
X93436Y472187D01*
X94015Y472522D01*
X94662Y472695D01*
X100077Y472695D01*
X100077Y465073D01*
X92455Y465073D01*
G37*
%LPD*%
%LPC*%
G36*
X103123Y492505D02*
X103123Y492505D01*
X103123Y500127D01*
X110745Y500127D01*
X110745Y494712D01*
X110572Y494065D01*
X110237Y493486D01*
X109764Y493013D01*
X109185Y492678D01*
X108538Y492505D01*
X103123Y492505D01*
G37*
%LPD*%
%LPC*%
G36*
X103123Y200405D02*
X103123Y200405D01*
X103123Y208027D01*
X110745Y208027D01*
X110745Y202612D01*
X110572Y201965D01*
X110237Y201386D01*
X109764Y200913D01*
X109185Y200578D01*
X108538Y200405D01*
X103123Y200405D01*
G37*
%LPD*%
%LPC*%
G36*
X103123Y594105D02*
X103123Y594105D01*
X103123Y601727D01*
X110745Y601727D01*
X110745Y596312D01*
X110572Y595665D01*
X110237Y595086D01*
X109764Y594613D01*
X109185Y594278D01*
X108538Y594105D01*
X103123Y594105D01*
G37*
%LPD*%
%LPC*%
G36*
X92455Y363473D02*
X92455Y363473D01*
X92455Y368888D01*
X92628Y369535D01*
X92963Y370114D01*
X93436Y370587D01*
X94015Y370922D01*
X94662Y371095D01*
X100077Y371095D01*
X100077Y363473D01*
X92455Y363473D01*
G37*
%LPD*%
%LPC*%
G36*
X92455Y312673D02*
X92455Y312673D01*
X92455Y318088D01*
X92628Y318735D01*
X92963Y319314D01*
X93436Y319787D01*
X94015Y320122D01*
X94662Y320295D01*
X100077Y320295D01*
X100077Y312673D01*
X92455Y312673D01*
G37*
%LPD*%
%LPC*%
G36*
X94662Y302005D02*
X94662Y302005D01*
X94015Y302178D01*
X93436Y302513D01*
X92963Y302986D01*
X92628Y303565D01*
X92455Y304212D01*
X92455Y309627D01*
X100077Y309627D01*
X100077Y302005D01*
X94662Y302005D01*
G37*
%LPD*%
%LPC*%
G36*
X94662Y454405D02*
X94662Y454405D01*
X94015Y454578D01*
X93436Y454913D01*
X92963Y455386D01*
X92628Y455965D01*
X92455Y456612D01*
X92455Y462027D01*
X100077Y462027D01*
X100077Y454405D01*
X94662Y454405D01*
G37*
%LPD*%
%LPC*%
G36*
X94662Y352805D02*
X94662Y352805D01*
X94015Y352978D01*
X93436Y353313D01*
X92963Y353786D01*
X92628Y354365D01*
X92455Y355012D01*
X92455Y360427D01*
X100077Y360427D01*
X100077Y352805D01*
X94662Y352805D01*
G37*
%LPD*%
%LPC*%
G36*
X94662Y492505D02*
X94662Y492505D01*
X94015Y492678D01*
X93436Y493013D01*
X92963Y493486D01*
X92628Y494065D01*
X92455Y494712D01*
X92455Y500127D01*
X100077Y500127D01*
X100077Y492505D01*
X94662Y492505D01*
G37*
%LPD*%
%LPC*%
G36*
X94662Y200405D02*
X94662Y200405D01*
X94015Y200578D01*
X93436Y200913D01*
X92963Y201386D01*
X92628Y201965D01*
X92455Y202612D01*
X92455Y208027D01*
X100077Y208027D01*
X100077Y200405D01*
X94662Y200405D01*
G37*
%LPD*%
%LPC*%
G36*
X20573Y661923D02*
X20573Y661923D01*
X20573Y668514D01*
X21458Y668338D01*
X22961Y667716D01*
X24313Y666813D01*
X25463Y665663D01*
X26366Y664311D01*
X26988Y662808D01*
X27164Y661923D01*
X20573Y661923D01*
G37*
%LPD*%
%LPC*%
G36*
X20573Y687323D02*
X20573Y687323D01*
X20573Y693914D01*
X21458Y693738D01*
X22961Y693116D01*
X24313Y692213D01*
X25463Y691063D01*
X26366Y689711D01*
X26988Y688208D01*
X27164Y687323D01*
X20573Y687323D01*
G37*
%LPD*%
%LPC*%
G36*
X128523Y103123D02*
X128523Y103123D01*
X128523Y109714D01*
X129408Y109538D01*
X130911Y108916D01*
X132263Y108013D01*
X133413Y106863D01*
X134316Y105511D01*
X134938Y104008D01*
X135114Y103123D01*
X128523Y103123D01*
G37*
%LPD*%
%LPC*%
G36*
X287273Y172973D02*
X287273Y172973D01*
X287273Y179564D01*
X288158Y179388D01*
X289661Y178766D01*
X291013Y177863D01*
X292163Y176713D01*
X293066Y175361D01*
X293688Y173858D01*
X293864Y172973D01*
X287273Y172973D01*
G37*
%LPD*%
%LPC*%
G36*
X20573Y458723D02*
X20573Y458723D01*
X20573Y465314D01*
X21458Y465138D01*
X22961Y464516D01*
X24313Y463613D01*
X25463Y462463D01*
X26366Y461111D01*
X26988Y459608D01*
X27164Y458723D01*
X20573Y458723D01*
G37*
%LPD*%
%LPC*%
G36*
X20573Y484123D02*
X20573Y484123D01*
X20573Y490714D01*
X21458Y490538D01*
X22961Y489916D01*
X24313Y489013D01*
X25463Y487863D01*
X26366Y486511D01*
X26988Y485008D01*
X27164Y484123D01*
X20573Y484123D01*
G37*
%LPD*%
%LPC*%
G36*
X20573Y357123D02*
X20573Y357123D01*
X20573Y363714D01*
X21458Y363538D01*
X22961Y362916D01*
X24313Y362013D01*
X25463Y360863D01*
X26366Y359511D01*
X26988Y358008D01*
X27164Y357123D01*
X20573Y357123D01*
G37*
%LPD*%
%LPC*%
G36*
X118886Y103123D02*
X118886Y103123D01*
X119062Y104008D01*
X119684Y105511D01*
X120587Y106863D01*
X121737Y108013D01*
X123089Y108916D01*
X124592Y109538D01*
X125477Y109714D01*
X125477Y103123D01*
X118886Y103123D01*
G37*
%LPD*%
%LPC*%
G36*
X128523Y100077D02*
X128523Y100077D01*
X135114Y100077D01*
X134938Y99192D01*
X134316Y97689D01*
X133413Y96337D01*
X132263Y95187D01*
X130911Y94284D01*
X129408Y93662D01*
X128523Y93486D01*
X128523Y100077D01*
G37*
%LPD*%
%LPC*%
G36*
X20573Y684277D02*
X20573Y684277D01*
X27164Y684277D01*
X26988Y683392D01*
X26366Y681889D01*
X25463Y680537D01*
X24313Y679387D01*
X22961Y678484D01*
X21458Y677862D01*
X20573Y677686D01*
X20573Y684277D01*
G37*
%LPD*%
%LPC*%
G36*
X10936Y661923D02*
X10936Y661923D01*
X11112Y662808D01*
X11734Y664311D01*
X12637Y665663D01*
X13787Y666813D01*
X15139Y667716D01*
X16642Y668338D01*
X17527Y668514D01*
X17527Y661923D01*
X10936Y661923D01*
G37*
%LPD*%
%LPC*%
G36*
X10936Y357123D02*
X10936Y357123D01*
X11112Y358008D01*
X11734Y359511D01*
X12637Y360863D01*
X13787Y362013D01*
X15139Y362916D01*
X16642Y363538D01*
X17527Y363714D01*
X17527Y357123D01*
X10936Y357123D01*
G37*
%LPD*%
%LPC*%
G36*
X10936Y687323D02*
X10936Y687323D01*
X11112Y688208D01*
X11734Y689711D01*
X12637Y691063D01*
X13787Y692213D01*
X15139Y693116D01*
X16642Y693738D01*
X17527Y693914D01*
X17527Y687323D01*
X10936Y687323D01*
G37*
%LPD*%
%LPC*%
G36*
X20573Y354077D02*
X20573Y354077D01*
X27164Y354077D01*
X26988Y353192D01*
X26366Y351689D01*
X25463Y350337D01*
X24313Y349187D01*
X22961Y348284D01*
X21458Y347662D01*
X20573Y347486D01*
X20573Y354077D01*
G37*
%LPD*%
%LPC*%
G36*
X20573Y481077D02*
X20573Y481077D01*
X27164Y481077D01*
X26988Y480192D01*
X26366Y478689D01*
X25463Y477337D01*
X24313Y476187D01*
X22961Y475284D01*
X21458Y474662D01*
X20573Y474486D01*
X20573Y481077D01*
G37*
%LPD*%
%LPC*%
G36*
X277636Y172973D02*
X277636Y172973D01*
X277812Y173858D01*
X278434Y175361D01*
X279337Y176713D01*
X280487Y177863D01*
X281839Y178766D01*
X283342Y179388D01*
X284227Y179564D01*
X284227Y172973D01*
X277636Y172973D01*
G37*
%LPD*%
%LPC*%
G36*
X287273Y169927D02*
X287273Y169927D01*
X293864Y169927D01*
X293688Y169042D01*
X293066Y167539D01*
X292163Y166187D01*
X291013Y165037D01*
X289661Y164134D01*
X288158Y163512D01*
X287273Y163336D01*
X287273Y169927D01*
G37*
%LPD*%
%LPC*%
G36*
X16642Y677862D02*
X16642Y677862D01*
X15139Y678484D01*
X13787Y679387D01*
X12637Y680537D01*
X11734Y681889D01*
X11112Y683392D01*
X10936Y684277D01*
X17527Y684277D01*
X17527Y677686D01*
X16642Y677862D01*
G37*
%LPD*%
%LPC*%
G36*
X283342Y163512D02*
X283342Y163512D01*
X281839Y164134D01*
X280487Y165037D01*
X279337Y166187D01*
X278434Y167539D01*
X277812Y169042D01*
X277636Y169927D01*
X284227Y169927D01*
X284227Y163336D01*
X283342Y163512D01*
G37*
%LPD*%
%LPC*%
G36*
X124592Y93662D02*
X124592Y93662D01*
X123089Y94284D01*
X121737Y95187D01*
X120587Y96337D01*
X119684Y97689D01*
X119062Y99192D01*
X118886Y100077D01*
X125477Y100077D01*
X125477Y93486D01*
X124592Y93662D01*
G37*
%LPD*%
%LPC*%
G36*
X16642Y347662D02*
X16642Y347662D01*
X15139Y348284D01*
X13787Y349187D01*
X12637Y350337D01*
X11734Y351689D01*
X11112Y353192D01*
X10936Y354077D01*
X17527Y354077D01*
X17527Y347486D01*
X16642Y347662D01*
G37*
%LPD*%
%LPC*%
G36*
X16642Y652462D02*
X16642Y652462D01*
X15139Y653084D01*
X13787Y653987D01*
X12637Y655137D01*
X11734Y656489D01*
X11112Y657992D01*
X10936Y658877D01*
X17527Y658877D01*
X17527Y652286D01*
X16642Y652462D01*
G37*
%LPD*%
%LPC*%
G36*
X19049Y685799D02*
X19049Y685799D01*
X19049Y685801D01*
X19051Y685801D01*
X19051Y685799D01*
X19049Y685799D01*
G37*
%LPD*%
%LPC*%
G36*
X19049Y355599D02*
X19049Y355599D01*
X19049Y355601D01*
X19051Y355601D01*
X19051Y355599D01*
X19049Y355599D01*
G37*
%LPD*%
%LPC*%
G36*
X101599Y209549D02*
X101599Y209549D01*
X101599Y209551D01*
X101601Y209551D01*
X101601Y209549D01*
X101599Y209549D01*
G37*
%LPD*%
%LPC*%
G36*
X101599Y463549D02*
X101599Y463549D01*
X101599Y463551D01*
X101601Y463551D01*
X101601Y463549D01*
X101599Y463549D01*
G37*
%LPD*%
%LPC*%
G36*
X126999Y101599D02*
X126999Y101599D01*
X126999Y101601D01*
X127001Y101601D01*
X127001Y101599D01*
X126999Y101599D01*
G37*
%LPD*%
%LPC*%
G36*
X101599Y501649D02*
X101599Y501649D01*
X101599Y501651D01*
X101601Y501651D01*
X101601Y501649D01*
X101599Y501649D01*
G37*
%LPD*%
%LPC*%
G36*
X285749Y171449D02*
X285749Y171449D01*
X285749Y171451D01*
X285751Y171451D01*
X285751Y171449D01*
X285749Y171449D01*
G37*
%LPD*%
%LPC*%
G36*
X101599Y361949D02*
X101599Y361949D01*
X101599Y361951D01*
X101601Y361951D01*
X101601Y361949D01*
X101599Y361949D01*
G37*
%LPD*%
%LPC*%
G36*
X158749Y25399D02*
X158749Y25399D01*
X158749Y25401D01*
X158751Y25401D01*
X158751Y25399D01*
X158749Y25399D01*
G37*
%LPD*%
%LPC*%
G36*
X19049Y660399D02*
X19049Y660399D01*
X19049Y660401D01*
X19051Y660401D01*
X19051Y660399D01*
X19049Y660399D01*
G37*
%LPD*%
%LPC*%
G36*
X101599Y311149D02*
X101599Y311149D01*
X101599Y311151D01*
X101601Y311151D01*
X101601Y311149D01*
X101599Y311149D01*
G37*
%LPD*%
D10*
X355600Y577850D03*
X355600Y654050D03*
D11*
X101600Y361950D03*
X101600Y463550D03*
D12*
X127000Y361950D03*
X127000Y463550D03*
X152400Y361950D03*
X152400Y463550D03*
X177800Y361950D03*
X177800Y463550D03*
X203200Y361950D03*
X203200Y463550D03*
X228600Y361950D03*
X228600Y463550D03*
X254000Y361950D03*
X254000Y463550D03*
X279400Y361950D03*
X279400Y463550D03*
D11*
X101600Y501650D03*
X101600Y603250D03*
D12*
X127000Y501650D03*
X127000Y603250D03*
X152400Y501650D03*
X152400Y603250D03*
X177800Y501650D03*
X177800Y603250D03*
X203200Y501650D03*
X203200Y603250D03*
X228600Y501650D03*
X228600Y603250D03*
X254000Y501650D03*
X254000Y603250D03*
X279400Y501650D03*
X279400Y603250D03*
D11*
X101600Y209550D03*
X101600Y311150D03*
D12*
X127000Y209550D03*
X127000Y311150D03*
X152400Y209550D03*
X152400Y311150D03*
X177800Y209550D03*
X177800Y311150D03*
X203200Y209550D03*
X203200Y311150D03*
X228600Y209550D03*
X228600Y311150D03*
X254000Y209550D03*
X254000Y311150D03*
X279400Y209550D03*
X279400Y311150D03*
D13*
X313200Y641450D03*
X313200Y616050D03*
X313200Y590650D03*
X313200Y565250D03*
X313200Y539850D03*
X313200Y514450D03*
X313200Y489050D03*
X313200Y463650D03*
X313200Y438250D03*
X313200Y412850D03*
X313200Y387450D03*
X313200Y362050D03*
X313200Y336650D03*
X313200Y311250D03*
X313200Y285850D03*
X62325Y641450D03*
X62325Y616050D03*
X62325Y590650D03*
X62325Y565250D03*
X62325Y539850D03*
X62325Y514450D03*
X62325Y489050D03*
X62325Y463650D03*
X62325Y438250D03*
X62325Y412850D03*
X62325Y387450D03*
X62325Y362050D03*
X62325Y336650D03*
X62325Y311250D03*
X62325Y285850D03*
D14*
X346583Y292100D02*
X364617Y292100D01*
X364617Y317500D02*
X346583Y317500D01*
X346583Y342900D02*
X364617Y342900D01*
D10*
X355600Y374650D03*
X355600Y450850D03*
D15*
X133350Y660400D03*
D16*
X133350Y685800D03*
X158750Y660400D03*
X158750Y685800D03*
X184150Y660400D03*
X184150Y685800D03*
X209550Y660400D03*
X209550Y685800D03*
X234950Y660400D03*
X234950Y685800D03*
D17*
X322263Y698849D02*
X322263Y710851D01*
X306705Y710851D02*
X306705Y698849D01*
X337820Y698849D02*
X337820Y710851D01*
X353378Y710851D02*
X353378Y698849D01*
D10*
X355600Y552450D03*
X355600Y476250D03*
X209550Y171450D03*
X285750Y171450D03*
X158750Y101600D03*
X158750Y177800D03*
X19050Y558800D03*
X19050Y482600D03*
X19050Y381000D03*
X19050Y457200D03*
X19050Y584200D03*
X19050Y660400D03*
X19050Y762000D03*
X19050Y685800D03*
X19050Y279400D03*
X19050Y355600D03*
D18*
X25908Y160338D02*
X25908Y142431D01*
X25908Y35370D02*
X25908Y17463D01*
X75692Y142431D02*
X75692Y160338D01*
X75692Y35370D02*
X75692Y17463D01*
D10*
X127000Y177800D03*
X127000Y101600D03*
D19*
X355600Y109411D02*
X355600Y131890D01*
X285750Y131890D02*
X285750Y109411D01*
X215900Y109411D02*
X215900Y131890D01*
D14*
X133350Y34417D02*
X133350Y16383D01*
X158750Y16383D02*
X158750Y34417D01*
D20*
X348100Y257175D02*
X363100Y257175D01*
X363100Y231775D02*
X348100Y231775D01*
X348100Y206375D02*
X363100Y206375D01*
D21*
X53975Y314325D02*
X28575Y288925D01*
X19050Y279400D01*
X53975Y314325D02*
X60325Y314325D01*
X62325Y311250D01*
X206375Y263525D02*
X254000Y311150D01*
X206375Y263525D02*
X53975Y263525D01*
X28575Y288925D01*
X241300Y590550D02*
X254000Y603250D01*
X241300Y590550D02*
X241300Y574675D01*
X187325Y574675D01*
D22*
X187325Y574675D03*
D21*
X53975Y727075D02*
X19050Y762000D01*
X53975Y727075D02*
X273050Y727075D01*
X279400Y720725D01*
X279400Y603250D01*
X60325Y438150D02*
X50800Y428625D01*
X22225Y428625D01*
X6350Y444500D01*
X6350Y539750D01*
X19050Y539750D01*
X31750Y552450D01*
X31750Y638175D01*
X47625Y654050D01*
X47625Y695325D01*
X60325Y438150D02*
X62325Y438250D01*
D22*
X47625Y695325D03*
D21*
X12700Y422275D02*
X38100Y396875D01*
X266700Y660400D02*
X266700Y698500D01*
X269875Y701675D01*
X269875Y717550D01*
X53975Y717550D01*
X34925Y698500D01*
X34925Y654050D01*
X12700Y631825D01*
X12700Y596900D01*
X6350Y590550D01*
X6350Y565150D01*
X12700Y565150D01*
X19050Y558800D01*
D22*
X12700Y422275D03*
X38100Y396875D03*
X266700Y660400D03*
D21*
X22225Y384175D02*
X19050Y381000D01*
X22225Y384175D02*
X50800Y384175D01*
X53975Y387350D01*
X60325Y387350D01*
X62325Y387450D01*
X82550Y400050D02*
X215900Y400050D01*
X82550Y400050D02*
X73025Y390525D01*
X63500Y390525D01*
X62325Y387450D01*
D22*
X215900Y400050D03*
D21*
X225425Y384175D02*
X203200Y361950D01*
X225425Y384175D02*
X301625Y384175D01*
X304800Y387350D01*
X311150Y387350D01*
X313200Y387450D01*
X206375Y333375D02*
X177800Y361950D01*
X206375Y333375D02*
X288925Y333375D01*
X307975Y314325D01*
X311150Y314325D01*
X313200Y311250D01*
X187325Y327025D02*
X152400Y361950D01*
X187325Y327025D02*
X279400Y327025D01*
X311150Y295275D01*
X311150Y288925D01*
X313200Y285850D01*
X311150Y542925D02*
X266700Y542925D01*
X311150Y542925D02*
X313200Y539850D01*
D22*
X266700Y542925D03*
D21*
X203200Y558800D02*
X203200Y501650D01*
X203200Y558800D02*
X238125Y558800D01*
X279400Y517525D01*
X311150Y517525D01*
X313200Y514450D01*
X177800Y501650D02*
X177800Y476250D01*
X180975Y476250D01*
X190500Y466725D01*
X196850Y434975D02*
X225425Y434975D01*
X250825Y409575D01*
X257175Y409575D01*
X295275Y447675D01*
X295275Y479425D01*
X304800Y479425D01*
X314325Y488950D01*
X313200Y489050D01*
X196850Y434975D02*
X190500Y441325D01*
X190500Y466725D01*
X165100Y488950D02*
X152400Y501650D01*
X165100Y488950D02*
X165100Y434975D01*
X215900Y428625D02*
X241300Y403225D01*
X263525Y403225D01*
X295275Y434975D01*
X301625Y434975D01*
X304800Y438150D01*
X311150Y438150D01*
X313200Y438250D01*
X171450Y428625D02*
X165100Y434975D01*
X171450Y428625D02*
X215900Y428625D01*
X133350Y431800D02*
X117475Y447675D01*
X92075Y447675D01*
X82550Y457200D01*
X82550Y473075D01*
X66675Y488950D02*
X63500Y488950D01*
X62325Y489050D01*
D22*
X133350Y431800D03*
D21*
X82550Y473075D02*
X66675Y488950D01*
D23*
X209550Y628650D02*
X222250Y641350D01*
X222250Y676275D01*
X225425Y676275D01*
X234950Y685800D01*
D22*
X209550Y628650D03*
D23*
X215900Y457200D02*
X254000Y419100D01*
X215900Y457200D02*
X215900Y549275D01*
X228600Y549275D01*
X228600Y587375D02*
X225425Y590550D01*
X222250Y590550D01*
X215900Y596900D01*
X215900Y619125D01*
X231775Y635000D01*
X231775Y660400D01*
X234950Y660400D01*
D22*
X254000Y419100D03*
X228600Y549275D03*
X228600Y587375D03*
D23*
X266700Y568325D02*
X295275Y596900D01*
X295275Y635000D01*
X292100Y635000D01*
D22*
X266700Y568325D03*
X292100Y635000D03*
D23*
X187325Y479425D02*
X203200Y463550D01*
X187325Y479425D02*
X187325Y492125D01*
X190500Y495300D01*
X190500Y546100D01*
X92075Y654050D02*
X123825Y685800D01*
X133350Y685800D01*
D22*
X190500Y546100D03*
X92075Y654050D03*
D23*
X88900Y593725D02*
X117475Y565150D01*
X88900Y593725D02*
X88900Y641350D01*
X95250Y641350D01*
X127000Y673100D01*
X146050Y673100D01*
X158750Y685800D01*
D22*
X117475Y565150D03*
D23*
X136525Y479425D02*
X152400Y463550D01*
X136525Y479425D02*
X136525Y492125D01*
X139700Y495300D01*
X139700Y546100D01*
X136525Y549275D01*
X136525Y593725D01*
X139700Y596900D01*
X139700Y622300D01*
X155575Y638175D01*
X155575Y660400D01*
X158750Y660400D01*
D21*
X276225Y409575D02*
X260350Y393700D01*
X276225Y409575D02*
X301625Y409575D01*
X304800Y412750D01*
X311150Y412750D01*
X313200Y412850D01*
D22*
X260350Y393700D03*
D24*
X127000Y463550D02*
X127000Y482600D01*
X92075Y482600D01*
X82550Y492125D01*
X82550Y536575D01*
X85725Y536575D01*
X104775Y555625D01*
X127000Y311150D02*
X127000Y288925D01*
X111125Y288925D01*
X82550Y371475D02*
X98425Y387350D01*
X82550Y371475D02*
X82550Y292100D01*
X111125Y292100D01*
X111125Y288925D01*
D22*
X104775Y555625D03*
X111125Y288925D03*
X98425Y387350D03*
D21*
X79375Y155575D02*
X76200Y152400D01*
X79375Y155575D02*
X212725Y155575D01*
X241300Y184150D01*
X241300Y263525D01*
X247650Y263525D01*
X76200Y152400D02*
X75692Y151384D01*
D22*
X247650Y263525D03*
D21*
X254000Y701675D02*
X257175Y704850D01*
X254000Y701675D02*
X127000Y701675D01*
X82550Y657225D01*
X82550Y546100D01*
X73025Y546100D01*
X69850Y542925D01*
X63500Y542925D01*
X62325Y539850D01*
D22*
X257175Y704850D03*
D21*
X346075Y587375D02*
X355600Y577850D01*
X346075Y587375D02*
X317500Y587375D01*
X314325Y590550D01*
X313200Y590650D01*
X355600Y476250D02*
X346075Y466725D01*
X314325Y466725D01*
X313200Y463650D01*
X355600Y552450D02*
X371475Y568325D01*
X371475Y638175D01*
X352425Y638175D01*
X304800Y685800D01*
X304800Y704850D01*
X306705Y704850D01*
X180975Y292100D02*
X168275Y279400D01*
X73025Y279400D01*
X66675Y285750D01*
X63500Y285750D01*
X62325Y285850D01*
D22*
X180975Y292100D03*
D21*
X349250Y298450D02*
X355600Y292100D01*
X349250Y298450D02*
X342900Y298450D01*
X330200Y311150D01*
X330200Y330200D01*
X323850Y330200D01*
X317500Y336550D01*
X314325Y336550D01*
X313200Y336650D01*
X349250Y323850D02*
X355600Y317500D01*
X349250Y323850D02*
X342900Y323850D01*
X330200Y336550D01*
X330200Y355600D01*
X323850Y355600D01*
X317500Y361950D01*
X314325Y361950D01*
X313200Y362050D01*
X196850Y184150D02*
X209550Y171450D01*
X196850Y184150D02*
X165100Y184150D01*
X158750Y177800D01*
X6350Y263525D02*
X6350Y285750D01*
X6350Y263525D02*
X41275Y263525D01*
X76200Y228600D01*
X85725Y193675D02*
X142875Y193675D01*
X158750Y177800D01*
X76200Y203200D02*
X76200Y228600D01*
X76200Y203200D02*
X85725Y193675D01*
X62325Y336650D02*
X57250Y336650D01*
X6350Y285750D01*
X60325Y177800D02*
X127000Y177800D01*
X60325Y177800D02*
X34925Y152400D01*
X28575Y152400D01*
X25908Y151384D01*
X41275Y571500D02*
X60325Y590550D01*
X41275Y571500D02*
X41275Y447675D01*
X34925Y441325D02*
X25400Y441325D01*
X60325Y590550D02*
X62325Y590650D01*
D22*
X25400Y441325D03*
D21*
X34925Y441325D02*
X41275Y447675D01*
D24*
X146050Y82550D02*
X165100Y82550D01*
X203200Y120650D01*
X215900Y120650D01*
X146050Y82550D02*
X133350Y69850D01*
X133350Y25400D01*
D21*
X152400Y603250D02*
X209550Y660400D01*
X342900Y269875D02*
X355600Y257175D01*
X342900Y269875D02*
X323850Y269875D01*
D22*
X323850Y269875D03*
D21*
X352425Y234950D02*
X355600Y231775D01*
X352425Y234950D02*
X336550Y234950D01*
X298450Y273050D01*
X231775Y273050D01*
X139700Y415925D02*
X133350Y422275D01*
X107950Y422275D01*
X66675Y463550D01*
X63500Y463550D01*
X62325Y463650D01*
D22*
X231775Y273050D03*
X139700Y415925D03*
D21*
X139700Y346075D02*
X165100Y320675D01*
X139700Y346075D02*
X107950Y346075D01*
D22*
X165100Y320675D03*
X107950Y346075D03*
M02*
