M48
;GenerationSoftware,Autodesk,EAGLE,9.2.0*%
;CreationDate,2021-01-02T17:59:36Z*%
FMAT,2
ICI,OFF
METRIC,TZ,000.000
T10C0.508
T9C0.635
T8C0.800
T7C0.800
T6C0.914
T5C1.000
T4C1.194
T3C1.200
T2C1.499
T1C2.540
%
G90
M71
T1
X3175Y24130
X35560Y74930
X33020Y17145
T2
X35560Y12065
X28575Y12065
X21590Y12065
T3
X35560Y31750
X35560Y29210
X35560Y34290
X13335Y2540
X15875Y2540
T4
X7569Y2642
X2591Y15138
X2591Y2642
X7569Y15138
T5
X6232Y51445
X6232Y53985
X6232Y59065
X6232Y61605
X6232Y64145
X31320Y28585
X31320Y31125
X31320Y33665
X31320Y36205
X31320Y38745
X31320Y41285
X31320Y46365
X31320Y48905
X31320Y51445
X31320Y53985
X31320Y56525
X31320Y43825
X31320Y59065
X31320Y61605
X6232Y56525
X31320Y64145
X35560Y20638
X6232Y28585
X6232Y31125
X6232Y33665
X6232Y36205
X35560Y23177
X6232Y38745
X6232Y41285
X6232Y43825
X6232Y46365
X6232Y48905
X35560Y25717
T6
X13335Y68580
X15875Y66040
X15875Y68580
X18415Y66040
X18415Y68580
X20955Y66040
X20955Y68580
X23495Y66040
X23495Y68580
X13335Y66040
T7
X30670Y70485
X33782Y70485
X35338Y70485
X32226Y70485
T8
X22860Y60325
X25400Y50165
X25400Y60325
X27940Y50165
X27940Y60325
X10160Y20955
X10160Y31115
X12700Y20955
X12700Y31115
X15240Y20955
X15240Y31115
X17780Y20955
X17780Y31115
X20320Y20955
X20320Y31115
X22860Y20955
X22860Y31115
X25400Y20955
X25400Y31115
X22860Y50165
X27940Y31115
X27940Y20955
X15240Y46355
X10160Y36195
X10160Y46355
X12700Y36195
X12700Y46355
X15240Y36195
X17780Y36195
X17780Y46355
X20320Y36195
X20320Y46355
X22860Y36195
X22860Y46355
X25400Y36195
X25400Y46355
X27940Y36195
X27940Y46355
X10160Y50165
X10160Y60325
X12700Y50165
X12700Y60325
X15240Y50165
X15240Y60325
X17780Y50165
X17780Y60325
X20320Y50165
X20320Y60325
T9
X35560Y37465
X15875Y10160
X28575Y17145
X35560Y55245
X35560Y47625
X35560Y65405
X1905Y58420
X35560Y45085
X35560Y57785
X20955Y17145
X15875Y17780
X1905Y55880
X1905Y48260
X1905Y38100
X1905Y66040
X1905Y76200
X1905Y68580
X1905Y27940
X1905Y35560
X1905Y45720
X12700Y17780
X12700Y10160
T10
X24765Y26352
X11112Y28892
X10478Y55562
X11747Y56515
X21590Y40005
X26670Y66040
X3810Y39688
X1270Y42228
X4763Y69533
X18733Y57467
X26035Y39370
X10795Y34608
X16510Y32067
X13970Y41593
X23177Y27305
X32385Y26987
X9208Y65405
X2540Y44132
X9843Y38735
X29210Y63500
X18098Y29210
X25717Y70485
X26670Y56832
X19050Y54610
X22860Y54927
X25400Y41910
X20955Y62865
X13335Y43180
X26670Y54292
X22860Y58737
M30